<svg width="226" height="314" viewBox="0 0 226 314" fill="none" xmlns="http://www.w3.org/2000/svg">
<path d="M213.951 0.814209H11.9825C6.11174 0.814209 1.3526 5.57335 1.3526 11.4441V301.995C1.3526 307.866 6.11174 312.625 11.9825 312.625H213.951C219.822 312.625 224.581 307.866 224.581 301.995V11.4441C224.581 5.57335 219.822 0.814209 213.951 0.814209Z" fill="white" stroke="black" stroke-width="0.996733"/>
<path d="M9.8017 40.0278L12.3489 38.1878C14.5628 41.7216 17.0341 44.0509 20.8141 43.6502C26.4877 43.2686 28.837 37.4301 27.6494 33.0273C26.5026 29.0824 21.8037 27.1579 18.0711 29.2645C17.1909 29.7613 16.1728 30.3747 16.1728 30.3747L14.844 28.2088L23.6077 18.0139H14.0973V22.2335H10.4479V14.6686H29.0372V17.2362C29.0372 17.2362 24.0581 22.3051 22.41 25.0836C26.465 25.2311 29.7328 27.7524 30.9023 31.7419C31.5886 33.8403 31.2801 38.6429 30.3855 40.7099C28.8918 44.1611 24.8015 46.9597 21.0639 47.1214C14.7933 47.5356 11.4621 43.2194 9.8017 40.0278Z" fill="black"/>
<path d="M216.132 273.412L213.585 275.252C211.371 271.718 208.899 269.389 205.119 269.789C199.446 270.171 197.096 276.01 198.284 280.412C199.431 284.357 204.13 286.282 207.863 284.175C208.743 283.678 209.761 283.159 209.761 283.159L211.334 285.193L202.326 295.426H211.836V291.206H215.486V298.771H196.896V296.203C196.896 296.203 201.875 291.135 203.524 288.356C199.469 288.209 196.201 285.687 195.031 281.698C194.345 279.599 194.653 274.797 195.548 272.73C197.042 269.279 201.132 266.48 204.87 266.318C211.14 265.904 214.471 270.22 216.132 273.412Z" fill="black"/>
<path d="M105.616 185.29C108.495 179.515 110.592 173.589 110.964 167.253C111.306 164.921 109.889 164.882 109.676 166.524C105.599 182.117 83.9131 177.895 84.6587 163.228C85.2637 151.333 97.0782 148.774 103.241 152.663C105.675 154.096 105.537 153.238 104.209 151.752C95.0541 141.54 100.599 128.39 112.97 128.149C126.35 128.943 129.821 143.019 121.614 151.297C120.594 152.292 118.331 155.489 121.737 153.254C130.024 147.366 141.525 153.697 141.29 162.775C140.857 179.513 120.451 180.762 116.087 166.78C115.667 165.23 114.458 164.452 114.792 167.085C115.397 171.851 116.648 179.038 120.229 185.29H105.616Z" fill="black"/>
<path d="M105.552 86.8686C108.431 81.093 110.528 75.1676 110.9 68.8313C111.242 66.4996 109.826 66.4605 109.612 68.1027C105.536 83.6955 83.8497 79.4731 84.5953 64.8062C85.2003 52.9114 97.0147 50.3524 103.178 54.2416C105.611 55.6744 105.474 54.8162 104.145 53.3299C94.9906 43.1184 100.535 29.9681 112.907 29.7274C126.286 30.5208 129.758 44.5973 121.551 52.8758C120.53 53.8704 118.267 57.0671 121.674 54.8321C129.961 48.9441 141.461 55.2749 141.226 64.3528C140.794 81.0917 120.387 82.3401 116.023 68.3586C115.604 66.8084 114.394 66.0299 114.728 68.6628C115.333 73.4295 116.585 80.6163 120.166 86.8686H105.552Z" fill="black"/>
<path d="M120.254 226.83C117.375 232.606 115.278 238.531 114.906 244.868C114.565 247.199 115.981 247.239 116.194 245.596C120.271 230.004 141.957 234.226 141.211 248.893C140.606 260.788 128.792 263.347 122.629 259.457C120.195 258.025 120.333 258.883 121.661 260.369C130.816 270.581 125.271 283.731 112.9 283.972C99.5205 283.178 96.0488 269.102 104.256 260.823C105.276 259.829 107.539 256.632 104.133 258.867C95.8461 264.755 84.3455 258.424 84.5801 249.346C85.0128 232.607 105.419 231.359 109.783 245.34C110.203 246.891 111.412 247.669 111.078 245.036C110.473 240.27 109.222 233.083 105.641 226.83H120.254Z" fill="black"/>
<path d="M15.7231 75.9059C16.9152 73.4608 18.0754 71.1852 18.7075 68.5051C19.1267 65.9775 18.2692 66.9166 17.7823 68.5733C17.0611 70.8707 15.0596 71.917 13.2022 71.9422C9.83111 71.9877 8.14953 69.3379 8.25433 66.4883C7.88623 63.4897 10.9253 61.3681 13.216 61.5315C14.9383 61.6544 16.44 62.5836 17.3489 63.3066C17.9452 63.6219 18.5829 63.7613 17.6938 62.9482C16.0162 61.1152 14.6173 59.984 14.6479 57.2373C14.6769 54.6586 16.8814 51.9692 19.8033 52.0536C23.4548 52.159 25.1152 54.9437 25.1065 57.5341C25.0965 59.4224 24.1529 61.1604 22.6951 62.2368C21.7509 63.0029 22.0157 63.5766 23.0928 62.8516C24.1277 61.9596 25.3599 61.569 26.6376 61.5416C30.1281 61.4869 31.4927 64.5031 31.2928 67.3058C31.1054 69.9315 28.87 72.6342 25.9238 72.3281C23.2931 72.0266 21.9107 69.8182 21.1186 67.5513C20.8563 66.8562 20.4427 66.6684 20.4542 67.7043C21.0619 72.7618 22.9457 75.9088 22.9594 75.9059L15.7231 75.9059Z" fill="black"/>
<path d="M210.799 238.263C209.607 240.709 208.447 242.984 207.815 245.664C207.396 248.192 208.253 247.253 208.74 245.596C209.461 243.299 211.463 242.252 213.32 242.227C216.691 242.182 218.373 244.831 218.268 247.681C218.636 250.68 215.597 252.801 213.306 252.638C211.584 252.515 210.082 251.586 209.173 250.863C208.577 250.547 207.939 250.408 208.829 251.221C210.506 253.054 211.905 254.185 211.875 256.932C211.846 259.511 209.641 262.2 206.719 262.116C203.068 262.01 201.407 259.226 201.416 256.635C201.426 254.747 202.369 253.009 203.827 251.933C204.771 251.167 204.507 250.593 203.429 251.318C202.395 252.21 201.162 252.6 199.885 252.628C196.394 252.682 195.03 249.666 195.23 246.864C195.417 244.238 197.652 241.535 200.599 241.841C203.229 242.143 204.612 244.351 205.404 246.618C205.666 247.313 206.08 247.501 206.068 246.465C205.461 241.408 203.577 238.261 203.563 238.263L210.799 238.263Z" fill="black"/>
</svg>
