<svg width="225" height="314" viewBox="0 0 225 314" fill="none" xmlns="http://www.w3.org/2000/svg">
<path d="M213.599 1H11.6299C5.75914 1 1 5.75914 1 11.6299V302.181C1 308.052 5.75914 312.811 11.6299 312.811H213.599C219.469 312.811 224.229 308.052 224.229 302.181V11.6299C224.229 5.75914 219.469 1 213.599 1Z" fill="white" stroke="black" stroke-width="0.996733"/>
<path d="M8.23517 47.0659V44.3288H10.8963L16.5605 15.0574H19.7833L26.0261 44.3288H28.174V47.0659H20.8561V44.3288H22.8329L22.0453 39.843H14.6597L14.0895 44.3288H16.0663V47.0659H8.23517ZM21.4133 36.6498L18.2048 20.9795L15.198 36.6498H21.4133Z" fill="black"/>
<path d="M216.993 266.745V269.482H214.332L208.668 298.754H205.445L199.202 269.482H197.054V266.745H204.372V269.482H202.395L203.183 273.968H210.569L211.139 269.482H209.162V266.745H216.993ZM203.815 277.161L207.024 292.832L210.03 277.161H203.815Z" fill="black"/>
<path d="M105.263 185.476C108.142 179.701 110.239 173.775 110.611 167.439C110.953 165.107 109.537 165.068 109.323 166.71C105.247 182.303 83.5606 178.081 84.3062 163.414C84.9112 151.519 96.7257 148.96 102.888 152.849C105.322 154.282 105.185 153.424 103.856 151.937C94.7016 141.726 100.246 128.576 112.618 128.335C125.997 129.128 129.469 143.205 121.262 151.483C120.241 152.478 117.978 155.675 121.385 153.44C129.672 147.552 141.172 153.882 140.938 162.96C140.505 179.699 120.098 180.948 115.734 166.966C115.314 165.416 114.105 164.637 114.439 167.27C115.044 172.037 116.296 179.224 119.877 185.476H105.263Z" fill="black"/>
<path d="M13.9092 76.1816C15.1013 73.7365 16.2613 71.4608 16.8934 68.7807C17.3126 66.2531 16.4552 67.1922 15.9683 68.8489C15.2471 71.1463 13.2456 72.1926 11.3882 72.2178C8.01714 72.2633 6.33557 69.6135 6.44037 66.7639C6.07227 63.7653 9.11134 61.6437 11.402 61.8071C13.1243 61.93 14.6261 62.8592 15.535 63.5823C16.1313 63.8976 16.769 64.0369 15.8799 63.2238C14.2023 61.3908 12.8033 60.2596 12.8339 57.513C12.8629 54.9343 15.0674 52.2448 17.9893 52.3292C21.6408 52.4347 23.3012 55.2193 23.2925 57.8097C23.2825 59.6981 22.339 61.436 20.8812 62.5124C19.937 63.2785 20.2018 63.8522 21.2789 63.1272C22.3138 62.2352 23.546 61.8447 24.8237 61.8173C28.3141 61.7626 29.6786 64.7787 29.4787 67.5814C29.2913 70.2071 27.0559 72.9098 24.1097 72.6037C21.479 72.3022 20.0967 70.0938 19.3046 67.8269C19.0423 67.1318 18.6286 66.9441 18.6401 67.98C19.2478 73.0374 21.1317 76.1844 21.1454 76.1815L13.9092 76.1816Z" fill="black"/>
<path d="M210.378 238.014C209.186 240.459 208.026 242.735 207.394 245.415C206.975 247.943 207.832 247.004 208.319 245.347C209.04 243.05 211.042 242.003 212.899 241.978C216.27 241.933 217.952 244.582 217.847 247.432C218.215 250.431 215.176 252.552 212.885 252.389C211.163 252.266 209.661 251.337 208.752 250.614C208.156 250.298 207.519 250.159 208.408 250.972C210.085 252.805 211.484 253.936 211.454 256.683C211.425 259.262 209.22 261.951 206.298 261.867C202.647 261.761 200.986 258.977 200.995 256.386C201.005 254.498 201.948 252.76 203.406 251.684C204.35 250.918 204.086 250.344 203.009 251.069C201.974 251.961 200.741 252.351 199.464 252.379C195.973 252.433 194.609 249.417 194.809 246.615C194.996 243.989 197.231 241.286 200.178 241.592C202.808 241.894 204.191 244.102 204.983 246.369C205.245 247.064 205.659 247.252 205.647 246.216C205.04 241.159 203.156 238.012 203.142 238.014L210.378 238.014Z" fill="black"/>
</svg>
