<svg width="225" height="314" viewBox="0 0 225 314" fill="none" xmlns="http://www.w3.org/2000/svg">
<path d="M213.408 0.814331H11.4396C5.56883 0.814331 0.809692 5.57347 0.809692 11.4442V301.995C0.809692 307.866 5.56883 312.625 11.4396 312.625H213.408C219.279 312.625 224.038 307.866 224.038 301.995V11.4442C224.038 5.57347 219.279 0.814331 213.408 0.814331Z" fill="white" stroke="black" stroke-width="0.996733"/>
<path d="M19.2216 47.1882V44.3751H21.8067V39.739H8.88159V36.468L22.8667 15.3698L25.152 15.3775V36.468H29.1055V39.739H25.152L25.076 44.3751H27.2428V47.1882H19.2216ZM21.8067 23.0912L12.9275 36.468H21.8067V23.0912Z" fill="black"/>
<path d="M206.779 266.252V269.065H204.194V273.701H217.119V276.972L203.134 298.07L200.848 298.062V276.972H196.895V273.701H200.848L200.925 269.065H198.758V266.252H206.779ZM204.194 290.349L213.073 276.972H204.194V290.349Z" fill="black"/>
<path d="M154.615 84.196C157.494 78.4204 159.591 72.495 159.963 66.1587C160.304 63.827 158.888 63.7879 158.675 65.4301C154.598 81.0228 132.912 76.8005 133.658 62.1335C134.263 50.2388 146.077 47.6798 152.24 51.569C154.674 53.0018 154.536 52.1436 153.208 50.6573C144.053 40.4458 149.598 27.2955 161.969 27.0548C175.349 27.8482 178.82 41.9247 170.613 50.2032C169.593 51.1978 167.33 54.3945 170.736 52.1595C179.023 46.2715 190.524 52.6023 190.289 61.6802C189.856 78.4191 169.45 79.6675 165.086 65.686C164.666 64.1358 163.457 63.3573 163.791 65.9902C164.396 70.7569 165.647 77.9437 169.228 84.196H154.615Z" fill="black"/>
<path d="M55.082 84.196C57.961 78.4204 60.058 72.495 60.4302 66.1587C60.7718 63.827 59.3554 63.7879 59.1419 65.4301C55.0655 81.0228 33.3793 76.8005 34.1249 62.1335C34.7299 50.2388 46.5445 47.6798 52.7073 51.569C55.1409 53.0018 55.0033 52.1436 53.6751 50.6573C44.5203 40.4458 50.065 27.2955 62.4363 27.0548C75.8159 27.8482 79.2875 41.9247 71.0805 50.2032C70.0599 51.1978 67.797 54.3945 71.2035 52.1595C79.4903 46.2715 90.9908 52.6023 90.7562 61.6802C90.3235 78.4191 69.9171 79.6675 65.553 65.686C65.1332 64.1358 63.9239 63.3573 64.258 65.9902C64.8629 70.7569 66.1145 77.9437 69.6954 84.196H55.082Z" fill="black"/>
<path d="M169.317 225.902C166.438 231.677 164.341 237.603 163.969 243.939C163.627 246.271 165.043 246.31 165.257 244.668C169.333 229.075 191.02 233.297 190.274 247.964C189.669 259.859 177.854 262.418 171.692 258.529C169.258 257.096 169.396 257.954 170.724 259.441C179.879 269.652 174.334 282.802 161.963 283.043C148.583 282.25 145.111 268.173 153.318 259.895C154.339 258.9 156.602 255.703 153.195 257.938C144.909 263.826 133.408 257.496 133.643 248.418C134.075 231.679 154.482 230.43 158.846 244.412C159.266 245.962 160.475 246.74 160.141 244.108C159.536 239.341 158.284 232.154 154.703 225.902H169.317Z" fill="black"/>
<path d="M69.784 225.902C66.9051 231.677 64.8081 237.603 64.4359 243.939C64.0943 246.271 65.5105 246.31 65.724 244.668C69.8004 229.075 91.4867 233.297 90.7411 247.964C90.1361 259.859 78.3216 262.418 72.1588 258.529C69.7252 257.096 69.8627 257.954 71.1909 259.441C80.3457 269.652 74.801 282.802 62.4297 283.043C49.0501 282.25 45.5785 268.173 53.7855 259.895C54.8061 258.9 57.069 255.703 53.6625 257.938C45.3757 263.826 33.8753 257.496 34.1099 248.418C34.5426 231.679 54.9489 230.43 59.313 244.412C59.7328 245.962 60.9421 246.74 60.608 244.108C60.0031 239.341 58.7515 232.154 55.1706 225.902H69.784Z" fill="black"/>
<path d="M14.7699 76.2365C15.962 73.7914 17.1222 71.5157 17.7543 68.8356C18.1735 66.308 17.3159 67.2471 16.829 68.9038C16.1078 71.2012 14.1064 72.2476 12.249 72.2727C8.87792 72.3182 7.19635 69.6685 7.30115 66.8188C6.93305 63.8202 9.97212 61.6986 12.2628 61.8621C13.9851 61.985 15.4869 62.9141 16.3958 63.6372C16.9921 63.9525 17.6297 64.0918 16.7406 63.2787C15.063 61.4458 13.664 60.3146 13.6946 57.5679C13.7236 54.9892 15.9281 52.2998 18.85 52.3841C22.5015 52.4896 24.162 55.2742 24.1533 57.8647C24.1433 59.753 23.1997 61.491 21.7419 62.5673C20.7977 63.3334 21.0625 63.9071 22.1396 63.1821C23.1745 62.2901 24.4067 61.8996 25.6844 61.8722C29.1749 61.8175 30.5394 64.8337 30.3395 67.6364C30.1521 70.2621 27.9168 72.9648 24.9706 72.6587C22.3399 72.3572 20.9575 70.1488 20.1654 67.8818C19.9031 67.1867 19.4895 66.999 19.501 68.0349C20.1087 73.0923 21.9925 76.2393 22.0062 76.2364L14.7699 76.2365Z" fill="black"/>
<path d="M210.078 237.495C208.886 239.94 207.726 242.215 207.093 244.895C206.674 247.423 207.532 246.484 208.019 244.827C208.74 242.53 210.741 241.483 212.599 241.458C215.97 241.413 217.651 244.063 217.547 246.912C217.915 249.911 214.876 252.032 212.585 251.869C210.863 251.746 209.361 250.817 208.452 250.094C207.856 249.779 207.218 249.639 208.107 250.452C209.785 252.285 211.184 253.417 211.153 256.163C211.124 258.742 208.92 261.431 205.998 261.347C202.346 261.242 200.686 258.457 200.694 255.866C200.704 253.978 201.648 252.24 203.106 251.164C204.05 250.398 203.785 249.824 202.708 250.549C201.673 251.441 200.441 251.831 199.163 251.859C195.673 251.914 194.308 248.897 194.508 246.095C194.696 243.469 196.931 240.766 199.877 241.072C202.508 241.374 203.89 243.582 204.682 245.849C204.945 246.544 205.358 246.732 205.347 245.696C204.739 240.639 202.855 237.492 202.842 237.495H210.078Z" fill="black"/>
</svg>
