<svg width="225" height="314" viewBox="0 0 225 314" fill="none" xmlns="http://www.w3.org/2000/svg">
<path d="M213.17 0.814331H11.2008C5.33006 0.814331 0.570923 5.57347 0.570923 11.4442V301.995C0.570923 307.866 5.33006 312.625 11.2008 312.625H213.17C219.04 312.625 223.799 307.866 223.799 301.995V11.4442C223.799 5.57347 219.04 0.814331 213.17 0.814331Z" fill="white" stroke="black" stroke-width="0.996733"/>
<path d="M8.74475 47.4512L8.90958 45.4324C9.41901 39.1935 10.784 37.0861 18.5315 30.5772C22.2912 27.4186 23.5255 25.8598 23.6993 24.051C24.1902 19.7911 20.3481 18.4602 17.8443 18.4371C14.6022 18.4073 10.9347 20.3487 12.6833 24.8511L9.04673 25.9189C8.31241 21.7187 9.06362 17.7769 12.4721 16.0265C17.0184 13.7468 22.8522 14.6413 25.7955 18.2333C27.7737 20.6474 28.2234 23.9794 27.1633 26.5889C24.0627 33.2605 13.5422 36.1954 12.6726 43.9084H24.3038V39.6133H27.7295V47.5203L8.74475 47.4512Z" fill="black"/>
<path d="M215.353 265.988L215.188 268.007C214.679 274.246 213.314 276.353 205.566 282.862C201.807 286.021 200.572 287.58 200.399 289.389C199.908 293.648 203.75 294.979 206.253 295.002C209.496 295.032 213.163 293.091 211.415 288.588L215.051 287.521C215.785 291.721 215.034 295.663 211.626 297.413C207.079 299.693 201.246 298.798 198.302 295.206C196.324 292.792 195.874 289.46 196.934 286.851C200.035 280.179 210.556 277.244 211.425 269.531H199.794V273.826H196.368V265.919L215.353 265.988Z" fill="black"/>
<path d="M104.799 86.0972C107.678 80.3217 109.775 74.3962 110.147 68.0599C110.489 65.7282 109.072 65.6891 108.859 67.3313C104.782 82.9241 83.0961 78.7017 83.8417 64.0348C84.4467 52.14 96.2612 49.581 102.424 53.4703C104.858 54.9031 104.72 54.0449 103.392 52.5585C94.2371 42.3471 99.7818 29.1968 112.153 28.9561C125.533 29.7495 129.004 43.826 120.797 52.1044C119.777 53.0991 117.514 56.2958 120.92 54.0607C129.207 48.1727 140.708 54.5036 140.473 63.5815C140.04 80.3203 119.634 81.5687 115.27 67.5872C114.85 66.037 113.641 65.2586 113.975 67.8915C114.58 72.6581 115.831 79.8449 119.412 86.0972H104.799Z" fill="black"/>
<path d="M119.501 227.764C116.622 233.54 114.525 239.465 114.153 245.801C113.811 248.133 115.227 248.172 115.441 246.53C119.517 230.937 141.203 235.16 140.458 249.826C139.853 261.721 128.038 264.28 121.876 260.391C119.442 258.958 119.58 259.816 120.908 261.303C130.063 271.514 124.518 284.664 112.147 284.905C98.7669 284.112 95.2953 270.035 103.502 261.757C104.523 260.762 106.786 257.566 103.379 259.801C95.0925 265.689 83.592 259.358 83.8266 250.28C84.2593 233.541 104.666 232.293 109.03 246.274C109.45 247.824 110.659 248.603 110.325 245.97C109.72 241.203 108.468 234.016 104.887 227.764H119.501Z" fill="black"/>
<path d="M14.2785 75.473C15.4706 73.0279 16.6307 70.7522 17.2628 68.0721C17.682 65.5445 16.8245 66.4836 16.3376 68.1403C15.6164 70.4377 13.615 71.484 11.7576 71.5092C8.3865 71.5547 6.70489 68.9049 6.80969 66.0553C6.44159 63.0567 9.48069 60.9351 11.7714 61.0986C13.4937 61.2215 14.9954 62.1506 15.9043 62.8737C16.5006 63.189 17.1383 63.3283 16.2492 62.5152C14.5716 60.6822 13.1726 59.551 13.2032 56.8044C13.2322 54.2257 15.4367 51.5362 18.3586 51.6206C22.0101 51.726 23.6706 54.5107 23.6619 57.1011C23.6519 58.9895 22.7083 60.7274 21.2505 61.8038C20.3063 62.5699 20.5711 63.1436 21.6482 62.4186C22.6831 61.5266 23.9153 61.1361 25.193 61.1087C28.6835 61.054 30.048 64.0701 29.8481 66.8728C29.6607 69.4986 27.4253 72.2012 24.4791 71.8952C21.8484 71.5937 20.4661 69.3853 19.674 67.1183C19.4117 66.4232 18.998 66.2355 19.0095 67.2714C19.6172 72.3288 21.5011 75.4758 21.5148 75.4729L14.2785 75.473Z" fill="black"/>
<path d="M210.092 237.89C208.9 240.335 207.739 242.611 207.107 245.291C206.688 247.819 207.546 246.88 208.033 245.223C208.754 242.926 210.755 241.879 212.613 241.854C215.984 241.809 217.665 244.458 217.56 247.308C217.929 250.307 214.889 252.428 212.599 252.265C210.876 252.142 209.375 251.213 208.466 250.49C207.87 250.174 207.232 250.035 208.121 250.848C209.799 252.681 211.198 253.812 211.167 256.559C211.138 259.138 208.933 261.827 206.012 261.743C202.36 261.637 200.7 258.853 200.708 256.262C200.718 254.374 201.662 252.636 203.12 251.559C204.064 250.793 203.799 250.22 202.722 250.945C201.687 251.837 200.455 252.227 199.177 252.255C195.687 252.309 194.322 249.293 194.522 246.49C194.709 243.865 196.945 241.162 199.891 241.468C202.522 241.77 203.904 243.978 204.696 246.245C204.958 246.94 205.372 247.128 205.361 246.092C204.753 241.034 202.869 237.887 202.855 237.89L210.092 237.89Z" fill="black"/>
</svg>
