<svg width="225" height="314" viewBox="0 0 225 314" fill="none" xmlns="http://www.w3.org/2000/svg">
<path d="M11.6572 312.625H213.625C219.496 312.625 224.255 307.866 224.255 301.995V11.4442C224.255 5.57346 219.496 0.814331 213.625 0.814331H11.6572C5.78648 0.814331 1.02686 5.57346 1.02686 11.4442V301.995C1.02686 307.866 5.78648 312.625 11.6572 312.625Z" fill="white" stroke="black" stroke-width="0.996733"/>
<path d="M216.626 267.281V298.788H213.516V267.281H216.626Z" fill="black"/>
<path d="M204.297 298.788C207.291 298.788 209.698 296.101 209.698 292.765V273.304C209.698 269.968 207.291 267.281 204.297 267.281H202.552C199.558 267.281 197.146 269.968 197.146 273.304V292.765C197.146 296.101 199.558 298.788 202.552 298.788H204.297ZM203.396 295.81C201.628 295.81 200.205 294.473 200.205 292.808V273.086C200.205 271.421 201.628 270.079 203.396 270.079C205.165 270.079 206.588 271.421 206.588 273.086V292.808C206.588 294.473 205.165 295.81 203.396 295.81Z" fill="black"/>
<path d="M8.65479 46.1588V14.6521H11.7656V46.1588H8.65479Z" fill="black"/>
<path d="M20.9843 14.6521C17.9901 14.6521 15.583 17.3387 15.583 20.6746V40.1363C15.583 43.4722 17.9901 46.1588 20.9843 46.1588H22.7294C25.7236 46.1588 28.1354 43.4722 28.1354 40.1363V20.6746C28.1354 17.3387 25.7236 14.6521 22.7294 14.6521H20.9843ZM21.8853 17.6302C23.6538 17.6302 25.0767 18.9671 25.0767 20.6319V40.3544C25.0767 42.0192 23.6538 43.3609 21.8853 43.3609C20.1168 43.3609 18.6938 42.0192 18.6938 40.3544V20.6319C18.6938 18.9671 20.1168 17.6302 21.8853 17.6302Z" fill="black"/>
<path d="M156.285 151.785C159.164 146.01 161.261 140.084 161.633 133.748C161.975 131.416 160.558 131.377 160.345 133.019C156.269 148.612 134.582 144.39 135.328 129.723C135.933 117.828 147.747 115.269 153.91 119.158C156.344 120.591 156.206 119.733 154.878 118.246C145.723 108.035 151.268 94.8847 163.639 94.644C177.019 95.4375 180.49 109.514 172.283 117.792C171.263 118.787 169 121.984 172.406 119.749C180.693 113.861 192.194 120.192 191.959 129.269C191.527 146.008 171.12 147.257 166.756 133.275C166.336 131.725 165.127 130.947 165.461 133.579C166.066 138.346 167.317 145.533 170.898 151.785H156.285Z" fill="black"/>
<path d="M52.7521 151.785C55.6311 146.01 57.7279 140.084 58.1001 133.748C58.4417 131.416 57.0255 131.377 56.812 133.019C52.7356 148.612 31.0493 144.39 31.7949 129.723C32.3999 117.828 44.2144 115.269 50.3772 119.158C52.8108 120.591 52.6733 119.733 51.3451 118.246C42.1903 108.035 47.735 94.8847 60.1063 94.644C73.4859 95.4375 76.9575 109.514 68.7505 117.792C67.7299 118.787 65.467 121.984 68.8735 119.749C77.1603 113.861 88.6608 120.192 88.4262 129.269C87.9935 146.008 67.5871 147.257 63.223 133.275C62.8032 131.725 61.594 130.947 61.9281 133.579C62.533 138.346 63.7846 145.533 67.3655 151.785H52.7521Z" fill="black"/>
<path d="M104.468 119.12C107.347 113.344 109.444 107.419 109.816 101.083C110.157 98.7509 108.741 98.7118 108.528 100.354C104.451 115.947 82.7649 111.724 83.5105 97.0575C84.1155 85.1627 95.9301 82.6037 102.093 86.493C104.526 87.9258 104.389 87.0676 103.061 85.5812C93.906 75.3698 99.4506 62.2195 111.822 61.9788C125.201 62.7722 128.673 76.8487 120.466 85.1271C119.446 86.1217 117.183 89.3184 120.589 87.0834C128.876 81.1954 140.376 87.5262 140.142 96.6041C139.709 113.343 119.303 114.591 114.939 100.61C114.519 99.0597 113.31 98.2813 113.644 100.914C114.249 105.681 115.5 112.868 119.081 119.12H104.468Z" fill="black"/>
<path d="M156.285 86.4546C159.164 80.6791 161.261 74.7536 161.633 68.4173C161.975 66.0856 160.558 66.0465 160.345 67.6887C156.269 83.2815 134.582 79.0591 135.328 64.3922C135.933 52.4974 147.747 49.9384 153.91 53.8277C156.344 55.2605 156.206 54.4023 154.878 52.9159C145.723 42.7045 151.268 29.5542 163.639 29.3135C177.019 30.1069 180.49 44.1834 172.283 52.4618C171.263 53.4564 169 56.6531 172.406 54.4181C180.693 48.5301 192.194 54.8609 191.959 63.9388C191.527 80.6777 171.12 81.9261 166.756 67.9446C166.336 66.3944 165.127 65.616 165.461 68.2489C166.066 73.0155 167.317 80.2023 170.898 86.4546H156.285Z" fill="black"/>
<path d="M52.7521 86.4546C55.6311 80.6791 57.7279 74.7536 58.1001 68.4173C58.4417 66.0856 57.0255 66.0465 56.812 67.6887C52.7356 83.2815 31.0493 79.0591 31.7949 64.3922C32.3999 52.4974 44.2144 49.9384 50.3772 53.8277C52.8108 55.2605 52.6733 54.4023 51.3451 52.9159C42.1903 42.7045 47.735 29.5542 60.1063 29.3135C73.4859 30.1069 76.9575 44.1834 68.7505 52.4618C67.7299 53.4564 65.467 56.6531 68.8735 54.4181C77.1603 48.5301 88.6608 54.8609 88.4262 63.9388C87.9935 80.6777 67.5871 81.9261 63.223 67.9446C62.8032 66.3944 61.594 65.616 61.9281 68.2489C62.533 73.0155 63.7846 80.2023 67.3655 86.4546H52.7521Z" fill="black"/>
<path d="M67.4542 161.654C64.5752 167.43 62.4783 173.355 62.1061 179.692C61.7645 182.023 63.1807 182.062 63.3942 180.42C67.4706 164.827 89.1568 169.05 88.4112 183.717C87.8062 195.612 75.9918 198.17 69.829 194.281C67.3954 192.848 67.5329 193.707 68.8611 195.193C78.0159 205.404 72.4711 218.555 60.0998 218.795C46.7202 218.002 43.2487 203.925 51.4557 195.647C52.4763 194.652 54.7391 191.456 51.3326 193.691C43.0458 199.579 31.5453 193.248 31.7799 184.17C32.2126 167.431 52.619 166.183 56.9831 180.164C57.4029 181.715 58.6123 182.493 58.2782 179.86C57.6733 175.093 56.4217 167.907 52.8408 161.654H67.4542Z" fill="black"/>
<path d="M67.4542 226.985C64.5752 232.76 62.4783 238.686 62.1061 245.022C61.7645 247.354 63.1807 247.393 63.3942 245.751C67.4706 230.158 89.1568 234.38 88.4112 249.047C87.8062 260.942 75.9918 263.501 69.829 259.612C67.3954 258.179 67.5329 259.037 68.8611 260.524C78.0159 270.735 72.4711 283.885 60.0998 284.126C46.7202 283.333 43.2487 269.256 51.4557 260.978C52.4763 259.983 54.7391 256.786 51.3326 259.021C43.0458 264.909 31.5453 258.579 31.7799 249.501C32.2126 232.762 52.619 231.513 56.9831 245.495C57.4029 247.045 58.6123 247.824 58.2782 245.191C57.6733 240.424 56.4217 233.237 52.8408 226.985H67.4542Z" fill="black"/>
<path d="M170.987 161.654C168.108 167.43 166.011 173.355 165.639 179.692C165.297 182.023 166.713 182.062 166.927 180.42C171.003 164.827 192.69 169.05 191.944 183.717C191.339 195.611 179.524 198.17 173.362 194.281C170.928 192.848 171.066 193.707 172.394 195.193C181.549 205.404 176.004 218.555 163.633 218.795C150.253 218.002 146.781 203.925 154.988 195.647C156.009 194.652 158.272 191.456 154.865 193.691C146.579 199.579 135.078 193.248 135.313 184.17C135.745 167.431 156.152 166.183 160.516 180.164C160.936 181.714 162.145 182.493 161.811 179.86C161.206 175.093 159.954 167.907 156.373 161.654H170.987Z" fill="black"/>
<path d="M170.987 226.985C168.108 232.76 166.011 238.686 165.639 245.022C165.297 247.354 166.713 247.393 166.927 245.751C171.003 230.158 192.69 234.38 191.944 249.047C191.339 260.942 179.524 263.501 173.362 259.612C170.928 258.179 171.066 259.037 172.394 260.524C181.549 270.735 176.004 283.885 163.633 284.126C150.253 283.333 146.781 269.256 154.988 260.978C156.009 259.983 158.272 256.786 154.865 259.021C146.579 264.909 135.078 258.579 135.313 249.501C135.745 232.762 156.152 231.513 160.516 245.495C160.936 247.045 162.145 247.823 161.811 245.191C161.206 240.424 159.954 233.237 156.373 226.985H170.987Z" fill="black"/>
<path d="M119.637 194.32C116.758 200.095 114.661 206.021 114.289 212.357C113.948 214.689 115.364 214.728 115.577 213.086C119.654 197.493 141.34 201.715 140.594 216.382C139.989 228.277 128.175 230.836 122.012 226.946C119.578 225.514 119.716 226.372 121.044 227.858C130.199 238.07 124.654 251.22 112.283 251.461C98.9034 250.667 95.4318 236.591 103.639 228.312C104.659 227.318 106.922 224.121 103.516 226.356C95.2289 232.244 83.7284 225.913 83.963 216.835C84.3957 200.096 104.802 198.848 109.166 212.83C109.586 214.38 110.795 215.158 110.461 212.525C109.856 207.759 108.605 200.572 105.024 194.32H119.637Z" fill="black"/>
<path d="M14.1985 76.0555C15.3906 73.6104 16.5508 71.3347 17.1829 68.6546C17.6021 66.127 16.7446 67.0661 16.2577 68.7228C15.5365 71.0202 13.535 72.0665 11.6776 72.0917C8.30651 72.1372 6.62493 69.4875 6.72973 66.6378C6.36163 63.6392 9.4007 61.5176 11.6914 61.6811C13.4137 61.804 14.9154 62.7331 15.8243 63.4562C16.4206 63.7715 17.0583 63.9108 16.1692 63.0977C14.4916 61.2648 13.0927 60.1336 13.1233 57.3869C13.1523 54.8082 15.3568 52.1187 18.2787 52.2031C21.9302 52.3086 23.5906 55.0932 23.5819 57.6836C23.5719 59.572 22.6283 61.31 21.1705 62.3863C20.2263 63.1524 20.4911 63.7261 21.5682 63.0011C22.6031 62.1091 23.8353 61.7186 25.113 61.6912C28.6035 61.6365 29.9681 64.6527 29.7682 67.4554C29.5808 70.0811 27.3454 72.7837 24.3992 72.4776C21.7685 72.1761 20.3861 69.9677 19.594 67.7008C19.3317 67.0057 18.9181 66.818 18.9296 67.8539C19.5373 72.9113 21.4211 76.0583 21.4348 76.0554L14.1985 76.0555Z" fill="black"/>
<path d="M211.103 238.059C209.911 240.504 208.751 242.78 208.119 245.46C207.7 247.987 208.557 247.048 209.044 245.392C209.765 243.094 211.766 242.048 213.624 242.023C216.995 241.977 218.677 244.627 218.572 247.477C218.94 250.475 215.901 252.597 213.61 252.433C211.888 252.31 210.386 251.381 209.477 250.658C208.881 250.343 208.243 250.204 209.132 251.017C210.81 252.85 212.209 253.981 212.178 256.727C212.149 259.306 209.945 261.996 207.023 261.911C203.371 261.806 201.711 259.021 201.72 256.431C201.73 254.542 202.673 252.804 204.131 251.728C205.075 250.962 204.81 250.388 203.733 251.113C202.698 252.005 201.466 252.396 200.189 252.423C196.698 252.478 195.334 249.462 195.533 246.659C195.721 244.033 197.956 241.331 200.902 241.637C203.533 241.938 204.915 244.147 205.707 246.414C205.97 247.109 206.384 247.296 206.372 246.26C205.764 241.203 203.88 238.056 203.867 238.059L211.103 238.059Z" fill="black"/>
</svg>
