<svg width="225" height="314" viewBox="0 0 225 314" fill="none" xmlns="http://www.w3.org/2000/svg">
<path d="M213.812 0.814331H11.8428C5.97203 0.814331 1.21289 5.57347 1.21289 11.4442V301.995C1.21289 307.866 5.97203 312.625 11.8428 312.625H213.812C219.682 312.625 224.441 307.866 224.441 301.995V11.4442C224.441 5.57347 219.682 0.814331 213.812 0.814331Z" fill="white" stroke="black" stroke-width="0.996733"/>
<path d="M9.33645 36.8149C8.92809 34.0677 8.93463 26.9696 9.27037 24.8725C10.2995 18.4439 12.8025 15.5037 16.993 14.5399C21.0617 13.6043 26.7819 14.6458 28.0371 20.0219L24.6306 20.0849C22.7908 16.4516 18.1353 17.4227 15.5149 19.0027C13.4217 20.2649 12.4764 25.5224 12.8809 25.846C12.8779 25.846 16.8379 22.9688 19.9566 23.181C26.6249 23.8628 29.3741 29.5369 29.1418 34.8998C28.9311 41.3494 26.8469 46.5022 19.7807 46.8462C13.0625 46.5927 9.98093 42.9961 9.33645 36.8149ZM25.9069 35.11C25.944 30.6346 23.8732 27.2871 19.9574 26.9175C16.0416 26.5479 12.0938 30.2993 12.3672 34.86C12.6415 39.4366 14.4458 43.2918 19.1935 43.2705C24.2996 43.2476 25.8805 38.2941 25.9069 35.11Z" fill="black"/>
<path d="M216.085 276.625C216.493 279.372 216.487 286.47 216.151 288.568C215.122 294.996 212.619 297.936 208.428 298.9C204.36 299.836 198.64 298.794 197.384 293.418L200.791 293.355C202.631 296.989 207.286 296.017 209.907 294.437C212 293.175 212.945 287.918 212.541 287.594C212.544 287.594 208.584 290.471 205.465 290.259C198.797 289.577 196.047 283.903 196.28 278.54C196.49 272.091 198.575 266.938 205.641 266.594C212.359 266.847 215.44 270.444 216.085 276.625ZM199.515 278.33C199.477 282.805 201.548 286.153 205.464 286.523C209.38 286.892 213.328 283.141 213.054 278.58C212.78 274.003 210.976 270.148 206.228 270.17C201.122 270.192 199.541 275.146 199.515 278.33Z" fill="black"/>
<path d="M155.266 185.388C158.145 179.613 160.242 173.687 160.614 167.351C160.956 165.019 159.54 164.98 159.326 166.622C155.25 182.215 133.564 177.993 134.309 163.326C134.914 151.431 146.729 148.872 152.892 152.761C155.325 154.194 155.188 153.336 153.86 151.85C144.705 141.638 150.25 128.488 162.621 128.247C176 129.041 179.472 143.117 171.265 151.395C170.244 152.39 167.981 155.587 171.388 153.352C179.675 147.464 191.175 153.795 190.941 162.872C190.508 179.611 170.102 180.86 165.738 166.878C165.318 165.328 164.108 164.55 164.442 167.182C165.047 171.949 166.299 179.136 169.88 185.388H155.266Z" fill="black"/>
<path d="M55.7336 185.388C58.6126 179.613 60.7096 173.687 61.0818 167.351C61.4234 165.019 60.0072 164.98 59.7937 166.622C55.7173 182.215 34.031 177.993 34.7766 163.326C35.3816 151.431 47.1961 148.872 53.3589 152.761C55.7925 154.194 55.6548 153.336 54.3266 151.85C45.1718 141.638 50.7166 128.488 63.0879 128.247C76.4675 129.041 79.9392 143.117 71.7322 151.395C70.7116 152.39 68.4487 155.587 71.8552 153.352C80.142 147.464 91.6425 153.795 91.4079 162.872C90.9752 179.611 70.5687 180.86 66.2046 166.878C65.7848 165.328 64.5755 164.55 64.9096 167.182C65.5145 171.949 66.7662 179.136 70.3471 185.388H55.7336Z" fill="black"/>
<path d="M155.266 86.4947C158.145 80.7191 160.242 74.7937 160.614 68.4573C160.956 66.1256 159.54 66.0865 159.326 67.7287C155.25 83.3215 133.564 79.0992 134.309 64.4322C134.914 52.5375 146.729 49.9785 152.892 53.8677C155.325 55.3005 155.188 54.4423 153.86 52.956C144.705 42.7445 150.25 29.5942 162.621 29.3535C176 30.1469 179.472 44.2234 171.265 52.5018C170.244 53.4965 167.981 56.6932 171.388 54.4581C179.675 48.5701 191.175 54.901 190.941 63.9789C190.508 80.7178 170.102 81.9662 165.738 67.9846C165.318 66.4345 164.108 65.656 164.442 68.2889C165.047 73.0556 166.299 80.2423 169.88 86.4947H155.266Z" fill="black"/>
<path d="M55.7336 86.4947C58.6126 80.7191 60.7096 74.7937 61.0818 68.4573C61.4234 66.1256 60.0072 66.0865 59.7937 67.7287C55.7173 83.3215 34.031 79.0992 34.7766 64.4322C35.3816 52.5375 47.1961 49.9785 53.3589 53.8677C55.7925 55.3005 55.6548 54.4423 54.3266 52.956C45.1718 42.7445 50.7166 29.5942 63.0879 29.3535C76.4675 30.1469 79.9392 44.2234 71.7322 52.5018C70.7116 53.4965 68.4487 56.6932 71.8552 54.4581C80.142 48.5701 91.6425 54.901 91.4079 63.9789C90.9752 80.7178 70.5687 81.9662 66.2046 67.9846C65.7848 66.4345 64.5755 65.656 64.9096 68.2889C65.5145 73.0556 66.7662 80.2423 70.3471 86.4947H55.7336Z" fill="black"/>
<path d="M169.969 226.846C167.09 232.621 164.993 238.547 164.62 244.883C164.279 247.215 165.695 247.254 165.909 245.612C169.985 230.019 191.671 234.241 190.926 248.908C190.321 260.803 178.506 263.362 172.343 259.473C169.91 258.04 170.047 258.898 171.375 260.384C180.53 270.596 174.986 283.746 162.614 283.987C149.235 283.193 145.763 269.117 153.97 260.839C154.991 259.844 157.254 256.647 153.847 258.882C145.56 264.77 134.06 258.439 134.294 249.362C134.727 232.623 155.134 231.374 159.498 245.356C159.917 246.906 161.127 247.684 160.793 245.051C160.188 240.285 158.936 233.098 155.355 226.846H169.969Z" fill="black"/>
<path d="M70.4357 226.846C67.5567 232.621 65.46 238.547 65.0878 244.883C64.7462 247.215 66.1623 247.254 66.3758 245.612C70.4522 230.019 92.1385 234.241 91.3929 248.908C90.7879 260.803 78.9735 263.362 72.8107 259.473C70.3771 258.04 70.5144 258.898 71.8426 260.384C80.9974 270.596 75.4527 283.746 63.0814 283.987C49.7018 283.193 46.2304 269.117 54.4374 260.839C55.458 259.844 57.7208 256.647 54.3143 258.882C46.0275 264.77 34.527 258.439 34.7616 249.362C35.1943 232.623 55.6006 231.374 59.9647 245.356C60.3845 246.906 61.594 247.684 61.2599 245.051C60.655 240.285 59.4033 233.098 55.8224 226.846H70.4357Z" fill="black"/>
<path d="M14.3748 74.6155C15.5669 72.1704 16.727 69.8948 17.3591 67.2147C17.7783 64.6871 16.9207 65.6261 16.4338 67.2829C15.7126 69.5803 13.7112 70.6266 11.8538 70.6517C8.48266 70.6972 6.8012 68.0475 6.906 65.1978C6.5379 62.1992 9.57697 60.0777 11.8677 60.2411C13.59 60.364 15.0916 61.2931 16.0005 62.0162C16.5968 62.3315 17.2346 62.4708 16.3455 61.6577C14.6679 59.8248 13.269 58.6936 13.2996 55.9469C13.3286 53.3682 15.5329 50.6788 18.4548 50.7632C22.1063 50.8686 23.7668 53.6533 23.7581 56.2437C23.7481 58.132 22.8045 59.87 21.3467 60.9464C20.4025 61.7125 20.6673 62.2862 21.7444 61.5612C22.7793 60.6692 24.0116 60.2786 25.2893 60.2512C28.7798 60.1965 30.1442 63.2127 29.9443 66.0154C29.7569 68.6411 27.5216 71.3438 24.5754 71.0377C21.9447 70.7362 20.5624 68.5278 19.7703 66.2608C19.508 65.5658 19.0942 65.378 19.1057 66.4139C19.7134 71.4714 21.5974 74.6184 21.6111 74.6155L14.3748 74.6155Z" fill="black"/>
<path d="M211.279 236.619C210.087 239.064 208.927 241.34 208.295 244.02C207.876 246.547 208.733 245.608 209.22 243.951C209.941 241.654 211.943 240.608 213.8 240.583C217.171 240.537 218.853 243.187 218.748 246.036C219.116 249.035 216.077 251.157 213.786 250.993C212.064 250.87 210.562 249.941 209.654 249.218C209.057 248.903 208.419 248.764 209.309 249.577C210.986 251.41 212.385 252.541 212.354 255.287C212.325 257.866 210.121 260.556 207.199 260.471C203.548 260.366 201.887 257.581 201.896 254.991C201.906 253.102 202.85 251.364 204.307 250.288C205.252 249.522 204.987 248.948 203.91 249.673C202.875 250.565 201.642 250.956 200.365 250.983C196.874 251.038 195.51 248.022 195.71 245.219C195.897 242.593 198.132 239.891 201.079 240.197C203.709 240.498 205.092 242.706 205.884 244.973C206.146 245.669 206.56 245.856 206.548 244.82C205.941 239.763 204.057 236.616 204.043 236.619L211.279 236.619Z" fill="black"/>
</svg>
