<svg width="226" height="314" viewBox="0 0 226 314" fill="none" xmlns="http://www.w3.org/2000/svg">
<path d="M214.049 0.814209H12.0801C6.20933 0.814209 1.4502 5.57335 1.4502 11.4441V301.995C1.4502 307.866 6.20933 312.625 12.0801 312.625H214.049C219.92 312.625 224.679 307.866 224.679 301.995V11.4441C224.679 5.57335 219.92 0.814209 214.049 0.814209Z" fill="white" stroke="black" stroke-width="0.99" stroke-miterlimit="3.8"/>
<path d="M13.4986 47.3248C15.6307 36.235 17.9076 27.9144 23.8787 18.877H11.744V22.7672H8.51831V15.4363H26.2725L28.461 18.877C22.1195 25.674 16.313 47.6453 17.3417 47.3248H13.4986Z" fill="black"/>
<path d="M212.042 266.115C209.91 277.205 207.633 285.525 201.662 294.563H213.797V290.673H217.023V298.003H199.268L197.08 294.563C203.421 287.766 209.228 265.794 208.199 266.115H212.042Z" fill="black"/>
<path d="M156.575 87.9387C159.454 82.1632 161.551 76.2377 161.923 69.9014C162.264 67.5697 160.848 67.5307 160.635 69.1729C156.558 84.7657 134.872 80.5432 135.618 65.8763C136.223 53.9815 148.037 51.4225 154.2 55.3118C156.634 56.7446 156.496 55.8864 155.168 54.4C146.013 44.1886 151.558 31.0383 163.929 30.7976C177.309 31.591 180.78 45.6675 172.573 53.9459C171.553 54.9405 169.29 58.1372 172.696 55.9022C180.983 50.0142 192.483 56.345 192.249 65.4229C191.816 82.1618 171.41 83.4103 167.046 69.4288C166.626 67.8786 165.417 67.1001 165.751 69.733C166.356 74.4996 167.607 81.6864 171.188 87.9387H156.575Z" fill="black"/>
<path d="M156.575 188.187C159.454 182.412 161.551 176.486 161.923 170.15C162.264 167.818 160.848 167.779 160.635 169.421C156.558 185.014 134.872 180.792 135.618 166.125C136.223 154.23 148.037 151.671 154.2 155.56C156.634 156.993 156.496 156.135 155.168 154.649C146.013 144.437 151.558 131.287 163.929 131.046C177.309 131.84 180.78 145.916 172.573 154.194C171.553 155.189 169.29 158.386 172.696 156.151C180.983 150.263 192.483 156.594 192.249 165.671C191.816 182.41 171.41 183.659 167.046 169.677C166.626 168.127 165.417 167.349 165.751 169.982C166.356 174.748 167.607 181.935 171.188 188.187H156.575Z" fill="black"/>
<path d="M55.042 188.187C57.921 182.412 60.0179 176.486 60.3901 170.15C60.7317 167.818 59.3155 167.779 59.102 169.421C55.0256 185.014 33.3393 180.792 34.0849 166.125C34.6899 154.23 46.5044 151.671 52.6672 155.56C55.1008 156.993 54.9633 156.135 53.6351 154.649C44.4803 144.437 50.025 131.287 62.3963 131.046C75.7759 131.84 79.2475 145.916 71.0405 154.194C70.0199 155.189 67.7571 158.386 71.1636 156.151C79.4504 150.263 90.9508 156.594 90.7162 165.671C90.2835 182.41 69.8771 183.659 65.513 169.677C65.0932 168.127 63.8839 167.349 64.218 169.982C64.8229 174.748 66.0745 181.935 69.6554 188.187H55.042Z" fill="black"/>
<path d="M105.476 138.063C108.355 132.287 110.452 126.362 110.824 120.026C111.166 117.694 109.749 117.655 109.536 119.297C105.459 134.89 83.7732 130.668 84.5188 116.001C85.1238 104.106 96.9384 101.547 103.101 105.436C105.535 106.869 105.397 106.011 104.069 104.524C94.9143 94.3129 100.459 81.1626 112.83 80.9219C126.21 81.7153 129.681 95.7918 121.474 104.07C120.454 105.065 118.191 108.261 121.597 106.026C129.884 100.138 141.385 106.469 141.15 115.547C140.717 132.286 120.311 133.534 115.947 119.553C115.527 118.003 114.318 117.224 114.652 119.857C115.257 124.624 116.508 131.811 120.089 138.063H105.476Z" fill="black"/>
<path d="M55.042 87.9387C57.921 82.1632 60.0179 76.2377 60.3901 69.9014C60.7317 67.5697 59.3155 67.5307 59.102 69.1729C55.0256 84.7657 33.3393 80.5432 34.0849 65.8763C34.6899 53.9815 46.5044 51.4225 52.6672 55.3118C55.1008 56.7446 54.9633 55.8864 53.6351 54.4C44.4803 44.1886 50.025 31.0383 62.3963 30.7976C75.7759 31.591 79.2475 45.6675 71.0405 53.9459C70.0199 54.9405 67.7571 58.1372 71.1636 55.9022C79.4504 50.0142 90.9508 56.345 90.7162 65.4229C90.2835 82.1618 69.8771 83.4103 65.513 69.4288C65.0932 67.8786 63.8839 67.1001 64.218 69.733C64.8229 74.4996 66.0745 81.6864 69.6554 87.9387H55.042Z" fill="black"/>
<path d="M171.277 229.645C168.398 235.42 166.301 241.346 165.929 247.682C165.587 250.014 167.003 250.053 167.217 248.411C171.293 232.818 192.979 237.04 192.234 251.707C191.629 263.602 179.814 266.161 173.652 262.272C171.218 260.839 171.356 261.697 172.684 263.183C181.839 273.395 176.294 286.545 163.922 286.786C150.543 285.992 147.071 271.916 155.278 263.638C156.299 262.643 158.562 259.446 155.155 261.681C146.869 267.569 135.368 261.238 135.603 252.161C136.035 235.422 156.442 234.173 160.806 248.155C161.226 249.705 162.435 250.483 162.101 247.85C161.496 243.084 160.244 235.897 156.663 229.645H171.277Z" fill="black"/>
<path d="M69.7439 229.645C66.8649 235.42 64.7681 241.346 64.3959 247.682C64.0543 250.014 65.4705 250.053 65.684 248.411C69.7604 232.818 91.4466 237.04 90.701 251.707C90.096 263.602 78.2816 266.161 72.1188 262.272C69.6852 260.839 69.8227 261.697 71.1509 263.183C80.3057 273.395 74.7609 286.545 62.3896 286.786C49.01 285.992 45.5384 271.916 53.7454 263.638C54.766 262.643 57.0289 259.446 53.6224 261.681C45.3356 267.569 33.8351 261.238 34.0697 252.161C34.5024 235.422 54.9088 234.173 59.2729 248.155C59.6927 249.705 60.902 250.483 60.5679 247.85C59.963 243.084 58.7114 235.897 55.1305 229.645H69.7439Z" fill="black"/>
<path d="M14.6121 77.2018C15.8042 74.7567 16.9643 72.481 17.5964 69.8009C18.0156 67.2733 17.1581 68.2123 16.6712 69.8691C15.95 72.1665 13.9486 73.2128 12.0912 73.238C8.72009 73.2835 7.03851 70.6337 7.14331 67.784C6.77521 64.7854 9.81428 62.6639 12.105 62.8273C13.8273 62.9502 15.329 63.8793 16.2379 64.6024C16.8342 64.9177 17.4719 65.057 16.5828 64.2439C14.9052 62.411 13.5062 61.2798 13.5368 58.5331C13.5658 55.9544 15.7703 53.265 18.6922 53.3493C22.3437 53.4548 24.0042 56.2395 23.9955 58.8299C23.9855 60.7182 23.0419 62.4562 21.5841 63.5326C20.6399 64.2987 20.9047 64.8724 21.9818 64.1474C23.0167 63.2554 24.2489 62.8648 25.5266 62.8374C29.0171 62.7827 30.3816 65.7989 30.1817 68.6016C29.9943 71.2273 27.7589 73.93 24.8127 73.6239C22.182 73.3224 20.7997 71.114 20.0076 68.847C19.7453 68.1519 19.3316 67.9642 19.3431 69.0001C19.9508 74.0575 21.8347 77.2046 21.8484 77.2017L14.6121 77.2018Z" fill="black"/>
<path d="M211.517 239.205C210.324 241.65 209.164 243.926 208.532 246.606C208.113 249.133 208.971 248.194 209.457 246.538C210.179 244.24 212.18 243.194 214.038 243.169C217.409 243.123 219.09 245.773 218.985 248.623C219.354 251.621 216.314 253.743 214.024 253.579C212.301 253.456 210.8 252.527 209.891 251.804C209.295 251.489 208.657 251.35 209.546 252.163C211.223 253.996 212.622 255.127 212.592 257.874C212.563 260.452 210.358 263.142 207.436 263.057C203.785 262.952 202.125 260.167 202.133 257.577C202.143 255.688 203.087 253.95 204.545 252.874C205.489 252.108 205.224 251.534 204.147 252.259C203.112 253.151 201.88 253.542 200.602 253.569C197.112 253.624 195.747 250.608 195.947 247.805C196.134 245.179 198.37 242.477 201.316 242.783C203.947 243.084 205.329 245.293 206.121 247.56C206.383 248.255 206.797 248.442 206.786 247.407C206.178 242.349 204.294 239.202 204.28 239.205L211.517 239.205Z" fill="black"/>
</svg>
