<svg width="225" height="314" viewBox="0 0 225 314" fill="none" xmlns="http://www.w3.org/2000/svg">
<path d="M213.584 0.814209H11.6152C5.74449 0.814209 0.985352 5.57335 0.985352 11.4441V301.995C0.985352 307.866 5.74449 312.625 11.6152 312.625H213.584C219.455 312.625 224.214 307.866 224.214 301.995V11.4441C224.214 5.57335 219.455 0.814209 213.584 0.814209Z" fill="white" stroke="black" stroke-width="0.996733"/>
<path d="M9.24048 38.3521L12.4606 38.3238C13.0729 40.2679 14.4326 42.25 16.2775 42.7972C21.4894 44.0211 24.845 41.1099 25.9502 37.7506C27.2903 33.6771 25.9197 27.9552 22.3326 25.9229C19.3569 24.2371 14.9376 25.6589 12.9106 29.2614L10.6533 27.8817L11.8648 14.4598H26.5952V17.6317H14.6575L14.4703 23.2228C17.0355 21.4207 20.9883 21.4383 23.5556 22.703C28.4204 25.0219 30.6796 30.2957 29.7328 36.5135C28.4224 42.6968 25.5355 46.2 19.0154 46.7035C11.7708 46.7661 9.21163 41.7853 9.24048 38.3521Z" fill="black"/>
<path d="M216.111 275.088L212.89 275.116C212.278 273.172 210.918 271.19 209.073 270.642C203.862 269.418 200.506 272.33 199.401 275.689C198.061 279.762 199.431 285.484 203.018 287.517C205.994 289.202 210.413 287.781 212.44 284.178L214.698 285.558L213.486 298.98H198.756V295.808H210.693L210.881 290.217C208.315 292.019 204.363 292.001 201.795 290.737C196.931 288.418 194.671 283.144 195.618 276.926C196.929 270.743 199.816 267.24 206.336 266.736C213.58 266.673 216.139 271.654 216.111 275.088Z" fill="black"/>
<path d="M105.254 185.316C108.133 179.54 110.23 173.615 110.602 167.279C110.944 164.947 109.527 164.908 109.314 166.55C105.238 182.143 83.5513 177.92 84.2969 163.254C84.9019 151.359 96.7164 148.8 102.879 152.689C105.313 154.122 105.175 153.264 103.847 151.777C94.6923 141.566 100.237 128.416 112.608 128.175C125.988 128.968 129.46 143.045 121.253 151.323C120.232 152.318 117.969 155.514 121.375 153.279C129.662 147.391 141.163 153.722 140.928 162.8C140.495 179.539 120.089 180.787 115.725 166.806C115.305 165.256 114.096 164.477 114.43 167.11C115.035 171.877 116.287 179.064 119.867 185.316H105.254Z" fill="black"/>
<path d="M154.497 86.0536C157.376 80.278 159.473 74.3526 159.845 68.0163C160.187 65.6846 158.77 65.6455 158.557 67.2877C154.48 82.8805 132.794 78.6581 133.54 63.9912C134.145 52.0964 145.959 49.5374 152.122 53.4267C154.556 54.8594 154.418 54.0013 153.09 52.5149C143.935 42.3034 149.48 29.1532 161.851 28.9125C175.231 29.7059 178.702 43.7824 170.495 52.0608C169.475 53.0554 167.212 56.2521 170.618 54.0171C178.905 48.1291 190.405 54.4599 190.171 63.5378C189.738 80.2767 169.332 81.5251 164.968 67.5436C164.548 65.9934 163.339 65.215 163.673 67.8479C164.278 72.6145 165.529 79.8013 169.11 86.0536H154.497Z" fill="black"/>
<path d="M55.8155 86.0536C58.6945 80.278 60.7913 74.3526 61.1635 68.0163C61.5051 65.6846 60.089 65.6455 59.8755 67.2877C55.7991 82.8805 34.1128 78.6581 34.8584 63.9912C35.4634 52.0964 47.2778 49.5374 53.4406 53.4267C55.8742 54.8594 55.7367 54.0013 54.4085 52.5149C45.2537 42.3034 50.7985 29.1532 63.1698 28.9125C76.5494 29.7059 80.0209 43.7824 71.8139 52.0608C70.7933 53.0554 68.5305 56.2521 71.937 54.0171C80.2238 48.1291 91.7243 54.4599 91.4897 63.5378C91.057 80.2767 70.6506 81.5251 66.2865 67.5436C65.8667 65.9934 64.6575 65.215 64.9916 67.8479C65.5965 72.6145 66.848 79.8013 70.4289 86.0536H55.8155Z" fill="black"/>
<path d="M169.199 225.564C166.32 231.339 164.223 237.265 163.851 243.601C163.509 245.933 164.925 245.972 165.139 244.33C169.215 228.737 190.902 232.959 190.156 247.626C189.551 259.521 177.736 262.08 171.574 258.191C169.14 256.758 169.278 257.616 170.606 259.103C179.761 269.314 174.216 282.464 161.844 282.705C148.465 281.912 144.993 267.835 153.2 259.557C154.221 258.562 156.484 255.365 153.077 257.6C144.79 263.488 133.29 257.158 133.525 248.08C133.957 231.341 154.364 230.092 158.728 244.074C159.148 245.624 160.357 246.402 160.023 243.77C159.418 239.003 158.166 231.816 154.585 225.564H169.199Z" fill="black"/>
<path d="M70.5176 225.564C67.6386 231.339 65.5416 237.265 65.1694 243.601C64.8278 245.933 66.244 245.972 66.4575 244.33C70.5339 228.737 92.2202 232.959 91.4746 247.626C90.8696 259.521 79.0551 262.08 72.8923 258.191C70.4587 256.758 70.5962 257.616 71.9244 259.103C81.0792 269.314 75.5345 282.464 63.1632 282.705C49.7836 281.912 46.312 267.835 54.519 259.557C55.5396 258.562 57.8025 255.365 54.396 257.6C46.1092 263.488 34.6087 257.158 34.8433 248.08C35.276 231.341 55.6824 230.092 60.0465 244.074C60.4663 245.624 61.6756 246.402 61.3415 243.77C60.7366 239.003 59.4851 231.816 55.9042 225.564H70.5176Z" fill="black"/>
<path d="M15.2009 75.8385C16.393 73.3935 17.5531 71.1178 18.1852 68.4377C18.6044 65.9101 17.7469 66.8491 17.26 68.5059C16.5388 70.8033 14.5375 71.8496 12.6801 71.8747C9.30895 71.9202 7.62738 69.2705 7.73218 66.4208C7.36408 63.4223 10.4031 61.3007 12.6938 61.4641C14.4161 61.587 15.9178 62.5162 16.8267 63.2392C17.423 63.5545 18.0607 63.6938 17.1716 62.8807C15.494 61.0478 14.095 59.9166 14.1256 57.1699C14.1546 54.5912 16.3591 51.9018 19.281 51.9862C22.9325 52.0916 24.593 54.8763 24.5843 57.4667C24.5743 59.3551 23.6308 61.093 22.173 62.1694C21.2288 62.9355 21.4936 63.5092 22.5707 62.7842C23.6056 61.8922 24.8378 61.5016 26.1155 61.4743C29.606 61.4196 30.9704 64.4357 30.7705 67.2384C30.5831 69.8641 28.3477 72.5668 25.4015 72.2607C22.7708 71.9592 21.3885 69.7508 20.5964 67.4839C20.3341 66.7888 19.9204 66.6011 19.9319 67.6369C20.5396 72.6944 22.4236 75.8414 22.4373 75.8385L15.2009 75.8385Z" fill="black"/>
<path d="M209.998 237.842C208.806 240.287 207.646 242.563 207.014 245.243C206.594 247.77 207.452 246.831 207.939 245.175C208.66 242.877 210.661 241.831 212.519 241.806C215.89 241.76 217.572 244.41 217.467 247.26C217.835 250.258 214.796 252.38 212.505 252.216C210.783 252.093 209.281 251.164 208.372 250.441C207.776 250.126 207.138 249.987 208.027 250.8C209.705 252.633 211.104 253.764 211.073 256.51C211.044 259.089 208.84 261.779 205.918 261.694C202.266 261.589 200.606 258.804 200.614 256.214C200.624 254.325 201.568 252.587 203.026 251.511C203.97 250.745 203.705 250.171 202.628 250.896C201.593 251.788 200.361 252.179 199.083 252.206C195.593 252.261 194.229 249.245 194.428 246.442C194.616 243.816 196.851 241.114 199.797 241.42C202.428 241.721 203.81 243.93 204.603 246.197C204.865 246.892 205.279 247.079 205.267 246.044C204.659 240.986 202.775 237.839 202.762 237.842L209.998 237.842Z" fill="black"/>
</svg>
