<svg width="225" height="314" viewBox="0 0 225 314" fill="none" xmlns="http://www.w3.org/2000/svg">
<path d="M213.387 0.814209H11.4178C5.5471 0.814209 0.787964 5.57335 0.787964 11.4441V301.995C0.787964 307.866 5.5471 312.625 11.4178 312.625H213.387C219.257 312.625 224.016 307.866 224.016 301.995V11.4441C224.016 5.57335 219.257 0.814209 213.387 0.814209Z" fill="white" stroke="black" stroke-width="0.996733"/>
<path d="M6.87966 38.3646C7.03979 33.9892 8.6504 32.3461 11.8233 30.0552C9.29266 28.26 8.22565 25.6186 8.44112 23.368C8.96262 17.9211 13.2509 15.196 17.9261 15.3146C22.6013 15.4333 26.6307 19.0782 26.9449 23.0364C27.2182 26.4797 26.1745 28.1389 23.6875 29.9516C26.6405 32.3931 28.5279 34.0016 28.4562 38.3117C28.3846 42.6219 24.6505 47.7516 18.1417 47.9091C11.6329 48.0666 6.71955 42.74 6.87966 38.3646ZM25.0522 38.3791C25.3314 34.417 21.764 31.7437 17.739 31.7022C13.8168 31.6617 10.3078 34.9488 10.3071 38.506C10.3071 42.327 14.8708 44.4026 17.8181 44.4136C21.4004 44.4269 24.8118 41.7915 25.0522 38.3791ZM23.7643 24.2057C23.8422 20.8681 20.7074 18.4762 17.4756 18.5724C14.6002 18.6581 11.5546 20.8131 11.5531 23.6033C11.5501 27.0932 15.0152 28.8356 17.97 28.9014C20.6504 28.961 23.7054 26.7266 23.7643 24.2057Z" fill="black"/>
<path d="M216.421 275.075C216.26 279.45 214.65 281.093 211.477 283.384C214.008 285.18 215.075 287.821 214.859 290.072C214.338 295.519 210.049 298.244 205.374 298.125C200.699 298.006 196.67 294.361 196.355 290.403C196.082 286.96 197.126 285.301 199.613 283.488C196.66 281.046 194.772 279.438 194.844 275.128C194.916 270.818 198.65 265.688 205.159 265.531C211.667 265.373 216.581 270.7 216.421 275.075ZM198.248 275.061C197.969 279.023 201.536 281.696 205.561 281.737C209.483 281.778 212.992 278.491 212.993 274.934C212.993 271.113 208.43 269.037 205.482 269.026C201.9 269.013 198.488 271.648 198.248 275.061ZM199.536 289.234C199.458 292.572 202.593 294.963 205.825 294.867C208.7 294.782 211.746 292.626 211.747 289.836C211.75 286.346 208.285 284.604 205.33 284.538C202.65 284.479 199.595 286.713 199.536 289.234Z" fill="black"/>
<path d="M156.828 85.7686C159.707 79.9931 161.804 74.0676 162.176 67.7313C162.517 65.3996 161.101 65.3605 160.888 67.0027C156.811 82.5955 135.125 78.3731 135.871 63.7062C136.476 51.8114 148.29 49.2524 154.453 53.1417C156.887 54.5745 156.749 53.7163 155.421 52.2299C146.266 42.0185 151.811 28.8681 164.182 28.6274C177.562 29.4209 181.033 43.4974 172.826 51.7758C171.806 52.7704 169.543 55.9671 172.949 53.7321C181.236 47.8441 192.737 54.1748 192.502 63.2527C192.069 79.9916 171.663 81.24 167.299 67.2585C166.879 65.7083 165.67 64.93 166.004 67.5629C166.609 72.3295 167.86 79.5163 171.441 85.7686H156.828Z" fill="black"/>
<path d="M156.828 186.017C159.707 180.241 161.804 174.316 162.176 167.98C162.517 165.648 161.101 165.609 160.888 167.251C156.811 182.844 135.125 178.621 135.871 163.955C136.476 152.06 148.29 149.501 154.453 153.39C156.887 154.823 156.749 153.965 155.421 152.478C146.266 142.267 151.811 129.117 164.182 128.876C177.562 129.669 181.033 143.746 172.826 152.024C171.806 153.019 169.543 156.215 172.949 153.98C181.236 148.092 192.737 154.423 192.502 163.501C192.069 180.24 171.663 181.488 167.299 167.507C166.879 165.957 165.67 165.178 166.004 167.811C166.609 172.578 167.86 179.765 171.441 186.017H156.828Z" fill="black"/>
<path d="M53.295 186.017C56.174 180.241 58.271 174.316 58.6432 167.98C58.9848 165.648 57.5686 165.609 57.3551 167.251C53.2787 182.844 31.5924 178.621 32.338 163.955C32.943 152.06 44.7575 149.501 50.9203 153.39C53.3539 154.823 53.2164 153.965 51.8882 152.478C42.7334 142.267 48.2781 129.117 60.6494 128.876C74.029 129.669 77.5006 143.746 69.2936 152.024C68.273 153.019 66.0101 156.215 69.4166 153.98C77.7034 148.092 89.2038 154.423 88.9692 163.501C88.5365 180.24 68.1302 181.488 63.7661 167.507C63.3463 165.957 62.1369 165.178 62.471 167.811C63.0759 172.578 64.3275 179.765 67.9084 186.017H53.295Z" fill="black"/>
<path d="M103.478 135.893C106.357 130.117 108.454 124.192 108.826 117.855C109.168 115.524 107.752 115.485 107.538 117.127C103.462 132.72 81.7755 128.497 82.5211 113.83C83.1261 101.936 94.9406 99.3765 101.103 103.266C103.537 104.699 103.399 103.84 102.071 102.354C92.9165 92.1426 98.4612 78.9923 110.832 78.7516C124.212 79.545 127.684 93.6215 119.477 101.9C118.456 102.895 116.193 106.091 119.6 103.856C127.886 97.9682 139.387 104.299 139.152 113.377C138.72 130.116 118.313 131.364 113.949 117.383C113.529 115.832 112.32 115.054 112.654 117.687C113.259 122.454 114.511 129.64 118.092 135.893H103.478Z" fill="black"/>
<path d="M53.295 85.7686C56.174 79.9931 58.271 74.0676 58.6432 67.7313C58.9848 65.3996 57.5686 65.3605 57.3551 67.0027C53.2787 82.5955 31.5924 78.3731 32.338 63.7062C32.943 51.8114 44.7575 49.2524 50.9203 53.1417C53.3539 54.5745 53.2164 53.7163 51.8882 52.2299C42.7334 42.0185 48.2781 28.8681 60.6494 28.6274C74.029 29.4209 77.5006 43.4974 69.2936 51.7758C68.273 52.7704 66.0101 55.9671 69.4166 53.7321C77.7034 47.8441 89.2038 54.1748 88.9692 63.2527C88.5365 79.9916 68.1302 81.24 63.7661 67.2585C63.3463 65.7083 62.1369 64.93 62.471 67.5629C63.0759 72.3295 64.3275 79.5163 67.9084 85.7686H53.295Z" fill="black"/>
<path d="M171.53 227.474C168.651 233.25 166.554 239.175 166.182 245.512C165.84 247.843 167.256 247.882 167.47 246.24C171.546 230.647 193.232 234.87 192.487 249.537C191.882 261.432 180.067 263.991 173.905 260.101C171.471 258.669 171.608 259.527 172.937 261.013C182.091 271.225 176.547 284.375 164.175 284.616C150.796 283.822 147.324 269.746 155.531 261.467C156.552 260.473 158.815 257.276 155.408 259.511C147.122 265.399 135.621 259.068 135.856 249.99C136.288 233.251 156.695 232.003 161.059 245.984C161.479 247.535 162.688 248.313 162.354 245.68C161.749 240.913 160.497 233.727 156.916 227.474H171.53Z" fill="black"/>
<path d="M118.18 178.175C115.301 183.951 113.204 189.876 112.832 196.212C112.49 198.544 113.907 198.583 114.12 196.941C118.197 181.348 139.883 185.571 139.137 200.238C138.532 212.132 126.718 214.691 120.555 210.802C118.121 209.369 118.259 210.227 119.587 211.714C128.742 221.925 123.197 235.076 110.826 235.316C97.4462 234.523 93.9746 220.446 102.182 212.168C103.202 211.173 105.465 207.977 102.059 210.212C93.7719 216.1 82.2714 209.769 82.506 200.691C82.9387 183.952 103.345 182.704 107.709 196.685C108.129 198.235 109.338 199.014 109.004 196.381C108.399 191.614 107.148 184.427 103.567 178.175H118.18Z" fill="black"/>
<path d="M67.9971 227.474C65.1181 233.25 63.0211 239.175 62.6489 245.512C62.3073 247.843 63.7235 247.882 63.937 246.24C68.0134 230.647 89.6998 234.87 88.9542 249.537C88.3492 261.432 76.5346 263.991 70.3718 260.101C67.9382 258.669 68.0757 259.527 69.4039 261.013C78.5587 271.225 73.0141 284.375 60.6428 284.616C47.2632 283.822 43.7915 269.746 51.9985 261.467C53.0191 260.473 55.2821 257.276 51.8756 259.511C43.5888 265.399 32.0883 259.068 32.3229 249.99C32.7556 233.251 53.162 232.003 57.5261 245.984C57.9459 247.535 59.1551 248.313 58.821 245.68C58.2161 240.913 56.9646 233.727 53.3837 227.474H67.9971Z" fill="black"/>
<path d="M14.2456 78.1517C15.4377 75.7066 16.5979 73.4309 17.23 70.7508C17.6492 68.2232 16.7917 69.1622 16.3048 70.819C15.5836 73.1164 13.5821 74.1627 11.7247 74.1878C8.35363 74.2333 6.67205 71.5836 6.77685 68.7339C6.40875 65.7353 9.44782 63.6138 11.7385 63.7772C13.4608 63.9001 14.9626 64.8293 15.8715 65.5524C16.4678 65.8677 17.1054 66.0069 16.2163 65.1938C14.5387 63.3609 13.1398 62.2297 13.1704 59.483C13.1994 56.9043 15.4039 54.2149 18.3258 54.2993C21.9773 54.4048 23.6377 57.1893 23.629 59.7798C23.619 61.6681 22.6754 63.4061 21.2176 64.4825C20.2734 65.2486 20.5383 65.8223 21.6154 65.0973C22.6503 64.2053 23.8825 63.8147 25.1602 63.7873C28.6507 63.7326 30.0152 66.7488 29.8153 69.5515C29.6279 72.1772 27.3925 74.8799 24.4463 74.5738C21.8156 74.2723 20.4332 72.0639 19.6411 69.797C19.3788 69.1019 18.9652 68.9142 18.9767 69.9501C19.5844 75.0075 21.4682 78.1545 21.4819 78.1516L14.2456 78.1517Z" fill="black"/>
<path d="M210.558 239.205C209.366 241.65 208.206 243.926 207.574 246.606C207.155 249.133 208.012 248.194 208.499 246.538C209.22 244.24 211.222 243.194 213.079 243.169C216.45 243.124 218.132 245.773 218.027 248.623C218.395 251.621 215.356 253.743 213.065 253.579C211.343 253.457 209.841 252.527 208.933 251.804C208.336 251.489 207.699 251.35 208.588 252.163C210.265 253.996 211.664 255.127 211.634 257.874C211.605 260.452 209.4 263.142 206.478 263.057C202.827 262.952 201.166 260.167 201.175 257.577C201.185 255.689 202.129 253.951 203.586 252.874C204.531 252.108 204.266 251.534 203.189 252.259C202.154 253.151 200.922 253.542 199.644 253.569C196.153 253.624 194.789 250.608 194.989 247.805C195.176 245.179 197.412 242.477 200.358 242.783C202.988 243.084 204.371 245.293 205.163 247.56C205.425 248.255 205.839 248.443 205.827 247.407C205.22 242.349 203.336 239.202 203.322 239.205L210.558 239.205Z" fill="black"/>
</svg>
