<svg width="225" height="314" viewBox="0 0 225 314" fill="none" xmlns="http://www.w3.org/2000/svg">
<path d="M213.463 0.814209H11.4941C5.6234 0.814209 0.864258 5.57335 0.864258 11.4441V301.995C0.864258 307.866 5.6234 312.625 11.4941 312.625H213.463C219.334 312.625 224.093 307.866 224.093 301.995V11.4441C224.093 5.57335 219.334 0.814209 213.463 0.814209Z" fill="white" stroke="black" stroke-width="0.996733"/>
<path d="M9.0906 40.1648L12.1172 39.2229C13.2589 42.2182 15.5672 43.1017 18.0088 42.9118C22.3909 42.571 23.8453 37.7633 24.174 33.5124C22.4665 35.2865 19.8999 36.188 17.7144 36.1001C10.7321 35.7308 8.94493 30.2455 8.87987 24.4987C8.68593 19.6524 10.7275 16.1431 14.2283 14.5354C16.0804 13.719 20.3229 13.7188 22.1877 14.684C26.4698 16.9002 28.0545 20.7327 27.767 29.875C27.7715 37.3987 26.1425 46.1622 17.9296 46.35C13.1819 46.9941 9.57709 43.3702 9.0906 40.1648ZM20.9779 31.9211C22.4027 31.0356 23.2068 30.2049 23.8455 28.9591C24.3698 27.9364 24.5472 27.4059 24.3978 25.2886C24.0128 19.8332 21.0985 16.7409 16.8732 17.3552C14.5166 17.6978 13.23 18.9936 12.4905 21.4031C11.1249 25.8523 12.856 31.0604 16.0991 32.2601C17.5619 32.8011 19.8138 32.6446 20.9779 31.9211Z" fill="black"/>
<path d="M215.127 273.275L212.1 274.217C210.958 271.221 208.65 270.338 206.208 270.528C201.826 270.868 200.372 275.676 200.043 279.927C201.751 278.153 204.317 277.251 206.503 277.339C213.485 277.709 215.272 283.194 215.337 288.941C215.531 293.787 213.49 297.296 209.989 298.904C208.137 299.72 203.894 299.721 202.03 298.755C197.747 296.539 196.163 292.707 196.45 283.564C196.446 276.041 198.075 267.277 206.288 267.089C211.035 266.445 214.64 270.069 215.127 273.275ZM203.239 281.518C201.815 282.404 201.01 283.235 200.372 284.48C199.847 285.503 199.67 286.034 199.82 288.151C200.205 293.606 203.119 296.699 207.344 296.084C209.701 295.742 210.987 294.446 211.727 292.036C213.092 287.587 211.361 282.379 208.118 281.179C206.655 280.638 204.404 280.795 203.239 281.518Z" fill="black"/>
<path d="M155.898 152.137C158.777 146.362 160.874 140.436 161.246 134.1C161.588 131.768 160.172 131.729 159.958 133.372C155.882 148.964 134.196 144.742 134.941 130.075C135.546 118.18 147.361 115.621 153.524 119.511C155.957 120.943 155.82 120.085 154.491 118.599C145.337 108.387 150.881 95.237 163.253 94.9963C176.632 95.7898 180.104 109.866 171.897 118.145C170.876 119.139 168.613 122.336 172.02 120.101C180.307 114.213 191.807 120.544 191.572 129.622C191.14 146.361 170.733 147.609 166.369 133.628C165.949 132.077 164.74 131.299 165.074 133.932C165.679 138.698 166.931 145.885 170.512 152.137H155.898Z" fill="black"/>
<path d="M105.078 179.29C107.957 173.515 110.054 167.589 110.426 161.253C110.768 158.921 109.352 158.882 109.138 160.524C105.062 176.117 83.3755 171.895 84.1211 157.228C84.7261 145.333 96.5405 142.774 102.703 146.663C105.137 148.096 104.999 147.238 103.671 145.752C94.5164 135.54 100.061 122.39 112.432 122.149C125.812 122.943 129.284 137.019 121.077 145.297C120.056 146.292 117.793 149.489 121.2 147.254C129.486 141.366 140.987 147.697 140.752 156.775C140.32 173.513 119.913 174.762 115.549 160.78C115.129 159.23 113.92 158.452 114.254 161.085C114.859 165.851 116.111 173.038 119.692 179.29H105.078Z" fill="black"/>
<path d="M54.3655 152.137C57.2445 146.362 59.3414 140.436 59.7136 134.1C60.0552 131.768 58.639 131.729 58.4255 133.372C54.3491 148.964 32.6628 144.742 33.4084 130.075C34.0134 118.18 45.8279 115.621 51.9907 119.511C54.4243 120.943 54.2868 120.085 52.9586 118.599C43.8038 108.387 49.3485 95.237 61.7198 94.9963C75.0994 95.7898 78.571 109.866 70.364 118.145C69.3434 119.139 67.0805 122.336 70.487 120.101C78.7738 114.213 90.2742 120.544 90.0396 129.622C89.6069 146.361 69.2006 147.609 64.8365 133.628C64.4167 132.077 63.2074 131.299 63.5415 133.932C64.1464 138.698 65.398 145.885 68.9789 152.137H54.3655Z" fill="black"/>
<path d="M155.898 86.8069C158.777 81.0314 160.874 75.1059 161.246 68.7696C161.588 66.4379 160.172 66.3988 159.958 68.041C155.882 83.6338 134.196 79.4114 134.941 64.7445C135.546 52.8497 147.361 50.2907 153.524 54.18C155.957 55.6128 155.82 54.7546 154.491 53.2682C145.337 43.0568 150.881 29.9065 163.253 29.6658C176.632 30.4592 180.104 44.5357 171.897 52.8141C170.876 53.8087 168.613 57.0054 172.02 54.7704C180.307 48.8824 191.807 55.2132 191.572 64.2911C191.14 81.03 170.733 82.2784 166.369 68.2969C165.949 66.7467 164.74 65.9683 165.074 68.6012C165.679 73.3678 166.931 80.5546 170.512 86.8069H155.898Z" fill="black"/>
<path d="M54.3655 86.8069C57.2445 81.0314 59.3414 75.1059 59.7136 68.7696C60.0552 66.4379 58.639 66.3988 58.4255 68.041C54.3491 83.6338 32.6628 79.4114 33.4084 64.7445C34.0134 52.8497 45.8279 50.2907 51.9907 54.18C54.4243 55.6128 54.2868 54.7546 52.9586 53.2682C43.8038 43.0568 49.3485 29.9065 61.7198 29.6658C75.0994 30.4592 78.571 44.5357 70.364 52.8141C69.3434 53.8087 67.0805 57.0054 70.487 54.7704C78.7738 48.8824 90.2742 55.2132 90.0396 64.2911C89.6069 81.03 69.2006 82.2784 64.8365 68.2969C64.4167 66.7467 63.2074 65.9683 63.5415 68.6012C64.1464 73.3678 65.398 80.5546 68.9789 86.8069H54.3655Z" fill="black"/>
<path d="M69.0674 226.999C66.1884 232.774 64.0914 238.7 63.7192 245.036C63.3776 247.368 64.7938 247.407 65.0073 245.765C69.0837 230.172 90.7701 234.394 90.0245 249.061C89.4195 260.956 77.6049 263.515 71.4421 259.626C69.0085 258.193 69.146 259.051 70.4742 260.538C79.629 270.749 74.0844 283.899 61.7131 284.14C48.3335 283.346 44.8618 269.27 53.0688 260.992C54.0894 259.997 56.3524 256.8 52.9459 259.035C44.6591 264.923 33.1586 258.592 33.3932 249.515C33.8259 232.776 54.2323 231.527 58.5964 245.509C59.0162 247.059 60.2254 247.837 59.8913 245.204C59.2864 240.438 58.0349 233.251 54.454 226.999H69.0674Z" fill="black"/>
<path d="M170.6 226.999C167.721 232.774 165.624 238.7 165.252 245.036C164.911 247.368 166.327 247.407 166.54 245.765C170.617 230.172 192.303 234.394 191.557 249.061C190.952 260.956 179.138 263.515 172.975 259.626C170.541 258.193 170.679 259.051 172.007 260.538C181.162 270.749 175.617 283.899 163.246 284.14C149.866 283.346 146.395 269.27 154.602 260.992C155.622 259.997 157.885 256.8 154.479 259.035C146.192 264.923 134.692 258.592 134.926 249.515C135.359 232.776 155.765 231.527 160.129 245.509C160.549 247.059 161.758 247.837 161.424 245.204C160.819 240.438 159.568 233.251 155.987 226.999H170.6Z" fill="black"/>
<path d="M170.6 161.893C167.721 167.669 165.624 173.594 165.252 179.931C164.911 182.262 166.327 182.301 166.54 180.659C170.617 165.066 192.303 169.289 191.557 183.956C190.952 195.851 179.138 198.41 172.975 194.52C170.541 193.087 170.679 193.946 172.007 195.432C181.162 205.643 175.617 218.794 163.246 219.034C149.866 218.241 146.395 204.165 154.602 195.886C155.622 194.892 157.885 191.695 154.479 193.93C146.192 199.818 134.692 193.487 134.926 184.409C135.359 167.67 155.765 166.422 160.129 180.403C160.549 181.954 161.758 182.732 161.424 180.099C160.819 175.332 159.568 168.146 155.987 161.893H170.6Z" fill="black"/>
<path d="M69.0674 161.893C66.1884 167.669 64.0914 173.594 63.7192 179.931C63.3776 182.262 64.7938 182.301 65.0073 180.659C69.0837 165.066 90.7701 169.289 90.0245 183.956C89.4195 195.851 77.6049 198.41 71.4421 194.52C69.0085 193.087 69.146 193.946 70.4742 195.432C79.629 205.643 74.0844 218.794 61.7131 219.034C48.3335 218.241 44.8618 204.165 53.0688 195.886C54.0894 194.892 56.3524 191.695 52.9459 193.93C44.6591 199.818 33.1586 193.487 33.3932 184.409C33.8259 167.67 54.2323 166.422 58.5964 180.403C59.0162 181.954 60.2254 182.732 59.8913 180.099C59.2864 175.332 58.0349 168.146 54.454 161.893H69.0674Z" fill="black"/>
<path d="M14.0262 73.5665C15.2183 71.1214 16.3784 68.8457 17.0105 66.1656C17.4297 63.6381 16.5722 64.5771 16.0853 66.2338C15.3641 68.5312 13.3626 69.5776 11.5052 69.6027C8.13415 69.6482 6.45257 66.9984 6.55737 64.1488C6.18927 61.1502 9.22834 59.0286 11.519 59.1921C13.2413 59.315 14.7431 60.2441 15.652 60.9671C16.2483 61.2824 16.886 61.4218 15.9969 60.6087C14.3193 58.7758 12.9203 57.6445 12.9509 54.8979C12.9799 52.3192 15.1844 49.6297 18.1063 49.7141C21.7578 49.8196 23.4182 52.6042 23.4095 55.1946C23.3995 57.083 22.456 58.8209 20.9982 59.8973C20.054 60.6634 20.3188 61.2371 21.3959 60.5121C22.4308 59.6201 23.663 59.2296 24.9407 59.2022C28.4312 59.1475 29.7957 62.1637 29.5958 64.9664C29.4084 67.5921 27.173 70.2948 24.2268 69.9887C21.5961 69.6872 20.2139 67.4787 19.4218 65.2118C19.1595 64.5167 18.7457 64.329 18.7572 65.3649C19.3649 70.4223 21.2487 73.5693 21.2624 73.5665H14.0262Z" fill="black"/>
<path d="M210.931 238.239C209.739 240.684 208.578 242.96 207.946 245.64C207.527 248.168 208.385 247.229 208.872 245.572C209.593 243.275 211.594 242.228 213.452 242.203C216.823 242.158 218.504 244.807 218.4 247.657C218.768 250.656 215.728 252.777 213.438 252.614C211.715 252.491 210.214 251.562 209.305 250.839C208.709 250.523 208.071 250.384 208.96 251.197C210.638 253.03 212.037 254.161 212.006 256.908C211.977 259.487 209.772 262.176 206.851 262.092C203.199 261.986 201.539 259.202 201.547 256.611C201.557 254.723 202.501 252.985 203.959 251.909C204.903 251.142 204.638 250.569 203.561 251.294C202.526 252.186 201.294 252.576 200.016 252.604C196.526 252.658 195.161 249.642 195.361 246.839C195.548 244.214 197.784 241.511 200.73 241.817C203.361 242.119 204.743 244.327 205.535 246.594C205.797 247.289 206.211 247.477 206.2 246.441C205.592 241.384 203.708 238.237 203.694 238.239L210.931 238.239Z" fill="black"/>
</svg>
