<svg width="225" height="314" viewBox="0 0 225 314" fill="none" xmlns="http://www.w3.org/2000/svg">
<path d="M213.578 0.814331H11.6094C5.73863 0.814331 0.979492 5.57353 0.979492 11.4443V301.995C0.979492 307.866 5.73863 312.625 11.6094 312.625H213.578C219.449 312.625 224.208 307.866 224.208 301.995V11.4443C224.208 5.57353 219.449 0.814331 213.578 0.814331Z" fill="white" stroke="black" stroke-width="0.996733"/>
<path d="M161.736 30.8214L81.2105 31.2127L91.4364 50.585C112.365 48.7027 130.706 50.3766 149.812 50.9999L161.736 30.8214ZM106.74 98.9331C106.656 99.0459 103.39 99.8894 103.723 100.63C112.25 118.885 116.059 133.739 119.62 152.5C121.42 151.039 124.332 151.098 124.332 151.098C122.896 144.131 131.68 143.262 131.737 150.551C133.423 150.942 135.158 150.948 136.68 152.651C137.364 132.149 144.722 110.936 154.225 96.2376C143.395 100.523 127.508 111.203 127.508 111.203C127.508 111.203 114.286 105.743 106.74 98.9331ZM172.56 101.116C158.148 114.794 152.508 152.764 153.542 153.288C134.965 152.668 129.334 173.142 145.437 184.182C144.801 186.324 143.228 188.066 142.01 189.958C143.671 190.909 145.484 191.112 147.295 191.311C148.67 192.94 150.022 194.819 151.514 194.974C153.134 193.954 154.286 192.461 155.635 191.169C157.318 190.741 158.988 190.267 160.585 189.538C159.17 187.565 157.493 185.569 157.45 183.72C171.451 173.853 169.53 160.435 156.908 153.566C160.668 130.969 166.153 116.534 172.518 106.269L172.56 101.116ZM73.3041 118.574C71.4732 119.467 70.4744 121.352 69.1458 122.831C67.3219 122.914 65.5653 123.537 63.8278 124.312C63.8278 124.312 68.0041 130.079 67.7456 130.389C54.2038 139.255 54.3144 152.214 67.3166 160.751C69.5192 179.194 53.8419 208.382 53.0502 207.534L53.0219 213.568C63.9312 201.503 70.1052 179.583 71.1872 161.581C93.469 160.098 94.2584 138.578 78.9192 130.483C77.7399 129.402 82.7757 124.401 82.7757 124.401C81.4972 123.143 79.3587 123 77.4859 122.846C76.3044 121.434 75.2743 120.027 73.3041 118.574ZM167.544 133.468C170.695 140.473 182.204 131.937 184.201 135.665C185.822 137.779 189.352 137.995 189.16 134.434C188.497 130.907 186.175 130.125 176.959 131.662C173.463 132.245 172.03 132.59 172.051 130.997C169.633 128.079 167.559 132.048 167.544 133.468ZM178.233 143.69C175.65 143.688 175.21 153.787 175.248 156.819C167.767 168.628 190.593 167.286 180.722 154.421C181.066 152.74 179.463 149.999 179.508 148.787C178.699 148.684 178.343 144.124 178.233 143.69ZM46.6383 149.761C42.5903 149.863 38.1397 153.579 44.6299 158.922C45.0629 159.07 44.4118 160.197 44.6346 161.93C46.464 165.876 45.9692 171.719 47.3314 170.821C48.9061 169.784 50.2214 165.424 49.882 159.336C49.8597 158.937 49.3305 158.514 49.4293 158.082C53.0722 152.074 49.9924 149.677 46.6383 149.761ZM88.0608 161.076C87.0212 180.801 82.1868 200.154 71.2328 216.937C80.662 212.544 89.8131 206.875 98.6686 202.022L119.362 214.827C120.561 214.307 121.391 214.052 122.185 213.267C112.649 199.324 109.697 179.255 105.542 161.1C103.961 162.22 100.988 162.783 100.988 162.783C100.776 169.08 94.1687 171.121 92.8193 162.908L88.0608 161.076ZM38.1144 176.465C35.907 176.604 34.2471 182.067 40.4999 182.876C44.9126 183.5 50.5632 181.329 53.3661 182.334C56.625 187.531 59.5506 179.881 55.1953 178.633C50.5168 177.293 40.9882 180.79 39.9342 177.818C39.3924 176.803 38.7324 176.425 38.1144 176.465ZM75.6472 261.902L63.163 283.948L142.981 283.467L132.548 262.44C132.726 262.207 97.6869 266.605 75.6472 261.902Z" fill="#E2CF00"/>
<path d="M92.9689 52.4704L94.2656 55.5633C111.411 53.4906 129.348 51.3443 147.306 55.9105C147.306 55.9105 148.624 53.0509 148.603 52.8441C131.87 48.5885 94.4518 49.6926 92.9689 52.4704ZM110.318 95.9057L126.633 106.458C126.633 106.458 134.447 100.938 137.777 98.6026L135.755 95.6336C128.855 110.843 116.726 98.8145 112.179 91.6583C112.179 91.6583 110.943 94.4302 110.318 95.9057ZM154.139 101.011C155.269 100.987 155.896 101.423 156.464 102.573C157.106 103.872 157.351 103.552 156.938 101.932C156.288 99.3771 159.001 97.7145 161.558 99.4203C163.404 100.652 163.323 103.632 161.306 104.184C159.677 104.63 159.634 105.058 161.066 104.988C163.633 104.863 164.316 108.288 162.489 109.963C160.388 111.889 157.71 110.524 157.466 108.109C157.354 107.426 157.209 107.435 156.984 107.822C156.335 108.937 156.275 110.386 156.402 111.697L152.608 109.344C153.959 108.676 154.782 108.272 155.758 107.258C155.886 107.125 155.982 107.029 155.981 106.971C155.979 106.868 155.558 107.006 154.785 107.086C152.493 107.325 150.729 105.84 151.199 103.682C151.599 101.847 152.55 101.046 154.139 101.011ZM137.41 160.538C141.536 155.818 146.661 152.788 153.783 153.212C154.689 133.433 161.548 115.846 172.534 100.001L160.448 92.7361L155.6 95.661C143.939 112.198 136.775 133.181 137.41 160.538ZM46.8258 114.322C46.8258 114.322 38.6448 120.448 34.8439 123.407L35.0277 177.944L36.0844 178.306C36.1597 178.422 35.9922 177.497 36.4767 177.074C36.8729 176.729 37.5012 176.336 37.8739 176.201C38.9256 175.818 38.9722 175.117 37.9908 174.511C37.2294 174.041 36.9396 173.314 37.027 172.106C37.0887 171.254 37.0525 171.068 36.697 170.489C36.2552 169.77 36.2179 168.86 36.5936 167.916C36.7681 167.478 36.7513 167.36 36.4402 166.768C36.044 166.014 35.9968 165.202 36.2916 164.327C36.4043 163.993 36.4859 163.262 36.4754 162.698C36.4354 160.526 38.2291 159.085 41.5416 158.631C42.8365 158.453 42.8762 158.4 42.2817 157.314C38.9272 151.188 46.4636 147.995 47.0275 148.976L46.8258 114.322ZM150.04 117.363C153.101 117.319 155.62 119.761 155.664 122.822C155.709 125.883 153.262 128.402 150.201 128.446C147.14 128.491 144.621 126.044 144.577 122.983C144.532 119.922 146.979 117.408 150.04 117.363ZM150.092 118.353C147.641 118.388 145.685 120.402 145.721 122.853C145.756 125.304 147.77 127.265 150.221 127.229C152.672 127.194 154.633 125.175 154.597 122.724C154.562 120.273 152.543 118.317 150.092 118.353ZM150.207 119.761C151.869 119.737 153.239 121.063 153.263 122.725C153.287 124.387 151.956 125.757 150.294 125.781C148.632 125.805 147.267 124.474 147.243 122.812C147.219 121.15 148.545 119.785 150.207 119.761ZM40.1662 122.038C40.3917 122.034 40.6317 122.068 40.875 122.146C42.2564 122.585 42.7391 123.801 41.9909 124.954C41.4032 125.859 41.4706 125.937 42.4994 125.555C43.3085 125.254 43.7206 125.349 44.3586 125.98C46.2715 127.874 43.4241 131.057 41.5517 129.128C40.6243 128.173 40.536 128.455 41.1791 130.096C41.3872 130.627 41.7313 131.452 41.7313 131.452L38.986 131.412C38.986 131.412 39.4125 130.318 39.6094 129.803C40.0844 128.559 40.1001 128.377 39.1097 129.159C36.8762 130.923 34.3438 127.905 36.3988 125.931C36.8168 125.529 37.4879 125.511 38.4208 125.878C39.1005 126.145 39.1826 125.959 38.672 125.318C37.5613 123.923 38.5881 122.066 40.1662 122.038ZM97.0592 126.925C95.943 134.234 96.9172 144.49 96.8934 149.971C99.8697 150.538 99.903 152.566 100.36 155.085C101.807 154.581 104.97 156.718 105.403 156.53C105.733 149.115 101.877 127.59 97.0592 126.925ZM146.444 134.25C150.669 134.589 149.86 137.852 148.601 139.193C148.005 139.88 148.116 140.189 148.77 139.794C150.555 138.716 151.971 139.494 152.546 141.351C153.529 144.524 149.358 147.257 147.498 144.409C146.868 143.445 146.482 143.663 146.637 144.672C146.732 145.645 147.682 147.661 147.682 147.661L143.537 147.29C143.537 147.29 144.803 145.182 145.026 144.615C145.487 143.438 145.244 143.124 144.358 144.073C141.765 146.445 138.173 143.408 139.847 140.263C140.672 138.712 142.194 138.211 143.838 139.446C144.946 140.169 145.185 139.855 144.194 138.978C142.343 137.339 143.956 134.051 146.444 134.25ZM40.367 136.841C40.4143 136.838 40.4604 136.838 40.5085 136.839C40.8636 136.845 41.2358 136.944 41.6069 137.153C42.637 137.732 42.9193 138.874 42.2735 139.868C41.902 140.44 42.01 140.801 42.4419 140.427C43.0201 139.927 44.2964 140.259 44.7942 141.039C46.0727 143.041 43.5747 145.661 41.9797 143.994C41.2757 143.258 41.0063 143.228 41.0879 143.711C41.3172 144.618 41.9143 146.166 41.9143 146.166L39.0431 146.215C39.0431 146.215 39.6629 144.588 39.8006 143.762C39.9063 143.109 39.6457 143.204 38.9618 143.976C38.2968 144.727 37.6919 144.805 36.8439 144.243C34.7515 142.856 36.4274 139.296 38.6095 140.492C39.3611 140.904 39.4664 140.666 38.8789 139.889C37.8297 138.502 38.9002 136.912 40.367 136.841ZM189.43 135.569C184.783 140.371 186.24 137.532 188.395 141.193C188.403 143.606 189.812 145.495 188.696 149.305C188.337 150.049 188.306 150.403 188.502 151.152C188.161 155.36 184.79 155.306 181.513 155.959C182.056 155.923 186.706 164.513 178.031 165.185L178.13 200.107L191.732 190.079L191.672 135.569L189.43 135.569ZM87.3583 154.006C83.5018 156.491 78.0843 162.702 71.2708 161.352C70.4464 183.14 63.2958 200.008 53.0962 214.504C56.6177 216.586 60.494 219.085 64.0955 220.686C67.1405 219.116 68.8504 218.461 71.8387 216.002C84.1007 197.061 87.9892 176.355 87.3583 154.006ZM119.378 157.991C120.066 169.181 121.887 179.777 127.708 188.278L128.102 164.498C126.027 164.001 124.328 162.661 123.723 158.859L119.378 157.991ZM77.3095 164.592L81.1992 164.684C81.1992 164.684 80.3167 166.442 79.9347 167.425C79.4707 168.626 79.6909 168.871 80.5777 168.036C81.732 166.95 83.5719 166.849 84.54 167.818C87.1104 170.393 84.4221 174.59 81.3817 172.749C80.08 171.961 79.8623 172.225 80.8952 173.341C82.9045 175.205 80.8062 177.89 78.4583 177.901C76.7604 177.894 75.6605 176.537 75.5271 175.042C75.4619 174.101 75.9344 173.157 76.7508 172.699C77.602 172.22 76.9923 171.909 76.0676 172.407C73.0483 174.031 71.0279 169.859 73.3061 167.485C74.6199 166.116 76.0101 166.244 77.3456 167.55C78.278 168.463 78.6119 168.382 78.3488 167.303C78.0838 166.088 77.3095 164.592 77.3095 164.592ZM182.303 167.867L185.09 167.87C184.816 168.56 184.462 169.263 184.239 169.944C184 170.687 184.175 170.782 184.913 170.064C186.834 168.774 188.883 170.064 188.467 172.107C188.179 173.516 186.999 174.208 185.636 173.596C184.434 173.056 184.819 173.287 185.503 174.11C186.316 175.088 186.109 176.229 185.034 176.985C183.132 178.322 180.621 176.101 181.88 174.162C182.621 173.009 182.281 173.134 181.606 173.692C180.592 174.434 179.059 173.384 179.029 171.928C178.912 169.834 181.026 168.656 182.516 170.138C183.226 170.735 183.402 170.662 183.082 169.793C182.788 169.162 182.693 168.486 182.303 167.867ZM182.453 183.095L185.373 183.061C185.373 183.061 185.333 183.285 184.883 184.13C184.354 185.123 184.435 186.151 184.987 185.453C185.918 184.276 187.897 184.604 188.546 186.043C189.301 187.719 187.829 189.571 186.3 188.867C185.306 188.409 185.238 188.508 185.898 189.462C186.541 190.39 186.256 191.531 185.212 192.197C183.161 193.507 180.702 190.893 182.41 189.22C182.868 188.773 182.724 188.555 182.169 188.856C179.905 190.087 178.235 187.027 180.193 185.235C181.027 184.472 181.664 184.525 183.035 185.472C183.462 185.767 183.544 185.463 183.236 184.715C182.712 183.44 182.453 183.095 182.453 183.095ZM74.0286 184.927C77.2793 184.879 79.95 187.474 79.9972 190.724C80.0444 193.975 77.4502 196.65 74.1996 196.698C70.9489 196.745 68.2733 194.146 68.2261 190.895C68.1789 187.645 70.7779 184.974 74.0286 184.927ZM74.0957 185.977C71.4253 186.016 69.2904 188.209 69.3292 190.879C69.368 193.55 71.5657 195.684 74.2361 195.646C76.9066 195.607 79.0413 193.409 79.0026 190.739C78.9638 188.068 76.7662 185.938 74.0957 185.977ZM74.151 187.834C75.7949 187.81 77.1449 189.121 77.1688 190.765C77.1926 192.409 75.8814 193.764 74.2374 193.788C72.5935 193.812 71.2387 192.496 71.2149 190.852C71.191 189.208 72.507 187.858 74.151 187.834ZM66.7519 202.095L70.1499 203.756C70.1499 203.756 68.5432 205.064 67.9037 205.737C67.0864 206.605 67.1431 207.011 68.2467 206.596C70.3512 205.805 72.4588 206.99 72.4983 209.174C72.551 212.089 69.1029 213.492 67.4472 211.285C66.955 210.629 66.3672 210.356 66.5975 210.892C67.158 212.197 66.8153 213.84 65.8391 214.515C65.0577 215.055 63.6275 215.214 62.9064 214.84C60.426 213.555 60.2972 210.697 62.6695 209.568C63.8621 209 63.9015 208.468 62.7285 208.76C60.2859 209.369 58.8616 206.413 60.6233 204.382C62.493 202.227 65.5414 202.673 65.8785 205.862C65.9385 206.429 66.3252 206.019 66.4979 205.15C66.7055 204.504 66.7519 202.095 66.7519 202.095ZM98.4256 206.89C98.4256 206.89 85.9827 213.97 86.3617 214.269C86.4351 214.312 89.1193 218.09 89.1193 218.09C95.2926 204.102 110.077 215.686 112.445 222.827C112.958 223.144 113.046 223.053 113.604 223.304C113.657 222.8 114.682 217.839 114.682 217.839L98.4256 206.89ZM78.4715 258.317C77.8481 259.097 75.7624 261.31 76.0252 261.393C94.3115 265.324 113.171 265.011 132.368 262.928L130.902 258.317C111.946 263.147 78.4715 258.317 78.4715 258.317Z" fill="#D40000"/>
<path d="M32.3011 28.991L33.4225 286.068L193.899 285.501L192.937 28.6814L32.3011 28.991ZM81.1065 30.8227L161.145 30.4959C157.392 40.2419 146.58 55.6402 147.092 55.6768C130.443 52.9258 113.281 51.5377 94.0877 55.6372L81.1065 30.8227ZM34.1544 31.4495L79.0695 31.3913L93.8833 57.9437C93.8833 57.9437 94.7533 59.6007 94.2336 61.3344C93.6665 63.2263 93.1789 64.066 92.6686 65.0318C92.7198 64.4808 88.3999 63.9344 88.7614 67.6327C89.0061 70.136 92.1746 71.5518 94.5336 69.6041C94.9107 69.5727 94.9077 69.9225 94.8253 70.5335C94.6076 71.9677 93.0846 76.5191 92.04 76.8211C86.7219 72.4605 84.8243 80.4239 88.41 82.0117C90.4857 82.9308 93.6782 82.1712 95.1703 79.6758C96.3116 77.7669 96.1852 78.0822 96.5449 80.3989C96.6787 81.2604 96.8676 82.2589 96.965 82.7079C97.2695 84.112 96.9654 84.3843 94.6019 85.0215C92.7001 85.7623 90.7725 86.1713 88.8111 86.5956C85.2266 87.1834 83.3945 89.8872 83.3052 93.1776C83.2859 93.8889 83.3108 94.2179 83.1583 94.4293C67.9933 100.185 51.8784 108.239 34.9743 121.991L34.1544 31.4495ZM135.987 94.4966C135.413 93.5677 133.576 88.6902 133.072 86.6553C131.756 76.7891 131.506 65.0773 130.1 55.8933L131.953 56.101C131.953 56.101 132.649 58.7602 133.399 65.9442C133.77 69.5054 134.158 76.9087 134.468 80.3123C134.936 85.3695 137.221 93.456 138.636 95.4973C140.945 98.8264 145.585 96.673 144.034 92.7201C143.228 90.6692 140.11 91.0013 140.542 93.1296C140.55 93.5091 140.839 92.8582 141.295 92.4581C142.642 91.9478 144.159 93.3501 143.368 95.0387C142.385 97.1946 139.478 96.2107 138.514 93.4934C137.362 90.2473 141.243 87.8138 144.146 89.7935C147.381 91.9988 147.387 97.5897 144.783 99.3542C140.399 100.953 137.418 97.7591 135.987 94.4966ZM146.825 98.6093C146.648 98.5052 146.831 98.1654 147.048 97.3584C147.858 94.3412 147.348 91.9866 145.396 89.7675C144.308 88.5312 143.899 88.314 144.469 88.0898C145.676 87.6146 148.344 89.5519 149.077 91.4565C149.801 93.3267 149.982 95.2608 148.963 97.3752C148.254 97.8288 147.153 98.7387 146.825 98.6093ZM150.128 96.5999C150.126 96.247 150.363 95.1335 150.418 94.5888C150.629 92.4836 149.644 90.3461 147.902 88.6749C146.441 87.2725 146.306 87.128 147.69 87.1047C151.258 87.0447 153.534 92.8134 151.887 95.6556C151.463 96.1059 150.17 97.0276 150.128 96.5999ZM153.15 94.6475C154.2 89.7295 149.444 86.4516 149.348 86.6049C149.585 85.5029 151.474 86.1364 152.118 86.5653C154.522 88.1798 155.905 92.3997 154.429 94.7983C154.269 95.0927 154.072 95.2618 153.812 95.4205C153.316 95.732 153.023 95.9827 152.922 95.7642C152.846 95.5987 153.122 94.8829 153.15 94.6475ZM111.3 78.6918C111.797 78.2041 111.946 78.1901 112.901 78.5507C115.894 79.6806 118.285 77.5335 117.578 75.2765C117.323 74.4592 116.201 73.5722 115.511 73.5007C114.383 73.3838 114.361 73.9791 115.576 74.4333C117.07 74.9912 117.221 76.5758 115.906 77.2906C114.362 78.3333 111.832 75.6868 109.977 75.9103C109.091 76.1753 108.523 77.0045 109.03 78.0176C109.425 78.728 110.76 79.1582 111.3 78.6918ZM107.981 78.3686C106.943 77.8868 106.547 77.8959 106.746 76.7635C106.877 76.0181 107.939 71.0017 108.445 69.0627C109.958 63.256 108.536 60.0372 104.25 58.7392C101.346 57.8596 98.8456 58.3053 95.8865 59.879L95.3541 58.2372C107.76 54.9919 128.931 55.7118 128.856 55.8374C129.273 57.5071 129.433 59.1768 129.596 60.8465C129.596 60.8465 125.629 58.9007 123.56 58.2531C120.372 57.276 115.333 58.3475 114.44 60.1772C113.934 61.2147 114.198 61.9065 116.34 60.7532C119.845 58.8655 127.005 60.3039 129.528 62.3054C130.11 62.7665 130.08 62.8672 130.091 63.408C130.108 64.2324 130.157 64.2807 129.009 63.667C122.992 60.591 117.851 60.9478 116.077 64.9861C115.668 64.8627 114.108 64.5942 114.108 64.5942L115.783 67.0712L116.102 69.6641C116.102 69.6641 118.839 71.1825 120.348 71.8256C121.833 72.4549 120.978 71.7851 119.155 70.5165C117.817 69.5851 118.882 69.2868 119.765 69.6433C121.581 70.0598 124.236 70.5887 127.309 68.6377C128.263 68.0318 130.448 68.5574 130.482 68.8319C130.482 68.8319 130.773 71.0992 131.062 75.8304C131.199 78.0684 131.474 80.992 131.631 82.1922C132.104 85.818 132.24 86.0243 130.332 84.2857C129.691 83.7024 128.625 82.7348 128.612 82.7925C128.371 83.9168 131.185 85.8918 131.841 86.5695C132.835 87.5981 133.633 90.2312 133.235 90.3873C132.983 90.4862 130.309 88.2185 128.204 86.1791C127.416 85.4151 126.241 84.3908 126.208 84.4258C125.773 84.7157 127.54 86.7103 129.196 88.2016C131.127 89.942 131.35 90.0977 130.701 90.36C129.502 90.8443 128.423 90.242 125.512 87.8355C125.229 87.6012 124.127 86.8194 124.075 86.8756C123.809 87.2298 126.495 89.7721 127.104 89.9907C128.237 90.3968 128.563 91.491 127.67 91.9204C127.074 92.2071 124.851 90.9892 123.07 89.4458C122.751 89.1692 121.864 88.6984 121.806 88.7616C121.452 88.9887 123.444 90.7109 125.344 91.8552C127.205 92.9754 127.503 93.252 127.029 94.1835C126.587 95.1428 122.503 92.9216 120.461 90.6342C120.026 90.1474 119.683 89.9378 119.769 90.102C120.659 92.5676 123.586 94.3342 125.764 95.0377C126.153 95.165 126.716 95.322 126.97 95.5237C127.59 96.0163 127.453 96.529 126.781 96.8178C124.459 97.4694 120.796 94.6568 118.177 91.7104C117.873 91.5848 118.054 91.9705 118.134 92.098C120.319 95.5851 124.504 98.2382 127.023 97.743C128.497 97.4535 129.68 97.897 129.692 98.3912C129.701 98.7963 128.889 99.4418 127.305 99.5547C123.72 99.8101 118.12 95.8887 114.844 90.8949C114.742 90.7393 114.621 90.6819 114.613 90.7763C114.524 91.8349 116.561 94.431 118.123 95.916C122.765 100.328 127.153 101.819 130.576 99.3336C132.506 97.8379 134.371 94.5682 131.496 93.4755C129.974 92.8969 129.011 94.9926 130.313 94.3946C132.024 94.1886 132.412 95.0959 132.189 95.9489C131.754 97.4135 130.302 97.6463 129.123 97.0306C127.069 95.9184 127.505 92.1064 130.164 91.4404C132.559 90.8619 134.65 92.8927 134.924 94.8192C135.351 97.8116 131.975 101.05 129.267 101.856C120.032 104.603 112.82 91.7716 112.778 91.4813C112.315 90.5898 111.757 90.1178 111.406 91.157C111.028 92.662 108.944 97.0754 107.829 97.0488C108.176 95.4918 109.637 92.8748 109.283 90.5822C108.666 92.4648 107.367 96.482 104.88 98.6215C104.236 99.2084 102.344 99.8998 103.646 98.3895C105.218 96.1802 107.274 93.1594 106.849 90.3226C106.431 90.96 106.204 92.5739 105.727 93.6395C104.534 96.3074 101.926 99.4734 100.204 99.986C98.9323 100.365 99.0512 99.9354 100.353 98.5646C101.749 97.095 104.22 92.7799 104.056 90.9196C103.986 90.098 101.493 98.0255 96.8073 100.196C95.542 100.658 94.8228 100.076 94.8228 100.076C96.6648 99.0155 101.753 94.0001 101.272 88.3019C101.272 88.3019 101.001 89.1455 100.601 90.4109C98.8756 95.8495 95.169 99.4252 92.2804 99.7212C89.9744 99.9576 88.3644 99.0275 88.9364 98.6166C91.9263 98.6386 94.3834 97.6051 96.303 94.6911C98.254 91.7293 98.9811 86.9703 97.7989 81.9335C96.7326 77.3912 96.4985 73.3066 96.1263 68.9401C99.402 70.059 102.698 70.8034 105.888 69.5571C105.568 70.8581 105.035 71.0198 104.194 72.002C103.583 72.7201 103.792 72.8909 106.175 71.208C106.868 70.7183 107.118 70.3258 107.244 70.4569C107.447 70.6696 107.131 72.0091 106.437 74.6792C105.401 78.6719 105.67 78.958 109.506 80.4625C110.222 80.7432 110.489 81.018 110.74 81.3169C110.857 81.4567 111.486 82.5902 111.546 82.6301C111.686 82.7237 111.649 81.4745 111.572 81.1586C111.366 80.3198 110.913 79.6903 110.516 79.442C109.763 78.7486 108.677 78.6875 107.981 78.3686ZM180.4 130.448L180.438 126.302L184.466 129.16L184.417 130.528L180.4 130.448ZM173.516 131.349L173.369 54.6689C173.369 54.6689 176.46 52.6149 178.005 51.5975C178.97 54.6376 178.964 61.1566 178.602 64.0595C177.997 65.95 177.727 74.364 178.413 78.6452C178.96 82.058 178.86 87.7024 178.343 90.4039C178.142 91.4594 178.297 96.4063 178.677 100.983C178.966 104.48 178.883 107.66 178.461 109.48C178.128 110.914 178.243 116.053 178.623 118.025C179.181 120.925 179.277 130.242 179.026 130.748C178.363 131.5 173.168 131.606 173.516 131.349ZM179.641 51.1033C179.641 51.1033 182.754 53.1596 184.256 54.1878L184.276 57.4915L179.777 54.5541L179.641 51.1033ZM133.167 56.4415L135.092 56.5612C135.859 60.5541 136.192 65.093 136.497 69.6437C136.595 76.6604 137.461 84.0607 139.109 88.9113L137.693 90.3955C135.283 84.8372 135.093 76.0689 134.555 70.1344C134.32 63.4599 133.222 56.4843 133.167 56.4415ZM180.014 55.7419L184.202 58.5758L184.245 62.1689L180.027 59.3704L180.014 55.7419ZM135.946 56.7052L137.637 56.889C138.151 61.6296 138.94 64.8466 139.24 70.0692C139.628 76.8239 140.799 82.3702 141.527 87.6463L140.26 88.0671C139.413 88.4577 138.007 82.2226 137.381 69.5839C137.192 65.7589 136.544 61.4564 135.946 56.7052ZM138.503 56.8834L140.523 57.2452C141.416 69.2455 142.827 80.5159 144.305 86.9739L142.549 87.09C140.371 77.8601 140.229 67.1806 138.503 56.8834ZM141.421 57.3088L143.277 57.6306C145.509 85.0741 146.886 84.7201 147.317 85.7989L145.308 86.6137C143.137 78.7275 142.699 67.6095 141.421 57.3088ZM149.847 84.2646C149.529 85.189 148.777 85.103 147.956 85.1979C147.036 82.6758 146.499 79.6695 146.114 76.726C145.267 70.2604 144.961 64.1979 144.079 57.8172L146.293 58.0439C146.221 58.0926 147.864 80.5473 149.847 84.2646ZM102.214 60.1426C105.132 60.2835 107.553 61.5931 107.786 63.51C107.838 63.9412 107.496 63.7317 107.101 63.4289C104.591 61.5056 101.736 60.9063 98.287 62.1469C97.5355 62.4173 96.9205 62.8434 96.5847 62.7846C96.2829 62.592 96.1896 62.1244 96.4203 61.7388C97.2246 60.3945 100.77 60.0728 102.214 60.1426ZM95.4472 63.9918C95.5096 67.0144 94.7742 68.6808 93.1883 69.3792C91.2741 70.2222 88.8195 68.417 90.0122 66.3976C90.9139 64.8708 92.4639 65.331 92.7593 66.9351L95.1915 61.5198C95.1915 61.5198 95.4407 63.2347 95.4472 63.9918ZM184.281 63.5071L184.255 66.6223L179.767 63.6229L180.066 60.6278L184.281 63.5071ZM104.666 63.101C106.877 63.9766 107.689 65.0464 107.771 65.5219C107.643 65.8763 107.422 65.6344 105.808 64.763C103.321 63.2383 100.081 62.9896 97.2334 64.9253C96.5238 65.0655 96.4508 64.663 97.1619 63.8984C99.3315 62.1994 102.328 62.1753 104.666 63.101ZM121.458 62.5177C123.403 62.4563 125.729 62.9506 127.693 63.936C128.561 64.3717 129.341 64.6434 129.907 65.1443C130.36 65.3804 130.395 66.4079 130.064 66.4854C129.768 66.527 129.283 66.2963 128.559 65.7906C123.892 62.7601 120.534 63.1331 117.835 64.9986C117.685 65.1016 117.221 65.2079 117.038 65.194C116.523 65.1552 116.497 64.9446 116.712 64.6658C117.96 63.2544 119.828 62.5736 121.458 62.5177ZM179.78 64.6992L184.278 67.842L184.276 70.9323L179.494 67.6078L179.78 64.6992ZM98.5951 65.9549L99.2518 65.9738C100.783 69.6829 102.703 67.7711 103.5 66.2859L104.3 66.4161C103.048 71.3842 97.9534 68.7847 98.5951 65.9549ZM97.4772 66.4494C98.2205 66.5388 98.1942 67.3798 98.427 67.9919C98.9472 69.3598 96.9746 68.2023 96.6367 67.8691C96.0641 67.2666 96.8777 66.5113 97.4772 66.4494ZM119.738 66.3048C121.677 69.2548 122.795 67.5084 123.901 66.2237L124.427 66.392C124.289 68.5099 120.723 70.7677 119.031 66.3567L119.738 66.3048ZM125.701 66.6384C125.909 66.6416 126.325 66.7903 126.708 66.9451C127.769 67.3739 127.713 67.6881 126.538 68.2105C124.66 69.0458 124.007 69.154 124.569 67.974C124.893 67.4343 125.107 66.7194 125.701 66.6384ZM118.333 67.0882C118.806 67.4356 119.117 67.8199 119.171 68.445C119.209 68.8856 117.743 68.378 117.746 67.6759C117.792 67.2297 118.034 66.868 118.333 67.0882ZM105.338 67.2562C106.302 67.6131 106.186 68.0722 105.515 68.4885C104.31 69.1603 103.794 69.028 104.573 67.9717C104.933 67.4845 105.01 67.2663 105.338 67.2562ZM179.479 68.8111L184.35 72.2347L184.306 75.3778L179.44 72.061C179.213 70.7142 179.427 69.8086 179.479 68.8111ZM95.3047 73.6762C95.5356 73.6821 95.6269 74.4454 95.681 75.5615C95.771 77.4171 93.8819 80.0014 91.9722 80.8916C89.6724 81.9636 87.2099 80.4603 87.622 78.2325C88.0019 76.1792 90.9192 76.0943 91.0295 77.9913C90.7458 78.4903 91.1434 78.908 91.3063 78.8643C92.0566 78.6629 93.8258 77.0713 94.5455 75.2904C94.8259 74.5964 94.9963 73.8821 95.1969 73.7202C95.2359 73.6888 95.2718 73.6754 95.3047 73.6762ZM179.348 73.0969L184.215 76.648L184.237 79.771L179.41 76.4508C179.219 75.059 179.302 74.0662 179.348 73.0969ZM120.29 78.0426C119.922 78.6606 120.224 79.768 120.978 78.8247C122.917 76.5675 125.726 79.3922 124.223 81.187C122.859 82.8159 121.181 82.2914 117.637 80.9385C115.055 79.9529 114.649 80.2886 114.012 81.0005C113.488 81.5867 113.755 82.7672 114.434 82.7531C116.526 83.2279 118.338 83.6904 120.503 84.1408C125.081 85.0798 127.873 79.1838 123.691 77.0172C122.691 76.4989 120.62 77.1724 120.29 78.0426ZM100.087 78.7216C98.3025 80.3218 99.7664 84.528 102.394 84.9036C102.945 84.9823 103.766 84.9595 104.699 84.6904C106.538 84.1599 108.563 83.0723 108.646 82.4386C109.024 79.5596 104.737 82.1413 104.17 82.4826C102.818 83.303 101.388 83.1967 100.667 82.2222C99.0438 80.026 101.954 77.5059 103.722 80.1928C104.168 80.8709 104.011 79.7222 103.524 78.9415C102.837 77.8393 101.064 77.9108 100.087 78.7216ZM179.67 77.8148L184.245 81.0477L184.219 84.0549L179.783 80.8571L179.67 77.8148ZM180.013 82.2171L184.345 85.3332L184.419 88.4586L179.872 85.4659C179.961 84.3407 179.983 83.2831 180.013 82.2171ZM155.722 84.0124C159.531 84.075 161.681 89.7028 159.672 92.0445C159.074 92.7412 158.597 92.9277 158.327 92.668C158.268 92.6121 158.364 91.9826 158.403 91.2713C158.527 89.0028 158.045 87.4498 156.385 85.7267C155.14 84.4342 154.669 84.0341 155.722 84.0124ZM108.816 84.9094C108.097 85.1657 107.336 85.6853 106.746 85.5571C106.164 85.4305 105.886 85.7186 105.658 86.175C104.786 87.9212 105.056 88.4859 106.784 87.4945C107.604 87.0239 107.891 87.1926 110.086 87.6068C111.655 87.9028 112.722 87.8735 114.102 87.5155C115.818 87.0704 116.841 87.0357 117.709 87.5102C118.577 87.9848 119.171 88.6389 119.194 88.1064C119.097 87.4831 118.553 85.8888 118.427 85.3592C118.367 85.1044 117.94 85.3287 117.536 85.358C116.114 85.4611 114.417 84.1818 113.318 84.8581C112.439 85.3994 112.323 85.5413 111.116 84.8335C110.218 84.3065 109.595 84.6319 108.816 84.9094ZM154.698 85.3007C157.278 87.4546 157.938 89.3656 157.688 90.9337C157.56 92.0742 157.475 93.3342 156.357 94.0207C156.151 94.1191 155.844 94.18 155.559 94.2219C156.426 90.9821 155.404 88.0807 151.758 84.9851C152.818 84.46 153.9 84.6354 154.698 85.3007ZM96.5202 85.2954C96.6347 85.2951 96.7609 85.3139 96.8889 85.3561C97.3366 85.5035 97.4071 86.6746 97.0548 87.0417C96.7025 87.4087 96.418 87.106 96.0096 86.1751C95.7063 85.6682 96.024 85.2969 96.5202 85.2954ZM94.1382 86.207C95.0798 86.1876 95.437 87.05 95.5985 87.7371C95.7362 88.3227 95.5626 90.0705 95.0625 89.4611C94.9425 89.0909 94.4308 87.8959 94.0215 87.5855C93.1099 86.8942 93.2004 86.2264 94.1382 86.207ZM91.4868 87.0754C91.6244 87.0715 91.8011 87.0884 92.0156 87.1243C93.4858 87.3704 94.6117 89.7104 94.2697 91.0381C93.4916 92.4661 93.2036 91.5033 92.9468 90.2086C92.7461 89.6718 92.1438 88.8305 91.7747 88.3961C91.0087 87.4945 90.8903 87.0922 91.4868 87.0754ZM179.887 86.3954L184.364 89.6036L184.371 93.0377L179.685 89.8888C179.79 88.687 179.843 87.5362 179.887 86.3954ZM88.5785 87.7872C90.7713 87.7913 92.6431 90.3401 91.9518 92.7975C91.0948 95.3601 86.8268 94.8135 87.5354 92.2581C87.7392 91.5231 88.5237 90.9853 89.2729 91.4454C90.3549 92.1099 90.236 91.0284 89.5489 90.6445C88.4884 90.0521 87.0304 90.4107 86.7055 91.61C85.573 95.7908 90.9472 97.2159 93.8723 92.8969C94.9414 91.3183 96.1047 89.6291 96.7472 88.9086C97.3244 88.2613 97.4477 88.3293 97.3544 89.1638C96.9817 93.0483 94.273 97.9031 89.1931 97.6375C84.256 97.1686 82.7126 91.9314 86.4411 88.6622C87.0676 88.1129 87.7273 87.842 88.3664 87.7949C88.4378 87.7897 88.5077 87.787 88.5785 87.7872ZM114.739 87.9989C112.932 88.8737 111.295 89.2047 109.517 88.4305C108.202 87.8583 108.223 88.4796 108.794 88.9897C110.446 90.3957 113.449 89.7594 114.736 88.968C115.154 88.7111 115.291 87.9673 114.739 87.9989ZM184.378 94.2081L184.392 97.3314L179.394 93.9835C179.315 93.2363 179.399 92.1005 179.564 90.9277L184.378 94.2081ZM179.56 95.2513L184.319 98.3847L184.445 101.48L179.821 98.6132L179.56 95.2513ZM179.892 99.5925L184.438 102.736L184.504 106.115L180 103.152L179.892 99.5925ZM69.0359 103.145L66.2535 111.55L68.0751 111.66L69.3049 113.877L70.5686 111.605L72.4855 111.46L69.0359 103.145ZM180.082 104.267L184.463 107.277L184.53 110.398L179.978 107.251L180.082 104.267ZM179.904 108.087L184.395 111.331L184.485 114.647L179.394 111.255L179.904 108.087ZM79.4091 109.963L76.6542 118.962L78.2071 118.751L79.6613 121.158L81.1293 118.996L82.5214 119.075L79.4091 109.963ZM58.6724 110.632L56.0487 119.577L57.8073 119.571L59.2924 121.826L60.5951 119.648L62.5888 119.595L58.6724 110.632ZM179.319 112.279L184.59 115.977L184.634 119.497L179.524 116.075L179.319 112.279ZM184.53 120.641L184.589 123.724L180.153 120.567L179.672 117.144L184.53 120.641ZM90.4307 121.171L87.2103 130.262L89.3701 130.282L90.6796 132.465L91.7275 130.272L93.4629 130.289L90.4307 121.171ZM180.445 122.078L184.56 124.898L184.528 128.063L180.477 125.35L180.445 122.078ZM102.458 158.862L100.113 156.609C100.084 156.425 102.03 155.482 103.229 156.082C104.811 156.874 105.624 159.722 103.852 161.221C102.443 162.414 100.291 161.422 100.248 161.281L102.458 158.862ZM100.371 155.146C100.413 151.666 98.5798 150.773 97.0639 150.068C97.0639 150.068 96.8105 128.013 96.8435 127.354C96.8449 127.45 96.4549 124.966 96.4106 124.819C96.4107 124.821 96.0467 124.722 96.0469 124.726C96.1106 126.962 96.2567 149.878 96.2211 150.027C93.3842 150.354 92.5918 152.275 92.3352 154.853C90.1217 154.687 88.682 156.019 88.6377 156.24C87.8204 155.118 88.4294 153.464 87.7842 152.293C85.8231 159.151 89.6371 163.254 92.9658 162.872C93.5 169.456 100.752 170.646 100.506 162.66C109.28 162.145 106.307 154.079 100.371 155.146ZM59.1478 127.458L55.9719 136.364L58.1984 136.11L59.0097 137.753C62.5763 134.611 64.3768 139.463 62.5623 135.302L59.1478 127.458ZM179.898 143.305C180.308 143.274 180.847 143.644 180.955 144.147C181.033 145.651 179.012 145.313 178.948 144.364C178.902 143.689 179.514 143.333 179.898 143.305ZM181.219 153.082C182.09 152.367 183.477 152.771 183.5 153.849C183.519 154.804 182.425 155.118 181.568 154.582C180.904 154.177 180.861 153.422 181.219 153.082ZM181.342 155.732C186.119 156.096 189.673 152.852 188.15 150.523C189.433 148.91 188.386 147.984 188.737 147.059C189.751 146.02 188.903 143.784 188.649 143.776C188.441 140.776 187.57 140.392 186.273 138.793C185.883 138.33 187.181 137.877 187.68 137.081C186.36 137.588 185.063 136.608 185.071 136.385L184.509 135.688C175.663 136.1 167.72 136.717 168.02 148.71C166.747 153.801 168.903 158.335 175.077 156.934C176.429 155.727 175.538 153.977 175.373 153.136C174.845 150.823 175.454 149.319 175.624 148.235C176.15 144.883 178.606 141.771 178.873 147.026C179.304 146.366 179.101 146.269 179.812 145.995C181.507 145.384 181.505 147.097 181.157 147.788C180.934 148.144 180.598 148.114 180.253 148.074C179.76 148.015 179.116 147.832 179.105 147.651C178.972 148.197 180.002 149.212 179.894 149.723C179.758 150.209 179.671 150.17 180.121 149.848C182.249 148.327 183.581 151.727 180.502 151.338C182.019 152.148 179.774 154.518 181.342 155.732ZM178.192 137.428C179.87 137.343 180.272 137.328 180.194 138.208C180.512 139.833 180.919 140.586 183.037 140.415C185.171 140.138 185.848 140.004 183.7 141.294C182.615 141.772 182.263 141.865 180.977 141.749C179.681 141.633 179.78 141.502 179.04 141.944C178.626 142.191 178.175 142.492 177.838 142.553C177.34 142.643 176.462 142.835 176.462 142.835C175.963 145.358 175.204 146.628 174.159 147.826C172.68 149.506 171.93 149.8 173.743 149.674C174.413 149.716 174.067 149.38 174.359 152.099C174.462 153.051 174.64 154.155 174.781 154.526C175.252 155.765 175.315 156.381 173.523 156.469C169.051 156.807 168.006 152.454 168.602 150.23C168.653 149.88 168.857 148.722 168.901 147.804C168.925 147.302 168.824 146.877 168.837 146.363C168.939 142.216 169.922 141.123 173.604 138.426C174.715 137.613 176.709 137.446 178.192 137.428ZM182.121 137.652C184.186 137.609 186.181 138.601 185.186 139.245C184.542 139.661 182.22 139.488 181.575 139.029C180.742 138.437 181.055 137.674 182.121 137.652ZM90.047 141.174L89.2287 142.624L88.3743 149.374L88.5262 150.744L90.2158 152.958L91.5521 150.662L93.6548 150.699L90.047 141.174ZM186.589 140.501C187.926 140.768 187.979 141.989 187.639 142.74C186.892 144.392 181.889 145.192 181.889 145.192C181.849 144.483 181.947 143.799 181.427 143.001C181.427 143.001 184.759 142.129 185.463 141.487C185.934 141.058 186.219 140.515 186.589 140.501ZM187.578 144.259C188.063 144.266 188.321 144.617 188.452 145.331C188.514 145.714 188.37 146.041 188.058 146.459C186.788 147.839 183.218 148.795 181.929 148.444C181.838 148.324 182.058 146.871 182.151 146.224C183.868 146.276 186.758 144.754 187.578 144.259ZM136.691 152.757C134.986 150.296 131.202 150.657 131.608 150.829C131.635 148.722 131.274 145.828 128.076 145.52C124.85 145.276 123.193 149.531 124.417 151.332C122.426 150.506 119.44 152.577 119.44 152.772C119.186 152.78 116.905 158.809 123.808 159.119C124.437 161.966 125.513 163.342 127.72 164.513L127.774 187.744L128.554 188.798L128.623 164.453C132.156 164.297 132.592 160.254 132.33 159.322C133.899 159.39 135.325 159.075 136.525 158.159L136.938 162.127C136.938 162.127 137.767 160.728 137.584 159.985C136.047 137.17 144.3 112.489 155.136 96.4912C155.715 95.8197 155.892 95.0178 156.179 95.0119C158.821 93.5884 160.49 92.6304 160.49 92.6304C164.847 94.7242 172.628 99.7781 172.628 99.7781L172.754 132.288C172.633 131.969 187.252 130.658 187.033 131.053C187.033 131.053 185.752 130.551 185.732 129.696L185.352 53.6195L178.956 49.4424C178.956 49.4424 173.698 52.8782 172.227 54.0523L172.388 98.8414L161.06 92.2058C161.06 92.2058 161.241 90.6217 161.258 90.1076C161.076 83.996 158.075 81.9452 152.362 83.7583C151.597 84.0012 151.064 84.2141 150.69 83.9011C148.284 76.8697 147.202 58.3921 147.205 58.3922L163.328 31.081L190.678 30.9305L191.15 135.28L192.14 189.976L178.181 200.142L177.977 165.105C177.977 165.105 175.977 164.149 175.453 164.084C175.256 164.069 175.002 164.509 175.358 164.736C175.871 165.063 177.133 165.521 177.133 165.521L177.429 200.248C177.429 200.248 172.003 203.9 169.576 205.422C167.767 206.546 162.046 209.427 158.657 211.086C157.342 211.73 156.014 212.246 155.892 212.347C151.276 214.33 147.113 215.719 143.266 217.766C140.611 218.852 140.73 217.788 140.165 216.92C134.625 211.442 127.472 211.118 121.677 213.647C120.779 213.98 119.667 214.27 118.916 214.791C118.699 214.951 118.322 215.131 118.073 215.19C117.565 215.311 117.009 215.536 116.542 215.905C115.709 216.564 115.154 217.638 114.678 218.705C114.383 219.365 113.497 222.444 113.38 223.357C113.36 223.51 113.676 223.476 113.686 223.491C113.727 223.547 114.577 219.762 114.915 219.045C115.635 217.515 116.543 216.6 117.024 216.456C117.244 216.418 117.435 216.759 117.137 217.298C116.545 218.369 116.065 220.646 115.921 221.672C115.793 222.62 115.767 223.38 115.944 223.413C115.975 223.443 116.813 220.545 117.19 219.522C118.172 216.855 118.792 215.749 119.738 215.181C120.708 214.597 120.939 214.679 120.747 215.299C119.303 218.115 118.708 220.244 118.425 223.243C118.382 223.841 118.684 223.858 118.923 222.868C119.714 219.719 120.799 215.461 123.364 214.19C124.459 213.695 124.945 213.719 124.828 214.072C121.774 217.93 121.01 222.214 121.046 223.596C121.058 224.058 121.245 223.966 121.637 222.967C122.671 219.165 124.204 215.932 126.024 214.345C126.729 213.731 127.582 213.562 128.296 213.474C130.453 213.206 130.526 214.006 128.649 215.099C126.51 216.344 124.037 220.874 123.762 224.276C123.667 225.453 124.084 225.581 124.378 224.011C125.647 217.25 131.443 212.78 136.09 214.85C138.18 215.782 138.559 217.076 136.739 216.501C133.056 215.336 128.966 217.946 127.279 221.588C125.755 224.88 125.787 226.61 126.859 231.019C127.59 235.092 129.015 240.297 128.545 244.286C128.038 245.061 126.439 243.967 124.55 243.734C123.41 243.521 122.018 243.467 120.829 243.922C119.792 244.319 119.203 244.418 119.011 243.86C118.949 243.681 119.811 242.803 120.195 242.317C120.809 241.541 120.457 241.417 119.592 242.26C119.169 242.672 118.259 243.638 118.009 243.688C117.463 243.799 117.441 243.183 117.882 241.616C119.429 235.531 119.015 235.428 116.362 234.195C113.733 233.194 114.564 232.689 113.4 231.694C112.579 232.335 114.472 235.275 116.612 235.918C118.364 236.444 118.15 237.339 117.383 239.748C116.605 243.119 115.278 247.581 116.046 250.574C117.659 256.864 124.046 256.736 128.938 254.194L129.534 255.797C125.399 257.472 103.6 258.902 96.2538 258.058C95.6861 256.073 95.6294 255.563 95.3994 253.226C95.3994 253.226 99.9375 255.275 102.203 255.63C105.031 256.074 109.387 256.095 110.502 253.491C110.843 252.727 110.493 252.082 109.517 252.524C107.723 253.337 104.657 253.939 102.18 253.786C100.1 253.657 97.136 252.823 95.8549 252.051C95.246 251.684 94.7321 250.967 95.2092 250.067C95.6319 249.973 96.1878 250.44 96.5167 250.609C100.269 252.502 102.326 252.87 104.773 252.143C106.63 251.593 109.13 249.59 108.513 249.022C107.886 249.24 105.806 250.987 104.372 251.368C101.42 252.152 98.2728 250.951 95.2063 248.965C94.2599 248.144 94.6921 247.546 95.8511 248.202C100.444 250.514 102.36 252.048 106.755 248.803C107.737 248.075 108.284 248.168 108.861 248.609C111.143 250.653 111.136 249.505 109.464 247.382C109.085 246.9 108.74 246.224 108.513 245.505C108.345 244.973 108.307 244.441 108.003 244.092C107.484 243.496 106.551 243.207 105.484 242.737C103.943 242.06 103.431 242.386 104.568 242.94C106.559 243.911 107.529 244.951 105.056 244.39C102.811 243.386 99.0641 243.948 96.944 245.42C95.2795 246.231 94.5462 247.1 94.1533 245.264C93.3301 241.432 94.1323 236.234 93.029 229.547C92.8186 228.272 92.5617 227.464 92.8284 227.29C93.1709 227.066 94.0251 227.891 95.0847 229.378C95.5675 230.056 96.5269 231.361 96.5213 231.089C96.5578 229.673 94.3554 227.016 92.5376 225.969C91.5389 225.394 90.8604 222.736 92.003 223.321C92.885 223.75 97.474 227.784 98.3478 229.222C98.7537 229.89 99.0968 229.464 98.6673 228.678C98.4096 228.207 97.3305 226.823 96.2828 225.8C94.4237 223.985 94.2079 224.07 94.5649 223.698C95.2713 222.962 96.7835 223.91 99.4784 226.349C100.17 227.221 101.084 228.009 100.972 227.576C101.247 226.896 98.5491 223.996 96.9485 223.219C96.6492 223.031 96.6085 222.834 96.6363 222.473C96.7884 221.103 99.8858 223.115 102.456 225.464C103.419 226.344 102.621 224.689 101.506 223.564C100.629 222.68 99.2162 221.58 98.2581 221.203C97.3063 220.811 97.2469 219.981 97.9933 219.633C100.57 219.524 103.23 222.157 104.816 224.227C105.253 224.795 105.655 225.233 105.199 224.157C103.731 220.916 100.676 219.091 98.5606 218.72C96.8418 218.42 96.8798 216.869 98.495 217.044C100.272 217.237 103.182 218.841 105.648 221.323C106.366 222.045 107.573 223.684 107.324 222.722C107.319 222.46 106.561 221.434 105.687 220.445C103.669 218.441 101.323 216.67 98.8362 216.143C97.6735 215.814 94.2226 216.479 94.2019 215.881C94.1927 215.439 94.5627 215.174 95.6617 214.809C99.9273 213.389 106.171 217.054 109.586 222.687C109.83 223.09 110.293 223.262 110.321 223.171C108.673 218.567 103.55 214.394 99.4755 213.679C96.7041 213.235 93.9099 213.942 92.5813 215.809C91.0864 217.91 91.6715 220.721 93.9162 220.496C95.0941 220.387 95.0004 219.719 94.9785 219.697C94.8986 219.618 94.2136 219.94 93.7904 219.857C92.2553 219.555 92.4159 216.779 94.6631 217.053C97.2471 217.368 97.6118 221.443 94.7243 222.3C92.0592 223.091 91.0827 221.873 90.3536 220.43C89.2857 218.315 90.4319 214.905 92.3146 213.598C97.5841 209.939 104.248 213.006 108.014 216.634C109.878 218.43 111.239 220.564 112.094 222.865C112.314 223.4 112.71 223.368 112.568 222.795C107.272 209.284 91.4669 207.824 89.1191 218.189C89.1191 218.189 89.0373 218.506 87.5174 216.345C85.0539 212.843 81.3741 212.063 76.8422 214.45C72.2631 216.171 70.7188 217.266 67.5438 218.908C67.081 219.072 64.1455 221.097 63.6748 220.676C59.1782 217.694 55.2573 216.678 53.1222 214.492C53.1957 214.091 52.8162 208.032 52.8162 208.032L52.9212 181.908C52.9531 181.653 50.5408 182.081 46.5249 182.711C35.8459 184.842 36.7801 179.226 35.367 178.831C34.6205 178.682 34.6756 179.002 34.4724 158.861C34.4134 153.011 34.2973 142.727 34.2112 136.006C34.125 129.285 34.1027 123.687 34.1626 123.568C34.2224 123.45 34.8224 122.935 35.5136 122.445C38.1157 120.601 39.5771 119.486 45.2715 115.141C46.5611 114.157 46.8862 113.991 46.8862 113.991C47.5399 126.092 46.9535 138.8 47.275 149.202L47.756 149.205L47.5693 114.273C46.5871 114.016 70.0225 100.302 82.8657 95.8536C83.1064 95.7702 83.7072 96.0377 83.7072 96.0377C91.0783 105.071 110.474 102.336 112.037 91.3386C115.25 98.0427 129.368 111.07 135.819 95.3672C135.819 95.3672 138.157 99.8779 140.163 100.176C144.671 100.774 145.171 100.063 155.094 95.2501C143.748 112.462 137.492 130.686 136.691 152.757ZM130.661 148.465C130.909 149.225 130.993 150.208 130.78 150.984C130.491 151.59 130.059 151.581 130.059 151.581L127.862 149.703L125.712 151.696C125.712 151.696 124.397 150.372 125.119 148.535C126.494 145.969 129.642 146.432 130.661 148.465ZM187.434 148.162C188.84 148.073 188.113 149.692 186.032 150.788C184.726 151.476 183.643 151.67 183.175 151.422C182.918 150.662 183.135 149.969 183.296 149.661C184.184 149.205 186.623 148.405 187.434 148.162ZM96.6241 151.211C98.1859 151.173 99.5394 152.285 99.5896 154.256C99.61 155.059 99.1979 155.855 99.1979 155.855L96.5884 153.932L94.5947 156.057C94.2548 156.176 93.0338 154.653 93.8732 152.996C94.4835 151.791 95.5555 151.237 96.6241 151.211ZM134.356 152.116C136.551 153.111 136.932 156.18 134.797 157.362C133.782 157.924 132.186 158.237 131.438 157.1L133.596 154.748L131.119 152.664C131.022 152.567 133.016 151.508 134.356 152.116ZM187.048 151.309C187.426 151.308 187.523 151.453 187.631 151.806C187.94 152.809 187.157 153.817 185.805 154.136C184.556 154.431 184.675 154.577 184.084 153.461C183.621 152.587 183.497 152.624 184.222 152.347C185.099 152.063 186.036 151.731 187.048 151.309ZM124.613 152.814C124.613 152.814 123.055 154.397 122.374 155.059L124.718 157.504C124.831 157.802 122.014 159.076 120.532 157.153C119.57 155.904 120.112 153.53 121.478 152.715C122.873 151.882 124.873 152.574 124.613 152.814ZM127.97 152.538C129.354 152.518 130.49 153.621 130.51 155.005C130.53 156.388 129.427 157.529 128.043 157.549C126.66 157.569 125.519 156.461 125.499 155.078C125.479 153.694 126.587 152.558 127.97 152.538ZM93.7192 156.754L91.4717 159.107L93.9025 161.752C93.9025 161.752 91.9794 162.066 91.2963 161.938C87.9876 161.319 88.3113 157.439 90.8703 156.413C91.9503 156.034 92.7533 156.161 93.7192 156.754ZM49.6034 157.553C49.6034 157.553 50.0456 162.538 50.4499 164.24C50.1837 166.182 48.9275 167.505 48.362 169.499C48.0608 170.387 46.9282 171.579 46.7097 170.329C45.8924 168.785 46.6735 166.875 45.9975 165.775C45.6556 164.749 45.7578 164.156 45.5293 163.081C45.0309 162.206 44.63 161.793 44.6975 160.999C44.5636 157.476 43.6833 158.174 42.1193 158.462C40.8304 158.887 39.0896 159.058 38.0698 159.813C35.8547 161.372 37.0601 162.267 36.2253 164.621C36.357 165.653 36.609 166.024 36.4283 166.914C35.5739 171.12 37.1508 170.772 37.1029 170.837C36.446 171.803 37.257 173.978 37.5713 173.866C39.4958 174.338 38.7987 175.744 39.4247 176.489C40.0529 177.21 40.0202 177.574 42.6571 177.64C47.4209 178.012 54.9907 177.304 56.6269 171.496C57.6473 163.307 59.1389 156.092 49.6034 157.553ZM96.9639 156.751C98.2999 156.731 99.398 157.798 99.4174 159.134C99.4368 160.47 98.3702 161.568 97.0342 161.588C95.6982 161.607 94.6001 160.54 94.5807 159.204C94.5613 157.868 95.6279 156.77 96.9639 156.751ZM51.6892 158.021C52.5897 158.01 53.6508 158.2 54.5236 159.036C56.3933 160.829 56.4743 162.454 55.6447 169.351C55.411 171.294 54.7268 172.918 53.8207 173.626C52.0005 175.047 49.7725 176.06 47.9358 176.512C46.9669 176.75 46.1241 176.756 45.4685 176.75C44.7606 176.745 44.3476 176.418 44.2952 175.824C44.4509 174.218 42.811 174.062 41.8615 174.153C40.1683 174.22 39.9954 174.398 41.0516 173.58C42.257 172.646 45.0353 172.633 45.5628 173.18C46.6463 172.095 47.7766 171.969 49.1594 171.807C48.9545 171.506 48.4589 170.303 48.7868 169.531C49.5031 168.272 50.708 166.05 51.9729 165.217C53.2241 163.581 52.1614 164.321 51.385 164.349C50.9415 164.365 50.9792 164.219 50.9073 163.922C50.5984 162.647 50.1535 160.264 50.1499 158.845C50.1481 158.161 50.7887 158.032 51.6892 158.021ZM43.7181 159.787C44.207 160.222 44.2009 160.829 43.6871 161.28C43.0996 161.797 41.933 161.512 41.9043 160.54C41.9821 159.559 43.1258 159.282 43.7181 159.787ZM128.136 163.24C126.106 163.342 124.434 161.17 125.2 159.006C125.619 158.42 125.799 158.504 125.799 158.504L128.111 160.568L130.328 158.249C132.154 160.453 130.587 163.076 128.136 163.24ZM41.2452 159.879C41.0788 160.512 41.2975 161.143 41.325 161.451C40.9227 161.737 39.209 162.238 38.2901 162.69C37.6516 162.91 37.1892 162.31 37.2776 161.762C37.5196 160.742 39.0204 160.076 40.1106 159.76C40.4469 159.677 41.0014 159.646 41.2452 159.879ZM41.6211 162.798C42.239 162.723 42.0575 164.069 41.8255 164.757C41.5951 165.249 40.9143 165.229 40.3025 165.265C39.2212 165.328 37.8591 166.574 37.2739 166.374C37.0801 166.284 36.9415 165.771 36.9209 165.445C37.0478 163.648 40.0327 162.989 41.6211 162.798ZM44.8876 164.669C44.6811 164.97 44.0185 165.116 43.4632 164.964C42.5554 164.714 42.4158 163.411 43.2125 162.963C44.6199 162.498 45.4656 163.818 44.8876 164.669ZM134.601 161.702L133.369 163.578L131.497 163.544L134.522 172.826L135.922 169.199C136.11 167.531 136.331 165.867 136.504 164.197L134.601 161.702ZM94.7766 162.485L97.1706 164.437L99.2236 162.338C100.751 165.743 98.9908 167.302 97.1185 167.261C95.0529 167.215 92.8508 165.258 94.7766 162.485ZM42.2241 166.005C42.9826 165.861 42.658 167.911 42.5523 167.969C42.0683 168.148 39.9804 168.421 39.1014 169.162C37.2289 170.629 36.4298 169.734 37.2972 167.976C38.1184 166.955 41.1367 166.024 42.2241 166.005ZM44.6066 166.102C45.4414 166.024 46.0262 166.947 45.5168 167.827C44.8252 168.469 43.6117 167.998 43.6166 167.088C43.6122 166.516 44.0851 166.132 44.6066 166.102ZM43.3761 171.302C43.4905 171.78 43.3231 171.632 42.4463 171.891C41.9632 172.033 41.2034 172.356 40.4125 172.755C39.2525 173.34 38.927 173.655 38.515 173.589C38.1878 173.517 37.8107 173.376 37.7096 173.044C37.3055 171.72 38.3843 170.37 40.8972 169.442C41.4198 169.25 42.3544 169.094 42.6744 169.058C43.5274 169.061 42.6157 170.37 43.3761 171.302ZM44.8607 169.309C46.0753 169.292 46.3031 170.904 45.3942 171.188C43.2664 171.738 43.4464 169.308 44.8607 169.309ZM43.3627 175.249C43.7045 175.577 43.7527 176.114 43.3699 176.394C42.6682 176.741 39.9735 176.446 39.9554 175.689C39.9451 175.19 40.8461 175.022 41.6834 175.005C42.5206 174.989 43.0893 174.986 43.3627 175.249ZM165.019 176.075L162.799 179.045L165.779 186.503L168.5 177.472L166.363 178.319L165.019 176.075ZM39.3979 183.738C39.9117 206.708 39.8247 259.345 39.8247 259.345L46.3621 263.788L53.2453 258.842C53.1748 242.274 53.1083 230.846 53.0427 215.507L63.1286 221.047C63.1286 221.047 63.4382 221.493 63.3915 223.566C62.6946 229.29 68.2301 233.006 71.9028 230.746C73.3199 230.15 73.4353 230.045 73.7354 230.492C74.5612 231.724 75.4919 236.996 75.6475 240.361C75.882 245.429 77.2159 255.764 77.5375 255.833L61.1211 283.648L35.5305 283.772L35.2383 180.329C36.5678 181.896 37.1745 182.923 39.3979 183.738ZM134.653 181.524L133.421 183.404L131.936 183.402L134.542 193.016L137.696 183.615L135.958 183.4L134.653 181.524ZM52.4555 258.187C52.4555 258.187 49.2611 260.48 48.2407 261.139C47.7043 261.34 47.4445 261.377 47.3173 260.864C47.1608 260.234 47.4122 259.041 47.6346 257.069C47.8403 255.245 47.8391 255.143 47.5359 252.544C47.2191 249.829 47.1813 249.716 47.4381 246.133C47.7244 242.136 47.7797 238.256 47.4633 235.853C47.1625 233.57 47.1667 228.36 47.3971 225.453C47.6792 221.893 47.5872 218.77 47.1211 216.187C46.29 211.582 46.1526 209.997 47.0186 206.532C47.3426 205.236 47.5038 204.546 47.4363 202.375C47.3613 199.961 47.3164 199.173 46.4522 193.828C45.9547 190.751 45.9166 190.329 46.3825 185.46C46.4765 184.478 46.5085 183.821 46.8829 183.509C47.32 183.145 51.8764 182.88 51.8764 182.88L52.4555 258.187ZM40.4743 183.825L45.4369 183.771C45.0538 185.325 44.968 186.507 44.9287 187.631L40.5205 184.734L40.4743 183.825ZM40.547 185.811L44.9107 188.659C44.9156 189.862 44.8258 191.008 45.0005 192.209L40.577 189.274L40.547 185.811ZM40.5549 190.331L45.2257 193.523C45.4079 194.767 45.7881 196.024 45.9341 197.142L40.6392 193.559L40.5549 190.331ZM191.581 191.589L191.826 283.308L145.337 283.516L130.602 255.206C130.602 255.206 130.752 252.602 131.116 251.273C131.556 249.667 131.674 249.317 132.292 249.241C133.946 250.098 135.789 248.958 136.354 247.705C137.049 246.161 135.642 243.825 133.482 243.319C132.53 243.092 131.49 243.52 130.438 244.322C129.827 244.832 129.691 244.89 129.569 244.446C129.294 243.447 130.182 240.731 131.768 238.4C132.65 237.103 132.889 236.73 133.175 237.223C134.329 239.218 136.805 238.805 137.745 237.678C138.882 236.314 138.644 233.205 136.069 232.381C131.03 230.768 128.717 235.824 128.78 235.812L127.701 229.75C133.767 228.264 137.268 227.739 139.195 225.9C140.711 224.453 141.434 221.95 141.246 219.724C141.246 219.724 158.097 212.88 165.982 208.63C179.56 201.313 191.581 191.589 191.581 191.589ZM165.924 192.254L164.678 194.445L162.91 194.447L166.486 203.703L169.217 194.04L167.513 194.192L165.924 192.254ZM40.7742 194.91L46.1253 198.6C46.2423 199.798 46.396 200.865 46.2356 202.222L40.6024 198.496L40.7742 194.91ZM145.176 193.776L143.844 195.545L142.309 195.383L145.318 204.548C146.233 201.899 147.066 198.302 147.971 195.65L146.548 195.718L145.176 193.776ZM40.6801 199.622L46.217 203.29C46.2382 204.422 46.2918 205.489 45.8975 206.289L40.6717 202.937L40.6801 199.622ZM155.552 200.151L154.208 202.736L152.418 202.493L155.619 211.278L159.119 202.575L156.952 202.691L155.552 200.151ZM40.6903 203.894L45.4911 207.419C45.56 207.47 45.2228 209.027 45.2994 209.909L40.7321 207.095L40.6903 203.894ZM40.8196 208.253L45.2965 211.329C45.3065 212.495 45.386 213.591 45.5701 214.583L40.7101 211.428L40.8196 208.253ZM40.7427 212.696L45.918 216.38L46.1917 219.341L40.709 215.894L40.7427 212.696ZM83.3473 213.93C88.3141 215.782 92.971 225.226 92.828 237.454C92.7288 245.943 95.2936 258.059 95.2458 257.919C95.2458 257.919 93.8053 258.112 93.3976 257.792C91.5269 251.56 90.9036 244.973 90.6084 239.541C90.3661 235.011 90.1055 230.566 89.8185 229.528C89.0022 225.874 88.1181 221.612 85.7832 218.836C83.9637 216.742 81.8895 216.377 80.6499 218.729C79.6345 220.654 81.7723 223.841 83.5472 222.782C83.9762 222.541 84.2324 222.133 83.67 222.144C81.8278 222.417 80.5904 219.869 81.7562 218.655C83.8093 216.516 87.4015 221.281 85.7352 223.904C85.0013 225.038 83.0816 225.238 81.5453 224.82C78.1289 223.168 77.2718 219.124 78.4153 216.46C79.2873 214.428 81.2016 213.214 83.3473 213.93ZM77.3391 215.145C77.7426 215.163 77.4676 215.908 77.0948 217.068C76.2159 219.851 77.8642 224.173 80.1467 225.034C80.8317 225.5 80.7947 225.677 80.3376 225.934C78.8474 226.771 76.1431 224.26 75.4292 221.463C74.9127 219.439 75.04 217.05 76.0129 216.036C76.5449 215.482 76.9675 215.19 77.2543 215.151C77.2841 215.146 77.3122 215.143 77.3391 215.145ZM40.6889 216.785L46.2156 220.397C46.4726 221.524 46.3597 222.725 46.1869 223.938L40.6549 220.084L40.6889 216.785ZM74.0381 216.739C74.448 216.726 74.2952 217.413 74.1811 218.666C73.9168 221.569 74.8165 223.679 76.8667 225.432C77.7316 226.171 77.9687 226.403 77.5965 226.791C77.068 227.341 75.5532 226.603 74.3651 225.365C72.1897 223.097 71.4689 218.817 73.164 217.266C73.536 216.925 73.8234 216.746 74.0381 216.739ZM135.508 217.243C137.869 217.151 139.863 218.067 140.082 220.952C140.403 225.177 136.466 227.488 133.72 225.062C131.259 222.627 133.753 218.815 136.607 220.601C138.041 221.506 136.329 223.568 135.169 222.502C134.645 222.021 134.415 222.32 134.787 222.875C135.91 224.552 138.122 223.158 137.964 221.681C137.652 218.778 134.085 218.815 132.741 219.952C130.903 221.508 129.284 223.799 128.076 225.468C127.086 226.917 126.874 226.878 127.02 225.089C127.406 220.36 131.824 217.386 135.508 217.243ZM71.1967 218.167C71.5728 218.153 71.4235 218.692 71.4522 220.083C71.6039 223.652 73.1086 225.874 75.0172 227.118C75.6567 227.824 74.8381 228.325 73.6345 227.983C70.8926 227.139 68.0933 221.248 70.4173 218.715C70.7434 218.36 70.9997 218.174 71.1967 218.167ZM68.5309 219.337C68.9107 219.313 68.6962 220.102 68.732 221.591C68.8074 224.724 69.777 226.229 72.1075 228.142C72.8668 228.765 72.9613 228.695 72.6614 229.041C71.8633 229.96 69.1594 228.659 68.0065 226.782C66.6345 224.548 66.4328 221.178 67.7093 219.905C68.0662 219.549 68.3319 219.35 68.5309 219.337ZM65.8793 220.847C66.194 220.848 66.0184 221.414 66.0669 222.768C66.1844 226.049 66.9338 227.673 69.0162 229.191C70.3246 230.145 70.6425 229.859 70.2424 230.236C69.5416 230.897 67.6247 230.33 66.1867 229.116C64.0312 227.296 63.4262 222.809 65.1782 221.272C65.4907 220.998 65.7145 220.846 65.8793 220.847ZM40.7829 221.31L46.0937 224.991L45.9436 228.099L40.6598 224.523L40.7829 221.31ZM133.637 227.138C131.475 226.695 130.657 225.135 130.92 223.367C131.008 222.777 131.353 222.439 131.723 223.211C132.041 224.436 132.859 226.134 133.976 226.464C134.427 226.597 134.051 227.223 133.637 227.138ZM87.1435 223.469C89.5817 229.605 89.5382 236.312 89.9425 242.648C90.4799 251.071 91.9699 256.743 92.4567 257.699C92.4567 257.699 90.0758 257.726 89.9553 257.382C89.9553 257.382 87.7087 246.212 88.0471 240.689C88.0714 234.508 86.8681 229.075 86.1328 226.634C85.3557 224.47 85.3219 225.899 87.1435 223.469ZM40.7537 225.865L45.8626 229.205C45.7904 230.348 45.78 231.491 45.7945 232.634L40.7864 229.09L40.7537 225.865ZM109.454 225.58C109.459 225.765 110.193 225.922 111.345 225.644C112.624 225.335 113.898 225.389 114.881 225.659C115.926 225.946 116.041 225.609 115.096 225.197C114.635 224.996 113.902 224.538 112.804 224.557C111.706 224.577 109.446 225.175 109.454 225.58ZM130.15 225.451C130.274 225.68 130.663 226.195 131.01 226.598C131.668 227.361 131.853 227.366 131.554 227.677C130.865 228.395 129.418 227.355 129.263 226.028C129.128 225.059 129.611 224.447 130.15 225.451ZM84.4028 225.712C86.7885 229.112 87.1407 237.087 87.1896 242.756C87.2337 247.861 88.9609 257.214 89.1003 257.174C88.6088 257.463 87.9474 257.362 87.3267 257.122C86.7132 256.323 86.3371 254.083 85.6246 248.016C85.4408 246.451 85.0804 241.471 84.9992 237.462C84.9276 233.926 82.9518 226.271 82.9518 226.271C82.9518 226.271 83.7189 225.726 84.4028 225.712ZM81.7468 226.562C83.9217 231.414 84.2753 236.232 84.3731 242.079C84.4657 247.609 85.694 254.088 86.1587 256.947C85.4245 257.023 84.6498 257.084 84.342 256.754C84.1461 256.485 83.9909 256.065 83.8948 255.524C82.9055 250.741 82.6692 245.54 82.3853 241.141C81.9599 234.324 81.8506 232.637 80.8839 229.238C80.3356 227.31 80.1433 227.351 80.5569 226.98C80.8715 226.698 81.4726 226.556 81.7468 226.562ZM106.196 227.678C106.256 229.936 106.547 229.016 107.344 228.656C107.945 228.605 108.435 228.933 109.552 229.343C110.973 229.865 110.845 230.04 111.844 229.55C112.46 229.248 112.951 229.143 113.246 229.383C114.414 230.331 115.922 229.797 116.77 229.028C117.432 228.683 118.155 228.871 118.716 228.923C119.524 228.997 119.313 228.482 119.413 227.46C119.502 226.554 119.155 226.474 118.217 226.78C117.258 227.093 116.305 227.138 115.472 226.883C113.341 226.233 111.782 226.656 110.726 226.822C108.232 227.214 108.099 226.962 107.533 226.605C107.112 226.338 106.416 225.847 106.175 225.862C105.934 225.876 106.014 226.694 106.196 227.678ZM128.324 226.64C128.561 226.519 128.671 226.842 129.001 227.272C129.553 227.991 129.715 228.33 129.252 228.397C128.027 228.575 127.722 228.446 127.765 227.685C127.8 227.078 127.933 226.84 128.324 226.64ZM79.1836 227.712C80.9817 229.523 81.4379 239.685 81.6424 241.873C82.2906 253.727 83.4159 255.43 82.8377 256.32C82.1571 256.309 81.9197 256.56 81.4754 255.966C79.9364 251.623 80.0257 247.161 79.7767 242.63C79.425 236.631 78.8292 233.381 77.9851 230.407C77.4238 228.431 77.4306 228.398 78.4431 227.855C78.6227 227.758 79.0219 227.706 79.1836 227.712ZM76.7615 229.141C77.3945 230.581 78.6669 237.125 78.8395 242.775C78.9767 247.261 80.0482 256.033 80.2466 256.081C79.5925 256.14 78.8074 256.007 78.4896 255.512C76.5282 246.864 77.1532 238.481 74.8857 229.785C75.0208 229.364 75.7381 228.668 76.7615 229.141ZM40.8273 230.207L46.1256 234.006L46.2387 237.248L40.8314 233.411L40.8273 230.207ZM119.579 229.798C116.588 230.959 115.813 231.911 116.284 232.749C116.68 233.454 117.871 233.206 121.057 231.877C123.439 230.883 124.186 231.317 124.669 232.817C124.646 235.032 122.497 235.29 121.284 234.985C120.763 234.965 120.841 235.013 121.396 235.707C123.862 237.642 126.887 233.859 125.38 231.46C124.2 229.269 122.158 228.645 119.579 229.798ZM100.801 230.697C98.3335 232.634 99.2153 236.123 101.269 236.647C101.841 236.937 102.693 236.8 103.027 236.579C103.335 236.375 103.332 236.042 102.702 235.938C100.795 235.621 99.7118 234.222 100.633 232.804C101.528 231.428 103.185 231.692 106.371 233.065C109.125 234.252 110.333 233.885 110.657 232.46C110.801 231.831 110.626 231.241 109.305 231.192C105.629 231.056 103.192 228.82 100.801 230.697ZM133.836 236.039C133.672 235.034 132.039 236.065 130.957 237.844C129.893 239.595 129.782 239.845 129.566 238.028C129.243 235.317 132.056 233.197 133.811 233.129C135.925 232.885 137.314 234.067 137.368 235.43C137.474 238.112 134.273 238.138 133.836 236.039ZM40.7095 234.438L46.3208 238.291C46.3208 238.291 46.5103 240.356 46.3896 241.466L40.7545 237.86L40.7095 234.438ZM108.083 235.732C105.643 237.387 107.077 240.407 108.784 240.747C110.584 241.105 110.71 239.85 108.921 239.479C107.965 239.103 107.72 238.193 108.093 237.49C108.946 236.094 110.524 236.998 111.442 237.433C113.478 238.401 114.533 238.756 115.176 238.086C116.319 236.895 115.3 234.773 113.79 235.522C113.383 235.724 113.077 235.916 112.21 235.701C110.896 235.426 109.318 235.132 108.083 235.732ZM40.7572 239.019L46.2769 242.797L46.1085 246.138L40.9262 242.336L40.7572 239.019ZM40.8711 243.611L46.0625 247.311C45.9858 248.722 46.0213 249.284 46.0777 250.184L40.8277 246.794L40.8711 243.611ZM132.675 244.323C136.839 244.73 135.459 249.511 132.552 248.221C131.777 247.638 131.544 247.685 130.682 249.782C129.581 252.465 129.312 252.247 129.463 249.147C129.574 246.112 130.968 244.347 132.675 244.323ZM99.876 245.051C99.9743 245.053 100.054 245.07 100.103 245.109C100.384 245.424 99.5402 246.673 98.8244 247.405C98.2967 247.751 97.0145 246.816 97.3259 246.361C97.6895 245.917 99.205 245.119 99.876 245.051ZM105.431 247.513L104.687 247.62C103.563 245.117 101.229 245.691 100.508 248.015L99.482 247.898C100.518 245.049 104.215 243.301 105.431 247.513ZM126.391 248.085L125.132 248.161C124.003 245.445 122.403 245.039 121.047 247.722L120.072 247.44C121.75 244.011 124.557 243.736 126.391 248.085ZM120.097 244.988C120.741 244.949 120.657 245.246 119.987 246.162C119.404 246.959 119.262 247.084 118.676 246.649C117.716 245.936 119.312 245.041 120.097 244.988ZM126.063 245.068C126.186 245.075 126.329 245.087 126.493 245.127C127.79 245.448 128.386 246.063 127.75 246.852C127.353 247.343 126.966 247.536 126.705 247.207C125.829 245.763 125.344 245.025 126.063 245.068ZM106.456 245.922C106.592 246.46 106.166 246.842 105.692 246.395C105.499 246.213 105.331 245.902 105.355 245.673C105.652 245.394 106.362 245.626 106.456 245.922ZM40.8183 247.769L46.1559 251.602C46.3312 252.952 46.3673 253.978 46.359 254.9L40.8642 251.259L40.8183 247.769ZM118.622 248.93C121.696 251.037 125.302 251.008 127.557 249.158C128.061 248.745 128.501 248.727 128.509 249.125C128.188 250.601 124.267 252.495 121.205 251.422C119.522 250.832 118.14 250.248 117.036 248.676C116.38 247.653 117.73 248.313 118.622 248.93ZM117.321 249.957C121.814 253.833 125.387 252.757 128.095 250.802C128.494 250.702 128.501 251.062 128.59 251.731C128.704 252.588 127.992 253.012 126.045 253.595C122.281 254.722 117.865 253.488 117.07 250.963C116.977 250.467 116.786 249.823 117.321 249.957ZM40.7989 252.279L46.2106 255.991L46.0382 258.827L40.7668 255.264L40.7989 252.279ZM40.8856 256.625L45.9939 260.087L45.9774 262.435L41.0082 258.896L40.8856 256.625ZM77.9905 257.727C99.7845 262.657 115.23 260.316 130.388 257.645L143.817 283.981L62.8916 284.09C68.1764 275.531 72.5732 266.172 77.9905 257.727Z" fill="#131F67"/>
<path d="M8.28976 14.5278L8.28976 17.399L11.227 17.399L11.227 42.3769L8.28977 42.3769L8.28977 45.4697L16.8232 45.4697L16.8232 42.3769L14.5602 42.3769L14.5602 35.2909L17.9877 30.5433L23.1266 42.3769L19.8452 42.3769L19.8452 45.4697L29.1518 45.4697L29.1518 42.3769L26.9266 42.3769L20.114 27.1629L26.5871 17.3519L28.9868 17.399L28.9868 14.5278L19.7462 14.5278L19.7462 17.399L22.41 17.399L14.5602 29.4448L14.5602 17.399L16.8892 17.399L16.8892 14.5278L8.28976 14.5278ZM80.027 29.9493L84.0598 37.4875L84.0684 37.8421L86.2976 42.1953L86.6338 42.411L87.1365 43.3593L87.1925 43.8205L88.4371 45.811L88.4291 46.2385L93.7088 56.0587C98.0634 54.4331 133.833 51.5063 147.078 56.2944L149.007 53.0251L149.469 53.0219L152.87 47.0545L152.816 46.5526L153.961 45.2474L154.127 44.6529L157.881 38.7789L157.894 37.832L162.589 30.0058L80.027 29.9493ZM161.019 31.0761C161.019 31.0761 158.57 35.7833 157.309 37.6859C156.288 36.8806 153.327 37.4273 153.504 40.5477C148.678 38.7197 147.515 44.4757 151.246 45.7714C149.331 47.4431 147.501 45.5524 146.049 44.2704C144.63 44.6221 141.682 45.6654 140.012 42.5952C140.012 42.5952 140.71 42.9719 141.406 43.3811C145.354 44.5811 145.672 39.2556 142.736 38.3837C142.366 38.2865 141.67 38.247 141.67 38.247C142.657 34.1516 136.321 32.7219 136.201 37.6435C136.201 37.6435 135.448 37.5205 134.877 37.6246C131.518 38.2368 132.287 43.1892 135.72 42.9521C136.194 42.9194 136.616 43.004 136.616 43.004C136.56 43.7971 132.405 45.3127 129.412 42.5844C127.993 43.6655 125.746 45.0206 122.817 42.3251C124.743 42.2467 126.591 41.6985 126.569 39.5152C126.556 38.0936 125.277 36.8247 123.434 36.7571C123.33 35.1688 122.147 33.6534 120.61 33.5371C118.735 33.6465 117.776 35.1594 117.763 36.7571C116.168 36.9219 114.676 38.3273 115.019 39.9395C115.487 42.1388 117.181 42.4094 119.116 41.9903C116.763 45.7723 112.932 43.7996 111.752 42.5938C110.345 43.9058 107.893 45.6823 104.873 43.2538C106.482 42.9785 108.272 42.0344 107.97 39.7886C107.732 38.0187 105.746 37.4933 104.882 37.5869C104.88 36.4175 103.997 34.4881 101.912 34.6874C99.6372 34.9049 99.7732 37.7811 99.8 37.8038C97.9213 37.6489 96.558 39.8584 97.0938 41.269C97.7459 42.9855 99.1112 43.5192 101.62 43.0558C98.6929 45.8023 96.8339 44.7363 95.2363 44.159C93.8222 45.6409 91.9341 46.1188 89.9984 44.8049C94.3283 45.0113 93.6395 37.3574 88.5039 40.1328C88.0599 38.697 87.3982 36.9292 84.7086 37.3417L81.6441 31.4249L161.019 31.0761ZM61.8711 35.9698C61.6488 35.9724 61.4247 35.9835 61.1969 35.9981C52.9026 36.5282 49.8403 42.293 50.2308 47.398C50.4943 50.8432 52.3741 53.7843 55.1057 55.3798C56.2774 56.2723 56.5233 56.6072 56.3173 57.0252C56.0743 57.5183 55.7461 57.4709 55.0821 56.8602C45.5934 47.7829 32.2319 58.4464 38.1426 70.2166C42.8427 79.5763 56.0307 77.4103 58.8585 66.8787C59.0833 66.0415 59.4452 65.6779 59.8344 65.9075C60.1108 66.0705 59.892 67.1558 59.6694 68.8069C59.6854 74.769 53.4805 84.1521 53.1303 84.4688L69.4003 84.4547C65.6684 79.3589 63.479 74.3605 63.0262 67.0861C62.9808 64.8849 63.8049 65.3539 64.5019 67.8499C67.6815 79.2377 82.1642 79.1315 85.4488 68.0385C88.5134 57.6885 76.9883 49.0392 69.3485 56.0068C68.2499 57.0087 67.506 57.1946 67.4909 56.4641C67.4841 56.1532 68.5104 55.0013 69.4522 54.2671C71.3584 52.7813 72.9477 49.9996 72.9646 47.1811C72.9987 41.4861 68.7629 35.8904 61.8711 35.9698ZM53.1303 84.4688L53.1114 84.4688C53.1085 84.4809 53.1179 84.48 53.1303 84.4688ZM120.667 38.6194C120.876 38.6107 121.099 38.6542 121.317 38.7656C121.995 39.1101 122.122 39.7114 121.709 40.5995C121.564 40.9115 121.354 41.2694 121.388 41.599C126.156 50.3915 136.669 46.462 137.658 42.3769C137.721 42.1179 137.601 41.8343 137.465 41.5566C137.061 40.8846 137.114 40.3341 137.639 39.8735C138.758 38.8922 140.363 40.0504 139.714 41.3727C139.542 41.7216 139.362 42.1037 139.492 42.5702C142.191 48.6979 147.565 49.1584 152.075 46.7332C149.998 50.4525 141.945 52.733 138.563 43.7772C133.166 51.0732 124.601 50.9355 120.714 42.6975C117.218 51.1237 106.671 51.3231 102.831 44.3241C99.3371 52.331 91.233 50.5144 88.9376 45.5027C96.4658 50.9503 101.426 45.2635 102.318 42.839C102.318 42.839 102.143 42.5559 101.903 42.3204C100.939 41.375 100.966 40.263 101.964 39.8216C103.243 39.2562 104.44 40.4837 103.784 41.6886C103.6 42.0261 103.437 42.1001 103.558 42.3911C105.9 47.851 117.439 49.4374 119.776 41.7782C119.855 41.3406 119.81 40.9361 119.611 40.6042C119.062 39.6895 119.759 38.6572 120.667 38.6194ZM86.9858 41.7122C88.8057 41.8155 88.298 43.3802 87.9334 43.499L86.9858 41.7122ZM154.565 42.6881C154.577 42.7175 153.443 44.7154 153.443 44.7154C152.842 43.7562 152.998 42.562 154.565 42.6881ZM148.412 52.782C148.412 52.782 147.25 55.3524 146.866 55.5684C125.309 50.0466 95.2311 54.8478 94.4914 55.3798L93.1666 52.8858C112.068 49.1097 130.913 49.9163 148.412 52.782ZM17.9783 51.9098C17.3107 51.9179 16.6067 52.0705 15.8803 52.4002C12.1319 54.1011 11.8106 58.4003 15.1778 61.7963C15.7143 62.3374 16.1567 62.8511 16.1584 62.9373C16.1664 63.3204 15.7852 63.2509 14.8666 62.6968C9.71553 59.5912 4.68749 63.3184 6.7811 68.6938C8.47201 73.0353 15.1511 72.3768 16.1867 67.765C16.3245 67.1498 16.7693 66.7724 16.9646 67.105C17.1312 67.3886 16.6412 69.7369 16.1443 71.0417C15.4918 72.7549 15.1043 73.6519 14.711 74.3513C14.2318 75.2037 14.199 75.4837 14.5696 75.5724C15.103 75.7 20.9419 75.5398 20.939 75.3979C20.9375 75.3196 20.6924 74.7493 20.3921 74.125C19.2187 71.6854 18.3241 67.4626 18.8787 66.9824C19.1911 66.7121 19.295 66.85 19.7179 68.0998C21.8073 74.2783 29.574 72.7878 29.4253 66.2375C29.3241 61.7813 25.2468 59.8243 21.5708 62.4658C20.7347 63.0666 20.4873 63.1 20.411 62.6355C20.3802 62.4502 20.5258 62.2365 20.8212 62.0368C25.4761 58.8898 22.6508 51.8535 17.9783 51.9098ZM111.997 90.9797C109.916 99.007 104.877 99.8238 98.7911 100.8C91.2534 102.009 86.3411 99.2634 84.0438 95.0672C84.0438 95.0672 73.2635 99.1406 69.3296 101.507C77.5089 105.255 88.3154 113.552 94.4584 122.973C96.6469 125.846 96.5364 125.196 96.5328 131.497C96.5242 145.162 96.5564 150.242 96.5564 150.242C99.9311 150.748 100.116 153.068 99.932 155.675C102.641 154.479 105.247 155.942 105.235 158.498C105.214 163.196 100.598 161.92 99.6394 161.402C101.141 165.543 99.3785 167.258 97.5795 167.461C95.3617 167.712 92.8176 166.646 93.5592 161.906C91.1415 162.846 88.0799 161.139 87.6552 158.285L87.5374 153.453C93.5175 142.202 86.0104 133.053 78.9615 130.045C78.9615 130.045 80.9558 125.922 83.5347 124.764C83.797 124.685 81.9709 122.007 78.9002 122.591C77.487 122.62 77.8159 122.611 76.4864 120.884C73.8583 117.472 72.621 117.238 70.0604 120.889C68.9332 122.496 68.6638 122.54 67.3306 122.567C65.8619 122.598 63.608 123.652 63.1252 124.595C63.0146 124.81 63.5906 125.03 64.3557 125.924C65.4566 127.21 67.1554 128.977 66.8874 130.776C61.0826 133.137 51.4536 143.499 61.5788 156.767L54.2571 156.861L53.9082 109.631L48.8164 112.464L49.0427 149.459L47.5906 148.979C47.7022 137.178 47.5242 125.386 47.1522 113.591L33.725 123.374L34.3238 178.846L35.7523 179.147C36.8119 186.705 51.7846 181.419 52.6588 182.075L52.838 212.899L52.1826 214.427L64.0964 220.937L75.0248 215.27C75.0248 215.27 76.4999 215.005 77.0521 214.714C81.5836 212.327 84.9607 212.862 87.4242 216.364C88.944 218.525 89.2016 218.844 89.2016 218.844C90.1228 212.611 95.6504 210.313 101.012 211.942C104.955 213.14 110.343 217.069 111.992 221.866C111.992 221.866 112.288 222.588 112.581 222.913L112.808 223.012C112.794 222.887 112.547 222.289 112.454 221.998C106.924 209.299 91.3414 207.351 88.9376 217.727L86.7312 214.634L98.3338 207.52L114.189 217.953C114.189 217.953 113.444 221.621 113.359 223.205L113.633 223.332C113.71 223.133 113.823 222.371 113.892 221.894C114.144 220.162 114.603 218.707 115.226 217.595C115.602 216.925 116.036 216.379 116.523 215.973C117.47 215.423 118.348 215.479 119.309 214.577L116.994 212.847L116.942 207.293L121.596 213.809C123.059 213.471 128.757 211.77 132.137 213.653C132.519 213.771 137.476 212.358 140.562 219.273L155.423 213.102C155.423 213.102 156.37 212.568 156.38 212.428C141.562 206.96 126.601 187.601 128.04 187.289C128.04 187.289 127.997 185.303 128.111 180.43C128.231 174.997 128.166 169.452 128.257 164.002C123.214 162.392 124.468 158.328 124.468 158.328C121.437 158.993 120.953 158.404 120.186 157.87L119.663 152.727C121.48 151.18 122.571 151.036 124.82 151.529C124.82 151.529 123.73 149.294 124.721 147.456C125.556 146.001 127.779 145.084 129.554 146.107C131.848 147.67 131.117 150.944 130.789 151.402C133.173 150.334 136.088 151.524 136.805 153.882C137.162 146.91 137.768 139.105 139.167 133.024C141.747 122.049 145.97 110.556 151.26 101.517C152.125 100.007 153.23 98.4941 154.122 97.0803C154.949 95.8212 155.343 95.0059 155.343 95.0059C155.343 95.0059 154.211 95.629 153.014 95.963C151.291 96.43 149.995 96.8745 149.798 97.0709C148.539 98.1312 146.886 98.9169 145.536 99.5036C140.777 101.356 137.577 98.5936 135.601 94.3752C134.502 99.7327 129.592 104.266 122.35 101.449C118.259 99.2776 116.973 97.8893 113.147 92.2243C112.826 91.6452 111.997 90.9797 111.997 90.9797ZM112.154 91.8553C114.862 97.2079 118.915 101 122.855 102.516C129.889 104.822 134.529 100.319 135.838 96.1813L137.195 98.4799L126.545 106.042L110.473 95.8248C110.742 95.5785 112.179 91.9788 112.154 91.8553ZM160.519 92.2243L155.748 95.0342C155.748 95.0342 152.579 100.148 151.514 102.073C145.948 111.903 141.77 122.598 139.591 133.208C138.711 137.094 137.776 144.19 137.465 147.602C136.968 153.044 136.992 155.279 137.135 160.27L137.507 160.675C137.507 160.675 136.923 161.701 136.503 162.566C135.364 164.916 135.085 166.244 135.155 168.968C135.314 175.237 139.125 181.237 144.509 183.683C144.812 183.82 145.216 183.999 145.216 183.999C145.216 183.999 144.293 186.494 142.618 188.251C141.501 189.423 141.261 189.48 141.656 190.057C142.206 190.859 143.979 191.555 146.182 191.523C146.962 191.512 146.957 191.51 148.398 193.079C151.211 196.143 152.057 196.08 154.617 192.607C155.377 191.575 155.811 191.328 156.922 191.301C158.557 191.262 161.541 189.943 161.528 189.326C159.515 188.435 157.183 183.84 157.554 183.791C168.562 177.967 170.894 165.894 162.854 157.017L170.533 156.894L170.816 205.054C172.319 204.056 175.719 201.909 175.719 201.909L175.607 164.434C176.135 164.534 176.673 164.912 177.699 165.079L178.001 200.514C178.001 200.514 179 200.109 179.868 199.543C184.159 196.716 192.56 190.179 192.56 190.179L192.272 135.57L191.15 135.57L191.329 190.151L178.293 199.67L178.208 165.748C178.208 165.748 179.238 165.595 179.623 165.541C183.438 165.007 185.205 160.142 182.673 156.965C181.774 155.837 182.412 155.917 184.323 155.551C187.713 155.252 189.59 152.69 188.604 150.864C188.181 150.081 188.732 150.166 189.09 149.422C189.325 148.837 189.28 148.111 189.179 147.536C189.046 146.782 189.356 146.448 189.547 145.966C189.846 145.212 189.556 144.359 189.057 143.651C188.53 142.903 188.675 142.101 188.67 141.605C188.647 140.496 188.246 140.338 187.072 139.267C186.184 138.456 186.897 138.28 188.203 137.607C190.259 136.549 190.401 132.804 187.666 131.209C186.204 130.357 183.544 130.426 177.779 131.337C175.594 131.682 173.027 131.912 173.027 131.912C173.027 131.912 173.008 110.561 172.857 99.5555L160.519 92.2243ZM160.519 92.9787C160.519 92.9787 172.224 99.8258 172.131 100.018C168.2 105.401 153.539 126.853 153.433 152.793C142.682 151.444 138.28 159.849 137.757 159.817C136.344 128.066 149.231 105.35 155.833 95.7084L160.519 92.9787ZM153.136 97.1558L153.098 97.9337L150.779 101.399L150.718 97.9337L153.136 97.1558ZM149.553 98.3627L149.638 103.945L144.886 107.575L144.608 101.753L149.553 98.3627ZM105.505 99.6404L107.947 101.328L107.862 106.868L104.185 100.178L105.505 99.6404ZM172.358 101.507L172.376 105.515C163.007 118.731 158.09 133.826 156.587 152.944L154.305 152.868C154.909 133.858 161.309 116.513 172.358 101.507ZM108.899 101.918L114.679 105.694L114.429 112.011L109.182 108.645L108.692 107.353L108.899 101.918ZM143.891 102.186L143.867 108.061L139.403 111.375L139.195 105.543L143.891 102.186ZM89.7768 103.723C90.4391 103.731 90.9681 104.214 91.0922 105.128C91.5824 109.033 94.5532 107.906 95.2599 109.079C95.5271 109.479 94.8936 109.827 92.8601 109.664C89.1318 109.385 86.4142 106.369 88.32 104.383C88.8098 103.933 89.3237 103.718 89.7768 103.723ZM115.542 106.241L120.478 109.385L120.464 115.873L115.627 112.921L115.542 106.241ZM138.064 106.26L138.446 111.997L133.043 115.59L132.849 109.89L138.064 106.26ZM148.346 106.283L145.244 112.888L127.145 125.91L112.124 116.184L109.338 109.81L126.862 121.243L148.346 106.283ZM99.536 108.905C104.346 108.846 108.037 113.95 109.3 118.423C110.218 121.381 110.358 122.445 110.455 127.141C110.554 131.924 110.704 132.749 111.601 133.425C112.153 133.841 112.313 133.729 112.383 132.883C112.539 131.004 114.786 132.162 114.825 134.142C114.869 136.341 112.448 137.048 110.658 135.358C109.705 134.459 109.692 134.467 109.394 136.235C109.196 137.419 107.816 144.833 111.341 146.678C112.005 146.741 112.164 146.208 111.671 145.589C110.682 144.346 112.658 142.912 114.269 143.703C116.216 144.659 116.019 147.797 113.939 148.913C111.56 150.189 108.484 148.738 107.046 145.664C105.992 143.408 105.996 140.279 107.065 135.632C107.558 133.49 107.775 132.126 107.886 130.483C107.922 129.944 107.986 129.357 108.027 129.177C108.142 128.677 107.895 128.653 107.042 129.083C104.714 130.257 102.175 129.422 101.549 127.277C100.801 124.713 103.66 122.063 105.425 123.685C106.094 124.3 106.013 124.912 105.212 125.307C103.825 125.99 104.299 127.789 105.773 127.433C110.636 125.978 106.19 112.334 100.715 111.389C97.0945 110.765 94.2524 114.888 96.8723 117.094C97.8986 117.958 98.9401 117.494 98.7157 116.273C98.4031 114.571 100.665 114.755 101.502 116.5C102.863 119.34 99.3487 121.651 96.0661 120.078C90.1747 116.58 94.2021 109.012 99.536 108.905ZM121.341 109.989L126.192 113.247L126.235 119.578L121.416 116.721L121.341 109.989ZM132.029 110.536L132.053 116.349L127.371 119.753L127.371 113.567L132.029 110.536ZM144.641 114.345L142.245 121.016L127.135 131.351L114.67 123.534L112.525 117.363L127.211 126.877L144.641 114.345ZM46.5723 114.831L46.5676 148.601C41.6714 148.81 38.8605 153.653 42.5272 158.229C42.5272 158.229 41.8882 158.315 41.1411 158.417C37.8289 158.871 35.6102 160.627 36.0493 162.755C36.1838 163.406 36.0477 164.065 35.8607 164.391C35.5659 165.265 35.6439 165.933 36.0399 166.687C36.3508 167.279 36.2991 167.516 36.1248 167.955C35.7491 168.899 35.8389 169.626 36.2803 170.345C36.8258 170.879 36.6743 171.31 36.6009 172.165C36.5135 173.373 36.7306 173.859 37.492 174.329C38.4735 174.935 38.8392 175.929 37.723 175.847C37.169 175.807 35.2196 177.686 35.2196 177.686L35.0357 123.492L46.5723 114.831ZM73.1201 119.164C73.9963 119.161 74.8986 120.262 76.1941 122.12C76.9772 123.45 76.9908 123.27 78.7824 123.199C80.6122 123.332 81.7267 123.816 82.2052 124.368C82.3859 124.578 81.906 124.632 80.7483 125.806C79.5482 127.024 79.3816 127.508 78.5843 128.871C78.2972 129.362 77.6708 129.409 77.3774 128.96C77.1404 128.598 77.7475 127.418 78.8861 126.028C80.4924 124.478 80.1549 124.321 77.8206 124.566C76.1808 124.739 76.0056 124.657 75.3831 123.661C73.5266 119.97 72.5404 120.095 70.7628 123.774C70.278 124.804 70.4707 124.738 68.3678 124.576C66.7118 124.448 66.3022 124.866 67.2363 125.736C68.6952 126.933 69.2636 129.759 69.1835 129.724L68.0567 129.828C68.0567 129.828 67.7124 129.192 67.5616 128.791C67.2562 127.979 66.4351 126.759 65.5438 125.797C64.2813 124.433 64.9749 123.687 67.7926 123.383C69.363 123.214 69.3989 123.192 70.1217 122.134C71.3945 120.27 72.2439 119.166 73.1201 119.164ZM141.661 122.525L140.034 128.286L127.145 137.324L116.659 130.328L115.269 124.911L127.314 132.539L141.661 122.525ZM97.2211 127.089C97.2211 127.089 100.947 134.347 102.299 139.05C103.475 143.141 105.11 154.987 104.68 155.716C103.764 154.459 100.737 154.742 100.696 154.754C100.952 153.366 99.8306 150.569 97.2494 150.016L97.2211 127.089ZM139.629 129.743L138.342 135.415L127.366 143.349L118.31 137.164L117.121 131.681L127.145 138.375L139.629 129.743ZM75.8216 130.059L77.2454 130.554L77.5141 140.799L88.4944 142.623L88.7443 144.377L76.029 142.326C75.8957 137.957 75.8216 130.059 75.8216 130.059ZM70.2489 130.365L70.5554 142.279C70.4366 142.24 61.4019 143.527 57.9439 144.434L58.1466 142.802C58.1466 142.802 64.427 141.437 68.976 140.912C68.976 137.58 68.9499 134.077 68.943 130.681L70.2489 130.365ZM172.405 132.558C172.405 132.558 173.899 132.697 177.096 132.133C185.337 130.691 187.569 131.276 188.623 133.816C189.774 137.756 185.455 137.851 184.685 135.351C184.195 133.73 182.426 134.085 176.516 135.485C171.462 136.683 168.259 135.724 168.321 132.861C168.384 129.917 171.738 129.657 172.405 132.558ZM104.675 130.403C105.694 130.388 106.537 131.204 106.551 132.223C106.566 133.242 105.751 134.08 104.731 134.095C103.712 134.109 102.875 133.299 102.86 132.28C102.845 131.26 103.656 130.418 104.675 130.403ZM77.9007 130.728L79.202 131.12C79.202 131.12 79.3938 138.891 79.433 138.904C82.2332 139.521 88.1125 140.624 88.1125 140.624L88.4237 142.161C85.9627 141.584 78.1176 140.299 78.1176 140.299C77.8728 136.929 77.9007 130.728 77.9007 130.728ZM68.4008 130.875C68.4008 130.875 68.4058 137.076 68.3018 140.407C68.3456 140.378 61.6445 141.474 58.2409 142.18L58.5049 140.935C61.1964 140.328 64.1259 139.718 67.0902 139.097C67.0314 136.658 67.0336 131.308 67.0336 131.308L68.4008 130.875ZM73.1861 132.209C74.0044 132.197 74.6829 132.857 74.6948 133.675C74.7067 134.493 74.0468 135.162 73.2286 135.174C72.4103 135.186 71.7412 134.536 71.7293 133.717C71.7174 132.899 72.3679 132.221 73.1861 132.209ZM184.696 136.079C185.607 137.43 186.372 137.39 187.27 137.258C187.044 137.325 185.983 137.952 186.044 138.159C186.074 138.262 185.597 139.97 186.322 140.04C189.057 140.304 187.673 143.144 188.001 143.58C188.74 144.423 189.281 144.958 188.774 146.008C188.324 146.941 187.678 146.912 188.18 147.71C189.27 149.348 187.764 149.688 187.897 150.803C187.988 151.476 188.225 152.396 187.977 152.92C187.228 154.499 184.584 155.399 181.645 155.522C181.227 155.541 181.544 154.857 181.348 154.424C180.622 153.965 181.019 153.191 181.263 152.684C181.505 152.012 181.507 152.011 181.056 151.671C179.802 150.891 179.866 150.532 179.967 149.969C180.242 148.304 179.983 148.141 179.481 147.894C178.838 147.578 178.926 146.876 179.213 145.975C179.41 145.353 179.27 145.197 178.967 144.632C178.789 144.3 178.736 144.119 178.732 143.906C178.822 143.046 178.052 143.049 176.973 143.892C176.059 145.467 175.745 147.535 175.172 148.842C174.729 149.845 174.659 150.894 175.186 153.208C176.199 156.744 175.447 157.334 171.467 156.579C168.473 155.842 167.589 152.648 168.421 148.738C168.556 148.106 168.519 147.494 168.459 146.998C168.133 144.307 168.829 141.722 170.707 139.955C173.843 137.006 175.394 136.557 181.876 136.971C184.413 137.15 184.606 137.31 184.606 137.31C184.606 137.31 184.617 136.089 184.696 136.079ZM138.007 136.89L137.253 142.373L131.166 146.668C128.3 144.406 126.087 145.16 124.071 147.583C122.473 146.773 119.281 144.566 119.281 144.566L118.465 138.347L127.314 144.486L138.007 136.89ZM73.3181 138.192C74.1362 138.18 74.8055 138.835 74.8174 139.653C74.8293 140.471 74.1786 141.145 73.3606 141.157C72.5423 141.169 71.8638 140.519 71.8519 139.7C71.84 138.882 72.4999 138.203 73.3181 138.192ZM136.989 143.807L136.654 149.087L134.49 150.714L132.312 150.492L131.798 147.22L136.989 143.807ZM73.2804 143.849C74.0987 143.837 74.7772 144.497 74.7891 145.315C74.801 146.134 74.1411 146.803 73.3229 146.815C72.5046 146.826 71.8355 146.176 71.8236 145.358C71.8117 144.54 72.4622 143.861 73.2804 143.849ZM79.2491 144.014C80.0671 144.002 80.7365 144.653 80.7483 145.471C80.7603 146.289 80.1096 146.963 79.2915 146.975C78.4733 146.987 77.7997 146.332 77.7876 145.513C77.7757 144.695 78.4308 144.026 79.2491 144.014ZM67.3825 144.297C68.2007 144.285 68.8746 144.94 68.8864 145.759C68.8984 146.577 68.2479 147.251 67.4296 147.262C66.6114 147.274 65.9328 146.619 65.921 145.801C65.9089 144.983 66.5642 144.309 67.3825 144.297ZM177.605 144.537C178.022 144.504 178.641 145.123 178.34 146.051C177.938 147.11 178.221 147.47 178.892 148.328C179.46 149.054 179.36 149.155 179.274 149.62C179.143 152.668 181.107 151.351 180.255 153.566C180.069 154.048 180.315 154.736 180.401 155.306C180.209 154.784 176.596 154.832 176.29 155.362C175.776 155.285 175.124 151.892 175.644 151.444C175.71 151.443 176.087 152.026 176.28 152.354C176.765 153.177 176.87 153.147 176.719 152.194C176.119 148.411 176.478 144.561 177.605 144.537ZM85.2319 144.801C86.0502 144.79 86.724 145.445 86.7359 146.263C86.7478 147.081 86.0926 147.75 85.2744 147.762C84.4561 147.774 83.787 147.124 83.7751 146.305C83.7632 145.487 84.4137 144.813 85.2319 144.801ZM61.2252 145.075C62.0435 145.063 62.7124 145.718 62.7245 146.536C62.7364 147.355 62.0859 148.024 61.2676 148.036C60.4495 148.048 59.7709 147.397 59.759 146.579C59.7471 145.761 60.4071 145.087 61.2252 145.075ZM119.347 145.504L123.788 148.385C123.861 149.293 123.744 150.593 124.042 151.034C121.144 150.764 119.677 152.415 119.677 152.416L119.347 145.504ZM73.766 147.885C78.6283 147.92 83.3375 148.695 87.7118 150.11L87.3676 151.675C78.6171 149.423 68.8363 149.305 59.4902 151.779L58.7642 150.134C63.4734 148.667 68.1999 147.949 72.7948 147.89C73.1203 147.885 73.4419 147.882 73.766 147.885ZM46.28 150.011C47.5542 149.989 48.8565 150.464 49.7735 151.491C51.4963 153.422 50.6673 157.001 48.2318 158.139C44.5874 159.842 40.791 156.201 42.3386 152.449C42.9811 150.891 44.6416 150.04 46.28 150.011ZM136.475 150.468L136.418 152.038L135.31 151.114L136.475 150.468ZM113.284 150.539C114.891 150.516 116.212 151.804 116.235 153.41C116.258 155.017 114.975 156.338 113.369 156.362C111.762 156.385 110.441 155.102 110.417 153.495C110.394 151.888 111.677 150.562 113.284 150.539ZM46.3601 150.633C45.9686 150.639 45.317 150.799 45.0212 151.072C44.2456 151.787 45.0246 151.808 46.0489 151.996C47.8679 152.33 48.369 153.896 48.2035 155.588C48.0531 157.126 48.5698 157.102 48.9861 156.531C50.6813 154.208 49.2342 150.821 46.3601 150.633ZM130.784 151.407C130.747 151.426 130.704 151.454 130.704 151.454C130.725 151.471 130.752 151.449 130.784 151.407ZM73.2946 152.321C75.4714 152.276 75.6997 155.856 73.7755 159.855C73.1969 161.058 72.9017 160.908 72.2668 159.091C70.7019 154.614 71.0418 152.368 73.2946 152.321ZM78.3298 152.425C78.7495 152.404 79.1564 152.564 79.4896 152.944C80.6599 154.278 79.7598 156.437 76.6419 159.761C75.884 160.569 75.4916 160.877 75.2134 160.883C74.4329 160.899 74.4363 160.769 75.3219 157.884C75.7124 156.612 76.0985 155.216 76.1799 154.782C76.4399 153.396 77.4063 152.472 78.3298 152.425ZM70.4517 155.626C70.6644 156.618 71.0374 157.996 71.2767 158.691C71.5157 159.386 71.6743 160.047 71.635 160.157C71.4428 160.691 70.0531 159.965 69.0609 158.813C67.0628 156.494 66.2661 154.476 66.6792 153.392C67.285 152.525 68.8351 152.14 69.5494 152.898C70.2868 153.682 70.3966 155.36 70.4517 155.626ZM84.223 153.316C86.3293 154.558 83.9028 157.394 79.1831 159.747C77.1638 160.753 77.308 160.3 78.8389 158.313C79.4249 157.553 80.2096 156.316 80.5928 155.56C81.4399 153.889 82.288 152.218 84.223 153.316ZM63.1959 153.325C63.8646 153.32 64.5488 154.035 65.8172 155.871C66.3825 156.69 67.3001 157.853 67.8587 158.46C68.4169 159.066 68.8565 159.669 68.8346 159.799C68.6169 161.086 62.0467 157.008 61.5741 155.291C61.4117 154.245 62.2353 153.309 63.1959 153.325ZM157.233 157.059C158.418 159.496 158.52 161.011 157.54 161.562C156.147 162.345 154.356 161.151 154.32 159.417C154.308 158.834 153.708 156.801 153.16 155.48C152.708 154.393 152.646 153.722 153.018 153.668C154.47 153.901 156.62 155.915 157.233 157.059ZM149.369 155.211C148.911 156.604 148.425 158.779 148.431 159.412C148.433 159.661 148.282 160.171 148.101 160.543C146.898 163.021 144.051 161 145.098 158.412C146.042 156.079 148.445 153.651 149.392 153.57C150.039 153.515 149.434 155.007 149.369 155.211ZM151.287 153.874C151.762 153.827 152.16 154.865 152.773 156.612C153.602 158.971 153.567 160.812 152.674 161.595C150.76 163.274 148.751 160.836 149.525 157.771C150.143 155.322 150.749 153.927 151.287 153.874ZM87.0612 154.306C89.444 189.376 71.4658 216.358 70.1849 217.094L64.0677 220.439L53.3366 214.593C64.4564 199.346 71.1034 181.87 71.6068 161.576C81.8937 162.575 87.1857 154.343 87.0612 154.306ZM146.013 154.417C146.764 154.212 146.24 154.867 145.496 155.94C144.702 157.086 143.67 160.2 142.853 160.698C141.018 161.58 138.942 159.9 140.055 158.439C141.08 157.095 144.092 154.944 146.013 154.417ZM156.927 154.655C157.215 154.654 157.753 154.844 158.534 155.225C162.354 157.091 164.238 159.551 162.603 160.728C161.456 161.554 160.228 160.913 159.081 158.738C158.692 157.999 157.981 156.902 157.507 156.296C156.647 155.196 156.447 154.657 156.927 154.655ZM178.402 155.904C180.856 155.869 182.873 157.825 182.909 160.279C182.945 162.734 180.984 164.756 178.529 164.791C176.074 164.827 174.058 162.862 174.022 160.407C173.986 157.952 175.947 155.94 178.402 155.904ZM177.049 157.058C174.161 158.338 175.031 162.873 177.52 163.528C178.571 163.822 179.85 163.385 179.323 162.879C176.035 161.847 176.013 159.423 177.338 157.648C177.551 157.363 177.266 156.962 177.049 157.058ZM56.7313 163.296C56.619 165.859 57.1741 168.831 55.9496 171.613C54.0943 175.89 48.1343 177.844 44.9504 177.464C44.2873 177.192 43.5146 176.934 42.8607 177.211C42.4651 177.379 41.9773 177.358 41.5553 177.161C41.1483 176.972 40.7576 177.22 40.3631 177.078C39.9017 176.766 39.1478 176.058 39.2364 175.531C39.3804 174.788 39.323 174.238 38.4537 173.994C37.2492 173.657 37.0055 173.006 37.3599 171.099C37.4365 170.688 37.5289 170.501 37.2609 170.322C36.3738 169.727 36.0371 168.627 36.6198 167.469C36.9997 166.802 37.2934 166.331 36.6104 165.8C36.3405 165.19 36.3878 164.958 36.9687 164.178C37.5877 163.439 37.6957 163.354 37.2987 162.722C36.4066 161.301 37.4175 160.252 38.6188 159.667C40.2283 159.006 41.6347 158.666 43.3334 158.469C43.9652 158.505 43.9384 159.06 44.3188 159.596C44.8781 160.466 44.0895 161.724 44.5451 162.17C45.2031 162.474 45.5023 163.08 45.4503 163.599C45.4273 164.806 45.5003 165.219 45.8274 165.725C46.1897 166.285 46.3261 167.313 45.9877 168.012C45.6865 168.634 45.7193 168.592 46.115 168.959C46.5066 169.322 46.6995 171.143 46.5604 171.108L48.2124 170.957C48.04 171.141 48.8337 167.552 50.7166 164.778C50.6128 162.605 49.7848 160.607 49.8584 157.737C53.9395 156.276 56.8868 159.745 56.7313 163.296ZM120.12 158.412C120.709 158.875 123.634 159.689 123.741 159.596C123.649 160.996 124.502 163.717 127.55 164.626C127.587 168.53 127.555 186.554 127.555 186.554C123.308 179.439 120.677 170.254 120.12 158.412ZM49.0899 159.049C49.0899 159.049 49.2517 159.568 49.401 160.572C49.6617 162.622 49.3805 162.902 48.8353 161.501C48.1968 159.859 48.1637 161.138 48.8824 164.895C49.0564 165.805 49.0498 166.016 48.8258 166.63C48.6858 167.015 48.4361 167.909 48.2412 168.61C47.6669 170.673 47.3314 171.265 46.742 169.624C46.4415 168.787 46.19 168.656 46.4045 168.001C46.6727 167.181 46.6081 166.566 46.0678 165.767C45.9795 165.637 45.7855 165.338 45.7519 164.49C45.918 162.585 45.0702 162.567 44.9035 162.075C44.9319 161.33 44.5838 159.524 45.0966 159.572C45.5188 159.612 47.0466 159.655 47.7698 159.388C48.0902 159.271 49.0899 159.049 49.0899 159.049ZM112.388 159.285C113.965 159.262 115.26 160.522 115.283 162.099C115.306 163.676 114.045 164.971 112.468 164.994C110.891 165.017 109.592 163.761 109.569 162.184C109.546 160.607 110.811 159.308 112.388 159.285ZM68.2971 161.024L70.4611 161.435C70.9433 161.595 70.5918 191.431 53.2717 212.965L53.1208 207.977C61.3624 196.049 67.2971 181.421 68.2971 161.024ZM104.991 161.651L105.387 168.78C104.168 167.744 101.074 165.804 101.097 165.763L101.111 163.127C101.114 163.133 103.77 163.331 104.991 161.651ZM88.3106 161.75C88.8324 161.97 89.2874 162.475 89.7344 162.839L88.32 163.792L88.3106 161.75ZM137.889 162.109C147.233 164.88 156.434 164.8 165.531 162.773L166.153 164.518C156.282 167.194 146.473 167.039 136.725 163.929L137.889 162.109ZM92.6386 163.443L93.1383 166.517L87.8656 169.93L88.122 165.263L90.8706 163.481L92.6386 163.443ZM139.318 166.003C140.17 165.991 140.871 166.674 140.883 167.526C140.895 168.378 140.212 169.079 139.36 169.091C138.508 169.103 137.812 168.42 137.8 167.568C137.787 166.716 138.466 166.015 139.318 166.003ZM163.324 166.13C164.177 166.118 164.877 166.801 164.89 167.653C164.902 168.505 164.219 169.206 163.367 169.218C162.515 169.231 161.819 168.548 161.806 167.696C161.794 166.843 162.472 166.143 163.324 166.13ZM118.361 170.926C119.052 173.362 118.902 178.865 118.012 182.598C117.746 183.719 117.583 187.698 117.583 187.698C117.418 187.907 122.876 183.182 124.63 189.378C125.234 191.508 122.782 193.528 121.141 192.936C120.821 192.821 120.918 191.766 121.223 191.146C122.133 189.293 119.538 188.33 118.06 189.972C114.643 193.766 118.158 203.371 123.514 204.304C127.961 205.079 131.526 200.653 128.559 198.015C127.261 196.862 125.186 198.452 126.136 199.92C127.151 201.488 125.282 202.114 123.868 200.66C121.403 198.124 124.171 194.308 127.894 195.191C133.847 196.544 132.622 205.85 126.381 206.374C121.608 206.775 118.395 204.696 116.377 201.009C114.481 197.466 114.34 194.643 115.207 188.43C115.723 184.742 115.299 181.634 114.274 181.655C113.712 181.667 113.274 181.938 113.185 182.598C113.003 183.949 112.848 184.202 112.001 183.711C110.926 183.088 110.329 181.081 112.086 179.722C113.888 178.33 116.222 180.503 116.127 180.878C116.17 180.809 116.352 180.456 116.593 178.874C117.38 173.728 115.632 168.291 113.472 169.162C112.998 169.353 113.055 169.567 113.675 169.916C115.114 170.725 113.846 172.799 112.039 172.589C109.48 172.292 108.899 168.723 111.153 167.144C114.703 165.23 117.595 168.227 118.361 170.926ZM100.894 166.639C100.894 166.639 105.433 169.408 105.674 170.119C105.829 170.575 106.014 174.546 106.014 174.546L98.1358 169.614L86.8414 176.597C87.0262 175.064 87.8391 171.118 87.8391 171.118L93.8455 167.318C93.8753 167.547 98.0003 170.27 100.894 166.639ZM157.294 166.903C158.147 166.891 158.847 167.574 158.86 168.426C158.872 169.278 158.194 169.979 157.342 169.992C156.49 170.004 155.789 169.326 155.776 168.473C155.764 167.621 156.443 166.916 157.294 166.903ZM145.272 166.927C146.124 166.915 146.83 167.593 146.842 168.445C146.855 169.297 146.166 170.003 145.315 170.015C144.463 170.027 143.767 169.344 143.754 168.492C143.742 167.64 144.42 166.939 145.272 166.927ZM151.316 167.276C152.169 167.264 152.874 167.947 152.886 168.799C152.899 169.651 152.216 170.352 151.364 170.364C150.511 170.376 149.811 169.693 149.798 168.841C149.786 167.989 150.464 167.288 151.316 167.276ZM136.183 169.464C140.273 170.315 144.373 171.189 148.294 171.618L148.455 183.654L147.309 183.588L147.144 172.834C143.356 172.563 139.783 171.75 136.428 170.883L136.183 169.464ZM166.596 169.855L166.384 171.269C166.384 171.269 159.308 172.494 155.611 172.971C155.552 175.394 155.56 183.489 155.56 183.489L154.145 183.749L154.14 171.495C158.337 171.039 162.528 170.568 166.596 169.855ZM98.1216 170.534L106.452 176.04L107.433 181.877L97.7209 175.423C97.7209 175.423 88.9171 181.349 85.6232 183.546L86.6274 178.044L98.1216 170.534ZM136.579 171.623C139.932 172.332 143.286 173.07 146.639 173.358L146.781 183.042L145.239 182.631L145.117 174.772C142.497 174.545 139.807 174.038 137.102 173.466L136.579 171.623ZM166.247 171.91L165.965 173.226C165.965 173.226 160.597 174.035 157.827 174.532C157.582 174.588 157.672 183.056 157.672 183.056L156.347 183.258L156.191 173.372L166.247 171.91ZM151.213 172.995C152.065 172.982 152.761 173.665 152.773 174.518C152.786 175.37 152.107 176.07 151.255 176.083C150.403 176.095 149.702 175.417 149.69 174.565C149.677 173.713 150.361 173.007 151.213 172.995ZM97.9943 176.488L107.843 183.136C107.843 183.136 108.985 186.598 109.229 188.515L97.8953 181.198L83.7138 190.599L85.3545 184.791L97.9943 176.488ZM38.2982 176.691C38.8824 176.699 39.4654 177.09 39.7691 177.987C40.1967 179.251 40.9942 179.625 43.0929 179.586C47.2133 179.366 51.5324 177.43 55.4216 178.883C57.3117 179.58 57.985 182.367 56.4022 183.093C54.6843 183.881 53.9522 183.386 53.3566 182.037C52.8062 181.464 52.1224 181.554 48.4298 182.188C46.8009 182.452 44.8868 182.69 43.2768 182.82C39.1603 183.153 36.8871 181.856 36.3746 179.407C36.0472 177.841 37.3246 176.678 38.2982 176.691ZM151.128 178.94C151.98 178.927 152.68 179.606 152.693 180.458C152.705 181.31 152.022 182.016 151.17 182.028C150.318 182.04 149.617 181.357 149.605 180.505C149.593 179.653 150.276 178.952 151.128 178.94ZM120.954 180.821C122.063 180.805 122.975 181.693 122.991 182.801C123.007 183.909 122.119 184.822 121.011 184.838C119.903 184.854 118.995 183.966 118.979 182.858C118.963 181.749 119.846 180.837 120.954 180.821ZM98.0085 182.226C98.0085 182.226 106.114 187.641 109.866 190.142L111.94 196.101L98.1358 187.124L81.2445 198.114L83.2707 191.985L98.0085 182.226ZM156.526 184.088C157.261 186.068 158.595 187.577 160.005 189.109C160.005 189.109 159.22 190.598 156.418 190.509C154.887 190.461 154.805 190.702 154.282 191.74C153.423 193.056 152.725 193.915 152.17 194.342C151.188 195.098 149.349 193.969 147.832 191.674C147.28 190.838 147.051 190.64 145.385 190.674C142.828 190.727 141.903 190.018 143.231 188.869C144.389 187.458 145.221 185.906 146.258 184.423L147.408 184.555C147.457 184.726 146.514 187.574 145.187 188.732C144.514 189.492 145.457 189.768 147.102 189.42C148.145 189.106 148.412 189.229 149.185 190.825C150.796 193.869 151.633 193.723 153.542 190.637C154.208 189.259 154.183 189.123 156.017 189.519C157.985 189.718 158.579 189.47 157.771 188.784C156.136 187.397 155.234 184.126 155.234 184.126L156.526 184.088ZM98.0792 188.166C98.0792 188.166 112.737 197.767 112.699 197.558L115.636 204.479L98.4328 193.036L77.4151 206.704L80.5598 199.854L98.0792 188.166ZM98.6449 194.47L103.756 197.831L103.741 203.88L98.5223 200.372L98.6449 194.47ZM97.3343 194.644L97.4286 200.613L92.846 203.343L92.5914 197.742L97.3343 194.644ZM91.5212 198.491L91.4788 198.722L91.5872 198.779L91.6249 198.784L91.7899 204.163L86.519 207.817L86.5379 201.74L91.5212 198.491ZM105.019 198.557L109.823 201.763L110.021 208.166L104.807 204.752L105.019 198.557ZM110.95 202.466L115.768 205.813L115.938 212.206L111.016 208.892L110.95 202.466ZM85.4488 202.489L85.4252 208.397L80.6305 211.744L80.4042 205.709L85.4488 202.489ZM136.159 210.113C135.207 211.105 134.856 210.982 134.042 209.344C133.197 207.645 131.929 206.851 130.091 206.883C127.773 206.924 129.289 205.404 131.746 205.224C135.995 205.037 138.151 207.887 136.159 210.113ZM79.3245 206.647L79.4518 212.574L74.6807 215.054L74.5345 212.244L76.9908 207.949L79.3245 206.647ZM73.172 214.568L73.337 215.648L72.4554 215.987L73.172 214.568ZM155.442 229.41C155.429 229.408 155.424 229.413 155.423 229.428L155.479 229.428C155.465 229.419 155.451 229.411 155.442 229.41ZM155.479 229.428C156.095 229.834 161.584 237.792 161.967 246.392C162.18 248.669 161.194 249.104 160.703 246.938C159.904 243.414 157.69 240.332 154.815 238.73C140.289 233.348 134.085 251.577 143.66 258.946C147.069 261.413 153.64 261.133 155.951 257.725C156.669 256.666 157.396 256.768 157.488 257.438C157.533 257.771 157.366 258 156.479 258.796C152.888 262.017 150.742 266.577 151.882 269.913C153.395 274.341 157.529 277.406 162.297 278.107C167.413 278.858 172.733 275.257 174.3 270.577C175.737 266.287 174.473 262.668 170.491 259.055C168.618 257.356 168.524 257.22 168.911 256.815C169.289 256.422 169.535 256.519 170.462 257.414C173.324 260.178 178.659 261.666 182.173 260.04C187.801 257.441 190.221 248.676 186.369 242.94C184.04 238.276 177.69 236.539 172.381 239.117C169.554 240.49 167.064 243.698 166.323 246.915C165.99 248.361 165.159 248.622 165.036 247.32C165.427 242.087 166.162 238.661 171.905 229.443L155.479 229.428ZM203.823 238.41C203.823 238.41 205.916 242.731 206.227 245.005C206.456 246.679 206.491 247.358 206.034 247.367C205.888 247.371 205.527 246.562 205.388 245.929C204.265 240.747 196.739 240.829 195.648 246.01C194.539 251.275 199.302 255.005 203.46 251.728C205.17 250.553 205.252 251.093 203.559 252.808C200.299 256.07 201.735 260.634 205.836 261.851C211.411 263.504 214.843 256.708 210.112 252.388C209.508 251.766 208.96 251.148 208.957 251.017C208.95 250.685 209.362 250.657 209.688 251.002C212.401 253.85 217.868 252.971 218.707 249.319C220.279 242.472 211.438 239.547 209.004 245.665C208.409 247.191 208.5 247.402 208.193 247.108C208.022 246.944 208.07 246.311 208.259 245.453C208.642 243.719 211.116 238.462 211.116 238.462L203.823 238.41ZM130.591 257.282C110.512 261.578 91.2624 260.06 77.4481 257.504L71.1353 268.291L70.7016 268.272L69.075 271.063L69.2495 271.384C69.2495 271.384 64.0044 281.448 61.7957 284.622C87.6004 284.374 144.24 284.25 144.24 284.25L140.789 277.31L140.977 277.121L137.569 269.875L136.461 268.621C136.461 268.621 135.784 267.311 135.277 265.905C134.811 264.611 132.812 261.068 132.812 261.068L132.529 261.092L130.591 257.282ZM78.1742 258.8C78.4403 259.011 103.893 263.808 130.275 258.88L131.718 261.294C108.628 266.608 75.2198 261.532 76.5382 261.04L78.1742 258.8ZM78.6126 263.548C80.9401 263.465 83.2983 264.715 84.8878 266.801C85.3936 267.465 86.222 269.422 86.222 269.422C86.222 269.422 87.3358 267.578 88.4284 266.655C90.0808 265.259 92.2243 264.093 95.3259 264.203C98.1811 264.305 101.325 265.851 104.161 270.318C104.877 267.74 114.259 258.982 121.987 269.903C122.871 267.001 127.006 261.204 133.703 265.255C134.16 266.233 134.631 267.31 134.631 267.31C130.679 264.543 124.164 266.399 122.623 270.719C122.485 271.245 122.66 271.519 122.864 272.029C124.9 274.94 119.601 274.87 121.171 272.515C121.465 271.98 121.489 271.539 121.02 270.837C119.778 268.974 116.038 266.657 113.293 266.716C110.124 266.785 106.612 268.888 105.439 270.799C105.006 271.504 104.907 272.21 105.288 272.826C105.564 273.448 105.47 273.968 105.005 274.349C103.913 275.245 102.542 274.212 103.067 272.888C103.413 272.304 103.359 271.589 102.652 270.596C101.232 268.602 97.9179 266.501 95.0336 266.561C90.9056 266.656 86.7358 269.629 86.9999 272.077C87.116 273.153 86.8218 273.554 85.9438 273.43C84.8761 273.279 84.755 272.271 85.5101 271.45C85.622 271.186 85.8029 270.549 85.4582 270.082C81.0994 264.187 74.5729 265.906 73.0777 267.225C74.5305 264.735 76.559 263.621 78.6126 263.548ZM74.7325 267.64C76.3683 267.654 78.13 268.89 78.6881 269.856C79.0923 269.438 82.7924 267.673 84.5907 270.195C79.8808 269.841 79.8229 274.839 83.3037 275.32C81.7164 280.142 88.8322 280.434 88.3813 275.905C93.6979 276.691 93.042 269.951 88.0371 270.662C90.659 268.753 92.4434 269.369 95.5946 271.558C96.6539 270.179 100.974 268.89 102.035 271.299C97.0834 270.993 97.9267 276.727 101.625 276.777C100.526 280.751 107.8 282.212 106.679 276.277C111.296 276.601 110.627 270.363 106.202 270.879C106.53 269.744 111.021 269.254 113.006 271.421C114.829 269.757 116.842 268.617 120.478 270.997C115.52 270.171 115.459 276.607 120.063 276.221C119.634 280.483 126.144 280.555 125.056 275.631C130.013 274.294 127.287 268.989 123.646 270.45C125.267 268.524 128.019 269.432 129.111 269.823C132.484 265.962 135.423 269.191 135.423 269.191C129.552 268.578 130.829 276.946 136.55 273.911C136.545 275.632 137.284 277.123 139.619 277.366L142.396 283.113L63.7062 283.632L68.048 275.996C68.4868 276.134 70.9961 276.362 71.536 273.42C76.7071 275.061 77.054 269.04 73.1909 268.088C73.659 267.765 74.1873 267.636 74.7325 267.64ZM196.562 268.352L196.562 271.27L198.868 271.27L205.435 286.008L199.146 296.3L196.723 296.3L196.723 298.912L205.897 298.912L205.897 296.3L202.842 296.3L211.253 284.165L211.253 296.3L208.726 296.3L208.726 298.912L217.104 298.912L217.104 296.366L214.35 296.366L214.35 271.27L217.104 271.27L217.104 268.352L208.726 268.352L208.726 271.27L211.253 271.27L211.253 278.682L207.679 283.283L202.324 271.27L205.897 271.27L205.897 268.352L196.562 268.352ZM71.6633 269.818C72.1775 270.644 71.7469 271.182 70.8619 271.204C70.8619 271.204 71.4375 270.368 71.6633 269.818ZM136.399 270.884L136.909 271.954C136.358 271.731 136.29 271.495 136.399 270.884Z" fill="black"/>
</svg>
