<svg width="225" height="314" viewBox="0 0 225 314" fill="none" xmlns="http://www.w3.org/2000/svg">
<path d="M213.507 1.23755H11.5386C5.66783 1.23755 0.908691 5.99669 0.908691 11.8674V302.419C0.908691 308.289 5.66783 313.049 11.5386 313.049H213.507C219.378 313.049 224.137 308.289 224.137 302.419V11.8674C224.137 5.99669 219.378 1.23755 213.507 1.23755Z" fill="white" stroke="black" stroke-width="0.996733"/>
<path d="M90.2328 58.9568C100.154 49.2754 106.669 38.7195 112.9 28.5679C118.364 39.7379 126.206 49.5102 134.686 58.9568C125.613 68.3254 118.581 78.3431 112.927 88.8746C106.659 78.0789 100.061 68.303 90.2328 58.9568Z" fill="#D40000"/>
<path d="M90.2328 256.06C100.154 246.378 106.669 235.823 112.9 225.671C118.364 236.841 126.206 246.613 134.686 256.06C125.613 265.428 118.581 275.446 112.927 285.978C106.659 275.182 100.061 265.406 90.2328 256.06Z" fill="#D40000"/>
<path d="M90.2328 157.424C100.154 147.743 106.669 137.187 112.9 127.035C118.364 138.205 126.206 147.977 134.686 157.424C125.613 166.793 118.581 176.81 112.927 187.342C106.659 176.546 100.061 166.77 90.2328 157.424Z" fill="#D40000"/>
<path d="M197.206 250.71C201.27 246.744 203.939 242.42 206.491 238.262C208.73 242.837 211.942 246.841 215.416 250.71C211.699 254.548 208.818 258.652 206.502 262.966C203.935 258.544 201.232 254.539 197.206 250.71Z" fill="#D40000"/>
<path d="M10.2191 64.4985C14.283 60.5325 16.9519 56.2083 19.5044 52.0498C21.7428 56.6255 24.9552 60.6287 28.429 64.4985C24.7122 68.3362 21.8316 72.4399 19.5155 76.754C16.948 72.3317 14.2451 68.327 10.2191 64.4985Z" fill="#D40000"/>
<path d="M9.35791 40.451L11.9051 38.611C14.1191 42.1448 16.5903 44.4741 20.3703 44.0734C26.0439 43.6919 28.3932 37.8533 27.2056 33.4505C26.0588 29.5057 21.3599 27.5811 17.6273 29.6877C16.7471 30.1845 15.729 30.7979 15.729 30.7979L14.4002 28.632L23.1639 18.4371H13.6536V22.6567H10.0041V15.0918H28.5934V17.6594C28.5934 17.6594 23.6143 22.7283 21.9662 25.5068C26.0212 25.6543 29.289 28.1756 30.4585 32.1651C31.1449 34.2635 30.8363 39.0662 29.9417 41.1331C28.448 44.5843 24.3577 47.3829 20.6201 47.5446C14.3495 47.9588 11.0183 43.6426 9.35791 40.451Z" fill="#D40000"/>
<path d="M215.688 273.835L213.141 275.675C210.927 272.141 208.456 269.812 204.676 270.213C199.002 270.594 196.653 276.433 197.84 280.835C198.987 284.78 203.686 286.705 207.419 284.598C208.299 284.101 209.317 283.582 209.317 283.582L210.89 285.616L201.882 295.849H211.392V291.629H215.042V299.194H196.453V296.627C196.453 296.627 201.432 291.558 203.08 288.779C199.025 288.632 195.757 286.11 194.587 282.121C193.901 280.022 194.21 275.22 195.104 273.153C196.598 269.702 200.688 266.903 204.426 266.741C210.696 266.327 214.028 270.643 215.688 273.835Z" fill="#D40000"/>
</svg>
