<svg width="225" height="314" viewBox="0 0 225 314" fill="none" xmlns="http://www.w3.org/2000/svg">
<path d="M213.669 1.23755H11.7012C5.83043 1.23755 1.07129 5.99669 1.07129 11.8674V302.419C1.07129 308.289 5.83043 313.049 11.7012 313.049H213.669C219.54 313.049 224.3 308.289 224.3 302.419V11.8674C224.3 5.99669 219.54 1.23755 213.669 1.23755Z" fill="white" stroke="black" stroke-width="0.996733"/>
<path d="M35.8916 56.2842C45.8123 46.6028 52.3277 36.0469 58.5587 25.8953C64.0231 37.0653 71.8646 46.8376 80.3449 56.2842C71.2717 65.6528 64.2398 75.6705 58.5858 86.202C52.3182 75.4063 45.7198 65.6304 35.8916 56.2842Z" fill="#D40000"/>
<path d="M35.8916 255.131C45.8123 245.45 52.3277 234.894 58.5587 224.742C64.0231 235.912 71.8646 245.684 80.3449 255.131C71.2717 264.5 64.2398 274.517 58.5858 285.049C52.3182 274.253 45.7198 264.477 35.8916 255.131Z" fill="#D40000"/>
<path d="M147.424 56.2842C157.345 46.6028 163.861 36.0469 170.092 25.8953C175.556 37.0653 183.397 46.8376 191.878 56.2842C182.804 65.6528 175.773 75.6705 170.119 86.202C163.851 75.4063 157.253 65.6304 147.424 56.2842Z" fill="#D40000"/>
<path d="M147.424 255.131C157.345 245.45 163.861 234.894 170.092 224.742C175.556 235.912 183.397 245.684 191.878 255.131C182.804 264.5 175.773 274.517 170.119 285.049C163.851 274.253 157.253 264.477 147.424 255.131Z" fill="#D40000"/>
<path d="M196.614 249.942C200.677 245.976 203.346 241.651 205.899 237.493C208.137 242.069 211.35 246.072 214.824 249.942C211.107 253.779 208.226 257.883 205.91 262.197C203.343 257.775 200.64 253.77 196.614 249.942Z" fill="#D40000"/>
<path d="M9.3949 64.8289C13.4588 60.863 16.1277 56.5389 18.6803 52.3804C20.9187 56.9561 24.1309 60.9592 27.6048 64.8289C23.888 68.6667 21.0075 72.7704 18.6914 77.0845C16.1239 72.6622 13.4209 68.6575 9.3949 64.8289Z" fill="#D40000"/>
<path d="M18.9069 47.6114V44.7983H21.492V40.1622H8.56689V36.8912L22.552 15.793L24.8373 15.8008V36.8912H28.7908V40.1622H24.8373L24.7613 44.7983H26.9281V47.6114H18.9069ZM21.492 23.5144L12.6128 36.8912H21.492V23.5144Z" fill="#D40000"/>
<path d="M206.464 266.675V269.488H203.879V274.124H216.804V277.395L202.819 298.493L200.534 298.485V277.395H196.58V274.124H200.534L200.61 269.488H198.443V266.675H206.464ZM203.879 290.772L212.758 277.395H203.879V290.772Z" fill="#D40000"/>
</svg>
