<svg width="225" height="314" viewBox="0 0 225 314" fill="none" xmlns="http://www.w3.org/2000/svg">
<path d="M213.572 1.23779H11.6035C5.73277 1.23779 0.973633 5.99693 0.973633 11.8677V302.419C0.973633 308.29 5.73277 313.049 11.6035 313.049H213.572C219.443 313.049 224.202 308.29 224.202 302.419V11.8677C224.202 5.99693 219.443 1.23779 213.572 1.23779Z" fill="white" stroke="black" stroke-width="0.996733"/>
<path d="M33.3569 57.8572C43.2776 48.1757 49.7931 37.6199 56.0241 27.4683C61.4884 38.6383 69.33 48.4106 77.8103 57.8572C68.7371 67.2258 61.7051 77.2435 56.0512 87.775C49.7836 76.9793 43.1851 67.2034 33.3569 57.8572Z" fill="#D40000"/>
<path d="M33.3569 158.105C43.2776 148.424 49.7931 137.868 56.0241 127.717C61.4884 138.887 69.33 148.659 77.8103 158.105C68.7371 167.474 61.7051 177.492 56.0512 188.023C49.7836 177.228 43.1852 167.452 33.3569 158.105Z" fill="#D40000"/>
<path d="M33.3569 256.704C43.2776 247.023 49.7931 236.467 56.0241 226.315C61.4884 237.485 69.33 247.257 77.8103 256.704C68.7371 266.073 61.7051 276.09 56.0512 286.622C49.7836 275.826 43.1852 266.05 33.3569 256.704Z" fill="#D40000"/>
<path d="M89.5402 107.981C99.4608 98.2998 105.976 87.7439 112.207 77.5923C117.672 88.7623 125.513 98.5346 133.993 107.981C124.92 117.35 117.888 127.368 112.234 137.899C105.967 127.103 99.3684 117.327 89.5402 107.981Z" fill="#D40000"/>
<path d="M144.89 57.8572C154.81 48.1757 161.326 37.6199 167.557 27.4683C173.021 38.6383 180.863 48.4106 189.343 57.8572C180.27 67.2258 173.238 77.2435 167.584 87.775C161.316 76.9793 154.718 67.2034 144.89 57.8572Z" fill="#D40000"/>
<path d="M144.89 158.105C154.81 148.424 161.326 137.868 167.557 127.717C173.021 138.887 180.863 148.659 189.343 158.105C180.27 167.474 173.238 177.492 167.584 188.023C161.316 177.228 154.718 167.452 144.89 158.105Z" fill="#D40000"/>
<path d="M144.89 256.704C154.81 247.023 161.326 236.467 167.557 226.315C173.021 237.485 180.863 247.257 189.343 256.704C180.27 266.073 173.238 276.09 167.584 286.622C161.316 275.826 154.718 266.05 144.89 256.704Z" fill="#D40000"/>
<path d="M89.5402 207.405C99.4608 197.723 105.976 187.167 112.207 177.016C117.672 188.186 125.513 197.958 133.993 207.405C124.92 216.773 117.888 226.791 112.234 237.323C105.967 226.527 99.3684 216.751 89.5402 207.405Z" fill="#D40000"/>
<path d="M198.938 252.602C203.002 248.636 205.671 244.312 208.224 240.154C210.462 244.729 213.674 248.732 217.148 252.602C213.431 256.44 210.551 260.544 208.235 264.858C205.667 260.435 202.964 256.431 198.938 252.602Z" fill="#D40000"/>
<path d="M10.123 66.7445C14.187 62.7786 16.856 58.4544 19.4085 54.2959C21.6469 58.8716 24.8591 62.8748 28.333 66.7445C24.6162 70.5823 21.7356 74.6859 19.4195 79.0001C16.852 74.5777 14.1491 70.5731 10.123 66.7445Z" fill="#D40000"/>
<path d="M7.81728 38.7883C7.97741 34.4129 9.58802 32.7698 12.7609 30.4789C10.2303 28.6837 9.16328 26.0423 9.37875 23.7917C9.90024 18.3448 14.1886 15.6197 18.8637 15.7383C23.5389 15.857 27.5683 19.5019 27.8825 23.4601C28.1559 26.9034 27.1121 28.5626 24.6252 30.3753C27.5781 32.8168 29.4655 34.4253 29.3939 38.7354C29.3222 43.0456 25.5881 48.1753 19.0793 48.3328C12.5705 48.4903 7.65717 43.1638 7.81728 38.7883ZM25.9899 38.8028C26.2691 34.8407 22.7016 32.1674 18.6766 32.1259C14.7544 32.0854 11.2454 35.3725 11.2447 38.9297C11.2447 42.7507 15.8084 44.8263 18.7558 44.8373C22.338 44.8506 25.7494 42.2153 25.9899 38.8028ZM24.7019 24.6294C24.7798 21.2918 21.645 18.8999 18.4133 18.9961C15.5379 19.0818 12.4923 21.2368 12.4907 24.027C12.4877 27.5169 15.9528 29.2593 18.9076 29.3251C21.5881 29.3847 24.643 27.1503 24.7019 24.6294Z" fill="#D40000"/>
<path d="M217.358 275.499C217.198 279.874 215.587 281.517 212.414 283.808C214.945 285.603 216.012 288.245 215.797 290.495C215.275 295.942 210.987 298.667 206.312 298.549C201.636 298.43 197.607 294.785 197.293 290.827C197.02 287.384 198.063 285.724 200.55 283.912C197.597 281.47 195.71 279.862 195.782 275.551C195.853 271.241 199.587 266.112 206.096 265.954C212.605 265.797 217.518 271.123 217.358 275.499ZM199.186 275.484C198.906 279.446 202.474 282.119 206.499 282.161C210.421 282.202 213.93 278.914 213.931 275.357C213.931 271.536 209.367 269.461 206.42 269.45C202.837 269.436 199.426 272.072 199.186 275.484ZM200.474 289.657C200.396 292.995 203.53 295.387 206.762 295.291C209.638 295.205 212.683 293.05 212.685 290.26C212.688 286.77 209.223 285.028 206.268 284.962C203.587 284.902 200.532 287.137 200.474 289.657Z" fill="#D40000"/>
</svg>
