<svg width="225" height="314" viewBox="0 0 225 314" fill="none" xmlns="http://www.w3.org/2000/svg">
<path d="M213.811 1.23779H11.8423C5.97154 1.23779 1.2124 5.99693 1.2124 11.8677V302.419C1.2124 308.29 5.97154 313.049 11.8423 313.049H213.811C219.681 313.049 224.441 308.29 224.441 302.419V11.8677C224.441 5.99693 219.681 1.23779 213.811 1.23779Z" fill="white" stroke="black" stroke-width="0.996733"/>
<path d="M34.062 58.5432C43.9827 48.8618 50.4981 38.3059 56.7291 28.1543C62.1935 39.3243 70.0352 49.0966 78.5154 58.5432C69.4422 67.9118 62.4103 77.9296 56.7563 88.461C50.4887 77.6653 43.8902 67.8894 34.062 58.5432Z" fill="#D40000"/>
<path d="M34.062 123.874C43.9827 114.192 50.4981 103.636 56.7291 93.4849C62.1935 104.655 70.0352 114.427 78.5154 123.874C69.4422 133.242 62.4103 143.26 56.7563 153.792C50.4887 142.996 43.8902 133.22 34.062 123.874Z" fill="#D40000"/>
<path d="M34.062 190.771C43.9827 181.089 50.4981 170.533 56.7291 160.382C62.1935 171.552 70.0351 181.324 78.5154 190.771C69.4422 200.139 62.4102 210.157 56.7563 220.689C50.4887 209.893 43.8902 200.117 34.062 190.771Z" fill="#D40000"/>
<path d="M34.062 255.876C43.9827 246.195 50.4981 235.639 56.7291 225.487C62.1935 236.657 70.0351 246.43 78.5154 255.876C69.4422 265.245 62.4102 275.263 56.7563 285.794C50.4887 274.998 43.8902 265.222 34.062 255.876Z" fill="#D40000"/>
<path d="M90.2451 92.9068C100.166 83.2253 106.681 72.6694 112.912 62.5178C118.377 73.6879 126.218 83.4601 134.699 92.9068C125.625 102.275 118.593 112.293 112.939 122.825C106.672 112.029 100.073 102.253 90.2451 92.9068Z" fill="#D40000"/>
<path d="M89.7778 221.249C99.6985 211.567 106.214 201.011 112.445 190.86C117.909 202.03 125.751 211.802 134.231 221.249C125.158 230.617 118.126 240.635 112.472 251.167C106.205 240.371 99.6061 230.595 89.7778 221.249Z" fill="#D40000"/>
<path d="M145.595 58.5432C155.515 48.8618 162.031 38.3059 168.262 28.1543C173.726 39.3243 181.568 49.0966 190.048 58.5432C180.975 67.9118 173.943 77.9296 168.289 88.461C162.021 77.6653 155.423 67.8894 145.595 58.5432Z" fill="#D40000"/>
<path d="M145.595 123.874C155.515 114.192 162.031 103.636 168.262 93.4849C173.726 104.655 181.568 114.427 190.048 123.874C180.975 133.242 173.943 143.26 168.289 153.792C162.021 142.996 155.423 133.22 145.595 123.874Z" fill="#D40000"/>
<path d="M145.595 190.771C155.515 181.089 162.031 170.533 168.262 160.382C173.726 171.552 181.568 181.324 190.048 190.771C180.975 200.139 173.943 210.157 168.289 220.689C162.021 209.893 155.423 200.117 145.595 190.771Z" fill="#D40000"/>
<path d="M145.595 255.876C155.515 246.195 162.031 235.639 168.262 225.487C173.726 236.657 181.568 246.43 190.048 255.876C180.975 265.245 173.943 275.263 168.289 285.794C162.021 274.998 155.423 265.222 145.595 255.876Z" fill="#D40000"/>
<path d="M198.119 249.831C202.183 245.865 204.852 241.541 207.405 237.383C209.643 241.959 212.855 245.962 216.329 249.831C212.612 253.669 209.732 257.773 207.416 262.087C204.848 257.665 202.145 253.66 198.119 249.831Z" fill="#D40000"/>
<path d="M9.30396 63.9738C13.3679 60.0078 16.0369 55.6837 18.5894 51.5251C20.8278 56.1009 24.0401 60.104 27.5139 63.9738C23.7971 67.8115 20.9167 71.9152 18.6006 76.2293C16.0331 71.807 13.33 67.8023 9.30396 63.9738Z" fill="#D40000"/>
<path d="M8.84082 46.5821V15.0754H11.9516V46.5821H8.84082Z" fill="#D40000"/>
<path d="M21.1704 15.0754C18.1762 15.0754 15.769 17.762 15.769 21.0979V40.5596C15.769 43.8955 18.1762 46.5821 21.1704 46.5821H22.9154C25.9096 46.5821 28.3215 43.8955 28.3215 40.5596V21.0979C28.3215 17.762 25.9096 15.0754 22.9154 15.0754H21.1704ZM22.0714 18.0535C23.8399 18.0535 25.2628 19.3904 25.2628 21.0552V40.7777C25.2628 42.4425 23.8399 43.7842 22.0714 43.7842C20.3029 43.7842 18.8799 42.4425 18.8799 40.7777V21.0552C18.8799 19.3904 20.3029 18.0535 22.0714 18.0535Z" fill="#D40000"/>
<path d="M216.812 267.704V299.211H213.702V267.704H216.812Z" fill="#D40000"/>
<path d="M204.483 299.211C207.477 299.211 209.884 296.525 209.884 293.189V273.727C209.884 270.391 207.477 267.704 204.483 267.704H202.738C199.744 267.704 197.332 270.391 197.332 273.727V293.189C197.332 296.525 199.744 299.211 202.738 299.211H204.483ZM203.582 296.233C201.813 296.233 200.391 294.896 200.391 293.231V273.509C200.391 271.844 201.813 270.502 203.582 270.502C205.35 270.502 206.773 271.844 206.773 273.509V293.231C206.773 294.896 205.35 296.233 203.582 296.233Z" fill="#D40000"/>
</svg>
