<svg width="225" height="314" viewBox="0 0 225 314" fill="none" xmlns="http://www.w3.org/2000/svg">
<path d="M213.431 1.23755H11.4624C5.59166 1.23755 0.83252 5.99669 0.83252 11.8674V302.419C0.83252 308.289 5.59166 313.049 11.4624 313.049H213.431C219.302 313.049 224.061 308.289 224.061 302.419V11.8674C224.061 5.99669 219.302 1.23755 213.431 1.23755Z" fill="white" stroke="black" stroke-width="0.996733"/>
<path d="M90.3211 58.1854C100.242 48.5039 106.757 37.9481 112.988 27.7965C118.452 38.9665 126.294 48.7388 134.774 58.1854C125.701 67.554 118.669 77.5718 113.015 88.1032C106.748 77.3076 100.149 67.5316 90.3211 58.1854Z" fill="#D40000"/>
<path d="M90.3211 256.993C100.242 247.312 106.757 236.756 112.988 226.604C118.452 237.775 126.294 247.547 134.774 256.993C125.701 266.362 118.669 276.38 113.015 286.911C106.748 276.116 100.149 266.34 90.3211 256.993Z" fill="#D40000"/>
<path d="M197.34 250.337C201.404 246.371 204.073 242.047 206.625 237.889C208.864 242.464 212.076 246.468 215.55 250.337C211.833 254.175 208.953 258.279 206.636 262.593C204.069 258.17 201.366 254.166 197.34 250.337Z" fill="#D40000"/>
<path d="M9.61609 64.0656C13.68 60.0996 16.349 55.7755 18.9015 51.6169C21.1399 56.1927 24.3522 60.1958 27.8261 64.0656C24.1093 67.9034 21.2287 72.007 18.9126 76.3212C16.3451 71.8988 13.6421 67.8942 9.61609 64.0656Z" fill="#D40000"/>
<path d="M9.14258 47.8744L9.30741 45.8557C9.81683 39.6167 11.1818 37.5093 18.9293 31.0004C22.689 27.8418 23.9233 26.283 24.0971 24.4742C24.588 20.2143 20.746 18.8834 18.2422 18.8603C15.0001 18.8305 11.3325 20.7719 13.0811 25.2743L9.44456 26.3421C8.71024 22.142 9.46144 18.2001 12.8699 16.4497C17.4162 14.17 23.25 15.0645 26.1934 18.6565C28.1716 21.0706 28.6213 24.4026 27.5612 27.0122C24.4605 33.6837 13.94 36.6186 13.0704 44.3316H24.7016V40.0365H28.1273V47.9435L9.14258 47.8744Z" fill="#D40000"/>
<path d="M215.751 266.412L215.586 268.43C215.077 274.669 213.712 276.777 205.964 283.286C202.205 286.444 200.97 288.003 200.796 289.812C200.306 294.072 204.148 295.403 206.651 295.426C209.893 295.456 213.561 293.514 211.812 289.012L215.449 287.944C216.183 292.144 215.432 296.086 212.024 297.836C207.477 300.116 201.644 299.222 198.7 295.63C196.722 293.215 196.272 289.883 197.332 287.274C200.433 280.602 210.953 277.668 211.823 269.955H200.192V274.25H196.766V266.343L215.751 266.412Z" fill="#D40000"/>
</svg>
