<svg width="225" height="314" viewBox="0 0 225 314" fill="none" xmlns="http://www.w3.org/2000/svg">
<path d="M213.486 1.23779H11.5176C5.64683 1.23779 0.887695 5.99693 0.887695 11.8677V302.419C0.887695 308.29 5.64683 313.049 11.5176 313.049H213.486C219.357 313.049 224.116 308.29 224.116 302.419V11.8677C224.116 5.99693 219.357 1.23779 213.486 1.23779Z" fill="white" stroke="black" stroke-width="0.996733"/>
<path d="M29.9893 26.0745C30.0743 105.2 30.9159 202.44 30.9739 288.62L194.69 288.581L193.599 26.4558L29.9893 26.0745ZM78.383 27.7542C106.628 28.5208 135.049 27.6918 163.504 27.9135C163.504 27.9135 153.166 45.9213 150.032 51.5891C149.346 52.8354 149.277 53.7173 149.646 54.2342C150.218 55.0338 150.171 56.3865 149.53 57.1689C149.256 57.504 149.131 57.7212 149.11 57.9218C149.09 58.1221 149.269 58.3414 149.415 58.7038C149.92 60.4302 148.615 61.625 147.247 62.1791C146.33 62.5508 144.289 62.796 142.782 62.7245C133.34 62.2764 114.82 54.2963 107.189 53.6742C101.894 52.1959 95.0524 52.7128 89.4123 53.0323C88.3474 53.0963 88.5338 50.614 88.5338 50.614C87.6451 42.4159 81.8386 35.2784 78.383 27.7542ZM165.039 28.5024L191.731 28.5313L191.852 32.8417L180.62 44.3536C179.562 45.4303 178.728 46.323 178.728 46.323L178.66 56.7103C171.004 52.5964 169.478 47.6804 168.08 42.2733C155.281 51.7156 154.682 72.379 168.654 83.0165C168.769 78.3957 172.29 69.3159 178.53 68.6422L178.617 104.636L170.942 97.1398L154.256 97.357C157.006 92.8935 157.069 89.3485 155.289 85.1644C152.289 78.3288 147.66 62.7253 148.015 62.7776C148.015 62.7776 148.148 62.4421 148.526 62.3577C149.91 62.0494 150.789 60.7142 150.394 59.1092C150.319 58.5924 150.322 58.7139 150.674 58.0425C152.032 55.7258 150.414 53.2109 150.414 53.2109L165.039 28.5024ZM76.5102 28.7196L86.5258 46.825C86.5258 46.825 86.3952 47.6552 86.4486 48.1427C86.5273 48.8439 86.7618 49.468 87.163 50.1217C87.4284 50.5542 87.6243 51.1449 87.6843 51.6904C87.7832 52.589 87.7836 52.5897 89.0985 53.7756C89.3748 54.0247 89.4278 54.1781 89.3254 54.4369C88.8902 55.5368 89.1452 57.7854 90.006 60.4704C91.0932 63.8614 91.374 63.8171 89.3495 68.3526C88.9272 69.2999 88.4166 70.5641 87.8677 71.7266C85.368 76.8603 84.9824 78.2527 89.2723 80.9892C90.4801 81.7597 90.8338 82.4279 90.5321 83.9626C90.2948 85.1699 90.2463 85.9414 90.8265 86.6221C91.2027 87.0635 91.5436 87.1361 91.4492 87.4765C91.385 87.7082 91.1045 88.7124 91.1982 89.5568C91.4507 91.8321 88.8226 95.1835 86.4245 96.3578C85.9447 96.6981 85.8077 96.2828 85.5363 95.8076C83.052 91.4569 76.8676 93.2198 76.4571 98.4092C76.3485 99.7814 76.3912 100.376 76.0372 100.668C75.9172 100.767 75.5545 100.972 75.5545 100.972C75.5545 100.972 66.2996 106.991 60.4127 110.085C60.0289 110.287 59.6844 110.62 59.4136 110.674C59.1008 110.737 58.8685 110.681 58.6751 110.486C56.5024 106.353 57.7068 101.472 57.8931 99.7414C57.8464 99.1284 57.3222 99.017 56.532 99.0078C55.1938 98.9921 53.2678 100.349 52.8491 101.614C52.4931 102.69 52.2646 103.386 51.9417 103.381C51.6171 103.376 51.459 102.942 50.6529 101.392C48.9757 98.1668 48.7166 97.7581 47.1486 95.8848C45.8979 94.3906 44.8315 94.1925 43.6057 95.3056C42.7536 96.0795 42.7817 95.4069 42.0563 95.016C40.8042 94.1638 38.9219 94.9267 38.8754 96.1262C38.8365 97.1326 38.8279 97.8892 37.8087 97.9555C36.6736 98.0294 36.181 99.4952 36.5006 101.585C36.6689 102.685 36.7019 102.862 36.3655 103.265C35.2678 104.58 35.1244 105.488 35.7284 107.324C37.4499 112.558 39.9441 116.081 42.288 120.839C42.288 120.839 36.333 124.219 32.7985 126.183L32.7068 28.8113L76.5102 28.7196ZM192.233 33.8939L192.373 118.479L179.592 105.915C179.592 105.915 179.343 89.706 179.355 83.0792C179.368 76.4525 179.464 69.8263 179.437 68.594C179.411 67.3616 179.504 62.1178 179.544 56.7344C179.627 45.4564 178.595 46.8504 180.692 44.6867L192.233 33.8939ZM167.254 44.0351L167.959 46.0768C162.603 49.1473 156.05 66.2475 168.08 78.8027L167.839 81.3899C155.23 69.9531 157.563 53.5517 167.254 44.0351ZM168.172 46.4485C170.01 50.2423 172.102 53.6014 174.953 55.6581C173.418 59.3237 172.757 63.3674 175.359 68.8208C173.534 69.8221 170.998 72.4796 168.374 77.9242C158.882 68.3347 160.995 54.4315 168.172 46.4485ZM97.5503 53.6163C102.815 53.625 108.306 54.4838 113.339 56.0008C116.514 72.049 122.089 82.8385 122.066 89.1224C122.066 89.1224 121.626 89.0487 120.69 88.3743C118.397 86.7186 115.386 87.6425 113.773 89.7499C112.245 91.7478 113.784 94.5264 113.001 95.6917C111.518 97.8646 107.703 101.882 107.064 101.749C106.599 101.653 106.674 101.449 108.309 98.9402C110.012 96.3268 111.319 93.9585 110.756 93.3797C110.518 93.1341 110.391 93.6531 109.12 95.8607C106.137 101.042 103.513 104.246 102.474 103.83C101.987 103.635 102.239 103.205 104.448 100.287C106.943 96.9907 107.635 94.929 107.387 94.0168C107.197 93.3158 106.811 94.4486 105.775 96.4737C104.672 98.617 102.677 101.005 101.064 103.299C100.553 104.129 99.8967 104.61 99.0563 104.988C98.4334 105.258 97.4408 105.699 96.8649 105.625C96.569 105.587 96.7731 105.413 97.1786 105.017C100.361 101.74 103.098 98.0849 104.651 94.5767C104.89 94.1166 104.547 93.4616 104.153 93.9444C101.772 98.1347 98.4568 103.362 94.8569 105.669C94.0842 106.163 92.9221 106.582 91.874 106.494C90.102 106.443 90.7285 106.049 92.3422 105.012C95.7964 102.793 100.643 96.4135 101.426 94.1568C101.611 93.6235 101.405 93.3187 101.064 93.3556C98.2222 97.9021 94.4675 102.905 90.1025 104.998C87.7503 106.126 84.7844 106.348 83.3257 105.635C82.2568 105.112 82.5248 104.932 84.4213 104.81C88.9854 104.36 94.3326 100.075 96.9807 95.5421C98.5309 93.0322 97.4431 93.6086 95.6727 96.0296C92.6507 100.162 86.6504 104.124 82.9299 103.81C79.1672 103.588 77.0016 100.672 77.4852 98.1727C77.7778 96.6607 78.8515 95.1197 80.9557 94.6781C84.5595 93.9218 86.9184 99.6302 83.6201 100.707C82.4968 101.073 82.0694 100.795 82.4761 100.345C84.9227 99.2741 83.8352 96.3348 81.7714 96.0344C80.4729 95.8455 78.9678 96.7199 78.9043 98.7326C78.942 100.233 80.1771 101.7 82.6547 101.735C85.5922 101.776 90.0993 99.662 92.8345 95.769C94.7754 92.7936 92.9878 93.7982 91.5409 95.7834C90.2642 97.5352 86.1403 99.9857 85.826 99.8959L85.9659 97.8783C86.0288 98.227 92.3148 93.9231 91.9464 90.7201C91.7106 88.3951 92.0503 87.684 94.4708 87.713C96.2803 87.7346 98.5809 88.3694 99.2494 89.1997C99.9387 90.021 100.711 90.2802 100.369 88.8956C99.8144 86.6484 100.479 86.2779 99.1769 86.7042C98.2786 86.9984 97.481 86.2771 96.5801 85.6375C95.589 84.9339 94.3353 84.6328 92.8393 84.6866C91.7218 84.7267 91.2177 84.6595 91.3961 83.6054C91.5219 82.8619 91.6646 82.186 91.4492 81.6988C91.0991 80.9064 89.6997 80.0878 88.1187 78.9233C86.252 77.5485 86.5977 77.4675 90.5755 68.2995C92.2457 64.4501 92.2528 63.6601 91.2513 60.8179C89.6687 56.3268 89.42 54.5282 92.3856 53.9011C94.0644 53.7084 95.7955 53.6134 97.5503 53.6163ZM114.391 56.218L115.931 56.6572C115.942 56.6586 120.738 73.0717 123.485 81.0858C124.323 83.5309 124.961 86.8347 125.121 89.9382C125.046 94.2112 122.64 97.2774 119.705 97.6128C117.628 97.8503 115.374 96.7728 114.343 94.4609C113.472 92.2625 114.128 89.6695 116.636 88.7749C120.976 87.2262 124.154 92.7653 119.899 94.4706C117.697 95.3526 115.605 93.7628 116.597 91.9123C117.292 90.615 119.248 90.7558 119.71 92.0958C120.087 93.522 120.711 92.8493 120.444 91.8834C119.637 88.8063 115.683 89.5313 115.366 92.3661C115.366 95.8784 119.212 96.7035 121.506 94.7312C123.283 93.1546 123.47 90.3057 123.026 87.8337C122.416 82.699 119.51 76.0396 117.446 68.4395C116.416 64.6446 114.924 60.1201 114.391 56.218ZM175.658 56.4014L178.549 57.5454L178.482 67.0735L176.03 67.9182C172.821 63.0158 175.49 56.4057 175.658 56.4014ZM117.056 57.0192L119.174 57.835C120.335 64.5607 125.806 77.4176 127.737 87.0131C128.275 92.7803 128.361 94.4726 124.455 97.5452L124.455 97.5018L122.341 97.5018C122.341 97.5018 122.333 97.3728 123.258 96.6812C128.374 92.8551 125.32 84.4237 123.388 77.9435C120.022 67.5942 117.014 57.0062 117.056 57.0192ZM97.251 57.6902C96.9826 57.6934 96.7102 57.7044 96.4353 57.7191C93.2393 57.8907 92.7144 58.0956 92.7042 58.7907C92.685 60.0999 93.2215 60.6807 96.194 60.3594C98.7666 60.0813 102.493 60.4806 105.061 61.5854C107.99 62.8458 108.685 63.1431 109.738 63.6851C112.381 65.0456 111.919 63.6921 109.53 62.1212C104.651 58.9122 101.278 57.6417 97.251 57.6902ZM120.309 58.1535L122.297 58.9113C122.297 58.9113 122.823 60.4617 123.012 61.3489C124.947 69.9348 130.211 79.5906 130.826 89.6341C130.966 92.9254 130.401 95.9938 127.988 97.4777L126.169 97.4777C128.114 95.5427 129.41 94.9839 128.867 88.2584C128.006 79.6209 122.308 68.8283 120.309 58.1535ZM123.837 59.5485L125.671 60.2242C127.783 71.8188 138.255 89.1428 131.589 97.5018L129.924 97.5018C131.411 95.1824 132.024 93.1452 131.801 90.0154C131.153 79.4799 125.779 69.2552 123.837 59.5485ZM126.912 60.6152L128.886 61.2186C131.566 72.9658 141.866 92.2164 134.524 97.5404L133.076 97.5018C138.608 87.161 130.222 76.46 126.912 60.6152ZM130.353 61.7109C130.96 62.0481 131.826 62.2095 132.487 62.4011C134.564 71.2836 138.361 80.0192 140.089 88.2922C140.671 92.8216 139.677 96.2132 136.831 97.5018L136.223 97.5018C138.777 93.6464 138.295 88.7834 136.932 83.5281C135.1 76.4607 131.54 68.6854 130.353 61.7109ZM99.2494 61.8654C98.3322 61.8567 97.3729 61.9959 96.3581 62.3191C95.3188 62.7118 95.4466 63.5311 96.4112 63.3617C96.7381 63.3043 97.3166 63.2017 97.6999 63.1348C100.068 62.7219 102.987 63.5754 106.523 65.7172C107.377 66.2344 108.306 66.7327 108.536 66.9046C109.186 67.3894 109.879 67.3874 109.642 66.7694C109.546 66.522 108.183 65.4655 106.977 64.7904C104.398 63.2315 102.001 61.8913 99.2494 61.8654ZM133.708 62.6377L135.697 62.9417C139.437 80.1324 147.648 90.8141 140.625 97.1929L138.868 97.1929C140.79 95.23 141.658 92.1567 141.021 88.5239C140.37 84.8157 138.454 78.9297 136.865 73.7538C135.022 67.7537 133.539 62.6799 133.708 62.6377ZM136.561 63.1203L138.245 63.4341C140.219 70.4218 143.57 79.0839 145.587 86.2987C146.827 90.7357 146.329 96.2005 143.56 97.2074L142.136 97.2315C144.486 94.0908 144.822 90.8192 143.748 86.5884C141.544 77.9044 138.208 70.3258 136.561 63.1203ZM146.958 63.13C148.66 70.3741 152.744 81.4257 154.212 85.2417C156.165 89.1386 155.58 94.909 152.644 97.1929L151.254 97.2218C152.933 95.6516 153.51 93.0074 153.242 90.2664C152.487 82.5203 147.003 71.7772 145.017 63.5258L146.958 63.13ZM139.568 63.4727L141.305 63.632C143.046 71.2093 146.43 78.5749 148.628 86.1539C149.037 87.8646 149.394 89.9543 149.25 91.4924C148.95 94.7171 147.614 97.2605 146.441 97.2605L145.244 97.2605C147.689 94.3473 147.57 90.3752 146.523 86.1057C144.794 79.0494 140.61 70.5416 139.568 63.4727ZM94.326 63.5113C93.6019 63.515 93.5892 64.178 94.7459 65.191C95.4536 65.8108 95.3992 65.6041 95.3589 65.9971C95.1869 67.6753 95.4508 69.2114 96.1409 67.4838C96.3251 67.0224 96.5948 66.5021 96.8649 66.5667C97.3749 66.724 97.1159 67.6613 97.3621 68.1354C97.7781 68.9714 97.3359 69.176 96.3243 68.9173C95.5962 68.7312 95.5549 69.1253 95.1031 69.6269C94.312 70.505 94.4409 71.0293 95.6582 70.7564C95.859 70.7113 96.0287 70.7689 96.1843 70.8046C96.564 70.8919 96.9112 71.1327 97.8158 71.8231C98.9779 72.7099 100.624 73.8918 101.692 74.0724C103.402 74.3616 103.02 73.5424 101.619 73.0057C100.419 72.5459 98.9304 71.269 98.9356 70.9157C98.9389 70.6443 99.3165 70.8053 101.479 70.2109C102.418 69.9531 103.737 69.3762 104.293 69.1201C105.211 68.6972 105.255 68.7007 106.692 68.7436C109.14 68.8167 109.514 68.7331 107.798 67.4596C104.329 64.8862 99.7004 63.211 97.2462 64.2788C96.5021 64.6025 96.5194 64.4041 95.9816 64.0954C95.2787 63.6918 94.7053 63.5093 94.326 63.5113ZM143.975 63.743C146.379 73.0046 151.03 81.3027 152.161 90.0878C152.417 92.6007 151.995 95.0556 149.907 97.1784L148.497 97.2025C148.291 97.2059 150.465 93.8438 150.279 90.9663C150.335 89.431 150.166 87.7845 149.728 86.1588C146.996 78.3483 144.307 71.2693 142.218 63.8251L143.975 63.743ZM100.557 66.7839C100.571 66.7822 100.583 66.7819 100.596 66.7839C101.252 66.8868 101.274 67.1476 101.084 67.4886C100.801 67.9942 100.302 68.9656 100.302 68.9656C100.302 68.9656 99.6367 69.0963 99.5003 68.927C99.2608 68.5791 100.138 66.8352 100.557 66.7839ZM102.223 67.0832C102.296 67.0821 102.385 67.1193 102.527 67.1749C103.156 67.4236 104.249 67.9339 103.777 68.3285C103.218 68.7959 101.051 69.006 101.156 68.8112L101.88 67.4741C102.034 67.19 102.101 67.085 102.223 67.0832ZM95.5858 75.1777C95.5298 75.1809 95.4825 75.1944 95.4458 75.2164C95.3201 75.2915 95.6048 75.795 96.0202 76.3651C97.9375 78.9519 95.2833 79.719 93.4041 78.3345C91.6199 76.9472 88.8652 77.0778 89.2627 78.5324C89.4028 79.0452 89.266 79.2948 90.2618 79.3095C91.1469 79.3225 91.3753 79.3719 92.1732 79.9177C95.2246 82.0047 99.1673 79.2109 97.2414 76.2155C96.8779 75.6501 95.9782 75.1555 95.5858 75.1777ZM103.116 79.2178C102.008 79.2178 101.308 80.0442 102.696 80.2917C107.652 81.1816 104.328 86.321 100.833 83.6729C97.6824 80.8295 93.469 80.8493 93.4185 82.8669C93.4111 83.3747 93.4346 83.3919 94.1812 83.533C95.9369 83.8647 98.5591 84.6632 99.5631 85.1693C100.153 85.4669 100.774 85.7449 100.944 85.7871C103.043 86.55 105.735 85.5585 106.268 83.7904C106.756 82.1723 106.362 79.2178 103.116 79.2178ZM40.9413 95.7545C41.605 95.7624 42.3106 96.343 42.8141 97.1929C43.9777 99.1567 45.3919 102.459 46.2943 104.279C46.5217 104.737 46.5307 105.147 46.5163 105.365C46.5872 106.432 46.9451 106.835 47.5782 106.354C48.2009 105.882 49.0648 105.091 48.0512 104.964C47.0322 104.196 46.4644 103.068 47.0955 102.382C47.56 101.876 47.3784 101.548 47.0038 101.527C45.5757 101.506 43.4472 97.2584 44.4504 96.3434C45.804 95.1087 47.3018 96.638 50.4888 102.961C51.8932 105.753 51.9582 108.809 50.7543 107.295C50.345 106.914 50.428 107.112 49.9482 108.314C49.5874 109.218 49.2912 109.646 47.9161 110.969C46.2415 112.579 45.2265 113.851 45.1889 114.13C45.1171 114.663 46.0936 114.166 46.8059 113.237C48.3972 111.683 48.4566 111.269 48.4422 113.329C48.4292 115.192 48.3334 115.533 48.6691 115.52C49.1922 115.501 49.4722 114.026 49.7165 112.248C50.0082 110.646 50.8407 109.837 52.2264 108.946C52.6068 108.702 52.6133 108.533 52.5402 107.826C52.2843 105.563 53.5713 101.343 54.1572 102.387C54.2398 102.621 54.4943 103.17 54.6302 103.555C54.7397 104.15 55.1147 104.822 55.6873 104.868C56.3989 105.4 56.3964 105.688 56.643 107.638C56.7235 108.275 57.0052 109.23 57.2029 109.738C57.5709 110.683 57.8999 111.237 57.6952 111.519C57.5652 111.658 57.2898 111.92 57.2898 111.92L45.6861 118.798C45.6861 118.798 44.7751 119.301 44.4456 119.44C43.526 119.855 42.9671 119.548 42.5149 118.86C40.0561 115.199 38.3681 111.085 36.6406 107.291C35.6034 105.038 36.6185 103.549 37.9583 105.365C38.4791 106.07 38.2128 106.52 37.9536 107.884C37.9067 108.131 38.1359 108.037 38.5666 108.106C39.2443 108.034 39.5713 108.639 39.5464 109.665C39.1185 111.137 39.7103 110.342 39.9905 110.269C40.5268 110.277 40.6457 110.599 40.9462 111.21C41.1338 112.071 41.5128 111.822 42.066 111.253C42.5232 110.784 42.5248 110.795 41.6026 109.694C40.0099 107.969 37.8013 104.073 37.2295 101.701C37.0718 101.047 37.1292 100.524 37.2488 100.176C37.9685 98.5556 38.9704 98.55 40.0629 100.813C40.2488 101.198 40.6146 101.819 40.8738 102.193C41.2939 102.801 41.5541 103.322 41.5399 104.288C41.2169 105.098 41.1643 105.114 41.4433 105.225C42.136 105.499 43.367 106.75 43.4224 107.87C43.4786 109.007 43.6711 109.612 44.5663 108.937C45.5869 108.167 45.1524 107.857 44.1464 106.871C43.092 105.616 43.0285 104.528 43.6541 103.622C43.7564 103.318 43.7131 103.232 43.3258 103.27C42.1013 103.388 40.9108 101.838 41.7619 100.659C42.1537 99.9676 42.1077 99.7895 41.5544 99.7704C41.266 99.7604 40.7899 99.8155 40.5552 99.6835C40.1932 99.0049 39.4373 98.0562 39.4451 97.2798C39.8021 96.1879 40.3558 95.7475 40.9413 95.7545ZM113.667 95.8124C115.679 97.0461 117.671 98.3304 119.932 98.9161C114.694 108.35 106.27 113.406 99.2204 115.38C99.4603 116.588 99.6304 117.791 100.799 118.532C100.759 118.35 100.241 116.207 100.355 115.767C110.066 113.287 118.615 103.773 120.801 98.8678L163.48 98.4044C131.841 128.755 130.58 171.47 156.394 207.273L153.426 209.006C133.534 179.211 133.737 150.504 139.703 131.28C143.933 117.65 151.524 107.237 157.292 101.286C157.292 101.286 134.152 100.968 122.635 101.392C120.962 103.952 119.406 106.042 117.157 108.459C117.157 108.459 123.009 102.808 122.857 101.827C133.531 101.821 144.538 101.204 155.197 101.947C142.723 116.875 136.575 132.286 135.508 146.784C135.469 148.669 135.355 147.616 134.731 148.309L132.762 151.364L131.184 148.188C130.111 147.842 128.001 148.401 127.105 148.077C122.717 167.655 127.151 191.284 132.926 206.704C132.926 206.704 131.476 207.516 129.692 207.38C127.739 206.946 127.262 207.485 125.57 207.829C123.625 208.199 122.946 208.196 122.515 208.688C122.275 208.961 121.842 209.343 121.351 209.61C116.612 211.331 111.051 217.786 111.051 217.695L105.833 215.354C110.641 205.912 116.283 202.514 126.202 198.324L125.28 194.106C114.716 198.041 107.993 202.753 102.691 211.907C96.2577 211.816 70.1998 211.633 70.1726 211.714C80.8016 199.627 89.1815 181.396 90.0977 167.182C90.3224 164.413 89.9351 165.744 91.1596 164.918L93.0855 162.625L94.5963 164.884C94.5963 164.884 95.6904 166.277 96.3822 165.116C98.3206 145.295 96.2701 122.693 86.7189 106.938C88.4134 106.826 90.1013 106.779 91.7243 107.739C95.46 116.199 97.6616 126.651 98.617 134.485C99.8264 144.401 99.6557 155.585 98.424 165.082L99.0611 165.169C100.923 152.826 100.292 139.699 98.5833 128.225C97.7062 122.239 94.8821 112.877 92.9407 108.555C92.4043 107.361 91.9879 107.052 92.4966 106.875C104.136 105.896 109.486 102.012 113.667 95.8124ZM81.3949 96.855C82.2853 96.855 83.0071 97.5768 83.0071 98.4672C83.0071 99.3575 82.2853 100.079 81.3949 100.079C80.5046 100.079 79.7828 99.3575 79.7828 98.4672C79.7828 97.5768 80.5046 96.855 81.3949 96.855ZM168.876 97.6756C165.469 100.76 162.731 103.956 159.855 107.363C168.367 119.068 177.826 131.757 185.78 141.894C185.78 141.894 188.533 140.263 188.521 140.06C188.516 139.953 188.301 139.414 188.251 139.534C188.133 139.815 186.021 140.996 186.021 140.996L160.849 107.962C160.849 107.962 162.214 106.328 162.635 105.814C164.591 105.171 170.033 98.4298 170.3 98.5685C174.564 101.835 187.425 115.682 192.378 119.927L192.441 158.363C191.928 159.901 178.217 165.827 168.534 187.937C163.664 190.666 158.269 192.134 153.252 194.506C153.252 194.506 154.529 196.515 155.154 197.065C154.387 195.409 154.252 195.092 155.989 194.386L192.224 179.616L192.156 182.599L191.567 187.749C181.706 193.83 173.384 196.378 159.812 205.55C158.842 205.776 158.062 206.707 157.041 206.757C122.37 155.697 144.534 117.226 164.74 97.8976L168.876 97.6756ZM55.9721 100.287C56.9181 100.302 56.6791 102.497 56.3292 103.255C55.6306 103.804 54.9336 103.317 54.9488 102.29C54.9531 101.955 54.8881 101.639 54.804 101.585C54.2798 101.251 55.1571 100.275 55.9721 100.287ZM77.1473 101.658C77.9439 102.262 78.2387 103.068 78.5326 103.873C77.4579 103.704 74.5813 102.88 75.931 102.237L77.1473 101.658ZM71.9102 104.51C96.9162 142.328 95.7973 182.494 67.8895 212.94L103.198 212.887C107.692 204.019 115.179 198.613 124.759 195.284L125.594 198.069C114.584 201.603 109.013 207.462 104.583 215.58L62.4738 215.58C78.6524 198.173 86.0641 183.468 87.2306 163.576C88.3414 144.632 83.5216 127.331 68.8838 106.513L71.9102 104.51ZM78.9574 104.945L84.8558 107.73L83.9821 113.783L77.8038 110.935L78.9574 104.945ZM68.3239 106.644C99.8613 154.351 86.3352 187.908 61.1561 215.836L56.5175 215.913L45.7054 205.869L45.9033 266.904C45.9033 266.904 35.3613 277.231 34.15 278.469C32.9532 279.621 32.0551 277.851 32.0551 277.851L32.0841 196.939L32.5523 193.768L32.6971 176.333L39.416 172.791L64.6121 205.816C64.6121 205.816 63.5999 207.308 63.1302 207.573C62.8248 207.745 63.0484 208.041 63.304 208.007C64.0114 207.914 66.0305 205.657 65.6064 205.294C56.4665 193.971 39.474 171.801 39.474 171.801L32.3978 175.494C32.3978 175.494 32.6027 161.019 32.4751 155.462C32.7468 154.152 33.7295 154.503 34.3913 153.918C42.5397 148.681 48.2817 142.288 51.8258 136.087C52.0863 135.624 53.6547 132.841 53.8096 132.588C54.3623 131.687 55.7335 128.87 56.532 127.071C56.9782 126.065 57.4527 124.847 57.6325 124.701C62.5352 123.105 67.6815 120.838 72.6053 118.803L65.5147 108.159L68.3239 106.644ZM48.9973 107.252C48.7312 107.248 48.0544 107.556 47.139 108.386C45.4489 109.92 43.2218 112.439 43.2148 112.919C43.6681 113.082 44.0694 112.822 44.4311 112.455C45.8447 110.369 48.0303 109.553 49.311 107.725C49.5101 107.387 49.3002 107.248 48.9973 107.252ZM64.8824 109.467C64.8824 109.467 69.7751 116.595 71.0269 118.489C58.1338 123.594 44.6424 130.336 32.6923 134.697L32.6923 131.84L34.5796 126.709L64.8824 109.467ZM84.0642 114.178L88.8862 116.669L87.525 122.109L82.6596 119.387L84.0642 114.178ZM88.0415 123.229L92.0043 126.115L90.1942 130.73L86.2024 127.983L88.0415 123.229ZM55.7066 126.612C55.7066 126.612 55.0959 128.752 54.0703 130.667C49.1663 139.187 44.368 146.759 34.4541 153.334C34.0767 152.998 32.9964 151.109 32.9964 151.109L32.8998 148.584C38.1558 144.362 42.6921 141.262 49.6537 128.871L51.6714 128.051L53.3897 128.794L54.553 126.719L55.7066 126.612ZM76.3316 126.632C71.7627 136.324 67.2671 146.321 59.988 153.874L79.9083 181.682C86.463 162.048 84.0296 143.647 76.3316 126.632ZM51.2659 128.746L50.3102 130.401L51.9658 131.357L52.9215 129.702L51.2659 128.746ZM48.5629 128.924C44.9538 136.994 39.5369 143.202 32.4268 147.667L32.1517 135.827L48.5629 128.924ZM49.8323 131.333L48.8766 132.989L50.5322 133.944L51.4879 132.289L49.8323 131.333ZM90.5466 131.681L94.1377 135.088L92.0043 138.848L88.3214 135.803L90.5466 131.681ZM145.563 133.355C145.559 133.357 145.555 133.361 145.553 133.365C139.242 152.982 141.137 171.719 149.796 188.029C154.044 177.457 157.532 170.382 165.826 159.126C160.718 152.439 146.076 133.144 145.563 133.355ZM48.4229 133.669L47.4189 135.296L49.0456 136.3L50.0495 134.673L48.4229 133.669ZM75.9599 135.957C81.6494 149.558 81.1477 161.821 78.1223 172.448L63.9122 154.497C69.1182 148.035 72.5757 141.916 75.9599 135.957ZM46.9555 136.005L45.8792 137.584L47.4575 138.665L48.5339 137.082L46.9555 136.005ZM45.3675 138.264L44.1898 139.775L45.6957 140.953L46.8735 139.442L45.3675 138.264ZM92.1829 139.872L95.4024 142.927L93.3703 146.89L90.1025 143.902L92.1829 139.872ZM43.5092 140.615L42.2735 142.068L43.7264 143.304L44.9621 141.851L43.5092 140.615ZM147.305 141.045L161.641 159.541C156.846 165.248 152.861 171.972 149.299 179.22C145.305 166.704 143.502 154.407 147.305 141.045ZM41.4964 142.917L40.1739 144.298L41.5543 145.62L42.8769 144.24L41.4964 142.917ZM74.9849 144.766L68.4253 154.251L75.9454 163.851C76.7546 158.654 76.9364 152.621 74.9849 144.766ZM39.3581 145.075L37.9487 146.369L39.2423 147.778L40.6517 146.484L39.3581 145.075ZM37.2874 146.924L35.8008 148.13L37.0075 149.617L38.4893 148.41L37.2874 146.924ZM93.3124 147.903L96.0057 151.051L93.2737 154.289L90.7155 151.413L93.3124 147.903ZM127.554 148.468L129.383 148.536C126.383 178.129 132.28 193.103 137.497 206.125C137.497 206.125 137.485 206.647 137.309 206.8C136.459 207.093 134.74 207.409 133.361 206.197C126.341 188.156 124.81 165.933 127.554 148.468ZM34.8788 148.85L33.3294 149.969L34.4492 151.519L35.9987 150.399L34.8788 148.85ZM149.535 149.902C149.07 149.902 148.665 162.077 150.419 168.022L157.017 159.082L149.535 149.902ZM132.477 151.91L134.683 154.873L132.342 158.064L129.948 155.042L132.477 151.91ZM33.0881 152.716C33.1987 152.698 33.3802 153.007 33.7349 153.252C34.0646 153.596 34.017 153.571 33.648 153.865C33.071 154.325 32.899 154.25 32.9095 153.532C32.9591 152.94 33.002 152.729 33.0881 152.716ZM93.4427 154.941L95.8802 158.431L93.182 161.901L90.8748 158.247L93.4427 154.941ZM132.284 159.362L134.852 162.49L132.646 165.922L129.842 162.645L132.284 159.362ZM191.741 160.024L191.968 163.629L191.08 162.312L189.448 163.562L190.587 165.073L192.011 163.962L192.098 165.415C183.054 171.951 179.154 179.458 175.484 185.089L173.853 185.78L171.994 185.191L171.087 186.798L169.509 187.17C169.46 187.16 172.677 180.268 178.182 173.254C183.084 167.008 191.715 159.966 191.741 160.024ZM192.788 165.666L192.866 178.486L176.681 184.738C180.881 177.581 185.835 170.939 192.788 165.666ZM188.768 164.107L187.291 165.319L188.565 166.781L190.037 165.57L188.768 164.107ZM186.494 166.038L185.07 167.307L186.398 168.722L187.822 167.442L186.494 166.038ZM132.448 166.747L135.499 169.996L133.264 173.833L130.088 170.787L132.448 166.747ZM184.197 168.113L182.86 169.479L184.322 170.884L185.659 169.518L184.197 168.113ZM182.092 170.271L180.808 171.69L182.362 173.037L183.646 171.618L182.092 170.271ZM179.978 172.689L178.786 174.186L180.403 175.436L181.595 173.935L179.978 172.689ZM133.496 174.987L137.309 177.463L135.446 182L131.637 179.099L133.496 174.987ZM178.134 175.006L177.014 176.56L178.737 177.738L179.872 176.131L178.134 175.006ZM176.411 177.458L175.373 179.065L177.116 180.185L178.149 178.525L176.411 177.458ZM174.871 179.886L173.915 181.542L175.721 182.57L176.676 180.895L174.871 179.886ZM173.481 182.396L172.525 184.052L174.524 184.916L175.315 183.337L173.481 182.396ZM135.562 183.419L139.466 186.064L137.738 190.819L133.616 187.903L135.562 183.419ZM192.185 188.096L192.378 285.927L149.386 286.076C149.386 286.076 147.375 282.539 143.169 274.366C141.387 270.906 139.882 269.436 139.727 266.696C139.888 265.087 139.144 263.262 137.825 262.526C137.382 262.279 136.641 262.578 136.889 261.889C137.161 261.131 136.325 259.965 136.097 259.717C135.837 259.278 135.999 259.172 135.972 257.54C135.945 255.963 135.861 255.303 135.523 254.113C134.669 251.104 134.479 249.601 134.968 248.041C136.238 244.084 137.561 241.048 139.273 237.359C140.269 235.2 140.117 234.356 137.063 232.788C134.776 231.614 134.472 231.626 134.76 229.911C134.895 229.108 135.021 228.601 134.852 228.212C134.749 227.975 134.369 227.644 134.147 227.454C133.849 227.199 133.938 226.673 134.244 226.281C134.543 225.897 134.546 225.349 134.249 224.433C133.624 222.507 135.038 219.955 137.709 218.192C138.89 217.412 138.857 217.574 140.089 218.867C143.689 222.648 149.037 220.273 149.048 214.943C149.051 213.282 148.485 213.381 150.056 212.597C155.382 209.209 166.313 203.045 166.241 203.214C166.953 204.665 167.19 205.904 167.641 207.466C168.03 208.806 167.979 208.909 167.834 211.516C167.703 213.873 167.632 214.421 168.186 214.572C171.341 214.919 172.061 213.803 172.665 211.767C172.927 210.868 173.43 211.05 173.742 211.429C174.942 213.614 176.461 215.886 177.458 217.439C178.705 219.422 180.805 220.408 181.904 219.471C182.135 218.7 182.326 218.676 183.719 218.993C185.408 219.377 186.371 218.431 186.533 217.188C186.597 216.692 186.236 216.712 187.141 216.222C189.385 214.561 188.529 212.293 188.193 210.927C188.222 210.999 189.152 210.362 189.173 209.083C189.28 202.445 183.527 192.884 183.656 193.131L192.185 188.096ZM137.903 191.919L142.469 194.125L141.392 199.579L136.701 197.47L137.903 191.919ZM182.333 193.947C184.963 196.996 186.865 202.079 187.846 205.391C188.33 207.041 188.389 208.923 187.957 209.185C187.53 209.443 187.331 209.167 187.411 208.181C187.478 207.36 187.502 206.724 187.151 206.733C186.13 206.996 186.09 205.45 186.195 205.087C186.265 204.844 186.391 204.673 186.446 204.541C186.697 203.942 186.04 204.023 185.36 204.015C184.758 204.03 184.602 203.664 184.631 203.093C184.614 202.46 183.776 202.584 183.299 203.064C182.863 203.503 182.954 204.021 183.545 204.382C184.393 204.901 185.195 206.178 187.17 210.58C188.317 213.135 187.977 214.949 186.61 214.929C185.662 214.901 184.558 212.305 183.666 210.392C183.435 209.897 184.013 209.345 184.216 209.079C184.741 208.39 184.661 208.173 183.883 208.162C183.154 208.151 182.845 208.215 182.406 207.317C182.24 206.979 182.121 206.463 182.179 206.134C182.554 205.143 181.783 204.904 181.035 205.285C180.092 205.678 180.099 206.519 181.537 207.896C182.463 209.416 182.221 209.31 181.344 210.334C181.161 210.695 181.271 210.917 181.658 210.923C182.77 210.583 183.982 212.587 183.651 213.273C183.31 213.568 182.378 214.637 183.28 214.432C185.111 213.934 186.227 216.616 185.148 217.526C183.538 218.333 183.157 218.081 180.678 213.128C179.908 211.591 178.982 209.938 178.868 209.769C178.754 209.6 178.704 209.145 178.709 208.779C178.816 207.883 178.434 207.68 177.656 208.036C177.072 208.176 176.544 208.656 177.285 209.112C178.149 210.603 178.455 210.844 177.98 211.222C176.899 212.082 177.368 212.048 178.578 212.288C179.171 212.467 179.472 212.772 179.635 213.138C180.261 214.542 181.369 216.523 181.479 216.927C181.846 217.957 181.184 218.42 180.277 218.375C179.329 218.398 178.895 217.649 178.433 217.009C176.709 214.613 175.467 212.239 173.708 209.518L173.944 206.974C173.944 206.974 174.406 207.074 174.664 206.95C175.17 206.707 175.471 205.912 175.759 204.855C176.222 203.936 178.952 201.846 179.997 200.723C180.19 200.596 180.352 200.387 180.354 200.26C180.348 199.849 179.17 200.124 178.395 201.013C177.256 202.024 176.771 201.677 176.807 200.386C176.695 198.79 175.721 199.59 175.672 201.148C175.547 202.379 175.12 203.129 174.258 203.817C172.633 205.117 172.903 204.788 172.979 206.593C173.111 209.74 171.896 212.329 171.101 210.614C170.819 210.004 170.489 209.312 169.779 209.281C169.276 209.259 169.028 208.767 168.751 207.549C168.339 205.578 167.765 204.31 167.24 202.495L182.333 193.947ZM141.861 200.728L147.122 202.823L146.137 208.326L140.924 206.332L141.861 200.728ZM181.976 201.235C181.941 201.237 181.9 201.246 181.856 201.264C180.373 202.384 179.006 203.641 177.391 204.604C176.785 204.962 176.077 205.887 176.073 206.134C176.069 206.375 176.792 206.37 177.497 206.062C178.166 205.77 181.982 202.187 181.986 201.858C182.249 201.568 182.223 201.219 181.976 201.235ZM133.665 207.915C134.909 207.912 134.183 208.282 131.468 210.165C128.818 212.003 124.451 217.816 123.943 219.973C123.713 220.952 124.334 221.028 125.034 219.683C128.252 213.499 134.338 207.848 139.911 208.099C142.64 208.222 144.115 208.958 141.856 209.281C135.661 210.042 131.032 213.574 126.979 220.615C126.977 220.773 127.347 220.765 127.771 220.494C131.48 215.959 135.659 209.954 143 210.44C148.295 210.759 149.799 217.056 145.403 219.205C141.571 221.079 138.038 216.516 141.214 213.809C142.245 212.93 142.89 213.316 141.899 214.214C139.774 216.143 142.379 219.578 144.969 218.274C146.545 217.613 147.184 215.358 145.794 213.654C142.704 209.866 136.049 212.747 131.41 218.867C130.924 219.512 130.503 220.91 130.913 220.76C131.633 220.463 132.068 219.898 132.492 219.263C134.147 216.968 135.419 215.815 137.661 214.581C139.393 213.628 139.5 213.807 138.853 215.46C138.581 216.156 138.363 216.388 137.69 216.821C134.866 218.75 133.112 221.334 133.042 222.98C132.991 224.182 133.871 225.752 132.916 226.074C131.299 226.838 126.886 226.215 125.696 224.693C124.839 223.599 124.507 224.233 125.15 226.011C125.575 227.186 125.557 227.849 126.198 227.73C127.008 227.3 127.565 227.401 129.137 228.26C129.895 228.675 131.239 229.061 132.057 229.25C133.55 229.594 133.862 229.449 133.829 230.095C133.819 230.293 133.887 230.85 133.843 231.2C133.601 233.145 135.225 233.807 137.439 235.086C138.733 235.833 138.222 236.602 136.725 240.303C135.946 241.978 135.282 244.231 134.321 245.931C133.423 247.842 133.347 249.933 133.925 252.317C134.999 256.742 135.772 258.99 133.858 259.389C128.931 260.134 118.049 260.104 112.108 257.82C110.588 246.417 102.537 229.498 103.569 225.123C105.63 228.23 114.271 227.408 111.669 218.723C111.669 218.723 112.377 217.663 113.783 216.237C117.41 212.558 118.305 211.949 116.583 215.189C115.258 217.68 113.57 220.931 113.532 221.561C113.502 222.063 113.893 222.179 114.198 221.778C114.424 221.481 114.692 220.758 114.927 220.209C117.088 215.149 120.784 210.587 123.33 209.489C123.986 209.206 123.953 209.507 123.499 210.063C120.503 213.792 118.214 217.239 116.587 221.739C116.515 222.203 117.174 222.397 117.384 221.957C120.195 216.066 121.035 214.73 124.489 210.58C125.847 208.949 127.109 208.126 128.119 208.215C128.992 208.292 128.733 208.435 127.926 209.296C127.309 209.953 126.398 210.868 124.923 212.723C122.323 215.995 119.708 221.318 120.671 221.04C120.837 221.483 121.657 220.068 122.351 218.718C124.251 215.528 126.269 211.312 130.782 208.54C131.724 208.15 132.754 207.926 133.665 207.915ZM46.386 208.944L54.4226 216.975L70.5877 216.768C67.9218 220.91 69.3455 227.332 70.8145 231.084C73.6945 238.441 77.9158 250.586 77.6059 250.763C77.6059 250.763 75.2553 251.367 75.0428 252.858C74.7279 255.067 75.6857 254.903 74.3043 256.898C73.9936 257.347 74.1936 258.194 74.5264 258.867C74.7456 259.361 74.9549 260.104 74.5457 260.682L60.2872 286.12L33.2281 286.25L33.2281 281.162L46.777 267.445L46.6128 257.352C54.0028 259.548 56.5405 267.173 57.1739 272.822C70.5227 260.64 70.1928 242.3 57.5794 230.795C55.1206 242.955 46.3139 245.482 46.5067 245.241L46.386 208.944ZM146.914 210.387C147.779 210.449 148.946 210.588 149.738 211.014C149.202 211.335 148.82 211.717 148.464 212.11C148.031 211.342 147.447 210.922 146.914 210.387ZM169.32 210.474C170.04 210.471 170.924 212.578 170.416 213.07C170.13 213.348 169.203 213.453 168.871 213.244C168.447 212.93 168.663 210.476 169.32 210.474ZM143.825 214.128C144.753 214.128 145.505 214.88 145.505 215.807C145.505 216.735 144.753 217.487 143.825 217.487C142.897 217.487 142.145 216.735 142.145 215.807C142.145 214.88 142.897 214.128 143.825 214.128ZM72.7308 216.522L73.9423 216.551C71.74 219.495 71.4431 222.029 72.224 225.702C73.102 229.835 79.799 245.37 80.2317 249.648C80.2512 249.842 80.2703 250.387 80.2703 250.387L78.6243 250.498C78.6243 250.498 78.5014 250.055 78.4506 249.885C76.1472 242.139 73.8547 236.232 72.2529 231.716C70.6567 226.847 68.2131 219.628 72.7308 216.522ZM81.5832 216.551C81.5946 216.549 81.6041 216.552 81.6121 216.555L82.7754 216.565C82.7325 216.591 81.0388 220.222 80.9171 222.425C80.779 224.922 81.3829 227.642 82.2107 230.326C84.1652 236.134 87.0261 242.602 88.6159 249.933C88.6344 250.018 88.8089 250.729 88.8089 250.729L87.0858 250.498C87.0858 250.498 86.9167 249.747 86.8975 249.643C85.7077 243.195 82.3893 236.499 80.4103 230.152C79.3962 227.268 78.6913 223.721 79.0539 221.01C79.3097 219.098 81.2285 216.588 81.5832 216.551ZM95.6534 216.565C94.4212 218.473 93.2995 220.864 93.2207 222.739C93.1495 226.227 94.1656 229.171 95.1803 232.252C98.3044 241.74 99.82 246.745 101.383 254.354L99.7224 253.645C99.7224 253.645 99.6577 253.217 99.621 253.094C98.7339 248.33 98.678 248.745 93.4668 232.72C92.2456 228.874 91.0818 225.502 91.3092 222.299C91.3608 220.475 92.9525 216.863 94.6301 216.575L95.6534 216.565ZM97.6468 216.565L99.1963 216.565C99.1963 216.565 98.3431 217.468 98.0957 217.806C95.3892 221.56 96.1725 225.587 97.5165 230.389C99.3659 236.996 102.785 244.385 104.573 254.456C104.606 254.642 104.573 255.614 104.573 255.614L102.729 254.871C101.054 245.637 96.9211 236.063 94.9293 227.759C93.7581 222.882 94.0914 219.8 96.7973 217.144C97.4754 216.621 97.6468 216.565 97.6468 216.565ZM78.7402 216.618L79.8986 216.618C79.8986 216.618 77.9615 219.799 77.9631 221.672C77.6393 225.024 78.8529 228.728 80.2461 232.609C82.3873 238.575 85.2175 245.788 86.0866 249.585C86.1208 249.735 86.2362 250.416 86.2362 250.416L84.2138 250.309C84.2138 250.309 84.1078 249.39 83.9869 248.968C81.6529 240.803 79.3793 235.522 76.6984 228.067C76.2927 226.939 75.6449 222.478 76.4088 219.587C77.0085 217.317 78.7402 216.618 78.7402 216.618ZM75.6365 216.623L76.8867 216.657C76.8867 216.657 76.6988 216.996 76.2206 217.815C73.9395 221.945 74.9617 225.715 76.375 229.916C78.2608 235.521 81.2214 242.365 83.0698 248.842C83.1741 249.207 83.316 250.309 83.316 250.309L81.5108 250.285C81.5108 250.285 81.144 248.966 81.1198 248.823C80.1043 242.819 74.6171 232.812 73.1893 225.195C72.4066 221.11 73.0792 218.58 75.6365 216.623ZM92.3808 216.623C92.3808 216.623 90.4082 220.042 90.228 221.947C89.8746 225.681 91.0593 228.773 92.4146 232.986C94.7529 240.254 98.0523 248.781 98.3467 252.679C98.3565 252.808 98.4047 253.283 98.4047 253.283L96.3726 252.559C96.3726 252.559 96.2815 252.152 96.2422 252.008C94.471 244.955 92.3768 237.93 89.5619 230.013C88.8677 227.341 87.9564 224.654 88.0366 222.357C88.4491 219.291 88.971 218.464 90.7976 216.647L92.3808 216.623ZM101.32 216.628L102.956 216.662C102.956 216.662 102.468 216.924 101.301 218.167C94.8455 224.066 105.319 240.721 107.735 255.884C107.761 256.047 107.836 256.618 107.836 256.618L106.036 255.971C105.865 255.216 105.738 254.296 105.529 253.471C103.572 245.719 100.961 237.749 98.5639 230.519C97.2193 225.252 96.728 220.612 99.1432 218.018C99.8997 217.122 101.32 216.628 101.32 216.628ZM84.4889 216.637L86.2314 216.686C84.972 218.264 84.2332 220.724 84.1655 222.912C84.0983 225.5 84.7904 228.016 85.6425 230.679C87.3901 236.139 89.8855 242.073 91.5988 249.44C91.6956 249.928 91.7763 250.241 91.8209 250.454C91.8916 250.792 92.0863 251.328 92.0863 251.328L90.2473 250.961C90.2473 250.961 90.0575 250.483 89.9336 250.232C89.7477 249.855 89.578 249.374 89.4268 248.798C88.5363 244.955 85.2586 236.234 83.2629 230.119C81.6803 226.265 81.249 219.529 84.4889 216.637ZM106.243 216.705C108.472 216.623 110.487 218.514 110.964 220.291C111.427 222.178 110.835 224.308 108.758 225.359C105.391 227.065 101.767 222.528 104.424 220.031C106.437 218.138 109.416 219.539 108.768 221.961C108.35 223.538 105.958 223.64 105.563 222.048C105.455 221.518 105.189 220.989 104.998 221.281C103.76 224.188 107.922 225.55 109.651 222.845C110.676 220.676 108.725 217.883 105.852 218.414C101.914 219.141 101.461 224.139 103.096 229.969C105.378 239.183 110.819 251.576 110.81 257.265C110.81 257.34 110.829 257.574 110.829 257.574L109.101 257.057C109.101 257.057 109.089 256.961 109.077 256.879C108.041 248.934 102.139 235.78 100.446 225.668C99.7128 221.058 101.509 217.711 105.548 216.797C105.782 216.744 106.013 216.713 106.243 216.705ZM89.1565 216.777C87.9444 218.397 87.1522 220.831 87.1147 222.569C87.0781 225.115 87.9917 227.594 88.7462 230.244C90.6557 236.79 95.1163 248.876 94.9535 251.139C94.9999 251.382 95.1224 252.134 95.1224 252.134L93.3992 251.622C93.3992 251.622 93.3307 251.513 93.2013 251.202C92.6271 248.956 89.8951 239.329 86.8348 231.007C85.6572 227.66 85.0842 225.054 85.1647 222.835C85.4134 219.774 86.2898 218.496 87.6312 216.792L89.1565 216.777ZM121.969 227.628C117.503 227.883 117.933 233.328 120.7 234.25C121.69 234.523 122.271 234.287 122.428 234.072C122.607 233.827 122.406 233.452 121.757 233.357C119.879 232.741 119.208 230.53 120.904 229.603C121.83 229.118 123.308 229.43 125.092 230.751C128.279 233.111 132.186 233.259 131.676 230.872C131.552 230.292 131.302 230.214 128.968 229.897C127.072 229.638 126.218 229.039 125.391 228.593C124.089 227.891 122.941 227.599 121.969 227.628ZM58.0235 232.691C69.5625 243.961 67.8524 261.623 57.9945 270.466C57.7917 269.752 57.3609 268.003 57.3139 268.053C64.7275 260.339 68.2192 247.694 57.4877 234.733C57.5433 234.783 57.7263 233.798 58.0235 232.691ZM130.344 232.991C130.235 232.993 130.139 233.005 130.054 233.034C127.066 233.852 126.446 236.805 128.384 238.02C129.572 238.765 130.485 238.309 129.007 237.407C127.74 236.635 128.365 234.604 129.9 234.627C130.571 234.637 131.027 234.928 132.733 236.186C134.137 237.221 135.459 237.304 135.759 235.901C135.939 235.065 135.659 234.693 134.765 234.912C134.37 235.009 134.138 234.777 133.602 234.405C132.41 233.577 131.107 232.974 130.344 232.991ZM56.8312 235.201C67.2326 247.274 63.8935 259.865 56.8795 267.242C54.9537 261.559 50.233 258.013 50.233 258.013C52.0118 254.066 53.0725 249.944 49.7454 244.739C52.8405 241.942 55.4057 238.869 56.8312 235.201ZM124.412 239.608C123.924 239.6 124.082 240.07 125.232 240.873C127.974 242.738 128.208 243.074 125.551 243.031C124.877 242.991 123.822 243.468 123.224 243.668C119.756 244.825 119.588 244.732 117.929 244.343C117.376 244.214 116.815 243.983 116.573 244.203C116.198 244.545 115.778 244.771 116.249 245.28C116.593 245.651 117.233 245.935 118.011 246.38C122.038 248.687 122.404 249.24 127.139 249.363C127.681 249.378 127.96 249.097 128.278 249.093C129.051 249.084 129.456 249.273 130.238 249.986C131.668 251.292 131.735 250.343 130.884 248.63C130.438 247.731 130.048 247.517 130.267 246.834C130.766 245.276 130.055 244.967 129.123 246.347C128.424 247.427 128.345 247.402 127.684 246.014C126.808 244.28 127.219 243.479 128.548 244.609C129.555 245.465 129.812 244.828 130.204 244.15C130.719 243.259 130.641 242.459 129.721 242.529C129.192 242.569 128.698 242.325 128.283 241.872C127.468 240.984 125.907 239.869 124.412 239.608ZM125.551 244.3C125.66 244.306 125.736 244.351 125.773 244.464C125.782 245.035 125.39 246.202 125.068 246.815C124.965 247.088 124.789 247.122 124.542 247.172C123.712 247.325 123.654 247.068 123.803 246.554C124.108 245.76 124.359 244.631 125.43 244.305C125.475 244.3 125.514 244.298 125.551 244.3ZM123.441 244.696C123.777 244.671 123.788 244.811 123.654 245.116C123.414 245.63 122.992 246.117 122.679 246.52C122.013 246.951 120.93 245.635 121.409 245.294C122.078 245.03 122.58 244.758 123.277 244.715C123.339 244.705 123.393 244.699 123.441 244.696ZM48.9297 245.555C49.1088 245.555 49.2916 245.591 49.48 245.671C51.997 249.068 51.8255 254.24 49.8709 257.101C49.7252 257.314 49.5766 257.353 49.3303 257.27C48.4891 256.772 47.4206 256.587 46.6225 256.299L46.6225 246.351C47.4445 246.177 48.1537 245.553 48.9297 245.555ZM115.26 246.366C115.068 246.375 114.988 246.505 115.231 246.757C118.901 249.413 123.952 252.491 128.611 251.299C129.039 251.206 129.383 250.972 129.301 250.531C129.25 250.257 128.776 250.02 128.263 250.155C127.195 250.437 125.146 250.473 124.305 250.338C121.102 249.813 118.272 247.764 115.81 246.564C115.628 246.424 115.409 246.359 115.26 246.366ZM114.188 248.9C114.024 248.892 114.037 249.056 114.14 249.363C114.657 250.902 119.851 254.487 123.953 255.672C127.475 256.69 132.535 255.689 132.241 254.016C132.087 253.144 131.447 252.935 129.2 253.22C124.251 254.182 119.488 252.158 115.873 249.909C114.899 249.295 114.399 248.91 114.188 248.9ZM81.7811 251.004C83.9424 250.979 86.0854 251.154 88.4035 251.54C92.9127 252.31 98.139 253.706 102.561 255.754C110.075 258.574 119.522 260.75 127.539 260.455C129.496 260.51 133.033 260.343 133.718 260.117C135.505 259.717 135.999 260.096 136.426 262.314C136.501 262.796 136.65 262.936 137.27 263.356C138.22 263.999 138.061 264.635 137.946 266.054C137.849 267.249 138.571 267.919 141.465 273.261C144.759 279.34 147.971 286.404 147.971 286.404C119.098 286.385 91.5526 285.313 62.0104 286.231C64.6673 279.931 71.9115 268.571 76.4513 259.453C75.3534 256.647 76.7092 256.17 76.1404 255.505C75.2209 253.945 75.8844 251.758 77.8279 251.265C79.182 251.109 80.4843 251.02 81.7811 251.004Z" fill="#131F67"/>
<path d="M62.3475 286.427C62.3475 286.427 71.8091 267.299 75.7956 261.569C81.5314 254.298 107.42 264.729 120.295 267.335C125.528 268.344 137.658 267.871 137.658 267.871L147.797 286.146L62.3475 286.427ZM42.7006 264.693L42.2996 205.147L45.2621 206.995L45.941 266.808L33.1369 279.068L33.0665 275.476L42.7006 264.693ZM50.4503 257.899C53.4999 251.761 50.0954 244.265 50.0959 244.268C51.8646 244.704 56.7943 235.35 57.2323 235.62C64.7763 244.872 66.084 258.657 56.8665 267.201C54.5398 261.262 50.4802 257.899 50.4503 257.899ZM56.0814 215.784C61.8135 209.926 66.3593 205.363 70.9027 198.808C71.2747 198.275 46.7181 167.083 47.1 166.537C50.8882 162.35 55.9662 159.274 59.917 154.218C59.917 154.218 80.0557 180.581 80.519 180.349C82.5595 172.099 84.0537 164.63 83.6642 156.007C82.4215 133.944 72.9931 120.437 72.9202 120.703C69.7322 140.973 38.3988 171.677 32.2294 169.489L32.1946 155.324C32.5677 156.032 52.0447 142.792 57.1808 125.293C57.5498 124.036 72.6631 119.2 72.5573 119.015C71.918 117.372 65.3065 108.019 65.3065 108.019C65.3065 108.019 67.9771 106.775 68.2738 106.779C76.8442 117.436 83.3113 131.474 85.5119 144.842C88.1819 159.241 89.9082 186.309 61.0355 215.87L56.0814 215.784ZM142.637 178.534C138.119 164.512 138.242 149.994 140.32 139.857C143.49 121.49 155.098 108.338 164.409 98.3094L168.448 98.3113C168.448 98.3113 163.619 103.308 161.861 105.127C158.846 108.586 154.478 115.802 154.478 115.802L178.573 147.297L192.307 144.329C192.307 144.329 191.893 158.418 192.318 158.418C181.645 167.253 173.974 175.249 168.467 188.121C165.092 189.369 153.903 194.193 153.903 194.193C148.584 192.893 169.73 159.739 165.709 159.177C164.052 157.811 145.71 133.067 145.352 133.118C136.896 159.005 145.145 186.191 160.021 205.179C158.332 206.273 156.804 207.124 156.944 206.868C150.572 198.028 144.989 187.474 142.637 178.534ZM98.6192 165.555C99.5725 167.031 103.859 133.962 92.5924 107.492C93.6645 106.679 102.959 104.901 102.959 104.901L105.461 112.827L99.1203 115.512L100.291 119.227C105.213 116.839 115.872 113.315 122.429 102.423C122.429 102.423 154.29 102.15 154.968 102.206C155.629 102.262 148.47 109.122 141.68 123.01C138.579 129.354 136.112 137.562 135.598 147.192C135.496 149.095 128.308 138.246 128.308 138.246C130.1 129.079 134.891 120.054 139.666 111.029C139.666 111.029 132.34 110.613 127.221 110.763C119.261 119.461 114.27 124.045 102.269 128.2C106.646 142.219 133.418 148.958 127.464 147.676C126.248 147.39 124.706 160.565 125.994 175.41C126.243 187.281 132.63 207.068 132.855 206.909C132.855 206.909 128.597 207.868 128.256 207.185C128.974 207.013 121.922 208.798 121.922 208.798L119.4 201.423L126.224 198.283L125.121 194.12C125.094 194.123 110.062 198.669 102.698 211.782L69.7707 211.82C82.4697 198.041 87.6492 184.412 90.4072 166.394C93.1013 166.878 98.6192 165.555 98.6192 165.555ZM179.6 46.5938C183.74 43.1293 192.05 34.1074 192.05 34.1074L192.158 38.7298L182.728 48.5373L182.823 109.089L179.633 106.032L179.6 46.5938ZM175.242 68.7562C173.543 69.5652 170.158 73.5452 168.544 78.0171C157.619 68.2559 162.118 50.3173 168.099 46.5829C169.835 50.4999 174.86 55.6926 174.744 55.5835C173.589 59.6849 172.704 63.8454 175.242 68.7562ZM78.5064 28.1067L162.77 28.2545C157.963 37.7183 153.554 45.3683 148.445 54.685C145.787 57.8917 88.2437 44.3303 87.9735 45.6811L78.5064 28.1067Z" fill="#E2CF00"/>
<path d="M197.268 302.862L197.268 300.082L200.036 300.082L206.646 290.049L199.797 274.217L197.128 274.217L197.128 271.104L207.06 271.104L207.06 274.217L203.56 274.217L208.777 286.562L212.253 281.612L212.175 274.217L209.736 274.217L209.736 271.104L218.801 271.104L218.801 274.217L215.562 274.217L215.721 300.082L218.467 300.082L218.467 302.862L209.856 302.862L209.856 300.082L212.226 300.082L211.995 287.919L204.081 300.082L206.883 300.082L206.883 302.862L197.268 302.862ZM165.724 284.82C160.203 274.066 153.113 264.317 144.981 255.895C153.078 247.054 159.828 237.895 165.597 227.889C171.541 237.849 178.07 247.251 187.19 256.344C178.151 265.242 171.362 274.949 165.724 284.82ZM32.9576 274.373L32.3954 194.866L41.9737 204.17L42.5424 265.228L32.9576 274.373ZM198.882 252.266C202.37 248.57 205.539 244.471 208.154 240.047C211.443 244.92 214.933 249.904 217.818 252.389C214.544 256.116 211.447 260.438 208.463 264.891C205.863 260.739 203.039 256.554 198.882 252.266ZM76.9076 258.966C74.9251 259.269 76.0472 257.434 76.4095 255.689C76.6113 254.717 75.6708 253.803 75.6751 253.506C75.7005 251.78 76.9934 251.052 82.8525 251.12C96.6659 252.078 103.807 256.5 111.731 258.556C119.318 260.524 126.84 260.484 135.213 260.292C135.826 260.645 138.071 266.426 137.654 267.004C118.712 270.737 94.5419 256.831 76.9076 258.966ZM111.046 217.796C109.05 216.35 107.177 216.082 105.326 215.768C108.574 210.055 112.508 204.848 119.079 201.589L122.136 209.153C118.272 211.14 114.478 213.505 111.046 217.796ZM71.1425 198.153C71.1425 198.153 68.3075 202.788 65.632 205.042C57.6772 194.376 39.89 171.667 39.89 171.667L32.3421 175.489C32.3421 175.489 32.3123 171.093 32.4829 170.785C52.8694 160.28 66.8576 140.425 73.0175 121.833C73.0175 121.833 76.2997 125.182 75.8681 126.599C70.3558 141.265 60.9299 155.972 47.0688 167.002L71.1425 198.153ZM96.5684 176.517L122.305 176.553L123.445 185.5C113.59 188.802 105.457 195.548 97.8517 203.351L85.6443 203.138C89.6466 194.369 95.207 185.474 96.5684 176.517ZM191.854 138.824C192.687 141.346 191.848 144.067 192.168 143.953C161.34 159.199 152.53 192.661 152.53 192.661C152.53 192.661 149.604 188.028 149.737 187.311C165.694 151.846 176.369 150.79 178.42 146.939L154.151 115.532L159.641 108.066L185.671 141.938C188.258 140.746 189.733 139.748 191.854 138.824ZM176.654 184.704C181.881 175.303 187.274 169.838 192.647 166.078L192.386 178.485L176.654 184.704ZM32.5278 147.804L32.6619 135.767L48.5414 128.934C44.1508 138.504 38.1909 143.633 32.5278 147.804ZM103.272 136.982L102.333 128.516C111.973 124.311 120.489 118.688 127.364 110.991C134.75 110.636 139.795 111.136 139.755 111.036C139.768 111.021 132.729 121.345 128.068 137.598L103.272 136.982ZM183.139 48.0484L191.913 39.1827L192.189 118.302L183.376 109.915L183.139 48.0484ZM106.024 112.473L103.24 104.628C107.619 102.987 110.934 99.4127 114.023 95.8727C116.117 97.7468 118.819 98.4064 119.757 98.7668C121.041 99.0667 110.879 111.267 106.024 112.473ZM38.1533 58.2985C47.5503 49.128 53.6565 39.4561 59.5586 29.8404C64.7345 40.4208 72.2275 49.6772 80.2601 58.6252C71.9804 67.6251 65.6899 77.2621 59.6496 86.9637C53.7129 76.7379 47.4627 67.1513 38.1533 58.2985ZM16.492 74.1017C13.7837 69.7766 11.0546 65.6131 7.12222 61.4362C10.9507 57.3387 14.2026 53.2772 16.387 49.2824C19.4012 53.6689 22.2633 58.251 25.9631 61.756C22.3598 65.7224 19.4641 69.9248 16.492 74.1017ZM89.5737 53.0658C89.5737 53.0658 88.4788 52.4321 88.599 51.5393C88.9614 50.3827 87.4293 47.7643 87.4287 47.7643C106.114 42.0956 133.324 58.0478 149.473 54.6924C149.338 55.8201 149.524 57.1648 149.066 58.228C149.575 60.4878 149.934 60.5606 147.728 61.9403C136.382 65.1505 124.425 58.3054 113.343 55.033C104.302 52.1856 96.9587 52.911 89.5737 53.0658ZM6.20275 43.1401L6.20275 39.7604L9.3746 39.7604L9.3746 14.3585L6.20275 14.3585L6.20276 11.4248L14.9994 11.4248L14.9994 14.3585L12.7058 14.3585L12.9181 26.5718L20.8984 14.3585L17.7871 14.3585L17.823 11.4248L27.7779 11.4248L27.7779 14.3585L24.9382 14.3585L18.5847 24.4074L24.9383 39.7604L27.7779 39.7604L27.7779 43.1401L17.8257 43.1401L17.8257 39.9737L21.5584 39.9149L16.2682 27.9568L12.7058 32.8642L12.7058 39.8193L15.2997 39.8193L15.2997 43.1401L6.20275 43.1401Z" fill="#D40000"/>
<path d="M77.5431 26.991L80.9562 33.4185L80.3659 33.8187C81.2952 35.3669 82.0848 37.109 83.0352 38.6446L83.7208 38.5657C84.8419 40.7137 85.296 41.5084 86.7626 44.0534L86.1005 44.0505C86.4414 45.1818 87.3161 45.9333 87.3339 46.7453C87.3427 47.7554 87.083 48.7808 87.7035 49.4646C88.4386 50.2746 88.5267 50.4991 88.3757 50.9736C87.9746 52.2342 89.1168 53.6296 90.2759 53.5046C98.4446 52.4129 106.769 53.3392 115.09 55.8536C121.074 57.7407 126.386 59.8544 131.415 61.3404C133.001 61.8139 136.206 62.5605 138.964 62.7625C146.616 63.3231 150.91 61.7641 149.622 58.5817C149.519 58.3269 149.29 58.14 149.27 58.009C149.232 57.7668 149.27 57.5049 149.704 57.1489C150.96 55.8668 150.258 54.9336 149.493 53.5141C149.493 53.5141 159.32 35.9599 164.228 27.213L77.5431 26.991ZM162.625 28.5684L155.453 40.9501C151.619 40.2555 150.718 43.4796 150.66 43.9331C145.681 42.6567 146.445 49.1127 148.943 49.5488C149.105 50.4853 144.851 51.6488 142.609 49.455C146.054 49.9164 147.274 45.3583 143.066 44.3455C148.614 40.2213 138.205 34.0464 138.081 42.578C133.187 41.7161 133.823 48.1836 136.927 48.6864C135.339 50.4373 130.67 50.4859 128.23 46.7954C132.381 48.9516 134.627 43.3866 130.315 41.8286C135.637 37.1611 125.215 32.8578 125.459 40.3999C121.53 38.0717 118.829 44.0071 124.074 44.9178C123.775 45.9858 116.906 45.9943 115.163 43.2332C120.033 44.3444 120.257 38.4158 115.96 37.9333C120.273 32.4591 109.324 29.6904 111.162 37.1611C106.931 35.488 105.333 40.7622 109.453 42.4561C109.682 43.2954 102.781 44.0095 100.366 40.9816C105.67 40.1858 103.814 35.0461 100.379 35.4572C100.379 35.4572 100.428 35.3093 100.622 34.8093C102.244 29.65 93.5235 29.2188 94.7314 34.6897C94.9248 35.1933 95.1384 35.8642 95.1384 35.8642C92.7344 35.3746 91.2655 36.3537 91.4395 38.6091C92.0381 41.6038 93.62 41.3825 95.6437 40.786C96.4925 41.673 90.7613 44.638 87.1633 41.9905C91.5699 40.7243 89.3375 35.5603 85.6502 36.2574C85.4977 34.6092 83.7063 32.2973 81.3707 33.4251L78.8994 28.5645L162.625 28.5684ZM169.832 97.3558L164.655 97.4321C161.019 101.144 134.688 125.399 139.122 162.036C141.019 177.706 145.395 191.263 157.094 207.278L160.22 205.443L160.699 205.763L193.119 187.113L193.136 181.45L155.503 197.237C154.756 196.443 154.317 195.557 153.689 194.579L168.77 188.169C168.77 188.169 169.131 187.253 169.248 186.831C174.206 174.287 184.278 165.206 193.047 158.19C193 145.84 192.943 119.983 192.943 119.983L170.268 97.4016C167.36 100.06 164.782 102.795 162.203 105.761L188.236 140.028L185.928 141.53L160.169 107.441C163.22 103.773 166.531 100.574 169.832 97.3558ZM192.961 119.635C192.961 119.635 192.835 60.8028 192.664 32.3938L179.153 46.2552L179.206 105.889L192.961 119.635ZM191.812 37.9948L182.266 47.8442L182.373 108.46L179.92 106.042L179.92 47.0577L191.845 34.563L191.812 37.9948ZM98.9138 36.5359C99.1991 37.039 99.0757 37.7361 98.617 38.305C96.6647 40.7266 102.797 44.9348 107.209 44.2034C110.567 43.6467 113.43 41.6301 112.195 40.0958C111.189 38.8461 111.846 37.5822 113.054 37.5907C114.296 37.5993 115.294 38.5877 114.217 39.9413C111.822 42.9526 115.475 46.4858 121.062 46.5589C125.012 46.6106 126.328 45.6375 126.115 42.8229C126.016 41.5049 126.274 41.1405 127.192 40.9405C128.657 40.621 129.396 42.3 128.181 43.5807C125.558 46.3465 128.539 50.4138 133.5 50.6762C135.316 50.7722 135.674 50.6756 137.7 49.5322C139.283 48.6386 139.841 47.2891 139.066 46.2403C138.067 44.8906 139.413 43.2785 140.968 43.9428C142.078 44.4175 142.626 45.2695 141.397 46.7135C139.783 48.6106 140.547 50.1754 143.656 51.2313C146.078 52.0537 147.755 51.9516 148.888 50.9175C149.241 50.5957 150.026 49.9236 150.015 50.1289C149.252 51.4449 148.577 52.6664 148.577 52.6664C143.505 54.9292 139.546 50.6944 139.676 50.5363C134.45 53.5515 129.817 52.9155 125.902 47.8502C124.884 48.4143 117.595 49.7425 112.333 43.9679C107.024 46.6316 102.088 45.5145 97.7026 42.5355C94.4616 45.595 91.045 46.0789 87.4953 44.6096L86.4437 42.4947C86.7089 42.3953 87.8532 44.6155 93.4089 43.5807C95.2741 43.2333 98.4834 40.0986 96.6863 38.5705C95.8633 37.4067 95.8389 36.882 96.5656 36.1764C97.2805 35.4813 98.5014 35.8392 98.9138 36.5359ZM85.3046 39.309C85.6146 39.9093 85.6559 40.9073 85.3143 40.3082C85.134 39.992 84.1934 38.5799 84.2379 38.5367C84.6755 38.5002 85.1096 38.9519 85.3046 39.309ZM191.816 39.7912L191.878 118.014L183.749 109.95L183.358 48.6699L191.816 39.7912ZM97.6748 43.5791L100.235 45.1886L95.6511 45.1612L97.6748 43.5791ZM112.065 44.9252L114.214 47.0129L109.695 46.0653L112.065 44.9252ZM152.33 46.0086L151.369 47.978C150.815 47.3586 150.654 46.044 152.33 46.0086ZM168.573 78.528C170.205 74.8653 172.388 70.2007 175.921 68.7172C173.291 63.4908 173.633 58.2662 175.499 55.4018C172.83 52.9178 170.091 49.942 168.391 45.6629C159.959 53.1075 158.604 68.3992 168.573 78.528ZM168.321 47.093L168.901 48.523C161.392 57.7128 163.71 69.7768 169.149 76.2146L168.368 77.8361C161.721 70.8256 158.811 56.0068 168.321 47.093ZM123.43 52.2917C132.131 54.8446 139.1 58.8244 149.16 55.2789L149.207 57.2372C142.804 61.3473 130.048 57.0048 121.431 53.8243C107.58 48.7119 96.7998 49.0099 89.0986 49.5941C88.4207 49.4614 87.8816 47.691 88.9677 47.679C103.369 47.5202 101.043 45.723 123.43 52.2917ZM125.396 48.8275L128.254 51.8588C126.108 51.1855 124.021 50.4377 122.08 49.5081L125.396 48.8275ZM169.01 49.5754L169.57 50.3477C169.812 50.6821 167.989 50.8555 168.295 50.4635L169.01 49.5754ZM119.913 55.123C130.3 59.0231 141.736 62.9154 149.242 59.4247C149.242 59.4247 149.289 60.9109 148.431 61.3317C148.431 61.3317 147.639 61.9719 144.99 62.3363C132.846 63.3329 124.964 58.3054 115.162 55.3342C111.443 54.2072 105.47 52.8416 99.3362 52.5876C95.6939 52.4219 90.1218 52.9448 90.1218 52.9448C88.9081 52.8437 88.9255 52.1271 88.9151 51.4243C99.4736 50.0164 109.183 51.067 119.913 55.123ZM170.139 51.3839C170.273 51.3777 170.41 51.3873 170.545 51.4081L171.606 52.7644L170.347 54.7675C170.347 54.7675 169.235 53.7445 168.672 52.7403C168.361 52.09 169.201 51.4275 170.139 51.3839ZM139.537 51.7655L142.826 54.248C140.353 54.3694 137.57 54.4617 134.815 53.3675L139.537 51.7655ZM167.396 53.0297C167.655 53.0235 167.927 53.2972 168.245 53.8406C168.857 54.8853 168.777 55.0855 167.589 55.4673C166.029 55.9687 165.906 55.8585 166.411 54.4585C166.755 53.505 167.063 53.0377 167.396 53.0297ZM172.392 53.6702L174.615 55.5364C173.387 58.7313 172.584 62.7865 175.05 68.6078C174.776 68.626 173.178 70.203 172.676 70.4722C171.268 69.8818 168.167 58.3472 172.392 53.6702ZM169.862 56.1141L169.298 59.6473C169.251 59.937 166.837 57.9743 167.063 56.9925C167.493 55.8265 168.962 56.0753 169.862 56.1141ZM165.872 57.3544C166.164 57.3566 166.622 58.0627 167.185 58.9859C167.624 59.7061 167.534 59.9782 166.562 60.8539C165.131 62.3004 164.85 61.8282 165.167 59.3672C165.324 58.1512 165.541 57.352 165.872 57.3544ZM168.831 60.5563C169.025 60.5603 169.195 60.6071 169.318 60.7059L169.482 64.1474C169.497 64.4581 166.796 64.025 166.442 62.7139C165.993 61.8743 167.782 60.5347 168.831 60.5563ZM165.266 63.4652C165.459 63.4376 166.064 63.8402 166.636 64.1795C167.631 64.7695 167.652 65.029 166.796 66.1296C165.789 67.4224 165.29 67.2151 165.135 64.9663C165.079 64.1407 165.017 63.5006 165.266 63.4652ZM169.23 64.7814C169.317 64.7813 169.395 64.8064 169.461 64.8634C169.94 65.2726 170.672 68.7222 170.364 69.0821C169.926 69.5948 167.62 68.913 167.106 68.1022C166.617 67.3308 168.389 64.7819 169.23 64.7814ZM166.408 68.8424C166.673 68.8243 167.15 69.0066 167.87 69.354C168.304 69.563 169.028 69.9562 169.187 70.2914C169.469 70.8814 169.001 71.7559 168.397 72.4818C167.997 72.9622 167.622 72.6048 166.847 70.9952C166.224 69.7005 165.966 68.8725 166.408 68.8424ZM171.062 70.3852C171.115 70.3839 171.164 70.3948 171.207 70.419C171.992 70.8542 171.861 72.1466 170.932 73.1027C169.817 74.2503 168.849 73.3858 169.619 71.9298C170.107 71.0075 170.691 70.394 171.062 70.3852ZM106.287 102.478C105.608 102.508 104.548 103.123 104.086 103.718C103.501 104.47 102.991 104.372 102.343 104.317C101.572 104.305 100.399 104.476 98.8101 105.2C97.9097 105.61 97.4991 105.703 96.1794 105.77C95.3181 105.813 94.4548 105.93 94.2632 106.03C94.0716 106.131 93.4515 106.348 92.8875 106.513C91.7345 106.85 92.1449 107.178 92.8063 108.664C96.1709 117.29 98.582 127.342 99.4605 135.528C100.447 144.921 100.148 156.31 98.8349 165.008C95.6141 165.03 93.5913 164.865 90.1992 164.922C87.8857 183.731 81.6074 198.668 69.0608 212.1L102.979 212.187C106.864 201.822 124.598 193.917 125.181 194.5L126.115 198.283C126.115 198.283 113.359 200.106 104.767 216.294C105.646 215.762 108.845 216.131 110.958 218.323C115.177 212.974 122.098 209.479 122.143 209.561L122.375 208.916C122.375 208.916 123.643 208.484 124.759 208.272C125.117 208.204 125.85 208.066 126.337 207.896C127.09 207.632 127.464 207.352 128.625 207.451C131.043 207.683 133.47 206.981 133.419 206.968C126.219 187.112 124.518 169.187 127.33 148.365C129.983 148.386 135.799 148.485 135.799 148.485C136.384 142.635 137.125 136.781 138.922 131.258C141.23 124.166 144.012 117.573 148.492 111.545C151.022 107.759 153.231 105.065 155.846 101.517L122.644 101.594C118.25 108.979 109.784 115.146 102.98 117.716C100.665 118.586 100.338 118.457 99.9539 117.368C99.2683 115.423 99.3012 115.505 101.112 114.989C101.717 114.816 103.653 113.797 106.673 112.382C113.082 109.129 117.49 103.172 120.082 99.152C121.113 97.5641 120.421 97.9227 118.658 97.9067C117.043 97.7804 116.305 97.2812 114.854 95.9277C114.32 95.4288 114.09 95.0734 113.846 95.1023C111.951 97.8238 108.769 101.414 106.287 102.478ZM114.079 96.1908C115.571 97.7884 117.342 98.723 119.673 99.0274C115.948 104.872 111.398 109.443 106.169 112.221L103.51 104.744C110.027 101.709 111.769 98.6701 114.079 96.1908ZM168.197 98.5694C133.082 131.033 135.148 171.959 159.738 205.203L157.161 206.752C134.067 175.805 129.889 130.024 165.175 98.431L168.197 98.5694ZM146.06 102.529L154.668 102.511L148.808 110.107L140.945 110.078L146.06 102.529ZM144.711 102.592L139.924 110.14L127.01 110.306C119.284 119.832 110.984 124.479 102.534 127.65L100.885 119.516C100.885 119.516 114.263 116.29 122.927 102.489L144.711 102.592ZM131.589 103.216L128.596 106.527L131.705 109.689L134.543 106.479L131.589 103.216ZM138.366 103.139L135.335 106.291L137.7 109.462L140.842 106.383L138.366 103.139ZM123.417 103.713L122.901 108.67L126.801 109.95L127.37 105.712L123.417 103.713ZM147.143 103.898L144.313 108.323L148.575 108.391L151.555 103.985L147.143 103.898ZM102.587 105.029L105.349 112.686L102.923 113.855L100.463 105.859L102.587 105.029ZM99.3169 106.257L102.165 114.178L99.7803 114.965L97.1641 106.72L99.3169 106.257ZM102.729 137.53C103.047 148.546 103.205 155.186 101.363 164.869C101.267 165.375 99.289 164.927 99.289 164.927C99.5393 165.01 100.404 153.985 100.335 147.059C100.204 133.871 97.968 120.824 92.7921 107.754C93.7788 107.15 96.2122 106.842 96.2122 106.842C99.4787 116.754 102.374 127.416 102.729 137.53ZM68.2542 106.988C79.5899 122.027 87.6922 142.431 86.3367 162.563C85.0383 185.973 76.1629 199.465 60.5757 215.676L56.5541 215.769C75.0055 198.077 83.1695 182.937 83.8131 162.961C84.5533 139.987 77.5369 124.707 65.7191 108.423L68.2542 106.988ZM31.9954 127.662L32.0349 133.14L70.6552 116.577L65.085 108.371L31.9954 127.662ZM122.51 109.718L118.306 109.93L118.446 114.173L122.828 114.067L122.51 109.718ZM159.985 108.912L185.012 141.729L178.819 146.329L154.96 115.491L159.985 108.912ZM140.369 111.153L147.861 111.269L144.964 116.075L137.724 116.017L140.369 111.153ZM138.986 111.272C135.542 117.677 130.791 124.981 128.123 136.785L103.463 136.806C103.417 134.111 103.068 131.416 102.666 128.721C113.293 124.832 121.524 119.019 127.577 111.335L138.986 111.272ZM143.546 111.61L140.332 113.463L142.296 115.722L145.839 114.366L143.546 111.61ZM114.193 113.97L113.131 118.15L117.128 119.69L117.866 114.723L114.193 113.97ZM137.188 117.093L144.375 117.137L141.349 123.18L134.229 123.074L137.188 117.093ZM154.3 116.302L177.983 147.001L175.763 148.758L152.618 118.75L154.3 116.302ZM139.915 117.581L136.676 120.279L139.114 123.093L142.102 120.709C142.165 120.658 139.915 117.581 139.915 117.581ZM108.483 117.803L107.489 121.867L111.645 122.972L112.388 118.614L108.483 117.803ZM102.734 120.506L101.89 124.507L105.804 125.564L106.63 121.708L102.734 120.506ZM70.4139 120.104C70.6148 120.064 69.7596 124.867 68.5006 125.733C67.8991 126.146 67.5876 126.055 67.0658 125.492C66.7065 125.104 65.078 122.448 65.078 122.448L66.469 121.749C68.157 124.448 68.1556 123.142 68.7944 120.842L70.4139 120.104ZM63.9232 122.871C64.4745 122.867 65.1424 123.552 65.8973 124.879C66.989 126.798 66.9527 126.923 65.1588 127.475C61.9297 128.33 60.7287 128.535 61.7221 126.404C62.7916 124.11 63.2143 122.876 63.9232 122.871ZM73.536 122.49L75.7458 126.273C66.8848 148.835 52.5922 165.019 32.9191 174.813L32.874 171.064C56.0687 157.862 65.5794 142.266 73.536 122.49ZM133.785 124.121L140.76 124.247L138.897 129.58L131.483 129.527L133.785 124.121ZM61.8277 123.888C56.1506 137.417 48.3937 149.22 32.8841 159.186L32.822 155.592C50.2397 145.095 57.7685 125.434 57.7673 125.427L61.8277 123.888ZM149.984 123.865C154.114 123.979 158.456 128.481 158.016 132.192C157.706 134.807 158.207 136.747 158.918 135.677C160.492 133.311 165.127 134.883 165.085 137.724C165.063 139.236 164.053 139.485 163.473 138.12C162.616 136.104 160.21 136.054 159.855 138.167C159.522 140.148 161.202 141.604 165.691 143.226C170.951 144.46 174.117 149.174 172.246 151.885C171.597 152.601 171.205 152.777 171.083 152.406C171.048 152.299 170.919 151.74 170.798 151.166C170.202 148.325 168.84 147.132 167.186 148.107C166.357 148.596 166.463 149.243 166.946 150.097C167.59 151.234 167.187 151.675 166.034 151.096C164.214 150.182 163.612 148.015 165.377 147.015C167.475 146.176 166.765 145.995 164.083 145.089C158.375 143.139 155.926 139.562 155.627 132.747C155.736 129.64 155.311 128.532 153.85 128.108C152.513 127.72 150.998 129.419 151.958 130.314C152.48 130.8 152.906 131.242 152.629 131.511C151.742 132.372 149.523 130.974 149.545 129.474C149.559 128.493 149.931 128.291 151.398 127.138C151.805 126.818 151.458 126.215 150.863 126.206C148.619 126.929 148.777 123.962 149.984 123.865ZM137.054 124.652L133.568 126.656L135.383 129.193L139.244 127.38L137.054 124.652ZM69.2134 126.621C69.614 126.621 69.9422 126.945 69.9422 127.345C69.9422 127.746 69.6139 128.074 69.2134 128.074C68.8127 128.074 68.4893 127.746 68.4893 127.345C68.4893 126.945 68.8128 126.621 69.2134 126.621ZM76.3605 126.935C83.7196 142.996 85.4698 161.362 80.3489 179.715L60.4754 153.859C68.0999 145.275 73.2258 135.448 76.3605 126.935ZM49.4836 128.115L31.7506 135.565L31.6525 148.861C41.5602 142.1 45.7623 135.178 49.4836 128.115ZM66.5288 128.004C68.2762 127.949 67.4141 132.666 65.145 134.276C64.3128 134.915 63.7518 134.837 63.4774 133.558C63.3352 132.896 62.6376 131.493 61.7587 130.365C60.7362 129.052 60.748 129.019 62.2413 128.926C63.8902 128.951 65.242 128.16 66.5288 128.004ZM64.8016 130.008C63.5126 129.989 63.1265 130.592 63.8942 131.418C64.5406 132.113 65.0535 131.964 65.487 130.959C65.7513 130.347 65.5146 130.019 64.8016 130.008ZM32.8177 147.256L32.8611 135.971L48.026 129.586C44.9838 136.179 39.3524 142.717 32.8177 147.256ZM167.537 156.373L165.516 158.404L145.939 132.883L147.166 129.662L167.537 156.373ZM60.2451 130.558C60.9018 130.568 62.3906 132.844 62.8081 134.478C63.1179 135.69 62.7897 135.946 60.4913 136.288C59.5388 136.549 56.9663 136.297 57.1752 135.612C57.5486 134.624 60.0136 130.555 60.2451 130.558ZM131.169 130.819L138.313 130.896L136.676 136.756L129.195 136.645L131.169 130.819ZM134.326 131.176L131 133.479L133.63 136.071L137.154 133.894L134.326 131.176ZM145.532 133.697L165.337 159.4C159.428 166.915 153.535 175.549 149.661 186.961C142.609 170.468 140.028 154.415 145.532 133.697ZM65.0976 135.884C65.4982 135.884 65.8264 136.207 65.8264 136.608C65.8265 137.009 65.4982 137.337 65.0976 137.337C64.697 137.337 64.3736 137.009 64.3735 136.608C64.3735 136.207 64.697 135.884 65.0976 135.884ZM62.8195 136.864C64.0561 136.951 62.8891 140.889 61.0279 142.325C59.5609 143.457 58.9302 142.932 58.5912 140.86C58.4686 140.112 57.6817 138.84 56.9891 137.836C56.2152 136.714 56.534 136.535 58.4951 136.986C59.864 137.252 61.554 136.927 62.8195 136.864ZM129.007 137.826L136.497 137.871L135.344 146.77L129.007 137.826ZM56.0283 138.238C57.2086 139.338 58.6994 143.199 57.9347 143.477C57.0453 143.8 53.0179 143.332 52.5673 142.868C52.2569 142.549 52.256 142.547 52.9148 141.666C53.2772 141.182 53.9667 140.216 54.4497 139.519C54.8848 139.009 55.3668 137.628 56.0283 138.238ZM60.1985 138.37C59.0578 138.408 58.9817 138.564 59.5227 139.794C59.9641 140.797 60.2702 140.886 61.0287 140.228C62.084 139.313 61.641 138.321 60.1985 138.37ZM191.668 139.142L191.939 143.53C163.146 157.811 152.364 191.528 152.209 191.528L150.119 187.637C163.331 155.081 180.902 145.654 191.668 139.142ZM55.9961 144.331C57.7106 144.295 58.2114 144.178 58.202 144.814C58.2219 146.522 56.6248 148.948 54.6736 149.863C53.36 150.479 53.3304 150.493 53.1821 148.945C53.0679 147.755 52.6797 146.222 52.0623 145.002C51.8685 144.549 51.1242 143.512 52.0597 143.807C52.9953 144.102 54.9271 144.353 55.9961 144.331ZM59.842 143.934C60.2426 143.934 60.566 144.258 60.566 144.658C60.5661 145.059 60.2426 145.382 59.842 145.382C59.4414 145.382 59.118 145.059 59.118 144.658C59.1179 144.258 59.4414 143.934 59.842 143.934ZM50.6673 144.934C50.9783 144.925 51.2742 145.564 51.6278 146.503C52.3969 148.545 52.6325 149.652 52.405 150.133C52.0544 150.873 47.329 150.395 46.5259 149.568C46.3731 149.683 50.0018 145.345 50.6673 144.934ZM54.0702 145.441C53.3929 145.488 53.7514 145.895 54.2536 147.077C54.6013 147.896 55.0718 148.028 55.61 147.454C56.3298 146.687 56.4268 146.077 55.9726 145.749C55.3057 145.482 54.8131 145.445 54.0702 145.441ZM191.87 149.879L191.895 151.349C190.774 151.015 190.079 150.54 188.801 150.114C188.017 149.851 187.554 149.664 188.246 148.839C189.331 147.546 190.494 146.738 191.816 145.937L191.823 147.602C189.71 148.538 189.915 149.402 191.87 149.879ZM108.642 148.386L116.597 148.386L116.597 153.637L122.819 153.637L122.336 159.622L116.597 159.622L116.597 164.874L108.642 164.874L108.642 159.622L102.961 159.622L103.42 153.637L108.642 153.637L108.642 148.386ZM126.608 148.404C122.579 168.363 126.275 189.552 132.489 206.816L129.353 207.161C124.509 193.355 120.659 173.7 124.575 148.415C124.575 148.415 125.979 148.39 126.608 148.404ZM185.649 148.791C186.05 148.791 186.373 149.114 186.373 149.515C186.374 149.916 186.05 150.239 185.649 150.239C185.249 150.239 184.925 149.916 184.925 149.515C184.925 149.114 185.249 148.791 185.649 148.791ZM45.715 150.466C45.9786 150.458 46.7876 150.807 47.5057 151.007C48.5855 151.307 49.4369 151.436 50.4211 151.455C52.3984 151.494 52.6573 151.476 51.8064 153.101C51.1934 154.272 49.8133 155.82 48.8476 156.292C47.4802 157.022 46.9561 156.923 47.0375 155.578C47.0473 154.665 46.6511 153.079 46.1349 151.948C45.7336 151.068 45.2756 150.479 45.715 150.466ZM54.0804 151.107C54.481 151.107 54.8093 151.43 54.8093 151.831C54.8093 152.232 54.481 152.56 54.0804 152.56C53.6798 152.56 53.3564 152.232 53.3564 151.831C53.3564 151.43 53.6798 151.107 54.0804 151.107ZM187.923 151.011C188.483 150.999 189.445 151.343 190.322 151.769C192.647 152.899 192.585 153.158 189.434 155.394C187.146 157.13 186.604 157.325 186.523 154.588C186.441 152.282 186.689 151.038 187.923 151.011ZM44.5228 151.673C45.4457 151.686 46.4672 156.491 45.6378 156.919C44.3463 157.586 40.3459 156.287 40.362 155.191C40.3668 154.835 44.1156 151.667 44.5228 151.673ZM185.143 151.475C185.694 151.451 185.768 151.883 185.717 153.415C185.69 154.226 185.829 155.55 185.886 156.166C186.003 157.447 185.893 157.535 184.882 156.963C184.234 156.596 182.918 155.995 181.494 155.872C180.326 155.771 180.241 155.291 180.603 154.521C181.634 152.816 183.5 151.62 185.143 151.475ZM47.9498 152.199C47.1445 152.193 47.344 152.621 47.8436 153.825C48.1976 154.679 48.8109 154.76 49.4413 154.033C50.324 153.015 50.1504 152.476 48.8669 152.281C48.5954 152.24 48.1356 152.2 47.9498 152.199ZM184.076 153.343C183.741 153.374 183.283 153.639 183.062 153.782C182.305 154.256 181.998 154.598 183.096 154.974C184.073 155.309 184.593 155.455 184.515 154.612C184.468 154.105 184.508 153.368 184.076 153.343ZM109.415 153.965L109.415 159.198L115.747 159.198L115.747 153.965L109.415 153.965ZM178.419 154.419C178.819 154.419 179.143 154.743 179.143 155.143C179.143 155.544 178.819 155.867 178.419 155.867C178.018 155.867 177.695 155.544 177.695 155.143C177.695 154.743 178.018 154.419 178.419 154.419ZM59.8721 155.235L79.8501 180.877L78.5229 184.22L57.9461 157.151L59.8721 155.235ZM191.997 155.114L192.04 158.465C189.783 160.116 175.45 170.503 168.035 187.985L164.153 189.638C169.618 174.592 181.305 161.705 191.997 155.114ZM40.0194 156.533C41.3199 156.929 42.5616 157.833 43.7891 157.996C45.2003 158.168 45.687 158.078 45.3047 158.807C44.4489 160.439 42.8339 162.148 41.1295 162.707C39.911 163.106 39.3354 162.957 39.527 162.2C39.8858 160.783 39.9472 159.62 39.8987 158.329C40.0916 157.625 39.4905 156.639 40.0194 156.533ZM38.4941 156.833C39.3232 157.542 39.1587 162.022 38.2334 162.987C37.7496 163.491 36.3462 163.031 34.2416 161.838C32.8658 161.058 32.609 160.583 33.2956 160.105C34.4593 159.399 37.8679 156.665 38.4941 156.833ZM181.223 156.929C181.654 156.92 182.188 156.994 182.831 157.141C185.32 157.701 185.875 158.269 183.752 159.955C182.968 160.579 182.136 161.353 181.894 161.65C180.752 163.05 179.958 162.035 179.708 159.492C179.533 157.712 179.801 156.699 181.223 156.929ZM178.105 157.17C178.51 157.17 178.769 157.382 178.762 157.885C178.752 158.528 179.214 161.309 179.471 162.074C179.92 163.377 179.594 163.671 178.515 163.103C177.729 162.679 175.649 162.358 174.524 162.446C173.243 162.547 173.28 162.204 173.655 161.128C174.319 159.222 176.892 157.171 178.105 157.17ZM41.2357 158.097C40.7491 158.096 40.729 158.752 41.062 160.255C41.1679 160.733 41.5792 160.704 42.3555 160.158C43.274 159.513 43.2365 159.108 42.2011 158.488C41.7746 158.233 41.4569 158.098 41.2357 158.097ZM46.8976 158.261C47.2982 158.261 47.6216 158.585 47.6216 158.985C47.6216 159.386 47.2981 159.709 46.8976 159.709C46.497 159.709 46.1735 159.386 46.1735 158.985C46.1735 158.585 46.497 158.261 46.8976 158.261ZM175.74 161.075C176.088 161.414 177.372 161.4 177.593 161.196C177.933 160.883 177.775 159.43 177.492 159.256C176.768 159.009 175.306 160.539 175.74 161.075ZM55.832 163.841C56.2688 165.913 59.1823 165.798 58.8536 163.638C58.6617 162.377 58.617 162.403 59.2494 162.432C62.2577 162.579 61.7363 167.321 58.2696 166.954C57.5463 167.041 57.45 167.337 58.062 167.592C58.67 167.845 60.9997 168.442 61.3587 168.441C65.1306 168.428 70.5718 174.227 70.438 179.374C70.3504 182.74 71.4915 185.162 72.6583 185.436C73.586 185.654 74.9325 184.811 74.8159 183.781C74.6551 182.359 75.811 182.803 76.4763 183.824C77.4916 185.235 76.1818 187.271 73.7637 187.111C72.7347 187.312 74.5197 187.965 75.8425 188.347C77.0424 188.416 76.0284 189.893 75.8054 190.157C75.1273 190.944 72.905 190.343 71.162 188.936C69.0222 187.208 68.1033 184.892 67.8508 180.344C67.6885 177.42 67.4705 176.826 66.62 178.032C65.0908 180.721 61.4297 179.405 60.9726 176.564C60.7166 175.06 62.0411 173.975 62.4689 175.338C63.6039 178.172 66.3816 177.491 65.9298 174.677C65.6317 172.821 63.774 171.796 60.1038 170.763C55.6917 169.52 54.3799 168.01 53.52 164.391C53.1394 162.79 53.1996 161.951 54.0461 161.114C54.4643 160.7 54.997 160.279 54.997 160.279C54.997 160.279 55.5859 162.713 55.832 163.841ZM171.244 161.544C171.644 161.544 171.968 161.868 171.968 162.268C171.968 162.669 171.644 162.993 171.244 162.993C170.843 162.993 170.52 162.669 170.52 162.268C170.52 161.868 170.843 161.544 171.244 161.544ZM32.7601 162.233C34.0737 162.708 35.2028 163.413 36.5572 163.874C37.436 164.173 37.1959 164.876 36.2855 165.875C35.2704 167.073 34.2729 167.663 32.866 168.331L32.8808 166.305C34.5909 165.708 35.679 164.283 32.8063 163.827L32.7601 162.233ZM174.662 163.363C175.16 163.368 175.864 163.386 176.691 163.556C178.784 163.989 179.03 164.175 177.772 165.646C177.306 166.192 176.612 167.014 176.232 167.476C174.994 169.2 174.328 168.609 173.751 166.38C173.036 164.053 172.873 163.161 174.662 163.363ZM39.3244 164.193C39.725 164.193 40.0484 164.517 40.0484 164.917C40.0485 165.318 39.725 165.641 39.3244 165.641C38.9238 165.641 38.6004 165.318 38.6004 164.917C38.6004 164.517 38.9238 164.193 39.3244 164.193ZM172.552 165.77C172.751 166.505 173.055 167.441 173.286 168.104C174.422 170.61 173.703 169.641 171.667 169.42C170.299 169.272 168.121 169.5 167.582 169.122C167.347 168.817 167.564 168.012 168.003 167.104C168.62 165.826 169.743 164.737 170.582 164.243C172.704 163.263 172.209 164.509 172.552 165.77ZM50.2359 164.879L73.0556 195.05L71.2663 197.601L47.7943 166.579L50.2359 164.879ZM193.248 164.991C181.386 173.563 176.83 183.967 175.905 185.327L193.296 178.617L193.248 164.991ZM170.599 165.974C169.949 166.153 169.015 167.359 169.417 167.833C169.657 168.08 170.614 168.112 171.072 167.944C171.779 167.685 171.296 165.971 170.599 165.974ZM70.5973 198.604L65.7367 204.729L40.4103 171.969L46.801 167.355L70.5973 198.604ZM191.983 166.764L192.162 178.024L177.287 184.225C182.268 175.811 187.147 170.609 191.983 166.764ZM90.2726 167.719L96.2303 175.475L88.9505 175.31L90.2726 167.719ZM165.606 168.353C166.006 168.353 166.33 168.677 166.33 169.077C166.33 169.478 166.006 169.801 165.606 169.801C165.205 169.801 164.882 169.478 164.882 169.077C164.882 168.677 165.205 168.353 165.606 168.353ZM169.972 170.188C172.697 170.226 173.606 170.373 172.814 171.712C171.757 173.019 171.132 174.261 169.979 175.47C169.313 176.148 168.481 174.75 167.785 172.515C167.224 170.71 167.508 170.255 168.575 170.24C169.642 170.225 169.823 170.186 169.972 170.188ZM166.825 172.631C167.048 173.344 167.569 174.517 167.983 175.232C168.398 175.948 168.862 176.744 168.833 176.882C168.763 177.218 168.446 177.244 167.728 176.974C166.175 176.274 162.526 177.014 162.43 176.669C161.887 175.896 162.7 173.79 164.233 172.331C164.981 171.619 165.667 171.155 166.063 171.148C166.459 171.141 166.531 171.69 166.825 172.631ZM39.5361 172.076L65.3063 205.543L63.5229 207.714L37.4634 173.601C37.4634 173.601 33.3482 175.616 32.138 176.289L32.3013 193.598L31.5966 193.565L31.702 281.237L46.0819 266.899L45.8948 207.41C48.946 210.28 51.5569 213.342 55.049 216.155L61.0294 216.108C76.6413 200.229 85.192 186.64 87.0686 162.305C88.324 146.025 82.9148 125.553 68.569 105.713L65.0657 107.84L71.9874 118.271L57.3255 124.769C51.4862 137.08 44.5635 148.442 31.9016 154.949L31.8307 170.883L31.6095 171.212L31.7768 176.215L39.5361 172.076ZM165.533 173.219C164.849 173.27 163.778 174.747 164.268 175.251C164.846 175.525 165.737 175.506 166.109 175.012C166.364 174.527 166.299 173.502 165.533 173.219ZM88.6575 176.666L96.2259 176.709L94.2469 183.201L86.8764 183.062L88.6575 176.666ZM160.551 176.637C160.951 176.637 161.275 176.961 161.275 177.361C161.275 177.762 160.951 178.085 160.551 178.085C160.15 178.085 159.827 177.762 159.827 177.361C159.827 176.961 160.15 176.637 160.551 176.637ZM121.993 176.835L122.972 185.266C114.717 188.267 105.816 193.359 98.0316 202.722C96.7015 202.634 86.0867 202.813 86.0867 202.813C86.3522 202.851 95.9222 184.793 97.0241 176.956L121.993 176.835ZM92.0184 177.62L88.548 180.005L91.2606 182.896L94.8518 180.463L92.0184 177.62ZM164.247 177.655C164.985 177.652 165.975 177.742 166.767 177.882C168.047 178.13 168.235 178.154 167.804 179.21C167.228 180.611 165.931 183.137 165.603 183.338C164.43 184.064 161.826 178.854 162.714 177.953C162.949 177.768 163.447 177.659 164.247 177.655ZM160.929 179.258C161.264 179.228 161.711 179.88 161.843 180.442C162.004 181.124 163.185 182.844 163.93 183.668C164.866 184.705 164.817 184.85 163.476 184.957C161.879 185.084 160.32 185.399 159.42 185.725C158.027 186.232 157.837 186.12 158.016 184.49C158.285 182.038 159.923 179.345 160.929 179.258ZM159.705 184.331C159.879 184.806 162.041 183.934 162.162 183.364C162.141 183.108 161.293 181.629 160.782 181.562C159.918 181.697 159.555 183.659 159.705 184.331ZM86.6754 183.998L93.8288 184.065L91.4829 189.959L84.4116 189.94L86.6754 183.998ZM89.8777 184.788L86.4507 186.955L89.1199 189.537L92.4021 187.274L89.8777 184.788ZM162.621 185.856C163.228 185.85 163.871 185.909 164.006 186.131C164.386 186.757 162.838 190.254 162.838 190.254L160.317 191.254C159.774 190.138 158.847 188.979 158.623 187.77C158.533 187.241 158.801 187.048 159.384 186.721C160.254 186.233 161.608 185.866 162.621 185.856ZM155.867 186.142C156.268 186.142 156.591 186.465 156.591 186.866C156.591 187.267 156.268 187.59 155.867 187.59C155.466 187.59 155.143 187.267 155.143 186.866C155.143 186.465 155.466 186.142 155.867 186.142ZM123.247 186.243C123.247 186.243 124.792 194.976 124.876 194.014C112.946 198.506 105.969 205.136 102.662 211.604L80.2799 211.588L85.2757 203.836L98.5261 203.769C104.931 195.997 112.832 189.799 123.247 186.243ZM120.381 188.299L119.276 191.827L122.621 193.96L123.881 190.171L120.381 188.299ZM157.046 188.367C157.329 188.34 157.61 188.818 158.185 189.839C158.61 190.593 159.169 191.69 159.169 191.69L158.168 192.062C157.361 189.304 156.62 190.33 156.534 192.764L155.162 193.311C155.162 193.311 155.311 190.964 156.095 189.593C156.545 188.805 156.795 188.39 157.046 188.367ZM84.0882 190.78L91.0244 190.866L88.1235 196.876L81.0715 196.683L84.0882 190.78ZM114.343 191.262L113.792 195.722L117.528 196.514L118.04 192.276L114.343 191.262ZM87.0374 191.315L83.6104 193.531L85.8597 196.49L89.1564 194.274L87.0374 191.315ZM108.985 195.22L108.275 199.328L111.78 200.124L112.576 195.993L108.985 195.22ZM32.8274 195.462L41.5974 204.154L42.0804 264.804L33.3591 273.55L32.8274 195.462ZM80.5434 197.682C80.5121 197.73 87.5395 197.883 87.5395 197.883L84.7269 202.959L82.3246 202.851L85.4862 200.694L83.459 198.102L80.2105 200.221L82.0206 202.842L77.2756 202.74L80.5434 197.682ZM125.784 199.184L128.166 207.053L125.303 207.55L123.152 200.146C124.029 199.692 124.907 199.468 125.784 199.184ZM103.284 199.675L103.333 204.396L107.156 204.719L107.305 200.293L103.284 199.675ZM122.288 200.429L124.467 207.905L122.65 208.423L120.046 201.325C120.759 200.904 121.503 200.595 122.288 200.429ZM118.971 201.972L121.771 209.292C117.903 210.86 113.892 214.217 110.873 217.567C108.635 215.923 107.319 215.751 105.938 215.379C109.745 208.285 114.242 204.561 118.971 201.972ZM76.7141 203.807L84.0702 204.029L78.9537 211.67L70.6323 211.66L76.7141 203.807ZM98.6121 204.092L98.1343 208.562L102.073 210.888L102.672 206.298L98.6121 204.092ZM93.8674 204.719L91.0678 207.678L94.0411 211.072L96.7683 207.529L93.8674 204.719ZM87.607 204.874L84.2813 207.924L86.9264 211.376L89.9673 207.905L87.607 204.874ZM45.2351 207.719L45.5609 266.969L33.3414 278.811L33.2501 275.624L42.9644 265.481C42.9753 245.439 42.9118 225.398 42.8446 205.357L45.2351 207.719ZM77.7458 205.805L74.3718 210.405L78.3733 210.415L81.2742 205.96L77.7458 205.805ZM56.9374 234.477C55.6068 239.264 49.4732 244.456 49.3635 244.369C52.4003 248.721 52.2979 254.926 49.6199 257.983C49.6324 257.915 54.5018 261.956 55.1852 264.056C55.5706 264.891 55.7252 265.909 56.2133 266.739C56.3425 266.959 56.7543 267.505 56.7543 267.505C68.6483 255.444 62.9843 241.309 56.9374 234.477ZM57.1157 235.728C68.6644 250.056 61.0507 263.171 57.0214 266.829L56.2518 265.558C64.8335 255.585 61.1965 243.332 56.1962 237.532L57.1157 235.728ZM55.8658 238.517C55.9429 238.749 56.3924 239.424 56.0589 239.381L55.4797 239.265L55.8658 238.517ZM55.7789 240.115C56.0298 240.114 56.2396 240.193 56.3533 240.366C56.5886 240.757 55.3951 244.051 54.6577 243.283C54.4354 242.848 54.1737 242.471 53.969 242.021C53.7286 241.483 53.8866 241.224 54.4371 240.689C54.8166 240.32 55.3607 240.115 55.7789 240.115ZM57.4393 241.007C58.0233 241.053 58.8537 242.89 58.9308 244.203C58.9668 244.339 56.9594 243.894 56.4257 243.281C56.4903 242.743 56.9938 241.375 57.4393 241.007ZM52.9219 242.507C56.3991 249.498 56.1814 254.959 53.1198 259.98L50.7215 257.928C52.3343 254.11 53.1324 250.035 50.4169 244.846L52.9219 242.507ZM55.2673 244.256C55.508 244.235 56.2507 244.345 56.9084 244.555C59.2355 245.299 59.3224 246.822 57.0821 247.939C56.1542 248.402 55.8649 248.197 55.33 245.868C55.0655 244.717 54.866 244.291 55.2673 244.256ZM59.761 246.935C60.2097 246.933 60.416 247.78 60.4706 249.242C60.5224 250.63 60.2275 250.739 59.1094 249.749C57.9008 248.678 57.6928 248.424 58.8005 247.543C59.1249 247.285 59.5571 246.936 59.761 246.935ZM56.5898 249.228C56.8108 249.208 57.4535 249.618 58.0813 250.096C59.6723 251.309 59.3194 252.14 57.5117 252.727C56.2594 253.133 56.3214 253.185 56.3533 251.018C56.3691 249.947 56.3057 249.252 56.5898 249.228ZM77.6542 251.2C75.7121 251.693 74.8965 253.425 75.5409 254.984C75.8336 255.693 76.2789 255.699 75.7568 256.132C75.1737 256.805 74.8639 258.363 75.5054 258.93C76.2623 259.364 76.4568 258.616 75.6596 260.08L61.0299 286.953L148.845 286.79L138.291 267.022C138.315 266.994 139.135 263.761 137.446 263.371C136.904 263.246 136.593 262.742 136.483 262.26C136.621 260.885 135.996 260.3 135.471 259.589C127.123 260.768 119.872 260.181 113.882 258.834C105.253 256.893 99.0865 253.533 95.0766 252.477C89.5468 251.022 82.873 250.389 77.6542 251.2ZM82.3844 251.385C89.1886 251.344 96.8051 253.427 102.136 255.734C107.666 258.018 113.525 259.721 119.445 260.595C124.33 261.209 129.203 260.9 133.876 260.53C134.386 260.453 134.916 260.523 135.296 260.928C136.264 262.004 135.605 262.678 133.182 262.902C129.292 263.223 124.467 263.086 120.188 262.443C113.412 261.665 106.229 259.616 100.031 257.047C92.2859 254.141 85.1722 253.168 79.551 254.025C76.464 254.496 76.0104 254.57 76.0226 253.741C76.0464 252.123 77.385 251.384 82.3844 251.385ZM60.0891 256.076C59.7904 256.761 57.6741 254.518 57.6955 253.885C57.7403 253.606 59.4533 252.488 60.1332 252.034C60.4619 251.782 60.4405 251.913 60.4448 252.209C60.4567 253.055 60.3893 255.238 60.0891 256.076ZM56.8312 254.421C57.8076 254.553 59.4133 257.189 57.9993 257.597C56.7473 257.959 55.6085 258.191 55.456 257.352C56.1007 255.289 56.343 254.473 56.7153 254.426C56.7532 254.421 56.7935 254.421 56.8312 254.421ZM113.617 263.424C119.851 264.502 128.032 265.147 133.38 264.73C136.445 264.421 137.091 264.52 137.072 265.798C137.06 266.599 137.148 266.579 133.192 266.575C129.903 266.794 126.943 266.442 123.76 266.277C117.174 265.95 111.19 264.822 105.659 262.902C99.5244 261.311 94.209 258.253 88.2055 257.621C82.6996 257.082 77.7472 258.056 76.7085 258.633C76.3619 258.629 76.1808 258.115 76.2012 257.641C76.2213 257.177 76.3941 256.805 76.7809 256.51C92.5619 252.529 101.011 261.055 113.617 263.424ZM58.8922 258.152C59.4181 258.158 59.2509 258.936 58.3902 260.585C57.6585 261.987 57.3704 261.98 56.9567 260.542C56.5147 259.006 56.5572 258.836 57.4345 258.611C57.951 258.487 58.3877 258.217 58.8922 258.152ZM55.2094 258.934C55.8259 258.944 56.701 261.735 56.252 262.26C55.8971 262.675 54.6136 262.393 54.2395 261.903C53.6376 261.114 54.4075 258.923 55.2094 258.934ZM82.7981 259.689C85.246 259.664 87.6858 259.926 89.9285 260.311C88.6372 260.789 87.3519 261.229 86.011 262.004C85.085 261.208 84.0328 260.433 82.7981 259.689ZM85.979 263.077C94.63 258.253 98.2823 264.912 99.5324 265.986C107.096 264.312 108.576 265.137 112.796 269.695C120.369 265.992 124.04 269.14 127.201 271.131C130.91 267.666 135.612 267.57 138.063 269.31C138.521 270.076 139.158 271.049 139.21 271.34C139.251 271.566 138.905 271.302 138.052 270.692C133.604 267.51 126.224 271.473 128.196 275.669C128.727 276.799 128.642 277.286 127.848 277.74C126.72 278.503 125.334 277.237 126.12 275.944C127.432 273.786 126.445 271.98 123.253 270.311C118.755 267.959 111.407 270.594 112.919 274.062C113.887 275.169 112.989 275.95 111.712 275.91C110.266 275.865 109.776 274.898 110.703 273.864C111.86 272.543 111.556 271.204 110.209 269.679C106.17 263.926 97.9979 266.207 99.0801 271.249C99.5546 272.501 98.2042 273.006 96.8021 272.449C95.9098 272.095 96.0433 270.716 97.0193 270.229C98.1428 270.115 98.3022 268.489 98.1681 267.444C97.973 265.925 95.7314 264.427 93.5147 263.632C91.9102 263.058 90.4198 262.934 89.2433 263.042C86.7598 263.269 85.3735 264.955 85.7824 267.483C86.0237 268.974 85.6066 270.519 83.8566 269.7C82.8989 269.251 83.1394 268.167 84.1172 267.169C87.5556 263.811 80.6321 259.725 76.4522 262.54C75.7437 263.122 75.2266 263.224 75.2266 263.224C77.8479 256.699 86.0553 262.81 85.979 263.077ZM97.3724 262.198L102.596 264.165C101.391 264.403 100.543 264.742 99.6895 265.08L97.3724 262.198ZM83.7297 264.319C78.9089 263.406 78.6466 268.793 81.7882 269.671C77.4664 275.609 88.784 277.914 86.7076 270.587C92.4424 271.62 91.4051 265.094 87.1406 265.154C88.1381 262.723 96.0102 264.565 95.671 266.372C90.3488 266.936 92.4757 271.785 94.7781 271.79C89.2128 277.059 100.349 281.916 100.054 273.974C104.522 274.913 105.047 268.982 100.753 268.592C102.326 266.379 107.943 267.774 109.501 270.305C105.067 270.893 105.344 274.787 108.814 275.416C104.417 281.015 115.239 283.085 114.114 276.576C117.992 277.909 120.121 272.735 115.096 271.256C120.243 268.19 125.832 272.76 125.226 272.853C119.353 272.506 120.522 278.391 124.773 278.072C122.069 284.183 132.784 284.523 130.067 278.185C134.886 278.273 134.463 272.689 129.846 272.315C132.754 270.196 136.032 270.01 138.141 271.993C133.747 273.149 135.573 278.257 139.994 276.843C140.403 281.117 143.878 280.21 143.955 280.081L147.065 285.882L62.8068 286.018L69.9981 272.745C74.2488 272.963 74.097 268.872 73.9105 268.771C76.737 270.789 79.7769 265.773 75.6413 264.335C79.0195 260.8 84.0293 264.065 83.7297 264.319ZM56.3002 263.949C56.1243 264.129 56.0788 264.237 55.7886 263.969C55.0541 263.128 57.052 263.058 56.3002 263.949ZM73.723 266.172C74.0941 266.476 73.8389 267.308 73.5376 267.593C72.7782 268.406 72.5219 268.341 73.1903 266.937C73.3873 266.512 73.5743 266.168 73.723 266.172ZM110.638 266.549L115.018 267.608L112.938 268.781C112.17 267.946 111.43 267.226 110.638 266.549ZM124.329 268.313L129.094 268.617C128.464 269.045 127.846 269.444 127.076 270.224C126.476 269.587 125.34 268.95 124.329 268.313ZM140.202 273.171C140.467 273.724 141.518 275.646 141.419 275.696C139.879 275.964 139.466 273.671 140.202 273.171Z" fill="#100F08"/>
</svg>
