<svg width="225" height="314" viewBox="0 0 225 314" fill="none" xmlns="http://www.w3.org/2000/svg">
<path d="M213.846 1.23755H11.877C6.00621 1.23755 1.24707 5.99669 1.24707 11.8674V302.419C1.24707 308.289 6.00621 313.049 11.877 313.049H213.846C219.716 313.049 224.476 308.289 224.476 302.419V11.8674C224.476 5.99669 219.716 1.23755 213.846 1.23755Z" fill="white" stroke="black" stroke-width="0.996733"/>
<path d="M35.1254 58.1419C45.0461 48.4604 51.5615 37.9045 57.7925 27.7529C63.2569 38.923 71.0984 48.6953 79.5786 58.1419C70.5055 67.5105 63.4735 77.5282 57.8195 88.0596C51.5519 77.264 44.9536 67.4881 35.1254 58.1419Z" fill="#D40000"/>
<path d="M35.1254 254.793C45.0461 245.112 51.5615 234.556 57.7925 224.404C63.2569 235.574 71.0983 245.347 79.5786 254.793C70.5054 264.162 63.4736 274.18 57.8197 284.711C51.5521 273.915 44.9536 264.139 35.1254 254.793Z" fill="#D40000"/>
<path d="M145.807 58.1419C155.727 48.4604 162.243 37.9045 168.474 27.7529C173.938 38.923 181.78 48.6953 190.26 58.1419C181.187 67.5105 174.155 77.5282 168.501 88.0596C162.233 77.264 155.635 67.4881 145.807 58.1419Z" fill="#D40000"/>
<path d="M90.5637 157.404C100.484 147.723 107 137.167 113.231 127.015C118.695 138.185 126.537 147.957 135.017 157.404C125.944 166.773 118.912 176.79 113.258 187.322C106.99 176.526 100.392 166.75 90.5637 157.404Z" fill="#D40000"/>
<path d="M145.807 254.793C155.727 245.112 162.243 234.556 168.474 224.404C173.938 235.574 181.78 245.347 190.26 254.793C181.187 264.162 174.155 274.18 168.501 284.711C162.233 273.915 155.635 264.139 145.807 254.793Z" fill="#D40000"/>
<path d="M197.034 250.289C201.098 246.323 203.767 241.999 206.319 237.84C208.558 242.416 211.77 246.419 215.244 250.289C211.527 254.127 208.647 258.23 206.33 262.545C203.763 258.122 201.06 254.118 197.034 250.289Z" fill="#D40000"/>
<path d="M10.3262 64.4313C14.3901 60.4654 17.0589 56.1412 19.6115 51.9827C21.8499 56.5584 25.0621 60.5616 28.536 64.4313C24.8192 68.2691 21.9387 72.3728 19.6226 76.6869C17.0552 72.2645 14.3522 68.2599 10.3262 64.4313Z" fill="#D40000"/>
<path d="M9.42602 38.7753L12.6461 38.747C13.2585 40.6911 14.6181 42.6732 16.4631 43.2205C21.6749 44.4443 25.0306 41.5331 26.1357 38.1738C27.4759 34.1003 26.1053 28.3784 22.5181 26.3461C19.5425 24.6603 15.1232 26.0821 13.0961 29.6846L10.8389 28.3049L12.0503 14.8831H26.7808V18.0549H14.8431L14.6558 23.6461C17.2211 21.844 21.1739 21.8615 23.7412 23.1262C28.606 25.4451 30.8651 30.7189 29.9184 36.9367C28.608 43.12 25.7211 46.6232 19.201 47.1267C11.9563 47.1893 9.39718 42.2086 9.42602 38.7753Z" fill="#D40000"/>
<path d="M216.296 275.511L213.076 275.539C212.464 273.595 211.104 271.613 209.259 271.066C204.047 269.842 200.692 272.753 199.586 276.112C198.246 280.186 199.617 285.908 203.204 287.94C206.18 289.626 210.599 288.204 212.626 284.601L214.883 285.981L213.672 299.403H198.941V296.231H210.879L211.066 290.64C208.501 292.442 204.548 292.425 201.981 291.16C197.116 288.841 194.857 283.567 195.804 277.349C197.114 271.166 200.001 267.663 206.521 267.159C213.766 267.097 216.325 272.077 216.296 275.511Z" fill="#D40000"/>
</svg>
