<svg width="226" height="314" viewBox="0 0 226 314" fill="none" xmlns="http://www.w3.org/2000/svg">
<path d="M214.073 1.23755H12.1045C6.23375 1.23755 1.47461 5.99669 1.47461 11.8674V302.419C1.47461 308.289 6.23375 313.049 12.1045 313.049H214.073C219.944 313.049 224.703 308.289 224.703 302.419V11.8674C224.703 5.99669 219.944 1.23755 214.073 1.23755Z" fill="white" stroke="black" stroke-width="0.996733"/>
<path d="M35.236 58.5828C45.1567 48.9013 51.6721 38.3454 57.9031 28.1938C63.3675 39.3639 71.209 49.1361 79.6893 58.5828C70.6161 67.9513 63.5842 77.9691 57.9302 88.5005C51.6626 77.7049 45.0642 67.929 35.236 58.5828Z" fill="#D40000"/>
<path d="M35.236 157.476C45.1566 147.795 51.6721 137.239 57.9031 127.087C63.3674 138.257 71.209 148.03 79.6893 157.476C70.6161 166.845 63.5842 176.863 57.9302 187.394C51.6626 176.598 45.0642 166.823 35.236 157.476Z" fill="#D40000"/>
<path d="M35.236 256.075C45.1566 246.394 51.6721 235.838 57.9031 225.686C63.3674 236.856 71.209 246.628 79.6893 256.075C70.6161 265.444 63.5842 275.461 57.9302 285.993C51.6626 275.197 45.0642 265.421 35.236 256.075Z" fill="#D40000"/>
<path d="M146.769 58.5828C156.689 48.9013 163.205 38.3454 169.436 28.1938C174.9 39.3639 182.742 49.1361 191.222 58.5828C182.149 67.9513 175.117 77.9691 169.463 88.5005C163.195 77.7049 156.597 67.929 146.769 58.5828Z" fill="#D40000"/>
<path d="M146.769 157.476C156.689 147.795 163.205 137.239 169.436 127.087C174.9 138.257 182.742 148.03 191.222 157.476C182.149 166.845 175.117 176.863 169.463 187.394C163.195 176.598 156.597 166.823 146.769 157.476Z" fill="#D40000"/>
<path d="M146.769 256.075C156.689 246.394 163.205 235.838 169.436 225.686C174.9 236.856 182.742 246.628 191.222 256.075C182.149 265.444 175.117 275.461 169.463 285.993C163.195 275.197 156.597 265.421 146.769 256.075Z" fill="#D40000"/>
<path d="M198.508 249.066C202.572 245.1 205.24 240.775 207.793 236.617C210.031 241.193 213.244 245.196 216.718 249.066C213.001 252.903 210.12 257.007 207.804 261.321C205.237 256.899 202.534 252.894 198.508 249.066Z" fill="#D40000"/>
<path d="M9.69238 63.2079C13.7563 59.2419 16.4253 54.9178 18.9778 50.7593C21.2162 55.335 24.4284 59.3381 27.9023 63.2079C24.1855 67.0457 21.305 71.1493 18.9889 75.4635C16.4214 71.0411 13.7184 67.0365 9.69238 63.2079Z" fill="#D40000"/>
<path d="M9.71438 37.238C9.30602 34.4908 9.31256 27.3927 9.6483 25.2955C10.6774 18.867 13.1805 15.9268 17.371 14.963C21.4396 14.0274 27.1598 15.0689 28.415 20.445L25.0086 20.508C23.1688 16.8746 18.5132 17.8458 15.8928 19.4258C13.7997 20.688 12.8543 25.9455 13.2588 26.2691C13.2558 26.2691 17.2158 23.3919 20.3345 23.6041C27.0028 24.2859 29.752 29.96 29.5197 35.3229C29.309 41.7725 27.2248 46.9253 20.1586 47.2693C13.4405 47.0158 10.3589 43.4192 9.71438 37.238ZM26.2848 35.5331C26.3219 31.0577 24.2511 27.7102 20.3353 27.3406C16.4195 26.971 12.4718 30.7224 12.7451 35.2831C13.0194 39.8597 14.8237 43.7149 19.5714 43.6936C24.6775 43.6707 26.2584 38.7172 26.2848 35.5331Z" fill="#D40000"/>
<path d="M216.463 277.048C216.871 279.795 216.865 286.893 216.529 288.991C215.5 295.419 212.997 298.359 208.806 299.323C204.738 300.259 199.018 299.217 197.762 293.841L201.169 293.778C203.009 297.411 207.664 296.44 210.285 294.86C212.378 293.598 213.323 288.341 212.919 288.017C212.922 288.017 208.962 290.894 205.843 290.682C199.175 290 196.425 284.326 196.658 278.963C196.868 272.514 198.953 267.361 206.019 267.017C212.737 267.27 215.819 270.867 216.463 277.048ZM199.893 278.753C199.855 283.228 201.926 286.576 205.842 286.946C209.758 287.315 213.706 283.564 213.432 279.003C213.158 274.426 211.354 270.571 206.606 270.593C201.5 270.615 199.919 275.569 199.893 278.753Z" fill="#D40000"/>
</svg>
