<svg width="225" height="314" viewBox="0 0 225 314" fill="none" xmlns="http://www.w3.org/2000/svg">
<path d="M213.261 1.23779H11.2925C5.42174 1.23779 0.662598 5.99693 0.662598 11.8677V302.419C0.662598 308.29 5.42174 313.049 11.2925 313.049H213.261C219.132 313.049 223.891 308.29 223.891 302.419V11.8677C223.891 5.99693 219.132 1.23779 213.261 1.23779Z" fill="white" stroke="black" stroke-width="0.996733"/>
<path d="M140.923 27.6588C140.923 27.6588 166.216 64.2188 174.795 70.7076C175.426 71.0035 186.002 68.9835 186.002 68.9835C180.581 56.0064 177.094 42.5805 180.612 27.5284L140.923 27.6588ZM154.978 85.4797C137.54 90.4013 120.135 95.0297 101.231 87.0071L80.587 106.953C80.4156 107.467 107.339 119.065 107.762 117.795L101.136 138.949L116.414 142.312L123.428 119.81C123.428 119.81 144.522 117.787 154.311 114.428C161.754 111.874 169.452 110.022 176.099 104.473C162.37 96.2224 154.963 85.3815 154.978 85.4797ZM50.096 91.3776C43.487 87.322 38.3213 95.6688 43.1606 99.8368C42.5917 102.271 42.3987 105.895 44.7544 107.487C46.9191 108.856 50.9564 107.436 51.5392 107.452C51.5807 107.453 51.6438 111.834 51.3073 111.823C50.6814 111.802 48.318 109.789 46.8603 109.352C41.9344 107.875 35.0059 107.146 35.1284 107.4C35.3339 107.827 33.9014 108.837 39.3981 112.288C41.4398 113.57 47.8905 112.126 53.0281 113.747C56.1581 114.734 59.2352 116.376 60.9346 115.558C63.0831 114.66 65.5888 111.825 66.3972 109.516C66.625 106.994 53.5074 112.451 54.3049 112.539L54.2637 107.456C59.5497 108.038 64.3207 104.207 59.1257 97.639C62.9945 93.7934 57.5827 84.6283 50.096 91.3776ZM72.1184 114.628C59.1179 127.733 32.5444 152.327 32.5444 152.327L32.8288 170.683L58.7896 193.913C60.8462 169.253 74.8604 146.237 88.2042 134.723C89.4298 131.222 74.9443 115.857 72.1184 114.628ZM164.744 119.161C162.785 134.325 161.005 155.003 135.28 177.989C139.737 185.581 145.411 193.307 153.577 196.995C154.157 198.299 177.179 173.173 191.342 161.292L191.267 145.2L164.744 119.161ZM48.8019 122.417C48.7484 122.747 47.7984 126.73 47.5534 126.624C47.5726 126.841 50.1878 125.653 50.4835 124.561C50.7427 123.603 51.3423 122.306 51.3815 122.122C50.7919 118.022 49.677 120.934 48.8019 122.417ZM39.1716 133.017C38.237 135.274 37.3626 139.42 37.6852 142.118C42.2907 144.423 43.5425 134.833 42.3038 133.917C41.562 133.603 39.8033 132.995 39.1716 133.017ZM181.408 176.986C180.981 178.898 181.071 179.466 181.923 179.839C183.413 180.493 184.083 179.703 185.28 176.589C185.993 174.735 186.628 171.946 186.053 170.836C183.228 168.865 181.735 175.542 181.408 176.986ZM111.755 172.493C110.851 172.5 109.981 172.574 109.176 172.759C101.573 174.498 102.149 187.781 100.859 193.078C76.9779 196.486 70.6613 198.108 64.1175 200.796C53.9434 204.976 50.7214 207.526 48.0291 209.63C49.7207 209.432 67.9769 226.455 68.9184 228.858C67.757 225.563 104.236 217.544 123.665 225.598C126.048 226.451 144.201 207.982 143.627 205.921C145.984 201.796 120.748 197.161 117.565 194.585C114.954 180.531 135.195 172.832 121.178 173.242C118.627 173.316 114.983 172.467 111.755 172.493ZM175.268 188.282C174.819 188.813 174.365 189.094 173.78 189.716L172.447 191.475L173.418 193.044L175.906 190.301L175.268 188.282ZM157.461 205.957C160.081 204.774 169.382 200.266 169.781 201.308L169.584 205.821C168.161 205.356 158.978 206.874 164.289 216.353C160.945 223.883 168.398 227.766 173.619 222.787C184.562 226.541 183.097 215.593 180.839 213.824C182.618 211.06 180.382 205.175 179.269 205.154C179.269 205.154 188.818 207.307 187.884 205.607C187.458 204.831 186.924 203.493 184.802 202.076C182.357 200.443 178.06 201.036 174.582 200.308C170.865 199.531 168.471 198.201 165.347 198.013C160.631 198.443 156.229 202.583 157.461 205.957ZM51.0478 241.493L37.8911 245.009C37.8911 245.009 42.1469 254.885 43.6194 263.691C45.4206 274.463 43.9816 286.174 43.9816 286.174L82.1669 286.368L51.0478 241.493Z" fill="#E2CF00"/>
<path d="M206.375 302.454C201.349 300.709 201.246 297.545 201.073 293.513C200.776 287.398 200.83 280.962 201.707 275.98C202.043 274.465 202.224 273.69 200.711 273.154C199.877 272.867 199.043 272.982 198.208 272.855V269.085C199.793 269 201.264 269.003 202.602 269.795C203.204 270.162 203.875 270.568 203.875 270.568C205.845 268.705 211.018 268.428 213.477 270.728C215.107 272.372 215.634 273.747 215.74 277.448C215.818 280.178 215.74 280.364 215.74 280.364L218.576 280.348V284.016H215.74C215.74 284.016 215.803 285.84 215.74 289.792C215.69 292.867 215.631 294.878 215.417 296.342C214.45 301.446 209.904 303.605 206.375 302.454ZM211.817 296.139C212.804 293.506 212.392 283.33 212.392 283.33C208.158 281.702 206.362 279.153 204.638 277.339C204.638 277.339 203.92 288.636 204.778 294.719C205.559 299.765 210.112 300.517 211.817 296.139ZM211.84 279.026C212.071 279.059 212.335 279.075 212.369 278.977C212.693 278.062 212.13 274.237 211.173 273.469C208.598 271.403 206.244 273.469 206.32 273.562C207.536 275.214 208.962 277.028 210.802 278.459C211.151 278.751 211.447 278.967 211.84 279.026ZM85.3352 286.233C68.5808 262.32 53.0563 239.573 32.4448 214.503C32.4448 214.503 32.462 204.813 32.5342 195.203L95.8548 285.998L85.3352 286.233ZM143.99 254.989C152.291 245.981 158.578 236.38 164.159 226.571C170.521 237.868 177.883 247.071 186.013 254.67C178.042 262.727 170.812 271.947 165.087 283.533C160.433 274.679 154.397 265.441 143.99 254.989ZM199.084 252.093C202.625 248.383 205.672 244.228 208.536 239.841C211.719 244.353 213.637 247.729 217.913 252.49C214.241 256.379 211.154 260.287 208.638 264.539C205.609 259.712 202.452 255.223 199.084 252.093ZM119.254 247.623C118.714 243.082 117.789 237.647 116.459 232.969L128.021 222.068C126.773 231.809 124.858 239.282 119.254 247.623ZM174.509 213.266C177.096 216.703 172.73 218.61 171.081 217.081C167.739 213.98 172.635 210.776 174.509 213.266ZM59.8738 191.624C57.9555 192.853 63.3214 161.656 78.0506 145.533C87.0097 171.195 71.2026 185.583 59.8738 191.624ZM132.54 191.508L122.757 188.868L127.629 175.187C127.629 175.187 136.813 177.339 136.03 180.18C133.48 189.428 132.54 191.508 132.54 191.508ZM87.2544 186.249C89.9033 181.894 91.9144 177.093 93.7659 172.18L107.676 170.252L99.6135 185.888L87.2544 186.249ZM146.213 167.051C138.642 151.976 147.561 128.116 164.034 121.549C163.441 136.836 158.698 152.321 146.213 167.051ZM95.3267 162.768C95.66 157.413 95.0465 151.802 94.306 146.83L128.739 151.419L129.942 165.852L95.3267 162.768ZM120.525 139.838C121.692 135.247 122.729 131.426 124.982 127.706C127.489 127.785 137.657 126.113 136.361 128.089C133.596 131.625 132.274 137.366 130.463 140.976C128.564 140.775 119.955 142.257 120.525 139.838ZM97.7169 137.208C94.2344 135.979 89.4729 135.636 87.6212 132.943L91.2435 121.464L101.972 124.755L97.7169 137.208ZM127.825 27.6855L136.232 27.6053C136.232 27.6053 176.631 79.296 191.772 99.4114C191.268 101.459 191.941 118.811 191.941 118.811C170.494 88.629 127.825 27.6855 127.825 27.6855ZM50.3548 99.8086C48.0959 97.3836 51.6884 95.2348 53.1821 97.4017C54.4977 99.3102 51.5461 101.088 50.3548 99.8086ZM95.6839 91.3336C95.8144 79.3549 104.309 65.139 104.221 65.5023C104.122 65.4789 105.431 77.2124 107.064 80.9047C106.623 81.5553 96.0857 92.0843 95.6839 91.3336ZM59.5004 87.3585C52.9148 74.7684 45.0008 65.2277 38.1085 58.545C46.6926 50.4259 53.1287 40.3974 59.7323 30.5178C65.1838 40.8809 72.2708 50.3519 80.2188 59.3533C72.2462 67.1825 64.7129 78.2745 59.5004 87.3585ZM6.5254 61.8004C10.3828 57.9527 16.0826 49.2008 16.027 49.1897C18.7392 53.6199 21.5983 58.2055 25.5347 61.8667C25.4931 61.8272 19.4338 68.3398 16.3046 74.4629C13.5128 69.3603 9.82679 64.9182 6.5254 61.8004ZM5.97754 33.9533V30.2438H8.75213C8.75213 30.2438 8.72054 30.5455 8.7425 25.4876C8.7732 18.4121 9.12678 16.2388 10.5411 14.4321C14.3513 9.56493 21.3417 11.0576 23.1779 17.1305C23.3176 17.5922 23.6329 18.7622 23.6645 20.311C23.7467 24.3369 23.7534 31.0182 23.6207 35.191C23.6874 36.826 23.1041 38.9586 22.6843 39.3232C22.8866 40.8091 25.2249 41.1082 26.6905 40.9927V44.8739C26.6977 44.8523 25.2032 45.016 23.4417 44.8739C22.6998 44.8141 20.9863 43.4015 20.9863 43.4015C20.9863 43.4015 18.2771 45.2644 15.8418 45.214C7.87425 45.0492 8.75889 35.1051 8.78229 33.9684L5.97754 33.9533ZM12.3598 34.9319C12.3598 34.9319 12.3661 36.3288 12.4513 37.2629C12.7322 40.3458 14.7438 41.9436 16.7492 41.395C17.75 41.0839 18.3372 40.481 18.3372 40.481C16.6316 37.9493 14.6033 35.8222 12.3598 34.9319ZM19.7634 19.5C18.9119 14.8501 14.5328 14.1373 12.8826 18.0719C12.5852 18.7809 12.3369 24.3857 12.3369 24.3857L12.3711 31.0067C15.9241 31.7875 17.8846 34.0671 20.1038 36.6534C20.1038 36.6534 20.5492 24.7537 19.7634 19.5Z" fill="#D40000"/>
<path d="M30.8731 25.4917L30.5569 287.572L193.624 287.602L193.569 25.9161L30.8731 25.4917ZM179.895 27.5429C178.57 42.0441 178.339 53.408 185.863 68.4473C184.503 69.8726 174.265 70.2767 171.038 71.9643C170.979 72.3694 171.867 73.0702 171.867 73.0702C175.243 71.5038 188.405 70.075 188.405 70.075C182.893 60.467 178.358 41.9867 181.772 27.8137L191.272 27.8438L191.212 97.6729C191.212 97.6729 191.959 111.152 192.24 118.746C187.182 112.209 180.474 103.079 176.094 96.3014C170.78 88.8255 164.864 80.0557 158.788 71.8282C156.997 69.2361 154.444 65.8729 152.36 62.8446C149.088 58.1679 146.383 54.5389 142.99 49.5044C139.367 44.2917 135.893 39.5607 131.586 33.5078C127.936 28.3561 127.766 27.7457 127.766 27.7457L179.895 27.5429ZM117.502 27.8137C123.661 38.5158 134.684 42.1401 137.458 42.8618L139.07 45.2178C126.074 42.6708 119.114 34.3273 115.845 29.1679C115.591 28.7665 115.62 27.8438 115.62 27.8438L117.502 27.8137ZM111.407 27.8137C109.704 31.8548 107.32 34.177 105.06 36.6243L105.138 34.0251C105.208 34.1881 108.521 30.5117 109.662 27.8137H111.407ZM114.389 27.8137C114.389 27.8137 114.438 28.5041 114.233 29.0715C112.927 33.2852 104.825 41.2832 105.058 40.0847L104.976 38.0214C104.94 38.1102 111.062 32.1921 112.666 27.8137H114.389ZM108.496 27.8137C107.865 28.9899 105.509 32.5427 105.296 31.5584L105.505 27.8137H108.496ZM127.008 27.8137C128.029 29.2916 128.957 30.3723 130.031 31.8837C130.231 32.1719 130.351 32.5124 130.301 32.642C130.138 33.0618 129.653 32.7501 128.312 31.5613C126.112 29.6114 124.615 27.8137 124.615 27.8137H127.008ZM118.814 27.8137L120.804 27.8185C124.925 34.6637 132.32 38.3058 134.88 39.1023C135.563 39.8549 136.299 41.2315 136.585 41.5359C129.683 39.6666 121.95 33.831 118.814 27.8137ZM123.653 27.7847C125.848 30.9522 129.288 33.1729 131.225 34.6886C132.267 35.5054 133.643 37.1731 133.514 37.5042C129.2 36.1406 124.153 31.3576 121.837 27.8137L123.653 27.7847ZM115.194 29.7446L116.393 31.6538C113.487 36.445 109.843 40.7613 104.983 44.1634L104.957 41.6612C110.472 37.6898 112.855 33.6988 115.194 29.7446ZM117.139 32.5116C120.603 37.1784 128.069 44.401 140.043 46.5594C140.043 46.5594 140.723 47.1735 141.715 48.524C142.973 50.2371 142.993 50.3048 143.159 53.1124C143.27 58.2506 144.94 65.224 146.598 69.6113C146.392 70.702 146.201 71.2577 144.144 74.0355C135.574 85.611 117.316 96.5596 108.32 81.6162C105.321 76.8288 105.029 67.6503 104.838 61.9269C104.838 61.9269 104.895 61.5242 104.918 61.4154C105.134 60.3764 105.431 60.5401 107.055 60.9851C108.701 61.6917 110.415 61.121 112.157 60.647C114.141 59.8458 114.306 60.4635 112.393 62.2489C111.731 62.8663 110.922 63.81 111.007 63.7647C111.092 63.7193 112.205 63.2649 112.697 62.8904C114.225 61.7268 114.587 62.1726 114.02 63.4532C111.617 68.8857 111.19 69.1021 114.571 70.6111C115.275 70.9256 115.756 71.277 116.152 71.6221C118.463 73.7972 117.633 72.6254 116.987 71.6267C115.992 70.0636 116.891 69.2375 118.57 70.2054C119.692 70.8522 121.165 71.3741 121.966 71.1266C123.522 70.6203 123.996 68.9166 123.535 67.0418C123.166 66.0049 121.04 64.1734 121.531 66.0903C122.808 66.0328 123.911 67.8442 122.801 69.0704C121.963 70.1999 120.47 69.5899 118.179 68.0754C116.913 67.124 115.376 67.6103 115.435 68.7806C115.475 69.5663 114.363 69.3857 113.64 68.3845C113.238 67.8286 113.511 66.228 114.265 64.7117C119.014 55.1631 115.01 45.9042 106.785 48.5143C105.88 48.8013 105.065 49.0342 105.065 49.0342L105.02 45.3813C109.743 42.0904 114.752 36.8425 117.139 32.5116ZM121.941 49.6541C120.701 51.1512 121.141 52.4836 123.863 51.1417C126.081 50.0491 126.388 49.9202 128.804 49.8328C132.234 49.7089 135.312 50.7997 139.121 53.1365C141.646 54.6852 142.014 54.8024 141.328 53.832C139.289 49.9295 127.235 44.0046 121.941 49.6541ZM110.294 50.101C112.675 50.7006 114.959 52.2727 114.561 52.924C114.418 53.1583 114.28 53.2029 113.977 53.0447C112.235 52.1846 109.46 50.7781 105.447 52.4941C105.005 52.6833 104.759 52.3899 104.761 51.8566C104.765 50.8213 106.508 49.9944 108.349 49.9277C109.004 49.9269 109.719 49.9606 110.294 50.101ZM124.122 53.1281C122.703 53.8655 122.216 54.2581 121.613 53.9286C120.173 53.1415 120.477 53.7591 121.371 55.3438C122.002 56.462 121.996 56.6919 121.902 57.3772C121.801 58.1219 121.816 58.1507 122.54 58.9469C123.894 60.7263 125.241 62.4429 127.269 63.7928C127.901 64.2137 128.746 64.6925 128.809 64.6945C129.011 64.7006 128.934 64.5397 128.573 64.1873C125.976 61.6898 123.928 59.4514 126.572 60.4022C129.651 61.406 132.579 60.1553 134.98 59.3389C135.959 59.0371 136.987 58.7825 137.242 58.7827C139.46 58.785 139.984 57.8619 138.566 56.4547C133.769 51.0757 129.788 49.8096 124.122 53.1281ZM135.503 54.1363C136.495 55.0522 137.018 55.5496 136.919 55.7881C136.812 56.0441 136.049 55.6106 134.769 54.9284C132.196 53.5562 129.277 53.2333 125.631 54.286C122.8 55.1034 123.636 53.806 126.79 52.5859C129.316 51.4213 132.8 51.7692 135.503 54.1363ZM109.07 52.2835C111.233 52.2488 113.485 52.9587 114.991 54.257C116.041 55.1628 115.273 55.3737 113.566 54.6676C110.984 53.5995 108.807 53.4293 106.688 54.4213C106.023 54.7326 105.256 55.1032 105.046 55.083C104.692 54.8432 104.541 54.1465 104.848 53.6533C105.7 52.8174 107.389 52.3105 109.07 52.2835ZM144.709 53.0254C144.868 53.0323 145.107 53.2846 145.463 53.7837C146.11 54.6917 146.134 55.1402 145.598 56.73C144.943 58.6711 144.681 58.3562 144.516 55.6481C144.409 53.891 144.406 53.0123 144.709 53.0254ZM146.854 55.9523C147.101 55.9173 147.388 56.3524 147.849 57.2516C148.17 57.8791 148.094 58.0669 147.09 61.0044C146.67 62.2338 146.275 63.2129 146.265 63.2213C145.956 63.4646 145.996 63.4432 145.864 63.2745C145.148 62.3601 145.199 60.5769 145.815 58.4397C146.282 56.82 146.536 55.9973 146.854 55.9523ZM127.37 56.1745C127.448 56.1678 127.927 56.2723 127.927 56.2723C127.878 60.6234 131.243 59.7481 131.688 56.6575C131.688 56.6575 132.518 56.572 132.645 56.778C133.044 57.4251 132.118 59.2865 130.733 59.8955C129.722 60.3467 128.348 60.2368 127.528 59.4814C127.298 59.0557 126.603 57.4391 126.732 56.7686C126.894 56.3771 127.136 56.1947 127.37 56.1745ZM125.365 56.6828C125.399 56.6811 125.432 56.6811 125.467 56.6828C125.797 56.6997 126.037 56.7889 126.167 57.1888L126.888 59.3991C126.358 60.0331 124.342 58.7483 124.346 57.7841C124.349 57.1182 124.849 56.7083 125.365 56.6828ZM111.684 56.6784C112.192 56.6291 112.372 56.6858 112.431 57.1602C112.602 58.5965 111.166 60.1573 109.303 60.2421C107.5 60.4437 106.527 59.0452 106.582 57.6814C106.586 56.6448 107.478 56.5151 107.577 57.3345C107.863 59.7007 109.885 59.8367 110.808 58.5301C111.158 58.0181 111.078 56.7569 111.684 56.6784ZM133.823 57.1598C133.966 57.1539 134.158 57.2081 134.441 57.3047C136.301 57.8983 136.35 58.1855 134.76 58.7585C132.863 59.4419 132.74 59.5312 133.185 58.2079C133.434 57.4697 133.507 57.1729 133.823 57.1598ZM114.11 57.3683C115.489 57.4537 115.604 58.6202 114.392 59.0097C112.587 59.8063 111.978 59.7544 112.678 58.579C113.057 57.7465 113.396 57.3842 114.11 57.3683ZM105.486 57.7877C105.65 57.7861 105.839 57.8495 106.041 58.0002C106.248 58.6257 106.599 59.1068 106.877 59.7535C106.594 60.0344 105.918 60.0299 105.488 59.6887C104.625 59.004 104.773 57.7945 105.486 57.7877ZM148.829 59.1352C149.365 59.1385 149.909 59.9866 150.087 60.6185C148.216 63.0214 148.51 67.5077 148.075 68.8622C147.698 69.9645 147.577 69.0131 146.536 66.1583C146.116 65.006 148.233 59.2771 148.723 59.1497C148.758 59.1407 148.794 59.135 148.829 59.1352ZM150.742 61.5985C151.158 61.8361 151.724 62.3819 151.824 63.2407C151.882 63.739 151.635 64.4014 151.476 65.0567C151.098 66.6147 150.587 69.558 150.404 72.2774C150.326 73.4347 150.33 74.4757 150.278 74.5764C149.715 75.6792 148.529 72.7121 148.63 70.3498C148.999 68.4638 149.205 61.8576 150.742 61.5985ZM153.384 64.9891C153.648 65.3563 153.816 65.6375 153.897 65.9542C154.039 66.5044 153.92 67.1617 153.596 68.5632C152.738 72.2779 152.863 76.2814 153.422 80.3917C153.54 81.2564 152.94 80.8232 152.031 79.3339C151.528 78.5081 151.205 77.3763 151.051 76.0399C150.734 73.1182 151.344 69.1575 151.864 66.033C152.093 64.6501 152.253 63.4316 153.384 64.9891ZM154.809 67.2495L156.311 69.0607C156.311 69.0607 155.669 73.2247 155.673 75.4458C155.568 76.2778 156.42 85.3254 156.697 86.0571C155.774 85.0231 155.342 84.415 154.33 83.1157C154.215 83.1346 153.339 74.2017 153.944 70.785C154.31 68.7184 154.809 67.2495 154.809 67.2495ZM157.166 70.8478C157.418 70.8386 157.738 71.1227 158.141 71.6882C158.505 72.1984 158.682 72.6176 158.702 73.2531C158.716 73.7162 158.486 74.0739 158.479 74.9001C158.437 79.8216 159.102 84.4663 159.939 88.9444C160.234 90.5465 159.66 89.893 158.71 88.8794C157.838 87.9512 157.823 87.5982 157.358 86.2789C157.265 86.0157 156.337 76.9398 156.345 76.2537C156.378 73.4334 156.459 71.8626 156.784 71.1859C156.89 70.9648 157.014 70.8533 157.166 70.8478ZM151.706 80.737C151.706 80.737 149.958 81.6369 149.5 81.3211C148.761 79.3072 146.097 73.9163 146.051 72.9615C146.098 72.6479 147.143 71.2295 147.143 71.2295C148.615 74.4231 149.94 77.6904 151.706 80.737ZM118.795 74.2622C118.268 74.8816 117.639 74.6233 116.368 74.0647C115.716 73.8646 115.817 74.1328 114.74 74.6925C113.904 75.1265 113.611 75.1377 113.058 75.1329C112.328 75.1267 112.065 74.8709 112.063 75.3842C112.061 75.6681 112.019 76.9512 111.847 77.6145C111.612 78.5172 111.407 78.9156 111.536 79.0723C111.907 79.4123 112.219 79.2049 113.002 78.4488C114.3 77.1947 115.176 77.5542 116.622 78.0205C118.267 78.551 118.607 78.7464 120.112 78.2206C122.243 77.4756 123.527 77.4749 124.375 78.0153C125.838 78.9468 126.279 78.8919 125.677 76.3453C125.483 75.5243 125.469 74.2511 125.349 74.0307C125.214 73.7809 124.842 74.4934 124.453 74.7553C123.709 75.2559 123.324 75.2466 121.646 74.6973C120.653 74.3716 119.539 73.3068 118.795 74.2622ZM145.773 74.5946C146.422 76.1241 149.006 81.2354 148.927 81.8064C148.424 82.2583 147.751 82.5877 147.351 82.1835C146.06 79.8266 145.672 78.556 144.623 75.9107C144.31 75.2783 145.246 73.667 145.773 74.5946ZM159.649 74.4067C159.832 74.3812 160.214 74.7612 160.498 75.1415C161.383 76.3251 161.436 76.4718 161.464 77.74C161.566 82.3386 162.144 87.7515 163.44 91.9255C163.695 92.747 164.178 93.7459 164.125 93.8816C163.691 94.5149 161.676 92.819 161.068 90.2398C160.229 86.9647 159.739 83.5474 159.472 81.323C159.134 77.4106 159.136 74.6107 159.649 74.4067ZM144.149 76.9431C144.893 78.3784 145.831 80.8549 146.462 82.3408C146.75 82.986 145.278 83.4945 144.94 83.2751C144.352 82.8362 144.074 81.6006 143.688 80.8601C142.459 78.1747 142.239 78.1183 142.919 77.2818C143.338 76.7003 143.839 75.9878 144.149 76.9431ZM162.565 78.5901C162.674 78.5902 162.813 78.6953 162.99 78.9234C163.767 79.8411 164.294 80.5423 164.497 81.2224C164.645 81.716 164.527 82.0861 164.58 82.9805C164.718 85.3232 165.334 88.5208 167.077 95.0649C167.247 95.7031 167.477 96.4583 167.448 96.6636C167.28 97.8651 165.518 95.9175 165.005 93.9057C164.41 91.6221 163.325 88.7056 163.005 86.0088C162.346 81.7283 161.982 78.5897 162.565 78.5901ZM142.597 80.3203C144.062 83.7398 144.178 83.7338 143.255 84.0044C142.28 84.2905 142.222 84.1968 141.076 81.8683C140.24 80.1692 140.075 79.956 140.778 79.3436C141.851 78.0788 142.133 79.2849 142.597 80.3203ZM122.187 79.5047C122.021 79.5081 121.53 79.8802 121.036 80.0756C119.826 80.5547 117.676 80.5876 116.365 80.1929C114.043 79.2607 114.697 80.4712 116.751 81.2079C118.345 81.7441 121.503 81.3284 121.992 80.3351C122.293 80.0172 122.402 79.5003 122.187 79.5047ZM139.843 81.3028C141.151 83.3246 141.545 84.1321 141.324 84.2894C141.114 84.4984 140.078 84.8893 139.652 84.6806C139.118 84.4186 138.652 83.1703 138.417 82.1914C138.581 81.7134 139.441 80.8561 139.843 81.3028ZM107.075 82.1546C107.659 82.1569 109.18 84.2008 108.871 84.5695C108.786 84.759 108.216 84.5785 106.884 84.2095C106.439 84.046 105.434 83.9143 105.752 83.2695C105.91 82.9765 106.842 82.1536 107.075 82.1546ZM138.44 84.9559C138.309 85.3054 137.323 85.3875 136.904 85.3616C136.544 84.6121 136.449 84.2542 136.349 83.7581C136.485 83.4602 137.161 82.689 137.494 82.8404C137.693 83.0186 138.338 84.5865 138.44 84.9559ZM165.657 82.9853C165.865 82.9926 166.226 83.3582 166.763 84.1252C167.776 85.5744 167.639 85.4691 168.366 88.9309C169.192 92.8569 170.18 95.6528 171.177 99.663C171.191 100.328 170.921 100.152 170.182 99.7016C168.975 98.9663 168.577 98.1494 168.197 96.0212C167.548 92.506 166.177 89.2536 165.652 85.1008C165.374 83.7274 165.352 82.9747 165.657 82.9853ZM135.232 84.388C135.945 84.3638 135.849 85.4621 135.645 85.6399C135.124 86.0938 133.688 85.9583 133.441 85.9839C132.89 85.1189 134.767 84.4173 135.232 84.388ZM169.279 88.1243C169.489 88.1532 170.052 88.948 171.105 90.4282C172.117 91.8504 171.895 91.6181 172.501 93.9588C173.357 97.1934 174.775 99.5262 175.606 102.503C175.605 102.843 175.193 102.799 174.8 102.638C174.033 102.317 173.348 101.774 172.699 101.242C172.254 100.763 172.258 100.153 170.945 95.6397C170.472 94.0113 170.349 93.588 169.757 91.114C169.263 89.0453 169.041 88.0916 169.279 88.1243ZM59.5615 97.7877C63.0023 104.12 61.7286 106.927 54.3273 107.804C53.7929 107.729 54.2974 111.048 54.2825 112.531C57.9909 110.41 62.4747 109.915 66.6075 108.583C65.4823 112.186 63.5069 116.269 57.5247 115.64C51.2717 110.809 43.912 113.712 38.9186 111.75C36.2026 110.738 35.1656 107.722 35.1332 107.204C38.3903 107.53 42.0677 108.228 45.2238 108C41.7762 105.344 42.7846 101.669 43.2705 99.9882C39.2365 94.9016 42.6043 89.1799 48.4638 90.5103C49.0694 90.6478 50.2649 91.2367 50.2649 91.2367C55.9172 86.1767 62.4688 90.9303 59.5615 97.7877ZM173.921 94.7075C174.154 94.6852 174.671 95.2962 175.708 96.7457C178.781 101.045 181.442 105.045 181.402 105.27C181.269 106.011 178.066 104.713 177.258 103.652C176.337 102.444 173.748 96.2225 173.751 95.2339C173.753 94.904 173.798 94.7191 173.921 94.7075ZM48.7488 113.124C50.3475 113.359 50.794 113.494 50.7773 114.119C50.914 114.65 46.8976 114.72 46.3531 114.327C45.9183 114.012 46.4792 113.323 46.9086 113.158C47.531 112.97 48.1471 113.036 48.7488 113.124ZM159.469 113.694C137.029 124.292 127.849 152.482 139.176 174.085L137.617 175.21C126.512 152.37 134.773 127.895 152.816 115.535C153.547 115.016 155.162 114.615 155.914 114.117C155.914 114.117 148.553 115.796 146.062 116.77C145.556 116.753 144.071 117.277 142.476 119.006C141.082 120.298 136.722 126.309 136.861 126.518L125.276 126.985L125.286 127.413L136.657 127.15C124.948 146.429 127.825 164.771 135.054 177.609L135.233 177.729C135.653 178.012 136.759 177.202 139.053 175.029C139.998 174.134 141.189 173.021 141.7 172.556C143.118 171.257 145.138 169.016 146.525 167.398C138.652 151.351 146.419 130.216 164.842 120.692C164.874 120.185 164.646 118.637 164.646 118.637C164.646 118.637 163.95 118.011 163.539 118.075C143.013 127.117 134.79 149.569 143.135 169.986L141.758 171.483C131.272 150.341 142.528 123.914 162.155 116.427C162.145 115.949 161.72 115.339 161.193 115.707C140.004 125.544 130.77 150.665 141.15 172.077L139.842 173.233C128.034 149.788 140.476 123.516 159.981 114.539C160.557 114.406 159.469 113.694 159.469 113.694ZM45.2592 113.912C45.2592 113.912 45.1105 115.161 45.5514 115.587C45.754 116.478 45.4301 116.381 44.6723 116.201C42.8069 115.756 44.2619 116.817 45.788 117.674C47.2914 118.518 47.0896 118.489 45.7785 119.321C44.897 119.88 44.9887 120.089 45.1071 120.514C45.283 121.143 45.4033 120.724 45.7688 120.388C46.5361 119.683 47.1492 119.506 47.8312 119.509C48.8554 119.513 48.9591 120.333 48.7778 120.972C48.3706 122.315 46.9888 122.243 45.8557 121.909C44.0022 121.364 40.9746 118.148 41.0216 116.256C40.8927 114.561 43.2126 113.835 45.2592 113.912ZM53.5932 114.327C54.3117 114.591 55.216 114.944 56.211 115.36C57.5848 115.797 58.9772 116.507 59.875 117.106C62.6089 118.928 62.4422 122.573 62.2448 122.936L48.1196 136.322C48.1196 136.322 47.3218 135.933 46.5705 135.549C44.1956 134.337 43.6248 133.699 44.9428 133.028C45.5822 132.702 45.7883 132.003 45.8798 131.318C46.0024 130.401 45.9545 130.557 46.5029 130.14C47.4573 129.412 47.5027 129.112 47.5075 127.903C47.5106 127.103 47.5932 126.735 47.8842 126.232C48.1153 125.833 48.3587 125.001 48.5218 124.044C48.5485 123.887 48.5563 123.495 48.587 123.357C48.7539 122.609 48.9909 122.388 49.1497 122.219C49.3079 122.049 49.5621 121.473 49.7389 120.972C50.1331 119.858 50.0588 120.023 50.6952 120.147C51.6198 120.326 51.4872 120.865 51.3859 121.721C51.3368 122.136 51.06 122.428 51.1541 122.335C51.2804 122.209 51.8481 121.941 51.9655 121.914C52.2614 121.847 52.556 121.948 52.632 122.412C52.6743 122.67 52.562 123.145 52.5692 123.513C52.588 124.466 52.6269 125.607 52.8445 126.358C53.8931 129.977 53.6845 129.476 53.3275 126.464C53.242 125.743 53.1415 124.684 53.2454 123.803C53.3187 123.181 53.4968 122.412 53.7381 121.992C54.3581 120.911 54.3918 120.698 53.0474 120.166C52.5478 119.968 51.6972 119.622 51.5211 119.277C51.3057 118.855 50.6652 118.28 49.8307 118.084C47.8014 117.607 46.6205 115.646 46.9134 115.355C47.1054 115.164 47.9227 115.414 48.4397 115.433C50.2921 115.499 50.6858 115.403 51.5066 114.698C51.9438 114.323 52.1399 113.989 52.4877 113.965C52.8549 113.958 53.3226 114.231 53.5932 114.327ZM149.739 116.495C130.763 131.847 127.437 156.682 136.904 175.845L135.266 177.133C123.369 154.654 131.359 130.405 145.975 117.144L149.739 116.495ZM40.1854 118.326C40.5202 118.294 40.8865 118.786 42.2187 120.209C43.116 121.168 44.0505 122.002 44.5419 122.281C45.6566 122.815 45.4128 122.593 44.484 123.474C43.5344 124.564 44.0588 125.459 42.9239 124.914C39.9714 123.528 37.8982 119.444 39.8183 118.461C39.9632 118.387 40.0737 118.336 40.1854 118.326ZM38.7171 122.619C38.7891 122.614 38.8669 122.625 38.9441 122.644C39.3083 122.733 39.7498 123.417 40.224 123.895C41.5364 125.216 42.1455 125.802 43.1944 126.266C44.2253 126.722 44.2532 126.833 43.5276 127.638C43.2638 127.93 43.1066 128.282 43.0447 128.478C42.9828 128.674 42.9667 128.923 42.7452 128.966C41.5959 129.187 37.7757 126.87 37.6255 125.271C37.7489 123.776 38.1263 122.665 38.7171 122.619ZM46.812 123.064C47.4747 123.047 47.8638 123.637 47.8601 124.595C47.8574 125.258 47.4841 125.528 46.725 125.812C45.1026 126.42 44.103 125.259 45.2374 123.977C45.7142 123.438 46.3586 123.075 46.812 123.064ZM45.8219 126.962C47.0457 126.966 47.4002 127.998 46.5029 128.889C45.66 129.725 43.9587 129.729 43.9623 128.811C43.9651 128.092 45.0429 126.959 45.8219 126.962ZM38.2334 128.196C39.0615 128.441 41.0768 129.893 41.9632 130.064C42.0099 130.553 41.4206 130.687 42.2574 131.608C42.6373 132.026 42.6697 132.311 42.3395 132.487C41.3285 133.026 37.8263 131.323 37.5917 129.57C37.4778 128.714 37.7621 128.227 38.2334 128.196ZM42.8032 130.294C44.0081 130.344 45.3712 130.38 45.2278 130.956C45.1238 131.373 44.6926 132.476 44.141 132.27C43.873 132.169 43.6125 131.903 43.4262 131.724C42.7833 131.107 42.6123 130.286 42.8032 130.294ZM88.371 135.283C91.881 138.461 104.633 171.656 78.0588 195.841L72.4194 197.531C97.9337 177.497 93.6891 149.055 86.8044 136.786C86.8059 136.425 86.7045 136.466 86.0694 137.042C85.5135 137.545 85.4544 137.654 85.6782 137.747C93.4592 149.72 96.3672 183.536 65.7114 199.854C65.1971 200.389 66.2382 200.307 66.2382 200.307C66.2925 199.868 80.0417 196.527 79.0714 196.443C91.8861 185.115 103.043 158.101 89.1543 134.554C88.819 134.334 88.371 135.283 88.371 135.283ZM83.9443 139.041L83.7656 139.79C94.8882 161.626 84.2711 188.379 63.5959 198.28C63.9364 198.53 64.314 198.702 64.6939 198.88C88.1484 186.25 94.9112 159.521 84.68 138.818L83.9443 139.041ZM82.0849 140.59L81.9552 141.382C91.1631 159.966 83.8531 185.756 61.8769 196.217C61.6684 197.342 61.8803 197.014 62.9082 196.96C88.3359 183.324 90.7267 157.393 82.7703 140.552L82.0849 140.59ZM80.5054 142.818C79.7873 143.767 78.4723 144.259 78.0355 145.481C85.4226 165.004 75.8752 183.798 59.713 191.72C59.6998 192.703 58.9948 195.134 60.7062 194.745C80.6742 185.7 89.362 161.656 80.6313 142.731C80.6313 142.731 80.5176 142.814 80.5054 142.818ZM180.804 180.566C181.54 180.618 182.199 180.841 182.881 180.93C185.361 181.251 186.97 183.059 185.862 184.159C185.498 184.521 184.989 184.313 183.377 183.525C182.637 183.162 182.518 182.823 182.365 182.007C182.182 181.027 181.986 180.928 181.737 181.688C181.486 182.455 181.215 182.932 180.368 182.737C177.99 182.185 178.889 180.548 180.804 180.566ZM154.272 197.188C148.317 193.809 140.961 187.714 136.757 180.789C134.666 184.711 132.21 191.849 132.21 191.849L122.862 189.238L122.752 189.432L131.992 192.095L131.091 195.178C130.994 195.511 129.563 199.02 129.563 199.02L143.995 205.755C143.101 207.154 142.125 208.059 140.885 209.364C140.185 210.1 140.165 211.053 140.165 211.053L160.174 191.968C160.174 191.968 162.756 195.795 163.716 196.664C164.616 197.478 164.896 197.675 163.845 197.918C159.144 198.607 155.495 202.166 156.768 206.942C156.973 207.473 157.387 207.277 158.279 206.717C161.4 203.89 169.03 201.273 169.29 201.937L169.32 204.978C161.106 205.097 161.948 211.135 162.55 214.374C162.55 214.444 160.175 216.52 160.175 216.52C161.015 216.961 161.837 217.417 162.613 217.959C161.891 221.988 165.324 227.826 172.066 224.838C172.649 225.435 173.199 226.036 173.842 226.787C174.532 225.988 175.327 224.106 175.327 224.106C178.676 225.622 185.625 222.23 182.071 214.46L184.03 212.591L182.148 211.405C182.099 209.429 181.794 207.664 180.614 205.943C180.614 205.943 183.776 206.749 186.115 206.885C187.56 207.016 188.778 207.053 188.657 206.179C188.621 205.922 188.405 204.665 188.264 204.253C187.566 202.218 183.947 200.723 180.431 200.526C179.858 200.494 179.24 200.512 179.118 200.363C178.888 200.084 179.3 199.687 179.678 199.753C181.603 200.088 183.455 198.665 183.788 196.855C183.854 196.538 184.248 195.957 184.812 195.339C185.814 194.242 185.892 194.271 185.874 192.686C185.86 191.586 186.053 191.342 186.561 190.605C187.215 189.554 187.519 188.183 187.19 186.764C187.086 186.314 186.66 185.678 187.023 184.557C187.613 182.735 186.316 181.068 184.616 180.118C184.48 180.079 184.521 180.213 184.408 180.348C182.865 180.828 180.986 179.722 180.986 179.722C180.598 179.532 182.3 169.645 185.825 170.528C186.412 170.884 186.659 172.602 186.615 172.632C186.777 172.628 186.865 171.621 186.637 170.949C186.398 170.244 185.851 169.573 184.799 169.771C183.984 169.925 183.043 171.007 182.617 171.55C180.97 173.649 180.951 174.989 180.401 177.221C180.137 178.277 180.108 178.216 178.647 177.074C177.599 176.255 177.091 175.993 177.456 175.513C177.62 175.297 178.299 174.615 178.299 174.615L191.061 162.335V285.31H118.892L119.397 269.506C120.752 258.394 118.369 235.06 116.566 232.865C117.957 231.303 122.271 227.537 122.033 227.367L121.461 227.029L119.18 229.127L113.548 227.421C111.145 225.762 108.693 224.227 106.149 223.574C101.995 222.508 93.9955 225.905 93.9884 225.94C81.2082 226.887 70.9738 232.076 71.1171 232.037C70.5605 231.526 69.824 229.894 69.8045 229.904C63.2168 220.736 56.7402 215.601 47.8921 209.334L59.0993 203.144L32.5417 175.396L32.3078 152.864L70.7797 116.085C71.0065 115.45 83.0538 124.593 87.5394 132.034C88.3994 128.397 90.0013 125.094 91.336 121.523C91.4756 121.196 98.99 124.301 101.219 124.432C101.552 124.452 101.821 124.101 101.821 124.101L91.9037 120.876L93.9323 115.067C93.9323 115.067 94.6384 113.488 93.8414 113.227C89.3205 111.764 85.0781 109.187 80.7544 106.991C80.7544 106.991 82.774 104.746 82.8043 104.646C82.8328 104.553 83.6517 103.348 83.4565 102.933C81.257 105.067 63.3078 121.713 63.3078 121.713C62.7972 118.856 61.9945 117.857 60.2496 116.094C61.2004 116.049 62.6882 115.109 63.5483 114.482C66.1787 112.566 67.6109 109.146 67.2664 107.149C64.7412 107.952 62.4611 108.894 59.2982 109.468C57.521 109.791 55.8347 110.593 54.8124 111.454L54.6554 108.267C54.6614 108.303 58.9108 109.011 60.8788 106.16C62.5749 103.702 61.8796 100.889 61.4901 99.4553C61.5339 99.1368 61.4396 99.1726 62.1711 98.499C62.711 98.0017 63.5524 97.3591 63.5524 97.3591C63.5886 97.1782 61.3582 96.3517 60.9812 95.5967C61.575 89.6886 56.8546 87.4078 52.859 88.4576C52.1124 88.6828 51.7559 88.8228 50.8679 87.8337C50.7356 87.6864 49.6701 86.5607 49.6701 86.5607C49.6701 86.5607 49.1999 87.6456 48.9589 88.1207C48.1753 89.6658 47.9603 89.2007 46.271 89.2835C41.9917 89.4933 40.0822 92.9484 41.0644 97.1901C41.2949 98.1857 41.1916 98.0322 40.5379 99.2911C40.2041 99.934 39.6589 100.755 39.6589 100.755C39.6589 100.755 40.4438 101.189 40.9726 101.426C41.7559 101.776 41.7968 102.186 41.7937 102.967C41.903 104.688 42.2808 105.84 43.2704 107.319C39.9182 107.396 37.3465 107.083 34.3111 106.075C34.7757 110.742 38.2164 112.48 42.4305 113.164C42.4305 113.164 41.9884 113.577 41.5232 113.761C40.5374 114.047 39.9202 114.913 39.9294 115.689C39.7874 116.429 39.3082 117.173 38.8668 117.569C38.2106 118.137 37.6714 118.937 37.9298 120.485C37.8636 121.606 37.5925 121.93 37.2633 122.359C36.602 123.219 36.3788 124.073 36.5436 125.203C36.6203 125.729 36.7828 126.855 36.674 128.019C36.4927 129.959 37.1878 130.687 38.0699 132.052C38.6413 132.937 38.5208 132.961 38.3886 133.603C38.0713 135.144 37.7412 135.937 37.3985 137.109C36.6318 139.733 36.6024 141.722 37.2295 142.234C38.1743 143.005 39.2439 142.773 39.7415 142.619C43.4698 141.468 42.8242 137.807 43.0207 135.35C43.1271 134.719 43.3427 134.415 43.5522 134.445C44.6065 135.679 45.7209 136.392 47.1559 137.17C42.194 142.22 38.953 145.31 32.6805 150.819L32.8511 27.8137H104.408C104.408 27.8137 104.482 28.7237 104.312 33.1745C104.002 42.2203 103.622 51.6959 104.215 60.9175C104.315 64.1089 104.25 67.2602 104.708 70.4179C105.155 73.4941 105.352 76.8116 106.79 79.6768C107.367 81.23 107.386 81.1105 105.185 83.1447C104.105 84.1426 103.188 85.2047 103.228 85.392C103.241 85.4543 103.18 85.6883 103.346 85.5558C103.456 85.4677 104.253 84.6782 104.342 84.5741C104.938 83.871 105.936 84.7734 109.34 85.7335C110.008 85.9218 110.948 86.5505 111.668 87.0714C116.756 91.3593 123.916 90.0222 129.268 87.6837C130.787 87.0201 131.159 86.9516 133.6 86.6622C142.64 85.5905 152.299 81.6409 152.278 81.6532L153.458 83.5862C153.458 83.5862 153.902 83.5042 154.219 83.9905C159.418 93.8102 176.392 105.031 176.091 104.511L164.996 110.653C173.073 120.634 191.545 137.565 191.545 137.565L191.12 161.901C186.161 165.868 181.799 170.414 177.438 174.854C176.185 176.095 175.299 176.804 175.775 176.827C176.907 176.655 177.885 177.771 178.806 178.545C179.389 179.195 179.249 179.136 178.575 180.025C178.103 180.649 177.929 180.83 177.927 181.281C177.944 182.154 177.938 182.739 177.161 183.394C176.678 184 176.402 184.388 176.315 185.106C176.228 185.823 176.235 186.283 175.742 186.917C174.906 187.095 174.827 188.311 174.974 188.856C175.849 189.723 175.449 190.663 175.531 190.466C173.86 192.28 172.105 193.851 173.225 191.315C173.73 190.371 173.906 189.589 173.906 189.589C173.906 189.589 173.101 190.422 172.68 190.816C172.036 191.412 171.8 191.061 171.781 189.209C171.698 187.808 171.107 185.853 170.873 185.479C170.741 185.27 170.719 185.632 170.781 186.981C170.862 188.756 171.073 189.271 170.448 191.043C169.604 193.437 169.004 193.776 170.375 193.693C171.674 193.615 172.772 193.601 173.34 194.377C173.532 194.638 173.778 195.086 174.303 195.349C175.372 195.933 176.222 196.581 176.816 197.227C178.737 199.316 178.186 201.184 174.471 199.917C172.516 199.251 173.796 198.411 175.898 198.605C177.19 198.726 177.407 198.249 176.29 197.907C174.211 197.522 173.876 197.288 172.505 198.918C166.748 198.349 163.515 195.13 161.962 192.508C161.312 191.412 161.113 191.202 161.566 190.581C161.744 190.337 161.636 190.411 161.329 190.75C161.022 191.089 160.186 191.373 159.909 191.617C157.975 193.546 156.015 195.619 154.272 197.188ZM179.33 183.674C180.307 183.795 180.288 184.615 179.416 185.404C178.596 186.025 178.034 186.145 177.572 185.679C176.762 184.862 177.808 183.668 179.33 183.674ZM182.176 184.243C182.963 184.24 183.968 184.602 185.161 185.594C186.586 186.778 186.911 189.645 185.603 190.141C185.056 190.348 184.97 190.145 183.803 189.035C183.015 188.287 182.161 187.61 181.32 187.21C179.603 186.393 179.383 186.084 180.543 185.527C180.787 185.402 181.104 185.106 181.248 184.875C181.546 184.398 181.637 184.245 182.176 184.243ZM180.321 188.06C180.548 188.066 180.853 188.205 181.33 188.461C184.224 190.041 185.639 192.519 184.66 193.918C184.017 194.836 182.972 194.486 182.175 193.184C181.726 192.451 180.533 191.513 179.18 190.827C177.631 190.042 177.597 189.929 178.717 189.393C179.176 189.173 179.521 188.861 179.745 188.466C180.006 188.006 180.028 188.051 180.321 188.06ZM181.248 193.965C183.435 196.145 183.185 197.325 181.764 198.213C180.794 198.819 179.239 198.97 178.729 198.468C177.905 197.748 177.926 196.922 178.837 196.657C179.687 196.475 179.369 196.135 178.575 195.933C175.739 195.129 173.997 193.624 177.078 193.95C177.963 194.044 178.819 193.357 179.282 192.808C179.95 191.996 180.854 193.572 181.248 193.965ZM32.1294 194.805L95.948 286.167L44.3545 286.067C44.3545 286.067 44.1603 285.396 44.5806 279.92C45.2013 272.49 44.248 266.046 42.4892 258.794C42.7113 258.769 40.0188 249.99 37.925 245.7C37.5439 244.801 37.6065 244.714 38.8426 244.555C42.4948 243.969 46.4284 243.085 50.077 241.541C51.7729 241.392 54.2632 242.053 54.1287 241.846C54.0682 241.747 51.922 239.779 51.922 239.779C45.9645 242.16 40.4675 243.031 35.293 243.621C42.1618 255.312 44.6131 271.226 42.5535 285.521L32.668 285.491L32.6378 215.139L32.1294 194.805ZM43.5356 208.336C44.4368 208.301 46.6826 209.886 46.9569 211.078C47.013 211.322 47.5969 212.788 48.2513 214.151C48.2644 214.403 50.4767 218.397 49.5046 218.049C47.5704 215.421 44.1151 210.946 43.2459 208.766C43.2474 208.475 43.2833 208.346 43.5356 208.336ZM50.4298 212.332C50.5508 212.992 51.2197 214.719 51.7481 215.856C53.1255 218.821 55.2584 223.468 54.8248 224.791C54.5325 225.683 54.8325 225.636 54.052 224.535C53.6703 223.997 52.4785 222.335 52.1925 221.951C51.4945 221.015 51.9641 221.874 51.5658 220.35C50.6157 216.038 49.0808 213.773 48.0834 211.254C47.7278 210.072 49.9729 211.856 50.4298 212.332ZM51.6564 212.99C51.8419 213.12 54.3711 214.898 54.6268 215.153C55.5235 218.341 59.1078 228.555 58.18 230.38C57.8568 230.127 56.4908 228.48 56.3011 227.631C55.8877 222.747 54.3379 219.235 52.6755 215.595C52.2078 214.498 51.8402 213.401 51.6564 212.99ZM56.414 216.576C57.2147 216.967 58.0434 217.861 58.5128 218.66C58.8266 219.202 58.9874 219.841 59.2828 221.183C60.1995 225.35 61.9481 229.574 61.1616 234.021C60.6713 234.686 59.6043 233.178 59.4518 231.693C58.9464 226.769 58.5125 224.41 56.7809 218.619C56.445 217.495 56.1908 216.615 56.414 216.576ZM60.4758 220.396C60.6468 220.403 60.9973 220.722 61.5818 221.27C62.7189 222.338 62.8791 222.731 62.8859 224.501C62.9228 227.104 63.7897 230.075 63.9243 232.703C64.002 234.219 64.2796 238.14 64.0451 238.373C63.7141 238.829 62.2461 237.168 62.3594 234.62C62.5464 231.558 62.3946 229.253 61.0892 223.956C60.4858 221.507 60.1805 220.461 60.442 220.401C60.4517 220.399 60.4644 220.396 60.4758 220.396ZM178.301 204.929C182.861 207.856 181.253 213.259 180.277 213.923C186.574 221.878 176.786 225.952 173.68 223.092C169.082 227.661 161.191 223.832 164.23 216.301C164.226 216.301 158.455 205.271 169.844 206.008C169.844 206.008 170.04 201.551 169.719 201.347C165.653 201.074 160.127 204.988 158.562 206.071C157.693 206.595 157.503 206.345 157.503 206.345C157.286 204.031 157.28 202.972 158.221 201.682C159.861 199.431 162.573 198.67 166.136 197.888C170.545 199.245 174.743 201.377 178.828 201.045C181.077 201.058 183.378 201.422 185.558 202.592C187.03 203.286 187.795 205.889 187.795 205.889C185.487 207.097 178.301 204.929 178.301 204.929ZM176.133 188.572C176.152 187.782 177.044 186.901 177.922 187.004C179.129 187.091 179.287 188.52 178.214 189.047C177.904 189.297 176.902 188.927 176.848 189.205C176.921 189.692 176.431 189.486 176.336 189.311C176.17 189.104 176.132 188.809 176.133 188.572ZM175.401 191.687C175.844 191.376 176.214 191.349 176.66 191.29C177.345 191.207 178.221 191.31 178.415 192.028C178.606 192.732 177.255 193.147 176.162 193.166C175.605 193.175 174.961 193.283 174.794 192.893C174.637 192.527 175.177 191.852 175.401 191.687ZM37.3888 141.379C38.2689 138.321 37.7193 136.609 39.1856 132.84L42.7549 134.028C42.7549 134.028 42.9062 137.725 42.1867 139.785C41.4663 141.843 39.0992 143.484 37.3888 141.379ZM63.9775 224.081C64.3989 224.132 65.4331 225.604 65.8998 226.95C66.3281 228.198 66.1867 229.783 66.4987 231.128C67.1994 235.737 67.158 240.353 66.972 241.749C66.8794 242.444 66.4311 242.161 65.8176 241.498C64.9255 240.534 65.0488 240.513 65.0594 237.837C65.0683 235.543 64.5595 229.875 64.3252 228.723C63.8919 226.593 63.7116 224.561 63.8132 224.212C63.8417 224.114 63.8994 224.072 63.9775 224.081ZM105.725 224.633C110.321 225.365 113.996 228.503 116.102 233.669C118.134 238.922 118.635 246.089 118.95 252.678C118.928 254.254 118.279 253.856 116.576 252.877C114.716 251.968 114.32 252.231 111.605 252.853C109.911 253.241 110.064 252.089 112.851 250.177C113.8 249.558 114.905 248.731 114.542 248.607C114.358 248.545 113.509 248.773 112.895 249.269C110.16 251.479 109.418 252.017 110.207 249.868C110.406 249.325 111.04 247.818 111.304 247.097C112.295 244.396 111.154 243.241 107.79 241.532C106.948 241.104 106.394 240.391 107.234 241.884C107.921 243.106 106.501 244.091 104.742 242.662C103.519 241.668 101.063 242.33 100.27 243.57C99.5018 244.771 99.9127 247.011 101.427 247.737C102.761 248.311 103.258 247.898 101.968 247.003C100.309 245.852 100.631 243.911 102.495 243.918C102.955 243.92 103.769 244.433 105.824 245.55C107.294 246.346 108.341 246.009 108.343 244.821C108.344 244.026 108.799 244.091 109.766 244.569C111.069 245.213 110.926 245.796 110.238 247.596C109.774 248.853 109.543 250.281 109.117 251.595C108.02 256.017 107.874 261.025 109.087 262.586C112.314 266.738 115.742 266.298 118.676 263.554L118.551 268.101C115.559 270.503 112.063 272.139 106.666 281.041C104.784 278.677 96.7091 269.014 83.7606 266.83L80.8468 262.844C80.8963 262.596 78.6696 248.017 77.2133 243.053C77.2133 243.053 78.8152 240.621 80.2704 238.828C86.0841 231.665 95.9112 223.468 105.725 224.633ZM88.8373 228.771C88.3392 228.929 88.1776 227.936 88.4485 227.747C89.0472 227.697 89.2589 227.715 89.8591 227.76C90.3121 227.788 90.3014 228.307 88.8373 228.771ZM66.9865 228.027C67.633 228.488 68.4219 229.728 69.1938 230.858C69.6207 231.483 69.3786 232.52 69.4449 233.543C69.539 234.994 69.7 237.386 69.8023 238.856C70.0018 241.722 69.7333 244.12 69.3145 244.985C68.8864 246.02 68.0181 245.305 67.8027 243.889C67.751 243.548 68.0342 240.033 68.0346 238.102C68.0346 234.782 67.186 230.684 66.9865 228.027ZM86.5862 228.007C86.8147 227.994 86.9885 228.002 87.1397 228.196C87.8368 229.089 88.1199 229.629 87.4846 230.119C86.6428 230.821 85.8766 230.644 85.4095 229.309C85.109 228.358 85.8184 228.059 86.5862 228.007ZM83.9902 228.794C84.7417 229.298 85.4876 230.624 85.5656 231.58C85.5177 231.843 85.2867 232.066 84.7821 232.473C84.2819 232.932 84.124 232.902 83.5656 232.022C82.69 230.654 82.2801 229.753 82.4518 229.281C82.8893 228.826 83.4587 228.645 83.9902 228.794ZM114.598 228.967C115.853 229.074 117.092 229.647 118.313 229.935L116.45 231.737C115.896 230.813 115.266 229.89 114.598 228.967ZM81.2057 229.906C81.8938 230.802 83.0936 233.145 83.0297 234.015C82.8541 234.312 82.5821 234.576 82.2937 234.742C82.0647 234.804 81.8587 234.403 81.0822 233.029C79.7323 230.642 79.3371 229.969 80.0378 229.682C80.406 229.641 80.9666 229.658 81.2057 229.906ZM78.484 230.462C79.2349 231.129 81.0361 234.687 81.088 235.688C81.0675 235.97 80.9835 236.214 80.8165 236.404C79.6839 237.622 79.9708 237.425 78.2845 233.954C76.8608 231.1 76.485 230.818 77.4264 230.497C77.6347 230.426 78.1559 230.332 78.484 230.462ZM75.7769 231.39C76.2711 231.382 76.4101 232.209 77.3736 234.092C78.9866 237.651 79.5919 238.146 79.2266 238.526C78.7767 239.093 78.5135 239.492 78.0861 238.803C77.1133 237.221 76.1482 235.203 75.2425 233.432C74.5175 232.109 74.4526 231.949 74.9185 231.625C75.1856 231.44 75.5835 231.393 75.7769 231.39ZM104.568 232.401C103.962 232.571 101.525 233.343 103.018 233.483C103.319 233.511 104.084 233.32 104.621 233.283C106.13 233.179 109.269 233.463 109.156 233.174C108.87 232.09 105.39 232.19 104.568 232.401ZM73.6669 232.734C73.6669 232.794 74.0581 233.488 74.4475 234.167C76.7401 238.596 78.0147 240.209 77.6073 240.909C77.2723 241.332 76.7544 241.864 76.448 241.738C75.955 241.535 75.2979 240.085 73.6573 236.803C71.9618 233.412 71.7852 233.158 72.6569 232.718C73.0138 232.552 73.4468 232.43 73.6669 232.734ZM71.3769 234.297C72.4306 236.009 72.2921 235.784 72.2801 241.358C72.2725 244.827 71.8268 247.039 71.2465 247.893C70.9426 248.34 70.4063 248.077 70.1404 247.202C70.0188 246.802 70.3653 246.208 70.4302 245.574C70.8403 241.4 70.5538 237.229 70.5634 233.279C70.8815 233.246 71.2067 234.017 71.3769 234.297ZM98.5547 235.663C99.0454 236.364 98.9255 236.928 98.9218 237.871C98.9166 239.203 99.0129 239.301 99.9329 238.629C100.748 238.032 100.814 237.994 102.269 238.981C103.132 239.567 104.221 239.633 104.925 238.986C105.422 238.53 105.593 238.735 106.258 238.909C106.982 239.311 107.188 239.373 108.741 238.619C109.79 238.155 109.832 238.088 110.456 238.416C111.553 239.383 111.715 239.034 111.566 237.769C111.569 237.328 111.697 236.503 111.827 235.968C112.373 233.719 111.489 233.694 110.32 235.127C109.868 235.682 108.859 235.923 107.905 235.475C106.54 234.834 104.409 235.093 102.833 235.358C100.969 235.671 100.105 235.158 99.3565 234.519C98.9321 234.157 97.9624 233.833 97.8549 234.111C97.7474 234.388 97.9672 234.825 98.5547 235.663ZM73.5552 238.817C73.7886 238.767 74.1467 239.458 74.6709 240.923C75.3474 242.814 74.165 249.386 73.4537 250.462C73.0774 251.027 72.8358 251.373 72.0627 250.327C71.7552 249.867 71.9945 249.721 72.2994 248.429C72.7632 246.463 73.1539 243.282 73.1784 241.802C73.1849 239.882 73.2906 238.874 73.5552 238.817ZM75.9315 245.193C76.0994 245.205 76.2958 245.584 76.5642 246.333C76.9444 247.362 76.7596 249.345 76.2599 250.863C75.9705 251.747 75.6953 252.69 75.2022 253.481C75.0342 253.925 74.1739 253.769 73.9367 252.785C73.7866 252.163 74.3045 251.39 74.5549 250.399C74.8066 249.404 75.0937 248.138 75.236 247.501C75.4986 245.946 75.6859 245.176 75.9315 245.193ZM94.3237 248.105C94.3029 248.102 94.2839 248.105 94.2706 248.11C94.2745 248.104 94.2609 248.12 94.2561 248.125C94.2168 248.164 96.0491 250.16 96.5406 250.718C96.7976 250.936 99.005 253.619 97.6322 253.003C94.1687 251.567 90.1155 252.272 87.6198 254.679C87.3072 254.98 87.0489 254.672 86.1032 254.601C84.1646 254.457 83.4608 255.226 84.6397 256.181C84.8203 256.327 85.197 256.393 85.3671 256.627C85.5232 256.843 85.4767 257.229 85.5579 257.336C89.3064 262.312 96.249 263.28 100.607 260.03C101.156 259.621 101.463 259.477 101.974 259.629C102.988 259.931 103.078 259.082 102.182 257.895C101.791 257.378 101.31 256.781 101.591 256.609C102.144 256.133 102.418 255.355 101.455 255.064C100.792 254.863 100.048 254.125 99.6753 253.094C99.2397 251.891 94.9705 248.193 94.3237 248.105ZM77.308 250.283C78.1224 250.264 78.1602 255.077 77.2597 256.538C76.797 257.091 75.7388 256.063 75.8977 255.007C76.0184 254.205 76.8836 250.587 77.081 250.399C77.161 250.323 77.239 250.285 77.308 250.283ZM93.918 253.288C94.6018 253.281 95.5379 253.587 96.2821 254.259C96.6844 254.623 97.3888 256.197 97.0961 256.814C97.0143 257.127 96.1693 257.109 96.0927 256.879C95.6283 253.703 93.0531 253.242 92.2355 256.207C92.2355 256.207 91.7056 256.657 91.6378 255.789C91.8212 254.106 92.6125 253.301 93.918 253.288ZM114.653 253.563C115.471 253.548 116.252 253.959 116.652 254.833C116.932 255.443 116.962 255.956 116.851 256.223C116.769 256.423 116.493 256.336 116.493 256.336C115.186 252.752 113.408 254.409 112.763 256.391C112.763 256.391 112.091 256.598 112.007 256.385C111.923 256.171 111.975 255.768 112.243 255.21C112.753 254.145 113.725 253.58 114.653 253.563ZM97.1686 253.785C97.6313 253.76 98.4236 254.137 99.0161 254.734C99.6179 255.34 99.677 255.702 99.1908 256.152C98.8986 256.423 97.8603 256.69 97.6591 256.22L96.7846 254.177C96.7015 253.983 96.9582 253.797 97.1686 253.785ZM90.8704 253.882C91.3885 253.883 91.498 254.001 90.6843 255.894C90.5104 256.298 88.4229 255.711 88.8207 254.93C89.4176 254.309 90.3522 253.881 90.8704 253.882ZM111.779 254.032C111.987 254.022 112.157 254.052 112.228 254.147C112.042 254.215 111.253 256.21 111.253 256.21C110.508 256.12 109.617 256.225 109.456 255.616C109.304 255.04 109.604 254.69 110.654 254.288C110.971 254.172 111.432 254.048 111.779 254.032ZM117.888 254.544C118.678 254.833 118.863 255.502 118.762 255.848C118.686 256.109 118.312 256.112 118.047 255.91C117.796 255.618 117.425 255.12 117.453 254.785C117.536 254.452 117.636 254.448 117.888 254.544ZM78.5106 256.387C78.7535 256.844 79.1922 259.435 78.6797 259.369C78.1824 259.24 77.9506 258.459 77.8634 257.755C77.8455 257.61 78.2884 256.404 78.5106 256.387ZM87.2093 257.77C87.4395 257.737 88.0192 257.94 88.8804 258.427C91.7147 259.796 94.6201 259.99 97.7063 259.301C99.4862 258.839 99.9402 258.568 100.192 258.874C100.619 259.392 99.9447 259.911 97.4313 260.756C94.6751 261.682 91.8155 261.526 88.055 258.873C87.0445 258.16 86.9134 257.812 87.2093 257.77ZM118.661 258.484C119.127 259.355 117.539 260.18 116.734 260.413C115.024 260.908 112.434 260.677 110.971 259.798C110.848 259.724 110.73 259.645 110.618 259.562C109.428 258.676 109.921 258.043 111.246 258.726C112.671 259.461 115.571 259.596 117.109 258.854C117.88 258.482 118.41 258.016 118.661 258.484ZM83.4661 260.108C83.308 260.143 83.5754 260.542 84.1278 261.141C88.005 265.493 97.2551 267.853 102.455 263.369C104.083 261.84 103.835 261.153 101.266 262.374C98.4263 263.308 94.39 263.431 90.8993 262.914C89.1827 262.682 86.3869 262.024 84.9682 260.987C84.0746 260.333 83.6055 260.077 83.4661 260.108ZM110.2 260.238C110.436 260.257 110.851 260.345 111.751 260.813C113.065 261.496 116.048 261.262 117.025 260.902C119.083 260.142 119.505 261.107 117.556 262.184C115.383 263.5 112.384 262.985 110.634 261.291C110.092 260.805 109.799 260.201 110.037 260.152C110.06 260.148 110.166 260.235 110.2 260.238ZM84.4961 267.935C92.1313 268.633 103.654 276.209 108.147 285.31H105.561C101.047 278.148 94.102 272.383 85.8601 270.232C85.5341 269.982 84.3213 268.252 84.4961 267.935ZM118.386 269.602L118.034 272.118C116.754 273.167 112.064 277.053 108.586 283.137C107.861 283.103 107.51 282.23 107.631 281.635C110.416 276.144 113.746 273.112 118.386 269.602ZM87.5285 271.571C89.2802 271.451 100.677 277.572 104.515 285.31H102.414C98.0967 279.688 93.2987 276.021 89.0398 274.549C88.0043 273.457 86.8705 271.619 87.5285 271.571ZM118.034 273.322L118.014 276.723C115.288 279.377 113.295 282.047 111.734 285.31H109.617C109.617 285.31 109.147 284.378 109.31 283.797C111.717 279.466 114.022 276.313 118.034 273.322ZM100.721 285.31H98.6717C96.9424 282.865 94.3734 280.513 92.015 279.113C91.0486 277.915 89.9658 276.438 90.4016 276.198C90.4274 275.314 99.4962 281.442 100.721 285.31ZM118.078 278.393L118.034 280.359C116.647 282.133 115.485 283.62 114.375 285.31H112.628C114.221 281.873 118.221 277.464 118.078 278.393ZM94.5619 282.2C95.1939 282.367 97.5026 284.572 97.4289 285.31L96.3896 285.28C95.8066 284.544 95.1152 283.778 94.7052 283.024C94.4484 282.548 94.2838 282.107 94.5619 282.2ZM117.676 282.808C117.683 282.806 117.687 282.806 117.691 282.808C117.694 282.81 117.671 285.31 117.671 285.31H115.918C115.729 285.276 116.767 283.421 117.676 282.808Z" fill="#131F67"/>
<path d="M154.142 27.2095C145.552 27.2082 136.865 27.2573 127.201 27.3592L192.449 119.936L192.502 99.3705L171.563 72.3498C176.329 70.8802 182.148 69.8649 186.729 69.4567C180.845 56.4116 177.901 44.1602 180.494 27.3689C171.225 27.2624 162.732 27.2108 154.142 27.2095ZM179.407 27.7987C178.896 33.7265 178.225 40.3372 179.301 47.6786C175.905 46.4388 175.109 48.5568 174.546 48.7796C173.907 47.3552 171.54 44.8907 168.861 47.7872C167.468 49.2931 168.144 52.1256 171.378 53.4031C167.675 53.6874 165.751 50.5224 165.101 47.2584C163.099 45.9773 160.996 44.7109 160.795 40.2189L161.821 40.3903C161.48 43.5245 164.737 45.1206 166.643 43.6247C167.875 42.6807 168.007 41.2238 167.521 38.9607C168.51 38.758 170.829 37.7875 170.216 34.8094C169.37 30.6979 165.147 31.1805 163.217 33.8844C161.614 31.8993 158.673 31.531 157.494 34.6137C156.837 36.331 158.334 38.2593 160.034 38.6322C156.258 39.3564 154.353 34.1488 154.142 30.6242L152.577 27.847C162.788 27.7877 167.253 27.7996 179.407 27.7987ZM128.263 27.9002L135.841 27.905L191.149 99.4745L191.265 117.292L128.263 27.9002ZM147.424 27.905L148.631 27.9195C149.578 34.2188 153.2 38.7796 159.397 40.9989C159.719 46.1453 162.2 53.1363 171.617 55.4982C171.339 61.3093 175.072 66.8625 179.069 69.5243C179.069 69.5241 177.99 69.7914 177.147 69.872C171.773 65.6114 170.449 59.3381 169.916 56.7492C169.735 56.3754 169.222 56.2847 168.815 56.1937C164.216 54.5693 160.346 50.792 158.764 46.1814L157.769 41.6557C157.772 41.0744 157.653 41.3475 156.286 40.8443C152.739 39.5386 149.46 35.7008 147.989 31.1169C147.215 28.7068 147.424 27.905 147.424 27.905ZM142.55 27.9195L146.796 27.9243C146.796 27.9243 146.821 28.6732 146.883 29.1608C147.454 33.6737 151.506 39.3374 155.639 41.2162C156.224 41.482 157.038 41.8553 157.228 42.0325C158.384 49.4304 161.737 53.8861 168.815 56.9376C168.928 57.0543 169.247 57.1285 169.342 57.2756C170.307 61.8505 172.415 67.154 176.427 70.0701L174.693 70.2488L142.55 27.9195ZM163.289 35.684C164.249 35.684 165.028 36.4629 165.028 37.4227C165.028 38.3826 164.249 39.1567 163.289 39.1567C162.329 39.1567 161.55 38.3826 161.55 37.4227C161.55 36.4629 162.329 35.684 163.289 35.684ZM104.693 45.1719C104.794 45.423 80.9474 65.5941 83.2679 103.546L82.5773 104.319L82.7656 104.589C81.9782 105.483 81.2198 106.2 80.3603 107.072C85.3053 110.223 93.9246 113.663 93.9517 113.573L92.3047 117.389L102.607 120.716L101.226 124.344C101.226 124.344 94.0581 121.967 91.0876 120.977C89.622 124.226 88.7349 127.658 87.668 131.038C87.5675 131.31 87.3333 131.179 86.9676 130.652C81.6161 121.525 70.6247 114.939 70.9952 115.592L32.0178 152.574L31.7522 175.43L58.7272 203.23C58.7272 203.23 50.921 207.072 47.2272 209.591C50.0996 211.936 53.3507 213.741 56.206 215.957C62.1127 220.123 66.0992 226.246 69.9278 230.394C87.9825 221.442 106.165 221.941 121.869 227.375C120.039 229.3 117.997 230.968 116.111 233.055C120.676 245.032 119.215 268.816 118.985 269.463C128.488 259.755 142.625 238.939 140.739 209.63L144.738 205.621C144.665 205.416 134.734 200.1 130.596 198.942L131.741 195.3L121.83 192.204L122.936 189.311L132.808 192.17C134.678 187.581 136.658 181.153 136.658 181.153C140.6 187.051 144.946 192.416 153.891 197.874L192.646 160.795L192.395 136.955L166.009 110.569L176.992 104.845C175.937 103.994 174.407 103.187 173.321 102.334C173.244 102.273 173.539 102.089 173.462 102.03C173.186 101.818 172.984 101.645 172.703 101.45C172.64 101.406 172.442 101.692 172.38 101.648C168.653 99.0344 164.924 96.4626 161.991 93.3357C161.917 93.2567 162.026 92.9315 161.952 92.8527C160.427 91.2238 158.909 89.7081 157.359 88.1049C156.639 87.379 155.451 85.6562 155.451 85.6562L155.383 85.0862L153.717 82.99C148.351 86.155 125.474 94.099 103.336 85.3036L107.543 81.0967C106.423 78.3947 105.697 75.3795 105.408 72.91C104.251 63.0064 104.693 45.1719 104.693 45.1719ZM174.476 50.7794C175.489 50.7794 176.311 51.6019 176.311 52.6148C176.311 53.6277 175.489 54.4501 174.476 54.4501C173.463 54.4501 172.645 53.6277 172.645 52.6148C172.645 51.6019 173.463 50.7794 174.476 50.7794ZM180.216 52.9625C181.15 57.524 183.205 64.1477 185.251 68.6125L182.813 68.8829C180.828 67.5931 178.73 65.7113 178.51 63.0421C173.142 63.0833 171.572 54.6638 173.533 55.6744C173.283 58.5506 175.346 59.6842 177.371 59.4019C179.114 59.159 180.621 56.7521 178.546 54.0953C179.468 53.7366 179.919 53.4657 180.216 52.9625ZM104.143 66.4525C104.498 72.286 105.643 76.5402 106.712 80.947L96.1058 90.9546C96.9331 81.8201 99.616 73.6568 104.143 66.4525ZM155.011 85.6658L156.359 87.5978C141.031 96.5986 114.87 97.2348 98.9313 89.6457L101.047 87.6316C115.062 93.96 137.88 94.4302 155.011 85.6658ZM55.4622 88.67C53.9178 88.651 52.1352 89.2399 50.2459 90.6793C43.2143 87.4758 38.6088 94.9642 42.9576 99.9237C42.3138 103.493 41.8265 104.158 44.5128 107.772C41.6592 108.135 38.0571 107.389 34.9931 106.917C35.5108 112.204 43.0808 113.434 46.2322 112.853C49.6347 112.116 52.8446 113.8 52.9845 113.839C54.985 114.397 56.2279 115.36 58.2007 115.824C61.4543 116.598 66.2188 112.785 66.9091 109.163C66.9743 108.677 67.1246 108.236 66.8559 108.164C64.6318 108.732 62.1882 109.534 60.0216 110.009C57.8998 110.529 56.3005 111.043 54.6846 112.308L54.5493 107.941C65.5648 108.465 60.7709 97.9923 60.1472 97.5425C62.1939 93.4103 59.7319 88.7226 55.4622 88.67ZM155.586 88.9984L157.982 94.7605L151.616 96.9195L149.988 91.2782L155.586 88.9984ZM55.0034 89.1723C58.7476 89.2086 62.0962 93.1516 58.5002 97.5667C65.4708 103.714 56.5376 110.302 52.2841 105.729C46.6212 110.915 40.6053 105.499 43.769 99.8512C37.7298 94.4471 45.1776 87.1989 50.2652 91.8674C51.5148 89.9468 53.3014 89.1558 55.0034 89.1723ZM98.4725 91.283C99.3687 91.283 100.095 92.0096 100.095 92.9058C100.095 93.8021 99.3687 94.5287 98.4725 94.5287C97.5761 94.5287 96.8496 93.8021 96.8496 92.9058C96.8496 92.0096 97.5761 91.283 98.4725 91.283ZM56.9981 91.4037C56.9054 91.4048 56.7947 91.4467 56.6745 91.5535C56.4928 91.5703 56.0987 92.2472 55.1096 93.3937C53.3906 95.3862 53.205 95.405 53.205 95.405C51.3734 94.8057 50.1488 95.1294 48.9418 95.8927C48.9418 95.8927 47.5659 95.6321 45.6671 94.0457C44.8011 93.3217 44.3351 93.1648 44.1844 93.553C44.0238 93.9667 44.4165 94.3741 46.0777 95.5043C48.3765 97.0683 48.2339 96.9488 48.2339 96.9488C48.0917 98.3233 48.3147 99.4405 48.8345 100.481C48.8345 100.481 48.4295 101.457 46.7973 103.594C46.3359 104.198 45.9578 104.855 45.9569 105.053C45.9537 105.885 46.6793 105.326 48.3477 103.218C49.0016 102.391 49.8988 101.209 49.8988 101.209C51.8585 101.887 52.5451 101.474 53.7736 101.038C53.7736 101.038 54.1949 101.351 55.2635 102.203C57.2188 103.762 57.6417 103.927 57.882 103.73C58.2055 103.463 58.1626 103.376 57.4231 102.841C55.2177 101.244 54.4591 100.322 54.4591 100.322C54.9076 98.575 54.417 97.13 53.9363 96.2188C53.9363 96.2188 53.9712 95.9962 55.2159 94.606C56.1301 93.5849 57.3812 91.9737 57.3024 91.7418C57.3234 91.5976 57.2017 91.4014 56.9981 91.4037ZM102.134 91.7563L107.867 93.5386L106.601 99.4987L100.491 97.5281L102.134 91.7563ZM143.622 93.2198L145.221 99.035L139.256 100.619L138.281 94.4466L143.622 93.2198ZM147.81 93.3164C148.706 93.3164 149.433 94.043 149.433 94.9392C149.433 95.8355 148.706 96.5621 147.81 96.5621C146.914 96.5621 146.187 95.8355 146.187 94.9392C146.187 94.043 146.914 93.3164 147.81 93.3164ZM161.367 93.5241L166.381 97.9869L160.817 100.798L158.136 94.9827L161.367 93.5241ZM114.092 94.8137L119.917 95.4995L119.681 101.759L112.996 100.866L114.092 94.8137ZM93.8841 94.8813L100.366 97.7261L98.0281 104.256L91.3918 101.406L93.8841 94.8813ZM110.591 95.3884C112.979 95.7624 112.337 98.581 110.591 98.6341C109.694 98.6341 108.968 97.9075 108.968 97.0113C108.968 96.115 109.694 95.3884 110.591 95.3884ZM131.548 95.3932L132.345 101.658L126.298 102.025L126.167 95.6589L131.548 95.3932ZM135.706 96.1081C136.602 96.1081 137.329 96.8346 137.329 97.7309C137.329 98.6272 136.602 99.3537 135.706 99.3537C134.81 99.3537 134.083 98.6272 134.083 97.7309C134.083 96.8346 134.81 96.1081 135.706 96.1081ZM51.5217 96.6957C52.4464 96.6957 53.1977 97.4423 53.1977 98.3668C53.1977 99.2914 52.4464 100.043 51.5217 100.043C50.5973 100.043 49.8506 99.2914 49.8506 98.3668C49.8506 97.4423 50.5973 96.6957 51.5217 96.6957ZM123.129 96.6345C124.025 96.6345 124.752 97.3611 124.752 98.2574C124.752 99.1536 124.025 99.8802 123.129 99.8802C122.233 99.8802 121.506 99.1536 121.506 98.2574C121.506 97.3611 122.233 96.6345 123.129 96.6345ZM151.611 97.0354L153.968 103.474L147.361 105.604L145.492 98.9915L151.611 97.0354ZM156.248 97.2093C157.144 97.2093 157.871 97.9358 157.871 98.8321C157.871 99.7284 157.144 100.455 156.248 100.455C155.351 100.455 154.625 99.7284 154.625 98.8321C154.625 97.9358 155.351 97.2093 156.248 97.2093ZM167.671 99.035L171.94 102.054L169.825 103.232C169.27 101.905 168.291 100.332 167.671 99.035ZM106.64 99.6194L112.943 100.986L111.982 107.589L105.104 106.217L106.64 99.6194ZM87.895 99.9816L91.2421 101.556L89.0348 107.057L83.6205 104.174L87.895 99.9816ZM102.858 100.339C103.754 100.339 104.481 101.066 104.481 101.962C104.481 102.858 103.754 103.585 102.858 103.585C101.962 103.585 101.235 102.858 101.235 101.962C101.235 101.066 101.962 100.339 102.858 100.339ZM139.261 100.701L140.386 107.304L133.277 108.304L132.837 101.571L139.261 100.701ZM165.879 100.827C166.775 100.827 167.501 101.553 167.501 102.45C167.501 103.346 166.775 104.073 165.879 104.073C164.982 104.073 164.256 103.346 164.256 102.45C164.256 101.553 164.982 100.827 165.879 100.827ZM160.836 100.875L163.188 106.695L156.233 109.603L154.176 103.778L160.836 100.875ZM143.101 101.295C143.997 101.295 144.724 102.022 144.724 102.918C144.724 103.814 143.997 104.541 143.101 104.541C142.205 104.541 141.478 103.814 141.478 102.918C141.478 102.022 142.205 101.295 143.101 101.295ZM119.613 101.957L126.269 102.078L126.191 108.753L118.903 108.55L119.613 101.957ZM172.843 102.421L175.461 104.237C148.52 121.561 110.673 123.709 81.138 106.657C81.138 106.657 82.3448 105.454 83.0313 104.749C109.657 120.683 148.527 118.447 172.843 102.421ZM116.005 103.174C116.902 103.174 117.628 103.901 117.628 104.797C117.628 105.693 116.902 106.42 116.005 106.42C115.109 106.42 114.382 105.693 114.382 104.797C114.382 103.901 115.109 103.174 116.005 103.174ZM129.669 103.541C130.565 103.541 131.292 104.268 131.292 105.164C131.292 106.06 130.565 106.787 129.669 106.787C128.772 106.787 128.046 106.06 128.046 105.164C128.046 104.268 128.772 103.541 129.669 103.541ZM97.9702 104.435L104.92 106.444L103.737 111.931L96.1155 109.738L97.9702 104.435ZM93.3721 104.473C94.2686 104.473 94.9949 105.2 94.9949 106.096C94.9949 106.993 94.2686 107.719 93.3721 107.719C92.4758 107.719 91.7493 106.993 91.7493 106.096C91.7493 105.2 92.4758 104.473 93.3721 104.473ZM147.356 105.642L149.017 111.8L141.333 113.443L140.406 107.386L147.356 105.642ZM151.77 106.536C152.667 106.536 153.393 107.262 153.393 108.159C153.393 109.055 152.667 109.782 151.77 109.782C150.874 109.782 150.148 109.055 150.148 108.159C150.148 107.262 150.874 106.536 151.77 106.536ZM51.3809 107.492L51.3664 111.81C50.092 110.76 48.6524 109.641 47.1789 108.511C48.6819 108.591 50.079 108.176 51.3809 107.492ZM35.5533 107.598C35.904 107.595 36.7248 107.882 37.7026 107.879C40.8319 107.869 46.6769 108.845 48.4057 110.265C48.9818 110.736 49.8442 111.155 50.3135 111.916C50.312 112.279 49.7984 112.289 49.0432 111.82C47.5946 110.92 45.1839 110.118 41.9578 109.67C41.3748 109.59 41.3022 109.613 41.3009 109.888C41.2994 110.227 41.8381 110.425 43.5372 110.704C45.7359 111.065 46.2038 111.281 46.6911 111.414C47.9968 111.772 47.1625 112.249 45.8183 112.378C40.3324 112.891 36.2253 110.531 35.3988 107.835C35.3323 107.658 35.394 107.6 35.5533 107.598ZM111.977 107.695L118.879 108.589L118.565 114.365L111.011 113.501L111.977 107.695ZM53.2839 108.197C54.4896 109.144 53.6603 112.013 53.0038 112.858C52.5787 113.333 51.5833 113.081 51.5886 112.414C51.7389 111.815 51.5263 108.961 51.6562 108.077C52.1368 107.803 52.8447 107.88 53.2839 108.197ZM133.267 108.453L133.625 114.409L126.095 114.751L126.153 108.902L133.267 108.453ZM107.862 108.854C108.758 108.854 109.485 109.581 109.485 110.477C109.485 111.373 108.758 112.1 107.862 112.1C106.965 112.1 106.239 111.373 106.239 110.477C106.239 109.581 106.965 108.854 107.862 108.854ZM65.9044 108.936C66.1825 113.306 59.4704 116.272 56.9595 114.93C55.8476 114.336 56.3101 113.97 58.5147 113.525C61.3674 112.769 63.246 112.034 63.248 111.501C63.2495 111.174 62.8169 111.213 61.6541 111.646C59.8637 112.247 58.0024 112.506 56.2929 113.274C55.015 113.854 54.5178 114.057 54.2306 113.708C53.6286 112.977 56.4681 111.132 59.4131 110.641C61.6226 110.273 63.8504 109.095 65.9044 108.936ZM137.421 109.482C138.317 109.482 139.044 110.209 139.044 111.105C139.044 112.001 138.317 112.728 137.421 112.728C136.524 112.728 135.798 112.001 135.798 111.105C135.798 110.209 136.524 109.482 137.421 109.482ZM122.327 110.67C123.224 110.67 123.95 111.397 123.95 112.293C123.95 113.189 123.224 113.916 122.327 113.916C121.431 113.916 120.705 113.189 120.705 112.293C120.705 111.397 121.431 110.67 122.327 110.67ZM158.489 113.428C169.35 123.77 181.255 135.676 191.076 145.47C191.062 150.594 191.033 160.843 191.033 160.843L153.533 196.483C146.743 192.338 140.995 187.155 135.701 177.951C136.298 177.436 136.823 177.108 137.276 176.545L135.32 177.714C128.402 166.651 125.468 144.608 137.218 126.937L125.346 127.372L127.283 123.329L140.208 122.624L145.434 117.017C145.434 117.017 147.09 116.71 148.462 116.394C149.823 116.079 152.602 115.284 154.639 114.626C156.677 113.967 158.411 113.428 158.489 113.428ZM70.8213 116.292C70.8213 116.292 81.9825 122.358 88.18 134.506C68.1468 151.738 60.5955 171.805 58.8914 192.692C47.9879 182.493 42.478 176.852 32.6264 166.948L32.9838 152.169L70.8213 116.292ZM112.957 118.219C110.07 124.393 107.585 131.156 105.36 138.404L102.254 137.486C102.254 137.486 104.263 136.646 105.157 136.114L103.544 133.516L106.601 132.26L104.795 130.057L107.896 128.261L106.345 126.314L109.185 124.894L107.422 122.866L110.402 121.204L108.847 119.263L112.957 118.219ZM113.909 118.234C113.909 118.234 114.309 118.31 114.778 118.403C114.891 118.36 114.219 120.021 114.29 120.079C115.375 120.302 115.438 120.242 115.764 120.34L116.589 118.63L117.947 118.886C115.209 125.065 112.281 131.825 110.6 139.142L109.002 138.809C109.002 138.809 109.469 137.266 109.47 137.061C109.282 137.021 108.382 136.642 108.103 136.53C108.007 136.771 107.437 138.558 107.437 138.558L106.171 138.524C108.243 130.534 111.853 121.674 113.909 118.234ZM119.111 118.471L121.946 120.818L118.729 122.069L120.395 124.286L116.985 125.517L118.942 127.821L115.566 129.067L117.58 131.854L114.068 133.037L116.285 135.486L113.117 136.969L115.015 138.848C115.015 138.848 113.038 139.5 112.924 139.529C112.606 139.61 111.277 139.283 111.277 139.283C113.279 132.152 115.754 124.924 119.111 118.471ZM50.1348 119.659C49.3519 120.167 49.7985 121.273 48.8162 122.219C48.6595 122.388 48.646 122.777 48.5844 123.117C48.5378 123.375 47.7617 126.46 47.7617 126.46C47.7617 126.46 47.9578 126.224 48.2684 125.24C48.5335 124.4 48.7637 122.807 48.9074 122.54C49.6313 122.319 49.7412 119.958 50.4754 120.281C50.8994 120.468 50.8184 120.854 50.5792 121.76C50.0566 123.569 49.8514 124.332 50.7482 123.098C52.0878 121.485 52.2186 120.03 50.7096 119.721C50.5505 119.691 50.2272 119.662 50.1348 119.659ZM70.3914 120.33L35.3505 153.231L35.2442 165.509L47.4397 177.869L56.0949 186.258C59.2368 167.469 66.4448 149.544 84.1905 134.032C81.4714 129.66 76.8133 124.153 70.3914 120.33ZM164.845 120.668C144.256 130.345 139.521 150.19 145.897 168.156C155.709 155.537 163.41 143.681 164.845 120.668ZM91.5657 121.673L100.916 124.682L97.3954 136.689L88.9769 134.134L88.1172 132.009L91.5657 121.673ZM163.811 121.987C162.917 138.043 156.862 153.725 146.327 166.031C141 152.89 144.204 131.879 163.811 121.987ZM113.45 122.074L112.861 123.566L114.155 123.933L114.706 122.417L113.45 122.074ZM112.156 125.599L111.624 127.116L112.953 127.565L113.45 126.024L112.156 125.599ZM167.313 125.875C164.431 148.147 152.398 168.415 139.686 178.743C143.737 185.314 148.5 189.54 153.34 193.068L189.149 158.766L189.009 147.324L167.313 125.875ZM72.6856 131.787C72.4657 132.601 72.3877 133.015 72.3877 133.015C72.3877 133.015 72.8001 132.634 73.8887 132.038C80.9246 128.529 78.6544 133.865 75.3392 135.839C74.5984 136.234 73.8368 136.702 73.8368 136.702C73.8368 136.702 74.5409 136.862 75.3038 137.003C79.5739 137.891 78.6649 140.388 74.2114 139.999C73.553 139.942 72.7793 139.817 72.779 139.854C72.779 139.891 73.0459 140.829 73.3542 141.605C74.8555 145.387 72.0549 145.681 70.2127 143.277C69.9562 142.942 69.375 142.018 69.375 142.018C69.375 142.018 69.1934 142.717 69.0825 143.393C67.491 149.319 63.5647 149.169 65.0302 143.156C65.2137 142.535 65.437 141.423 65.437 141.423C65.437 141.423 64.5542 141.956 63.5934 142.385C58.5083 144.655 57.6829 142.319 62.3021 138.902C63.6165 137.93 64.0619 137.548 64.0619 137.548C63.2439 137.486 62.4895 137.36 61.8234 137.193C58.1384 136.268 57.156 134.066 63.0604 134.169C63.9325 134.187 64.8208 134.244 64.8208 134.244C64.8208 134.244 64.5297 132.978 64.2221 132.024C62.7977 127.606 65.6683 127.08 68.0899 131.038C68.6051 131.88 68.7529 131.885 68.7529 131.885C68.6785 131.888 68.905 130.378 69.4918 128.982C72.4234 123.552 73.5713 128.508 72.6856 131.787ZM136.015 127.391C133.556 131.737 131.411 136.057 130.388 140.562L120.82 140.398C121.482 136.404 123.172 132.249 125.192 127.855C129.086 127.749 132.599 127.577 136.015 127.391ZM110.755 129.318L110.204 130.917L111.59 131.342L112.093 129.787L110.755 129.318ZM39.2047 132.318C38.1797 134.981 37.8367 137.948 37.2679 140.326C37.028 141.704 37.2724 142.278 38.0987 142.586C39.2742 143.025 40.9705 142.427 41.9191 141.07C42.4541 140.304 42.8424 138.723 42.9238 135.931L43.0155 133.443C41.5613 133.173 40.5682 132.783 39.2047 132.318ZM109.461 132.666L109.002 134.134L110.34 134.631L110.852 133.149L109.461 132.666ZM171.428 133.216C173.056 133.256 173.359 133.402 174.833 134.274L177.678 137.201C176.932 137.915 176.466 138.918 176.466 140.031C176.466 142.197 178.222 143.953 180.388 143.953C181.46 143.953 183.141 142.823 183.141 142.823L187.649 147.492C185.021 148.644 182.447 145.995 181.479 144.947C181.252 144.701 181.194 144.532 181.194 144.532C181.194 144.532 181.234 144.661 181.14 145.179C180.762 147.258 178.711 153.394 176.751 153.067C174.542 152.699 176.791 143.928 176.815 144.13C175.296 145.735 167.898 147.444 168.417 145.652C169.446 142.092 174.98 140.72 175.708 140.101C172.765 138.331 169.035 133.423 171.428 133.216ZM39.5621 133.331C40.4992 133.397 41.1421 133.51 41.7791 133.776C42.0757 133.856 42.0891 134.104 42.122 134.337C42.1276 135.388 42.3912 138.473 41.4168 138.505C40.3345 138.482 39.3186 138.714 38.6058 139.258C38.0327 139.696 37.8426 139.38 37.9973 138.259C38.1471 137.172 38.6871 134.889 38.9198 133.965C38.9567 133.584 39.2599 133.314 39.5621 133.331ZM68.7976 133.371C66.6323 133.371 64.8757 135.127 64.8757 137.293C64.8757 139.458 66.6323 141.215 68.7976 141.215C70.9628 141.215 72.7194 139.458 72.7194 137.293C72.7194 135.127 70.9628 133.371 68.7976 133.371ZM68.7976 134.742C70.205 134.742 71.3477 135.885 71.3477 137.293C71.3477 138.7 70.205 139.838 68.7976 139.838C67.3901 139.838 66.2474 138.7 66.2474 137.293C66.2474 135.885 67.3901 134.742 68.7976 134.742ZM89.0334 134.79C98.0227 150.307 96.9812 171.605 86.3832 187.099L97.777 186.302L96.2797 189.219L84.1325 190.402C82.2766 192.101 80.5873 194.043 78.7616 195.86L78.7423 196.502C74.578 197.469 70.4099 198.582 66.1653 200.112C63.9247 197.912 59.7103 193.514 59.7379 193.403L60.0089 191.979C88.8978 177.241 80.4467 147.682 78.4128 145.251C81.5118 141.531 85.2111 138.029 89.0334 134.79ZM169.211 137.611C170.381 137.611 171.327 138.562 171.327 139.732C171.327 140.902 170.381 141.852 169.211 141.852C168.041 141.852 167.091 140.902 167.091 139.732C167.091 138.562 168.041 137.611 169.211 137.611ZM178.63 138.181L182.18 141.838C181.719 142.292 181.086 142.577 180.388 142.577C178.98 142.577 177.837 141.439 177.837 140.031C177.837 139.305 178.142 138.646 178.63 138.181ZM56.6986 138.635C57.8688 138.635 58.8141 139.581 58.8141 140.751C58.8141 141.921 57.8688 142.871 56.6986 142.871C55.5287 142.871 54.5783 141.921 54.5783 140.751C54.5783 139.581 55.5287 138.635 56.6986 138.635ZM40.9338 139.524C41.926 139.856 41.6948 140.783 40.4128 141.599C39.5833 142.126 38.8235 142.243 38.0939 141.852C36.7112 141.112 39.58 139.041 40.9338 139.524ZM57.312 144.711L44.5466 157.061C45.3499 155.009 45.3794 152.963 45.4401 150.913C49.2814 151.309 50.8897 149.36 50.328 145.349C52.8091 145.497 55.3804 145.235 57.312 144.711ZM77.7667 146.122C83.6858 162.999 78.5449 180.86 60.0313 191.204C60.7935 175.032 67.5816 159.569 77.7667 146.122ZM94.6279 147.6C104.788 150.259 116.353 151.499 128.36 151.507C128.45 156.076 128.67 160.908 129.606 165.572C119.378 162.896 107.953 161.652 95.4731 161.872C95.991 157.043 95.162 151.566 94.6279 147.6ZM169.965 150.097L159.146 162.746L159.6 155.839C163.244 156.303 164.541 154.381 164.005 150.585C165.992 150.831 167.977 150.482 169.965 150.097ZM64.837 150.797L63.9821 155.849C61.823 155.908 59.7036 156.674 59.7318 161.495L53.2791 161.418L64.837 150.797ZM183.904 151.729C185.074 151.729 186.019 152.679 186.019 153.85C186.019 155.02 185.074 155.97 183.904 155.97C182.734 155.97 181.783 155.02 181.783 153.85C181.783 152.679 182.734 151.729 183.904 151.729ZM55.0227 152.372C56.1928 152.372 57.143 153.322 57.143 154.492C57.143 155.662 56.1928 156.607 55.0227 156.607C53.8526 156.607 52.9023 155.662 52.9023 154.492C52.9023 153.322 53.8526 152.372 55.0227 152.372ZM179.175 154.545L178.045 162.196C175.097 161.937 172.637 162.391 173.394 167.576C170.9 167.332 167.436 167.921 165.115 168.122L179.175 154.545ZM168.612 155.931C169.782 155.931 170.733 156.881 170.733 158.052C170.733 159.222 169.782 160.167 168.612 160.167C167.442 160.167 166.492 159.222 166.492 158.052C166.492 156.881 167.442 155.931 168.612 155.931ZM39.4897 157.573C40.6598 157.573 41.61 158.524 41.61 159.694C41.61 160.864 40.6598 161.809 39.4897 161.809C38.3196 161.809 37.3742 160.864 37.3742 159.694C37.3742 158.524 38.3196 157.573 39.4897 157.573ZM46.5172 160.08C49.2235 160.687 47.9715 166.996 47.3624 168.711C47.3162 168.757 54.913 164.731 55.3656 166.509C55.6624 170.072 49.0771 172.556 49.0771 172.556C49.0771 172.556 53.5155 176.411 53.6413 178.835C53.6521 180.403 51.7855 180.112 49.362 178.125C48.3262 177.107 47.5246 176.344 46.8118 175.637C47.6443 174.918 48.169 173.853 48.169 172.667C48.169 170.502 46.4125 168.745 44.2472 168.745C43.0513 168.745 41.9818 169.282 41.2623 170.126C40.7002 169.585 40.0642 168.954 39.2096 168.146C37.8096 166.837 36.827 165.797 36.9685 165.325C38.8156 164.025 42.4896 167.519 42.8175 167.837C42.5423 167.156 44.574 160.442 46.5172 160.08ZM42.8175 167.837C42.8322 167.873 42.852 167.895 42.8803 167.895C42.8803 167.895 42.8328 167.852 42.8175 167.837ZM158.185 165.007C159.472 164.989 159.392 167.919 158.933 169.44C158.62 170.601 158.31 171.551 158.31 171.551C158.31 171.551 159.395 170.704 159.875 170.479C163.378 168.838 164.684 170.696 162.918 172.85C162.069 173.959 160.912 174.204 159.972 175.135C161.311 175.196 162.848 175.493 164.005 176.173C164.904 176.711 165.61 177.363 165.608 177.767C165.605 178.673 163.38 179.161 161.3 178.926C160.415 178.946 158.75 178.472 158.75 178.472C158.75 178.472 159.44 179.634 159.692 180.327C160.468 182.483 160.196 185.007 159.073 185.002C157.194 184.5 156.277 182.411 155.543 180.912C154.94 182.583 154.355 184.373 153.012 185.616C151.68 186.848 150.997 185.825 151.065 183.737C151.093 182.906 151.703 180.429 151.703 180.429C143.812 183.092 144.398 179.488 150.556 176.332C146.763 174.523 144.459 172.896 150.911 172.527C150.74 172.372 149.613 168.917 150.819 168.107C151.939 167.355 154.327 169.938 154.441 170.064C154.393 169.808 155.07 167.785 156.204 166.388C157.074 165.404 157.719 165.013 158.185 165.007ZM150.911 172.527C150.919 172.534 150.927 172.535 150.93 172.527C150.93 172.527 150.912 172.527 150.911 172.527ZM185.455 170.244C184.081 170.37 183.226 171.589 182.59 172.652C182.461 172.868 182.223 172.944 182.135 173.229C181.565 175.063 181.068 177.259 180.764 179.992C181.635 180.35 183.599 180.954 184.467 180.629C184.711 180.527 184.636 179.895 184.718 179.687C186.088 176.238 186.765 173.659 186.766 172.074C186.766 170.796 186.326 170.165 185.455 170.244ZM44.2568 170.088C45.6642 170.088 46.807 171.231 46.807 172.638C46.807 173.447 46.4294 174.167 45.841 174.633C44.1986 172.995 43.3577 172.137 42.2572 171.059C42.7244 170.467 43.4457 170.088 44.2568 170.088ZM185.941 171.302C186.285 172.138 185.178 173.047 183.745 173.041C182.893 173.038 182.615 173.158 182.995 172.419C183.446 171.52 185.281 169.701 185.941 171.302ZM166.714 170.711C167.884 170.711 168.835 171.661 168.835 172.831C168.835 174.001 167.884 174.947 166.714 174.947C165.544 174.947 164.594 174.001 164.594 172.831C164.594 171.661 165.544 170.711 166.714 170.711ZM54.9454 170.86C56.1155 170.86 57.0657 171.806 57.0657 172.976C57.0657 174.146 56.1155 175.096 54.9454 175.096C53.7753 175.096 52.8299 174.146 52.8299 172.976C52.8299 171.806 53.7753 170.86 54.9454 170.86ZM155.185 171.72C153.02 171.72 151.263 173.477 151.263 175.642C151.263 177.807 153.02 179.564 155.185 179.564C157.35 179.564 159.107 177.807 159.107 175.642C159.107 173.477 157.35 171.72 155.185 171.72ZM102.771 172.247C101.74 176.766 100.153 181.086 98.1489 185.36C94.368 185.588 90.2815 185.764 87.5859 186.147C92.0751 178.285 92.1836 176.436 93.8454 172.271L102.771 172.247ZM109.267 172.884C110.329 173.01 111.493 173.17 112.542 173.372C110.612 180.165 108.06 187.139 104.766 193.851L102.771 193.542L101.824 192.373L104.993 191.107L102.525 188.586L106.616 187.35L104.099 184.867L108.142 183.858L105.978 181.23L109.605 179.815L107.302 176.84L111.165 175.777L109.267 172.884ZM155.185 173.092C156.593 173.092 157.735 174.235 157.735 175.642C157.735 177.05 156.593 178.187 155.185 178.187C153.778 178.187 152.635 177.05 152.635 175.642C152.635 174.235 153.778 173.092 155.185 173.092ZM113.266 173.478L114.614 173.696L114.199 175.14L115.735 175.468L116.232 173.908C116.232 173.908 117.467 174.022 117.599 174.121C115.99 180.678 110.301 194.402 110.228 194.329L108.765 194.112L109.151 192.725L107.789 192.532V192.518L107.132 194.025L105.679 193.904C109.201 185.866 111.599 179.696 113.266 173.478ZM184.855 174C185.935 173.995 185.87 174.552 185.087 176.589C184.352 178.502 184.076 179.269 183.719 179.517C182.868 180.121 181.034 179.614 181.183 178.734C181.665 175.874 181.836 174.655 182.574 174.267C183.343 174.115 184.093 174.003 184.855 174ZM118.686 174.237L122.202 174.918L119.26 176.666L121.13 178.849L117.517 180.39L119.71 182.66L116.222 184.085L118.343 186.582L114.725 188.108L117.188 190.243L113.122 191.528L114.662 193.894L113.131 194.749L111.243 194.455C114.377 187.142 116.392 181.126 118.686 174.237ZM127.326 175.985L134.214 177.859L135.59 180.317L132.359 191.228L123.182 188.533L127.326 175.985ZM113.638 177.038L112.982 178.83L114.498 179.144L115.083 177.299L113.638 177.038ZM112.305 181.153L111.648 182.945L113.073 183.225L113.745 181.414L112.305 181.153ZM110.963 184.771L110.291 186.553L111.677 186.838L112.339 185.051L110.963 184.771ZM175.672 188.05C175.673 188.05 174.969 188.56 174.784 188.785C174.937 189.195 175.381 189.823 175.315 190.235C175.255 190.546 174.909 190.796 174.389 191.349C173.092 192.858 172.636 192.694 173.389 191.083C173.637 190.577 173.747 190.108 173.747 190.108C173.447 190.527 173.221 191.025 173.018 191.419C172.59 192.243 172.191 193.021 172.191 193.021C173.017 193.306 173.566 193.92 174.099 194.318C174.099 194.318 174.37 193.588 174.558 192.89C174.819 191.916 175.335 191.515 175.968 191.18C176.367 190.968 176.748 190.583 176.748 190.583C176.052 189.873 175.972 188.857 175.672 188.05ZM109.528 188.49L108.818 190.388L110.199 190.726L110.967 188.789L109.528 188.49ZM31.6025 193.262C31.4764 200.82 31.727 205.797 31.4624 213.948L51.9267 240.469L48.7341 241.541C48.7341 241.541 48.6994 241.909 48.5265 241.957C44.1534 243.159 37.0603 244.357 37.0603 244.357C42.3358 256.403 45.7571 271.466 43.3971 286.513L96.3618 286.372L31.6025 193.262ZM143.618 206.07L141.792 207.901C114.856 193.323 77.7573 193.38 50.6854 211.031L48.4782 209.413C78.0256 190.483 114.377 190.601 143.618 206.07ZM32.5926 195.913L94.9322 285.464L87.61 285.571L32.6457 213.668L32.5926 195.913ZM166.376 197.531C166.376 197.531 164.576 197.998 163.063 198.483C158.731 199.87 156.705 202.375 157.103 205.853C157.22 206.881 157.487 206.866 159.252 205.752C163.383 203.144 163.641 203.029 168.786 201.521C169.184 201.404 169.762 201.492 169.762 201.492L169.535 205.554C160.958 205.521 161.427 212.334 163.894 215.875C163.03 217.513 161.14 223.23 167.361 225.405C170.464 226.023 173.751 223.501 173.65 223.371C179.374 226.078 186.017 221.54 180.837 213.678C182.784 210.249 181.411 207.704 179.552 205.515C179.552 205.515 179.866 205.542 182.576 206.041C186.685 206.8 188.256 206.665 188.256 206.665C188.261 202.966 185.197 201.313 178.808 200.811C174.283 201.449 166.376 197.499 166.376 197.531ZM97.3664 197.961C97.6759 197.96 97.9817 197.96 98.2889 197.966L97.9895 204.283L91.0296 204.602L90.5756 198.309C92.9726 198.143 95.2005 197.969 97.3664 197.961ZM105.708 198.116L113.175 199.024L112.045 204.931L105.167 204.192L105.708 198.116ZM166.115 198.183C166.882 198.166 166.715 198.963 165.816 199.14C164.473 199.402 161.031 201.406 161.029 201.926C161.028 202.262 161.199 202.214 162.459 201.54C163.089 201.203 164.403 200.63 165.376 200.26C166.349 199.89 167.462 199.445 167.849 199.27C169.006 198.748 169.58 199.109 169.163 200.096C168.887 200.749 168.778 200.8 166.096 201.651C163.669 202.421 163.223 202.62 161.681 203.607C161.106 203.976 160.087 204.564 159.416 204.911C157.831 205.732 157.509 205.735 157.513 204.631C157.426 201.359 161.046 198.904 165.951 198.198C166.011 198.189 166.064 198.185 166.115 198.183ZM101.646 198.951C102.579 198.951 103.336 199.708 103.336 200.642C103.336 201.575 102.579 202.332 101.646 202.332C100.712 202.332 99.9553 201.575 99.9553 200.642C99.9553 199.708 100.712 198.951 101.646 198.951ZM83.1713 199.4L83.7268 205.133L76.8828 206.892L75.3179 200.97C77.9362 200.329 80.553 199.878 83.1713 199.4ZM171.336 199.835C173.213 200.121 173.064 204.417 172.104 205.162C170.628 206.226 169.721 204.002 170.38 201.052C170.566 200.165 170.908 199.855 171.336 199.835ZM87.0546 200.067C87.9882 200.067 88.7451 200.824 88.7451 201.757C88.7451 202.691 87.9882 203.448 87.0546 203.448C86.1211 203.448 85.3641 202.691 85.3641 201.757C85.3641 200.824 86.1211 200.067 87.0546 200.067ZM120.487 200.56L128.225 202.67L126.331 208.659L119.072 206.616L120.487 200.56ZM116.276 200.675C117.209 200.675 117.966 201.432 117.966 202.366C117.966 203.3 117.209 204.056 116.276 204.056C115.342 204.056 114.585 203.3 114.585 202.366C114.585 201.432 115.342 200.675 116.276 200.675ZM179.571 201.178C182.905 201.213 187.301 202.885 187.309 205.462C187.241 206.194 180.326 205.222 177.132 203.936C175.999 203.479 174.618 202.091 174.621 201.511C174.622 201.166 175.297 201.191 175.572 201.526C176.022 202.072 177.614 202.642 181.272 203.564C184.081 204.271 184.361 204.299 184.363 203.873C184.364 203.485 182.703 202.95 180.904 202.651C180 202.503 179.156 202.23 177.765 202.11C177.117 202.108 176.959 201.701 177.499 201.424C178.088 201.249 178.802 201.17 179.571 201.178ZM173.684 202.511C174.525 202.905 174.828 203.691 175.292 204.105C174.715 204.378 174.458 204.654 173.524 204.723C173.541 204.106 173.373 203.37 173.684 202.511ZM72.3572 202.974C73.2907 202.974 74.0477 203.731 74.0477 204.665C74.0477 205.599 73.2907 206.355 72.3572 206.355C71.4235 206.355 70.6667 205.599 70.6667 204.665C70.6667 203.731 71.4235 202.974 72.3572 202.974ZM67.8074 203.453L69.6331 209.306L63.0934 212.151L60.7751 206.351C63.0358 205.162 65.5087 204.299 67.8074 203.453ZM98.0474 204.409C98.0474 204.409 103.257 204.416 105.056 204.438L104.635 211.045L98.1344 211.094L98.0474 204.409ZM91.0876 204.771L91.4498 211.369L85.1902 212.209L83.9538 205.573L91.0876 204.771ZM130.664 204.829C131.597 204.829 132.354 205.586 132.354 206.52C132.354 207.453 131.597 208.21 130.664 208.21C129.73 208.21 128.973 207.453 128.973 206.52C128.973 205.586 129.73 204.829 130.664 204.829ZM175.954 204.984C179.765 205 183.4 209.385 179.634 213.977C185.811 218.729 179.096 226.718 173.635 222.062C165.828 229.731 161.464 219.318 164.695 216.556C159.924 208.716 165.786 203.761 171.834 207.22C172.948 205.64 174.462 204.977 175.954 204.984ZM112.156 205.172L119.024 206.698L117.642 213.224L110.934 211.862L112.156 205.172ZM134.885 205.331L141.164 208.452L136.295 213.137L132.678 211.335L134.885 205.331ZM94.6279 206.07C95.5615 206.07 96.3183 206.827 96.3183 207.761C96.3183 208.695 95.5615 209.451 94.6279 209.451C93.6943 209.451 92.9374 208.695 92.9374 207.761C92.9374 206.827 93.6943 206.07 94.6279 206.07ZM108.195 206.283C109.129 206.283 109.886 207.04 109.886 207.973C109.886 208.907 109.129 209.664 108.195 209.664C105.707 209.274 106.376 206.338 108.195 206.283ZM76.9215 207.234L78.4525 213.76L72.0915 215.909L69.8167 209.553L76.9215 207.234ZM81.2925 207.698C82.226 207.698 82.983 208.455 82.983 209.389C82.983 210.322 82.226 211.079 81.2925 211.079C80.3589 211.079 79.602 210.322 79.602 209.389C79.602 208.455 80.3589 207.698 81.2925 207.698ZM175.451 210.707C174.973 211.302 174.344 212.002 174.344 212.002C172.762 211.35 171.228 211.61 170.201 212.314C170.201 212.314 169.111 211.445 168.115 210.64C166.389 209.245 165.813 208.926 165.811 209.509C165.811 209.63 166.397 210.227 167.11 210.838C169.057 212.503 169.455 213.103 169.455 213.103C168.987 214.614 168.992 215.799 169.885 217.069C169.885 217.069 169.923 217.235 169.239 217.956C167.999 219.264 166.72 221.284 167.014 221.58C167.38 221.949 168.417 221.065 169.717 219.308C170.644 218.056 170.923 218.029 170.923 218.029C172.503 218.455 173.379 218.841 174.96 217.537C174.96 217.537 175.556 217.718 176.747 218.701C178.603 220.233 179.27 220.563 179.471 220.043C179.636 219.62 179.391 219.336 177.819 218.14C176.796 217.361 175.657 216.449 175.657 216.449C175.992 215.9 176.229 213.95 175.085 212.615C175.085 212.615 175.13 212.703 176.822 210.509C177.948 209.05 178.143 208.866 177.77 208.553C177.273 207.902 175.619 210.5 175.451 210.707ZM126.394 208.838L132.591 211.441L130.374 217.918L124.39 215.474L126.394 208.838ZM58.2104 209.273C59.1441 209.273 59.9009 210.03 59.9009 210.963C59.9009 211.897 59.1441 212.654 58.2104 212.654C57.277 212.654 56.5199 211.897 56.5199 210.963C56.5199 210.03 57.277 209.273 58.2104 209.273ZM121.603 209.447C122.536 209.447 123.293 210.204 123.293 211.137C123.293 212.071 122.536 212.827 121.603 212.827C120.669 212.827 119.912 212.071 119.912 211.137C119.912 210.204 120.669 209.447 121.603 209.447ZM53.8828 209.91L55.9114 214.933L51.2988 211.494L53.8828 209.91ZM104.737 211.205L110.909 211.934L109.934 217.817L104.611 217.334L104.737 211.205ZM97.9991 211.219L97.9364 217.266L92.0729 217.517L91.5754 211.48L97.9991 211.219ZM67.8316 212.32C68.765 212.32 69.522 213.077 69.522 214.011C69.522 214.945 68.765 215.701 67.8316 215.701C66.8979 215.701 66.1411 214.945 66.1411 214.011C66.1411 213.077 66.8979 212.32 67.8316 212.32ZM63.1562 212.441L65.5422 218.517L61.8425 220.304L56.8822 215.61L63.1562 212.441ZM85.2241 212.518L86.1804 218.3L80.0657 219.812L78.5829 213.929L85.2241 212.518ZM172.621 212.576C173.952 212.576 175.031 213.656 175.031 214.987C175.031 216.317 173.952 217.397 172.621 217.397C171.29 217.397 170.211 216.317 170.211 214.987C170.211 213.656 171.29 212.576 172.621 212.576ZM101.076 212.76C102.009 212.76 102.766 213.517 102.766 214.45C102.766 215.384 102.009 216.141 101.076 216.141C100.142 216.141 99.3853 215.384 99.3853 214.45C99.3853 213.517 100.142 212.76 101.076 212.76ZM117.729 213.383L124.25 215.494L122.057 220.715L116.425 219.189L117.729 213.383ZM88.832 213.6C89.7656 213.6 90.5225 214.357 90.5225 215.291C90.5225 216.224 89.7656 216.981 88.832 216.981C87.8984 216.981 87.1415 216.224 87.1415 215.291C87.1415 214.357 87.8984 213.6 88.832 213.6ZM113.624 214.223C114.557 214.223 115.314 214.98 115.314 215.914C115.314 216.848 114.557 217.604 113.624 217.604C112.69 217.604 111.933 216.848 111.933 215.914C111.933 214.98 112.69 214.223 113.624 214.223ZM72.222 216.204L74.4679 221.372L68.3339 224.023L65.6629 218.754L72.222 216.204ZM76.5689 216.513C77.5024 216.513 78.2593 217.27 78.2593 218.203C78.2593 219.137 77.5024 219.894 76.5689 219.894C75.6352 219.894 74.8784 219.137 74.8784 218.203C74.8784 217.27 75.6352 216.513 76.5689 216.513ZM99.168 218.073C109.238 218.052 118.329 220.157 125.626 223.178L123.453 225.216C99.7831 217.083 84.3044 220.747 68.4305 227.708L66.827 225.728C78.0469 220.24 89.0978 218.094 99.168 218.073ZM125.945 218.136C126.879 218.136 127.635 218.893 127.635 219.826C127.635 220.76 126.879 221.517 125.945 221.517C125.011 221.517 124.255 220.76 124.255 219.826C124.255 218.893 125.011 218.136 125.945 218.136ZM64.2623 221.845C65.6204 221.925 65.7502 224.459 65.1172 223.729L63.6054 221.98C63.8509 221.875 64.0683 221.834 64.2623 221.845ZM127.539 222.893C127.489 224.815 125.669 237.695 119.526 246.55C119.153 242.071 118.072 236.716 116.865 233.142C116.865 233.142 123.474 227.035 127.539 222.893ZM48.9611 242.411L80.9254 285.513L77.5687 285.489C76.8672 282.324 75.8523 279.085 73.8593 276.664C72.241 274.699 70.7918 273.218 67.8895 271.897C66.1431 271.103 65.9182 271.272 65.8078 269.931C65.2806 262.393 59.1762 257.652 54.501 255.847C54.0498 251.291 51.9928 246.808 46.836 243.034L48.9611 242.411ZM45.8487 243.443C48.7692 245.45 51.9701 247.191 53.6947 255.104C53.8243 256.759 53.9258 256.583 55.2255 257.069C60.3197 258.563 64.7513 264.685 65.1461 270.038C65.142 271.652 65.6685 271.795 67.6577 272.631C70.1005 273.657 72.6364 275.828 74.0718 277.964C76.2069 281.035 76.9606 285.685 76.7766 285.464L75.0185 285.474C73.7643 277.589 68.8034 274.444 63.5561 272.971C63.9646 261.839 55.3093 258.365 52.2865 257.842C52.4641 249.824 47.2762 246.517 43.9284 243.826C44.5527 243.581 45.8487 243.443 45.8487 243.443ZM40.6782 244.549C43.2927 245.403 45.2742 249.046 45.0731 250.723C48.5217 251.158 52.1449 254.491 51.3496 257.963C51.0945 258.111 50.6919 258.14 50.2931 257.742C51.2173 251.005 41.1609 254.34 45.1793 259.214L43.3826 260.388C41.9375 253.646 40.1583 249.826 38.2273 244.957C38.9317 244.771 40.6782 244.549 40.6782 244.549ZM49.0046 258.673C49.8978 258.673 50.6178 259.398 50.6178 260.291C50.6178 261.184 49.8978 261.909 49.0046 261.909C48.1114 261.909 47.3866 261.184 47.3866 260.291C47.3866 259.398 48.1114 258.673 49.0046 258.673ZM57.638 265.944C61.4781 267.031 62.7208 270.918 62.5943 272.332L61.7551 272.313C60.405 266.154 53.3855 269.505 56.3158 274.416C52.5634 275.803 52.8595 279.266 53.9643 280.636C55.4894 282.526 59.3773 282.467 60.5626 279.557C64.2108 284.277 69.2439 278.981 64.8032 274.583C68.44 275.922 69.0235 280.795 68.4769 282.317C70.165 282.892 72.11 285.572 71.8501 285.556L44.5997 285.561C44.5997 285.561 45.9189 274.565 44.5176 266.266C46.3307 266.702 47.5465 267.14 49.6325 264.691C53.0083 267.486 55.4345 265.377 55.2593 262.962C54.9999 261.273 54.1273 260.434 52.6802 259.542C55.6348 258.816 57.8691 263.927 57.638 265.944ZM60.6785 273.691C61.5987 273.691 62.3448 274.437 62.3448 275.357C62.3448 276.278 61.5988 277.024 60.6785 277.024C59.7583 277.024 59.0122 276.278 59.0122 275.357C59.0122 274.437 59.7583 273.691 60.6785 273.691Z" fill="black"/>
</svg>
