<svg width="226" height="314" viewBox="0 0 226 314" fill="none" xmlns="http://www.w3.org/2000/svg">
<path d="M214.094 1.23755H12.125C6.25426 1.23755 1.49512 5.99669 1.49512 11.8674V302.419C1.49512 308.289 6.25426 313.049 12.125 313.049H214.094C219.964 313.049 224.724 308.289 224.724 302.419V11.8674C224.724 5.99669 219.964 1.23755 214.094 1.23755Z" fill="white" stroke="black" stroke-width="0.996733"/>
<path d="M90.7381 157.274C100.659 147.593 107.174 137.037 113.405 126.885C118.87 138.055 126.711 147.827 135.191 157.274C126.118 166.643 119.086 176.66 113.432 187.192C107.165 176.396 100.566 166.62 90.7381 157.274Z" fill="#D40000"/>
<path d="M197.724 250.276C201.788 246.31 204.457 241.985 207.009 237.827C209.248 242.403 212.46 246.406 215.934 250.276C212.217 254.113 209.337 258.217 207.02 262.531C204.453 258.109 201.75 254.104 197.724 250.276Z" fill="#D40000"/>
<path d="M9.34406 64.5885C13.408 60.6226 16.077 56.2984 18.6295 52.1399C20.8679 56.7156 24.0802 60.7188 27.554 64.5885C23.8372 68.4263 20.9567 72.53 18.6406 76.8441C16.0731 72.4217 13.3701 68.4171 9.34406 64.5885Z" fill="#D40000"/>
<path d="M8.73047 47.3034V44.5663H11.3916L17.0558 15.2949H20.2786L26.5214 44.5663H28.6693V47.3034H21.3514V44.5663H23.3282L22.5406 40.0806H15.155L14.5848 44.5663H16.5616V47.3034H8.73047ZM21.9086 36.8874L18.7001 21.217L15.6933 36.8874H21.9086Z" fill="#D40000"/>
<path d="M217.488 266.983V269.72H214.827L209.163 298.991H205.94L199.697 269.72H197.55V266.983H204.867V269.72H202.891L203.678 274.206H211.064L211.634 269.72H209.657V266.983H217.488ZM204.31 277.399L207.519 293.069L210.526 277.399H204.31Z" fill="#D40000"/>
</svg>
