<svg width="225" height="314" viewBox="0 0 225 314" fill="none" xmlns="http://www.w3.org/2000/svg">
<path d="M213.234 1.23779H11.2656C5.39488 1.23779 0.635742 5.99693 0.635742 11.8677V302.419C0.635742 308.29 5.39488 313.049 11.2656 313.049H213.234C219.105 313.049 223.864 308.29 223.864 302.419V11.8677C223.864 5.99693 219.105 1.23779 213.234 1.23779Z" fill="white" stroke="black" stroke-width="0.99" stroke-miterlimit="3.8"/>
<path d="M33.6455 60.0274C43.5662 50.3459 50.0816 39.79 56.3126 29.6384C61.7769 40.8085 69.6185 50.5807 78.0988 60.0274C69.0256 69.3959 61.9936 79.4137 56.3397 89.9451C50.0721 79.1495 43.4737 69.3735 33.6455 60.0274Z" fill="#D40000"/>
<path d="M33.6455 160.276C43.5662 150.594 50.0816 140.039 56.3126 129.887C61.7769 141.057 69.6185 150.829 78.0988 160.276C69.0256 169.644 61.9937 179.662 56.3398 190.194C50.0722 179.398 43.4737 169.622 33.6455 160.276Z" fill="#D40000"/>
<path d="M33.6455 258.875C43.5662 249.193 50.0816 238.637 56.3126 228.486C61.7769 239.656 69.6185 249.428 78.0988 258.875C69.0256 268.243 61.9937 278.261 56.3398 288.792C50.0722 277.997 43.4737 268.221 33.6455 258.875Z" fill="#D40000"/>
<path d="M90.0795 110.152C100 100.47 106.516 89.9143 112.747 79.7627C118.211 90.9327 126.053 100.705 134.533 110.152C125.46 119.52 118.428 129.538 112.774 140.069C106.506 129.274 99.9077 119.498 90.0795 110.152Z" fill="#D40000"/>
<path d="M145.178 60.0274C155.099 50.3459 161.614 39.79 167.845 29.6384C173.31 40.8085 181.151 50.5807 189.632 60.0274C180.558 69.3959 173.527 79.4137 167.873 89.9451C161.605 79.1495 155.007 69.3735 145.178 60.0274Z" fill="#D40000"/>
<path d="M145.178 160.276C155.099 150.594 161.614 140.039 167.845 129.887C173.31 141.057 181.151 150.829 189.632 160.276C180.558 169.644 173.527 179.662 167.873 190.194C161.605 179.398 155.007 169.622 145.178 160.276Z" fill="#D40000"/>
<path d="M145.178 258.875C155.099 249.193 161.614 238.637 167.845 228.486C173.31 239.656 181.151 249.428 189.632 258.875C180.558 268.243 173.527 278.261 167.873 288.792C161.605 277.997 155.007 268.221 145.178 258.875Z" fill="#D40000"/>
<path d="M197.846 251.652C201.91 247.686 204.579 243.362 207.132 239.204C209.37 243.779 212.582 247.782 216.056 251.652C212.339 255.49 209.459 259.594 207.143 263.908C204.575 259.485 201.872 255.481 197.846 251.652Z" fill="#D40000"/>
<path d="M9.03101 65.7946C13.095 61.8286 15.7639 57.5045 18.3164 53.3459C20.5548 57.9217 23.7671 61.9248 27.241 65.7946C23.5241 69.6323 20.6436 73.736 18.3275 78.0501C15.76 73.6278 13.057 69.6231 9.03101 65.7946Z" fill="#D40000"/>
<path d="M12.9778 47.7483C15.11 36.6586 17.3868 28.338 23.358 19.3006H11.2232V23.1908H7.99756V15.8599H25.7518L27.9403 19.3006C21.5988 26.0975 15.7922 48.0688 16.8209 47.7483H12.9778Z" fill="#D40000"/>
<path d="M211.522 266.539C209.389 277.628 207.113 285.949 201.141 294.986H213.276V291.096H216.502V298.427H198.748L196.559 294.986C202.901 288.189 208.707 266.218 207.678 266.539H211.522Z" fill="#D40000"/>
</svg>
