<svg width="225" height="314" viewBox="0 0 225 314" fill="none" xmlns="http://www.w3.org/2000/svg">
<path d="M213.648 1.23779H11.6797C5.80894 1.23779 1.0498 5.99693 1.0498 11.8677V302.419C1.0498 308.29 5.80894 313.049 11.6797 313.049H213.648C219.519 313.049 224.278 308.29 224.278 302.419V11.8677C224.278 5.99693 219.519 1.23779 213.648 1.23779Z" fill="white" stroke="black" stroke-width="0.996733"/>
<path d="M33.7246 58.8955C43.6453 49.2141 50.1607 38.6582 56.3917 28.5066C61.8561 39.6766 69.6976 49.4489 78.1779 58.8955C69.1047 68.2641 62.0728 78.2818 56.4189 88.8133C50.1513 78.0176 43.5528 68.2417 33.7246 58.8955Z" fill="#D40000"/>
<path d="M33.7246 124.226C43.6453 114.545 50.1607 103.989 56.3917 93.8372C61.8561 105.007 69.6976 114.779 78.1779 124.226C69.1047 133.595 62.0728 143.612 56.4189 154.144C50.1513 143.348 43.5528 133.572 33.7246 124.226Z" fill="#D40000"/>
<path d="M33.7246 191.123C43.6453 181.442 50.1607 170.886 56.3917 160.734C61.8561 171.904 69.6976 181.676 78.1779 191.123C69.1047 200.492 62.0728 210.509 56.4189 221.041C50.1513 210.245 43.5528 200.469 33.7246 191.123Z" fill="#D40000"/>
<path d="M33.7246 256.229C43.6453 246.547 50.1607 235.991 56.3917 225.84C61.8561 237.01 69.6976 246.782 78.1779 256.229C69.1047 265.597 62.0728 275.615 56.4189 286.146C50.1513 275.351 43.5528 265.575 33.7246 256.229Z" fill="#D40000"/>
<path d="M90.1689 157.363C100.09 147.682 106.605 137.126 112.836 126.974C118.3 138.144 126.142 147.917 134.622 157.363C125.549 166.732 118.517 176.75 112.863 187.281C106.596 176.485 99.9972 166.709 90.1689 157.363Z" fill="#D40000"/>
<path d="M145.257 58.8955C155.178 49.2141 161.693 38.6582 167.924 28.5066C173.389 39.6766 181.23 49.4489 189.711 58.8955C180.637 68.2641 173.605 78.2818 167.951 88.8133C161.684 78.0176 155.086 68.2417 145.257 58.8955Z" fill="#D40000"/>
<path d="M145.257 124.226C155.178 114.545 161.693 103.989 167.924 93.8372C173.389 105.007 181.23 114.779 189.711 124.226C180.637 133.595 173.605 143.612 167.951 154.144C161.684 143.348 155.086 133.572 145.257 124.226Z" fill="#D40000"/>
<path d="M145.257 191.123C155.178 181.442 161.693 170.886 167.924 160.734C173.389 171.904 181.23 181.676 189.711 191.123C180.637 200.492 173.605 210.509 167.951 221.041C161.684 210.245 155.086 200.469 145.257 191.123Z" fill="#D40000"/>
<path d="M145.257 256.229C155.178 246.547 161.693 235.991 167.924 225.84C173.389 237.01 181.23 246.782 189.711 256.229C180.637 265.597 173.605 275.615 167.951 286.146C161.684 275.351 155.086 265.575 145.257 256.229Z" fill="#D40000"/>
<path d="M198.016 248.017C202.08 244.051 204.749 239.727 207.302 235.568C209.54 240.144 212.752 244.147 216.226 248.017C212.509 251.855 209.629 255.958 207.313 260.273C204.745 255.85 202.042 251.846 198.016 248.017Z" fill="#D40000"/>
<path d="M9.20068 62.1593C13.2646 58.1934 15.9336 53.8692 18.4861 49.7107C20.7245 54.2864 23.9368 58.2895 27.4107 62.1593C23.6939 65.9971 20.8133 70.1007 18.4972 74.4149C15.9297 69.9925 13.2267 65.9879 9.20068 62.1593Z" fill="#D40000"/>
<path d="M9.32546 40.5884L12.3521 39.6464C13.4938 42.6418 15.802 43.5253 18.2437 43.3354C22.6258 42.9946 24.0802 38.1869 24.4088 33.936C22.7014 35.7101 20.1347 36.6116 17.9492 36.5237C10.9669 36.1543 9.17979 30.6691 9.11473 24.9223C8.92079 20.076 10.9624 16.5667 14.4631 14.9589C16.3153 14.1426 20.5578 14.1424 22.4225 15.1076C26.7046 17.3238 28.2894 21.1563 28.0019 30.2986C28.0064 37.8223 26.3774 46.5858 18.1645 46.7735C13.4167 47.4177 9.81195 43.7938 9.32546 40.5884ZM21.2128 32.3447C22.6376 31.4591 23.4417 30.6285 24.0804 29.3827C24.6046 28.36 24.7821 27.8295 24.6327 25.7121C24.2477 20.2568 21.3333 17.1644 17.108 17.7788C14.7515 18.1214 13.4649 19.4172 12.7253 21.8267C11.3598 26.2759 13.0908 31.484 16.334 32.6836C17.7967 33.2247 20.0486 33.0682 21.2128 32.3447Z" fill="#D40000"/>
<path d="M215.362 273.698L212.335 274.64C211.193 271.645 208.885 270.761 206.443 270.951C202.061 271.292 200.607 276.1 200.278 280.351C201.986 278.576 204.552 277.675 206.738 277.763C213.72 278.132 215.507 283.617 215.572 289.364C215.766 294.211 213.725 297.72 210.224 299.328C208.372 300.144 204.129 300.144 202.264 299.179C197.982 296.963 196.398 293.13 196.685 283.988C196.681 276.464 198.31 267.701 206.523 267.513C211.27 266.869 214.875 270.493 215.362 273.698ZM203.474 281.942C202.049 282.827 201.245 283.658 200.607 284.904C200.082 285.927 199.905 286.457 200.054 288.574C200.439 294.03 203.354 297.122 207.579 296.508C209.935 296.165 211.222 294.869 211.962 292.46C213.327 288.011 211.596 282.803 208.353 281.603C206.89 281.062 204.638 281.218 203.474 281.942Z" fill="#D40000"/>
</svg>
