<svg width="225" height="313" viewBox="0 0 225 313" fill="none" xmlns="http://www.w3.org/2000/svg">
<path d="M213.408 0.62207H11.4393C5.56859 0.62207 0.809448 5.38121 0.809448 11.252V301.803C0.809448 307.674 5.56859 312.433 11.4393 312.433H213.408C219.278 312.433 224.038 307.674 224.038 301.803V11.252C224.038 5.38121 219.278 0.62207 213.408 0.62207Z" fill="white" stroke="black" stroke-width="0.996733"/>
<path d="M18.6451 46.9959V44.1828H21.2301V39.5468H8.30505V36.2757L22.2902 15.1775L24.5754 15.1853V36.2757H28.5289V39.5468H24.5754L24.4994 44.1828H26.6662V46.9959H18.6451ZM21.2301 22.8989L12.3509 36.2757H21.2301V22.8989Z" fill="#D40000"/>
<path d="M206.202 266.059V268.873H203.617V273.509H216.542V276.78L202.557 297.878L200.272 297.87V276.78H196.318V273.509H200.272L200.348 268.873H198.181V266.059H206.202ZM203.617 290.156L212.496 276.78H203.617V290.156Z" fill="#D40000"/>
<path d="M9.56562 61.6169C7.98262 58.1447 7.80889 52.2115 12.5367 51.4089C16.0988 50.9505 17.5484 52.6072 17.8366 55.1508C17.9788 55.8938 18.3983 55.9393 18.5314 55.0925C18.7358 52.4831 21.3186 50.9599 23.3378 51.3425C28.8644 52.2879 28.5418 58.371 26.7364 62.4981C24.0055 67.9775 21.1358 71.4357 18.4914 76.9499C15.4532 71.2089 11.984 66.5448 9.56562 61.6169Z" fill="#D40000"/>
<path d="M45.8069 26.6864C52.9509 26.212 56.6751 32.3138 57.4019 37.1228C57.8353 37.8867 58.0726 37.6715 58.2388 37.0805C58.5881 30.9064 64.1138 25.8604 69.2315 26.5504C77.5595 26.6586 82.6209 35.9258 81.1978 43.7691C79.4593 53.3507 74.2983 59.1202 70.3902 65.0622C65.9689 71.2146 60.0173 80.1017 58.0999 84.3791C58.0999 84.3791 52.0518 75.1745 44.1829 64.3495C38.9211 57.1109 34.7096 49.2671 34.3176 42.5141C33.8697 34.7986 37.0371 27.8823 45.8069 26.6864Z" fill="#D40000"/>
<path d="M155.34 26.6864C162.484 26.212 166.208 32.3138 166.935 37.1228C167.368 37.8867 167.606 37.6715 167.772 37.0805C168.121 30.9064 173.646 25.8604 178.764 26.5504C187.092 26.6586 192.154 35.9258 190.731 43.7691C188.992 53.3507 183.831 59.1202 179.923 65.0622C175.502 71.2146 169.55 80.1017 167.633 84.3791C167.633 84.3791 161.584 75.1745 153.716 64.3495C148.454 57.1109 144.243 49.2671 143.851 42.5141C143.403 34.7986 146.57 27.8823 155.34 26.6864Z" fill="#D40000"/>
<path d="M45.8069 283.027C52.9509 283.501 56.6751 277.399 57.4019 272.59C57.8353 271.826 58.0726 272.042 58.2388 272.633C58.5881 278.807 64.1138 283.853 69.2315 283.163C77.5595 283.055 82.6209 273.787 81.1978 265.944C79.4593 256.362 74.2983 250.593 70.3902 244.651C65.9689 238.499 60.0173 229.611 58.0999 225.334C58.0999 225.334 52.0518 234.539 44.1829 245.364C38.9211 252.602 34.7096 260.446 34.3176 267.199C33.8697 274.915 37.0371 281.831 45.8069 283.027Z" fill="#D40000"/>
<path d="M155.34 283.027C162.484 283.501 166.208 277.399 166.935 272.59C167.368 271.826 167.606 272.042 167.772 272.633C168.121 278.807 173.646 283.853 178.764 283.163C187.092 283.055 192.154 273.787 190.731 265.944C188.992 256.362 183.831 250.593 179.923 244.651C175.502 238.499 169.55 229.611 167.633 225.334C167.633 225.334 161.584 234.539 153.716 245.364C148.454 252.602 144.243 260.446 143.851 267.199C143.403 274.915 146.57 281.831 155.34 283.027Z" fill="#D40000"/>
<path d="M196.784 251.729C195.201 255.202 195.028 261.135 199.756 261.937C203.318 262.396 204.767 260.739 205.055 258.196C205.198 257.453 205.617 257.407 205.75 258.254C205.955 260.863 208.537 262.387 210.557 262.004C216.083 261.058 215.76 254.975 213.955 250.848C211.224 245.369 208.355 241.911 205.71 236.396C202.672 242.137 199.203 246.802 196.784 251.729Z" fill="#D40000"/>
</svg>
