<svg width="225" height="313" viewBox="0 0 225 313" fill="none" xmlns="http://www.w3.org/2000/svg">
<path d="M213.811 0.62207H11.8425C5.97179 0.62207 1.21265 5.38121 1.21265 11.252V301.803C1.21265 307.674 5.97179 312.433 11.8425 312.433H213.811C219.682 312.433 224.441 307.674 224.441 301.803V11.252C224.441 5.38121 219.682 0.62207 213.811 0.62207Z" fill="white" stroke="black" stroke-width="0.996733"/>
<path d="M9.45242 36.6226C9.04406 33.8753 9.0506 26.7773 9.38634 24.6801C10.4155 18.2515 12.9185 15.3113 17.109 14.3476C21.1776 13.4119 26.8979 14.4534 28.1531 19.8296L24.7466 19.8925C22.9068 16.2592 18.2513 17.2303 15.6309 18.8103C13.5377 20.0725 12.5923 25.33 12.9968 25.6536C12.9938 25.6536 16.9539 22.7764 20.0726 22.9887C26.7408 23.6704 29.49 29.3445 29.2578 34.7074C29.047 41.157 26.9628 46.3099 19.8966 46.6538C13.1785 46.4003 10.0969 42.8037 9.45242 36.6226ZM26.0228 34.9176C26.06 30.4422 23.9892 27.0947 20.0733 26.7251C16.1576 26.3556 12.2098 30.1069 12.4831 34.6676C12.7575 39.2443 14.5617 43.0995 19.3095 43.0781C24.4156 43.0552 25.9964 38.1017 26.0228 34.9176Z" fill="#D40000"/>
<path d="M216.201 276.433C216.609 279.18 216.603 286.278 216.267 288.375C215.238 294.804 212.735 297.744 208.545 298.708C204.476 299.643 198.756 298.602 197.5 293.226L200.907 293.163C202.747 296.796 207.402 295.825 210.023 294.245C212.116 292.983 213.061 287.725 212.657 287.402C212.66 287.402 208.7 290.279 205.581 290.067C198.913 289.385 196.163 283.711 196.396 278.348C196.606 271.898 198.691 266.745 205.757 266.401C212.475 266.655 215.557 270.252 216.201 276.433ZM199.631 278.138C199.594 282.613 201.664 285.961 205.58 286.33C209.496 286.7 213.444 282.948 213.17 278.388C212.896 273.811 211.092 269.956 206.344 269.977C201.238 270 199.657 274.954 199.631 278.138Z" fill="#D40000"/>
<path d="M9.86339 59.996C8.28039 56.5237 8.10654 50.5906 12.8343 49.788C16.3964 49.3295 17.8462 50.9863 18.1344 53.5298C18.2766 54.2729 18.6959 54.3183 18.829 53.4715C19.0334 50.8621 21.6162 49.3389 23.6354 49.7216C29.162 50.667 28.8394 56.75 27.034 60.8771C24.3031 66.3566 21.4333 69.8147 18.7889 75.329C15.7507 69.588 12.2818 64.9238 9.86339 59.996Z" fill="#D40000"/>
<path d="M45.151 28.985C52.295 28.5106 56.0194 34.6124 56.7462 39.4214C57.1796 40.1853 57.417 39.97 57.5832 39.3791C57.9325 33.205 63.4581 28.1589 68.5758 28.8489C76.9038 28.9572 81.9652 38.2243 80.5421 46.0677C78.8036 55.6493 73.6424 61.4188 69.7343 67.3608C65.313 73.5132 59.3616 82.4003 57.4442 86.6776C57.4442 86.6776 51.3959 77.4731 43.527 66.648C38.2652 59.4095 34.054 51.5657 33.662 44.8127C33.2141 37.0972 36.3812 30.1809 45.151 28.985Z" fill="#D40000"/>
<path d="M156.684 28.985C163.828 28.5106 167.552 34.6124 168.279 39.4214C168.712 40.1853 168.95 39.97 169.116 39.3791C169.465 33.205 174.991 28.1589 180.109 28.8489C188.437 28.9572 193.498 38.2243 192.075 46.0677C190.336 55.6493 185.175 61.4188 181.267 67.3608C176.846 73.5132 170.894 82.4003 168.977 86.6776C168.977 86.6776 162.929 77.4731 155.06 66.648C149.798 59.4095 145.587 51.5657 145.195 44.8127C144.747 37.0972 147.914 30.1809 156.684 28.985Z" fill="#D40000"/>
<path d="M156.684 127.879C163.828 127.404 167.552 133.506 168.279 138.315C168.712 139.079 168.95 138.864 169.116 138.273C169.465 132.099 174.991 127.053 180.109 127.743C188.437 127.851 193.498 137.118 192.075 144.961C190.336 154.543 185.175 160.312 181.267 166.254C176.846 172.407 170.894 181.294 168.977 185.571C168.977 185.571 162.929 176.367 155.06 165.542C149.798 158.303 145.587 150.459 145.195 143.706C144.747 135.991 147.914 129.075 156.684 127.879Z" fill="#D40000"/>
<path d="M45.151 127.879C52.295 127.404 56.0194 133.506 56.7462 138.315C57.1796 139.079 57.417 138.864 57.5832 138.273C57.9325 132.099 63.4581 127.053 68.5758 127.743C76.9038 127.851 81.9652 137.118 80.5421 144.961C78.8036 154.543 73.6424 160.312 69.7343 166.254C65.313 172.407 59.3616 181.294 57.4442 185.571C57.4442 185.571 51.3959 176.367 43.527 165.542C38.2652 158.303 34.054 150.459 33.662 143.706C33.2141 135.991 36.3812 129.075 45.151 127.879Z" fill="#D40000"/>
<path d="M45.151 283.971C52.295 284.445 56.0194 278.343 56.7462 273.534C57.1796 272.77 57.417 272.986 57.5832 273.576C57.9325 279.751 63.4581 284.797 68.5758 284.107C76.9038 283.998 81.9652 274.731 80.5421 266.888C78.8036 257.306 73.6424 251.537 69.7343 245.595C65.313 239.442 59.3616 230.555 57.4442 226.278C57.4442 226.278 51.3959 235.482 43.527 246.308C38.2652 253.546 34.054 261.39 33.662 268.143C33.2141 275.858 36.3812 282.775 45.151 283.971Z" fill="#D40000"/>
<path d="M156.684 283.971C163.828 284.445 167.552 278.343 168.279 273.534C168.712 272.77 168.95 272.986 169.116 273.576C169.465 279.751 174.991 284.797 180.109 284.107C188.437 283.998 193.498 274.731 192.075 266.888C190.336 257.306 185.175 251.537 181.267 245.595C176.846 239.442 170.894 230.555 168.977 226.278C168.977 226.278 162.929 235.482 155.06 246.308C149.798 253.546 145.587 261.39 145.195 268.143C144.747 275.858 147.914 282.775 156.684 283.971Z" fill="#D40000"/>
<path d="M198.679 250.854C197.096 254.326 196.922 260.259 201.65 261.062C205.212 261.52 206.661 259.863 206.95 257.32C207.092 256.577 207.511 256.531 207.644 257.378C207.849 259.988 210.431 261.511 212.451 261.128C217.977 260.183 217.655 254.1 215.849 249.973C213.118 244.493 210.249 241.035 207.604 235.521C204.566 241.262 201.097 245.926 198.679 250.854Z" fill="#D40000"/>
</svg>
