<svg width="225" height="313" viewBox="0 0 225 313" fill="none" xmlns="http://www.w3.org/2000/svg">
<path d="M213.169 0.62207H11.2006C5.32982 0.62207 0.570679 5.38121 0.570679 11.252V301.803C0.570679 307.674 5.32982 312.433 11.2006 312.433H213.169C219.04 312.433 223.799 307.674 223.799 301.803V11.252C223.799 5.38121 219.04 0.62207 213.169 0.62207Z" fill="white" stroke="black" stroke-width="0.996733"/>
<path d="M9.65058 60.8536C8.06758 57.3813 7.89385 51.4482 12.6217 50.6456C16.1838 50.1872 17.6334 51.8439 17.9216 54.3875C18.0638 55.1305 18.4833 55.176 18.6164 54.3292C18.8208 51.7198 21.4036 50.1966 23.4228 50.5792C28.9494 51.5246 28.6266 57.6077 26.8212 61.7348C24.0903 67.2142 21.2206 70.6724 18.5762 76.1866C15.538 70.4456 12.069 65.7815 9.65058 60.8536Z" fill="#D40000"/>
<path d="M197.374 252.125C195.791 255.598 195.618 261.531 200.346 262.333C203.908 262.792 205.357 261.135 205.645 258.591C205.788 257.848 206.207 257.803 206.34 258.65C206.545 261.259 209.127 262.782 211.147 262.4C216.673 261.454 216.351 255.371 214.545 251.244C211.814 245.765 208.945 242.306 206.3 236.792C203.262 242.533 199.793 247.197 197.374 252.125Z" fill="#D40000"/>
<path d="M8.74463 47.2589L8.90946 45.2402C9.41888 39.0012 10.7838 36.8939 18.5314 30.385C22.291 27.2263 23.5254 25.6676 23.6992 23.8588C24.19 19.5988 20.348 18.268 17.8442 18.2449C14.6021 18.2151 10.9346 20.1564 12.6831 24.6588L9.04661 25.7266C8.31229 21.5265 9.06349 17.5847 12.472 15.8342C17.0183 13.5545 22.852 14.449 25.7954 18.041C27.7736 20.4551 28.2233 23.7871 27.1632 26.3967C24.0626 33.0682 13.5421 36.0031 12.6725 43.7161H24.3036V39.421H27.7294V47.3281L8.74463 47.2589Z" fill="#D40000"/>
<path d="M215.353 265.796L215.188 267.815C214.679 274.054 213.314 276.161 205.566 282.67C201.807 285.829 200.572 287.388 200.398 289.196C199.908 293.456 203.75 294.787 206.253 294.81C209.495 294.84 213.163 292.899 211.414 288.396L215.051 287.328C215.785 291.529 215.034 295.47 211.626 297.221C207.079 299.501 201.246 298.606 198.302 295.014C196.324 292.6 195.874 289.268 196.934 286.658C200.035 279.987 210.556 277.052 211.425 269.339H199.794V273.634H196.368V265.727L215.353 265.796Z" fill="#D40000"/>
<path d="M100.1 28.5878C107.244 28.1134 110.968 34.2152 111.695 39.0242C112.129 39.7881 112.366 39.5728 112.532 38.9819C112.881 32.8078 118.407 27.7617 123.525 28.4517C131.853 28.56 136.914 37.8271 135.491 45.6705C133.753 55.2521 128.591 61.0216 124.683 66.9636C120.262 73.116 114.311 82.0031 112.393 86.2804C112.393 86.2804 106.345 77.0759 98.4761 66.2508C93.2143 59.0123 89.003 51.1685 88.611 44.4154C88.1631 36.7 91.3303 29.7837 100.1 28.5878Z" fill="#D40000"/>
<path d="M100.1 284.889C107.244 285.363 110.968 279.262 111.695 274.453C112.129 273.689 112.366 273.904 112.532 274.495C112.881 280.669 118.407 285.715 123.525 285.025C131.853 284.917 136.914 275.65 135.491 267.806C133.753 258.225 128.591 252.455 124.683 246.513C120.262 240.361 114.311 231.474 112.393 227.196C112.393 227.196 106.345 236.401 98.4761 247.226C93.2143 254.465 89.003 262.308 88.611 269.061C88.1631 276.777 91.3303 283.693 100.1 284.889Z" fill="#D40000"/>
</svg>
