<svg width="225" height="313" viewBox="0 0 225 313" fill="none" xmlns="http://www.w3.org/2000/svg">
<path d="M213.832 0.62207H11.8628C5.99205 0.62207 1.23291 5.38121 1.23291 11.252V301.803C1.23291 307.674 5.99205 312.433 11.8628 312.433H213.832C219.702 312.433 224.461 307.674 224.461 301.803V11.252C224.461 5.38121 219.702 0.62207 213.832 0.62207Z" fill="white" stroke="black" stroke-width="0.996733"/>
<path d="M8.46826 46.6879V43.9508H11.1293L16.7936 14.6794H20.0164L26.2592 43.9508H28.4071V46.6879H21.0892V43.9508H23.066L22.2784 39.4651H14.8928L14.3226 43.9508H16.2994V46.6879H8.46826ZM21.6464 36.2719L18.4379 20.6015L15.4311 36.2719H21.6464Z" fill="#D40000"/>
<path d="M217.226 266.367V269.104H214.565L208.901 298.376H205.678L199.435 269.104H197.287V266.367H204.605V269.104H202.628L203.416 273.59H210.802L211.372 269.104H209.395V266.367H217.226ZM204.048 276.783L207.257 292.454L210.263 276.783H204.048Z" fill="#D40000"/>
<path d="M9.51431 61.3763C7.93131 57.9041 7.75771 51.9709 12.4855 51.1683C16.0476 50.7099 17.4971 52.3666 17.7853 54.9102C17.9275 55.6532 18.347 55.6987 18.4801 54.8519C18.6845 52.2425 21.2673 50.7193 23.2865 51.1019C28.8131 52.0473 28.4905 58.1304 26.6851 62.2575C23.9542 67.7369 21.0845 71.1951 18.4401 76.7093C15.4019 70.9683 11.9327 66.3042 9.51431 61.3763Z" fill="#D40000"/>
<path d="M100.798 127.781C107.942 127.307 111.666 133.408 112.393 138.217C112.826 138.981 113.063 138.766 113.23 138.175C113.579 132.001 119.104 126.955 124.222 127.645C132.55 127.753 137.612 137.02 136.189 144.864C134.45 154.445 129.289 160.215 125.381 166.157C120.96 172.309 115.008 181.196 113.091 185.474C113.091 185.474 107.042 176.269 99.1735 165.444C93.9117 158.206 89.7005 150.362 89.3085 143.609C88.8606 135.893 92.0277 128.977 100.798 127.781Z" fill="#D40000"/>
<path d="M197.894 252.064C196.311 255.536 196.138 261.469 200.865 262.272C204.427 262.73 205.877 261.073 206.165 258.53C206.307 257.787 206.727 257.741 206.86 258.588C207.064 261.197 209.647 262.721 211.666 262.338C217.193 261.393 216.87 255.31 215.065 251.182C212.334 245.703 209.464 242.245 206.82 236.731C203.782 242.472 200.313 247.136 197.894 252.064Z" fill="#D40000"/>
</svg>
