<svg width="225" height="313" viewBox="0 0 225 313" fill="none" xmlns="http://www.w3.org/2000/svg">
<path d="M213.74 0.62207H11.771C5.90025 0.62207 1.14111 5.38121 1.14111 11.252V301.803C1.14111 307.674 5.90025 312.433 11.771 312.433H213.74C219.61 312.433 224.37 307.674 224.37 301.803V11.252C224.37 5.38121 219.61 0.62207 213.74 0.62207Z" fill="white" stroke="black" stroke-width="0.996733"/>
<path d="M9.41677 39.9727L12.4434 39.0307C13.5851 42.0261 15.8934 42.9095 18.335 42.7197C22.7171 42.3789 24.1715 37.5711 24.5002 33.3202C22.7927 35.0944 20.226 35.9959 18.0406 35.9079C11.0582 35.5386 9.2711 30.0534 9.20604 24.3066C9.0121 19.4603 11.0537 15.9509 14.5545 14.3432C16.4066 13.5268 20.6491 13.5267 22.5139 14.4918C26.796 16.7081 28.3807 20.5406 28.0932 29.6828C28.0977 37.2066 26.4687 45.9701 18.2558 46.1578C13.508 46.802 9.90326 43.1781 9.41677 39.9727ZM21.3041 31.729C22.7289 30.8434 23.533 30.0128 24.1717 28.7669C24.6959 27.7443 24.8734 27.2138 24.724 25.0964C24.339 19.6411 21.4246 16.5487 17.1993 17.1631C14.8428 17.5057 13.5562 18.8015 12.8167 21.211C11.4511 25.6602 13.1822 30.8683 16.4253 32.0679C17.888 32.609 20.1399 32.4525 21.3041 31.729Z" fill="#D40000"/>
<path d="M215.453 273.082L212.426 274.024C211.284 271.029 208.976 270.146 206.535 270.335C202.152 270.676 200.698 275.484 200.369 279.735C202.077 277.961 204.644 277.059 206.829 277.147C213.811 277.517 215.599 283.002 215.664 288.749C215.858 293.595 213.816 297.104 210.315 298.712C208.463 299.528 204.221 299.528 202.356 298.563C198.074 296.347 196.489 292.515 196.776 283.372C196.772 275.849 198.401 267.085 206.614 266.897C211.362 266.253 214.966 269.877 215.453 273.082ZM203.566 281.326C202.141 282.212 201.337 283.042 200.698 284.288C200.174 285.311 199.996 285.841 200.146 287.959C200.531 293.414 203.445 296.506 207.67 295.892C210.027 295.549 211.313 294.254 212.053 291.844C213.419 287.395 211.687 282.187 208.444 280.987C206.982 280.446 204.73 280.603 203.566 281.326Z" fill="#D40000"/>
<path d="M9.72468 58.9471C8.14168 55.4749 7.96795 49.5417 12.6958 48.7391C16.2579 48.2807 17.7075 49.9375 17.9957 52.481C18.1379 53.224 18.5573 53.2695 18.6904 52.4227C18.8948 49.8133 21.4776 48.2901 23.4968 48.6727C29.0234 49.6181 28.7007 55.7012 26.8953 59.8282C24.1644 65.3077 21.2947 68.7659 18.6503 74.2802C15.6121 68.5391 12.1431 63.875 9.72468 58.9471Z" fill="#D40000"/>
<path d="M45.9931 29.2975C53.1371 28.8231 56.8615 34.9249 57.5883 39.7339C58.0217 40.4978 58.259 40.2826 58.4252 39.6916C58.7745 33.5175 64.3002 28.4714 69.4179 29.1614C77.7459 29.2697 82.8073 38.5369 81.3842 46.3802C79.6457 55.9618 74.4845 61.7313 70.5764 67.6733C66.1551 73.8257 60.2037 82.7128 58.2863 86.9902C58.2863 86.9902 52.2381 77.7856 44.3692 66.9606C39.1074 59.7221 34.8961 51.8782 34.5041 45.1252C34.0562 37.4097 37.2233 30.4934 45.9931 29.2975Z" fill="#D40000"/>
<path d="M155.526 29.2975C162.67 28.8231 166.394 34.9249 167.121 39.7339C167.554 40.4978 167.792 40.2826 167.958 39.6916C168.307 33.5175 173.833 28.4714 178.95 29.1614C187.278 29.2697 192.34 38.5369 190.917 46.3802C189.178 55.9618 184.017 61.7313 180.109 67.6733C175.688 73.8257 169.736 82.7128 167.819 86.9902C167.819 86.9902 161.771 77.7856 153.902 66.9606C148.64 59.7221 144.429 51.8782 144.037 45.1252C143.589 37.4097 146.756 30.4934 155.526 29.2975Z" fill="#D40000"/>
<path d="M155.526 94.6282C162.67 94.1538 166.394 100.256 167.121 105.065C167.554 105.828 167.792 105.613 167.958 105.022C168.307 98.8481 173.833 93.8021 178.95 94.4921C187.278 94.6004 192.34 103.868 190.917 111.711C189.178 121.292 184.017 127.062 180.109 133.004C175.688 139.156 169.736 148.043 167.819 152.321C167.819 152.321 161.771 143.116 153.902 132.291C148.64 125.053 144.429 117.209 144.037 110.456C143.589 102.74 146.756 95.8241 155.526 94.6282Z" fill="#D40000"/>
<path d="M100.706 127.781C107.85 127.306 111.574 133.408 112.301 138.217C112.734 138.981 112.972 138.766 113.138 138.175C113.487 132.001 119.013 126.955 124.131 127.645C132.459 127.753 137.52 137.02 136.097 144.864C134.358 154.445 129.197 160.215 125.289 166.157C120.868 172.309 114.916 181.196 112.999 185.474C112.999 185.474 106.951 176.269 99.0818 165.444C93.82 158.205 89.6087 150.362 89.2167 143.609C88.7688 135.893 91.936 128.977 100.706 127.781Z" fill="#D40000"/>
<path d="M45.9931 94.6282C53.1371 94.1538 56.8615 100.256 57.5883 105.065C58.0217 105.828 58.259 105.613 58.4252 105.022C58.7745 98.8481 64.3002 93.8021 69.4179 94.4921C77.7459 94.6004 82.8073 103.868 81.3842 111.711C79.6457 121.292 74.4845 127.062 70.5764 133.004C66.1551 139.156 60.2037 148.043 58.2863 152.321C58.2863 152.321 52.2381 143.116 44.3692 132.291C39.1074 125.053 34.8961 117.209 34.5041 110.456C34.0562 102.74 37.2233 95.8241 45.9931 94.6282Z" fill="#D40000"/>
<path d="M155.526 219.018C162.67 219.493 166.394 213.391 167.121 208.582C167.554 207.818 167.792 208.033 167.958 208.624C168.307 214.798 173.833 219.844 178.95 219.154C187.278 219.046 192.34 209.779 190.917 201.936C189.178 192.354 184.017 186.585 180.109 180.643C175.688 174.49 169.736 165.603 167.819 161.326C167.819 161.326 161.771 170.53 153.902 181.355C148.64 188.594 144.429 196.438 144.037 203.191C143.589 210.906 146.756 217.822 155.526 219.018Z" fill="#D40000"/>
<path d="M155.526 284.124C162.67 284.598 166.394 278.496 167.121 273.687C167.554 272.923 167.792 273.139 167.958 273.73C168.307 279.904 173.833 284.95 178.95 284.26C187.278 284.152 192.34 274.884 190.917 267.041C189.178 257.46 184.017 251.69 180.109 245.748C175.688 239.596 169.736 230.708 167.819 226.431C167.819 226.431 161.771 235.636 153.902 246.461C148.64 253.699 144.429 261.543 144.037 268.296C143.589 276.012 146.756 282.928 155.526 284.124Z" fill="#D40000"/>
<path d="M45.9931 284.124C53.1371 284.598 56.8615 278.496 57.5883 273.687C58.0217 272.923 58.259 273.139 58.4252 273.73C58.7745 279.904 64.3002 284.95 69.4179 284.26C77.7459 284.152 82.8073 274.884 81.3842 267.041C79.6457 257.46 74.4845 251.69 70.5764 245.748C66.1551 239.596 60.2037 230.708 58.2863 226.431C58.2863 226.431 52.2381 235.636 44.3692 246.461C39.1074 253.699 34.8961 261.543 34.5041 268.296C34.0562 276.012 37.2233 282.928 45.9931 284.124Z" fill="#D40000"/>
<path d="M45.9931 219.018C53.1371 219.493 56.8615 213.391 57.5883 208.582C58.0217 207.818 58.259 208.033 58.4252 208.624C58.7745 214.798 64.3002 219.844 69.4179 219.154C77.7459 219.046 82.8073 209.779 81.3842 201.936C79.6457 192.354 74.4845 186.585 70.5764 180.643C66.1551 174.49 60.2037 165.603 58.2863 161.326C58.2863 161.326 52.2381 170.53 44.3692 181.355C39.1074 188.594 34.8961 196.438 34.5041 203.191C34.0562 210.906 37.2233 217.822 45.9931 219.018Z" fill="#D40000"/>
<path d="M198.54 249.805C196.957 253.277 196.783 259.21 201.511 260.013C205.073 260.471 206.523 258.814 206.811 256.271C206.953 255.528 207.373 255.482 207.506 256.329C207.71 258.939 210.293 260.462 212.312 260.079C217.839 259.134 217.516 253.051 215.711 248.924C212.98 243.444 210.11 239.986 207.466 234.472C204.427 240.213 200.958 244.877 198.54 249.805Z" fill="#D40000"/>
</svg>
