<svg width="225" height="313" viewBox="0 0 225 313" fill="none" xmlns="http://www.w3.org/2000/svg">
<path d="M213.664 0.62207H11.6951C5.82433 0.62207 1.06519 5.38121 1.06519 11.252V301.803C1.06519 307.674 5.82433 312.433 11.6951 312.433H213.664C219.535 312.433 224.294 307.674 224.294 301.803V11.252C224.294 5.38121 219.535 0.62207 213.664 0.62207Z" fill="white" stroke="black" stroke-width="0.996733"/>
<path d="M7.90883 38.1726C8.06897 33.7972 9.67958 32.1541 12.8525 29.8632C10.3218 28.068 9.25483 25.4266 9.4703 23.1759C9.9918 17.7291 14.2801 15.0039 18.9553 15.1226C23.6305 15.2413 27.6598 18.8862 27.9741 22.8444C28.2474 26.2877 27.2037 27.9468 24.7167 29.7596C27.6696 32.2011 29.557 33.8096 29.4854 38.1197C29.4138 42.4299 25.6797 47.5596 19.1709 47.7171C12.662 47.8746 7.74873 42.548 7.90883 38.1726ZM26.0814 38.1871C26.3606 34.225 22.7932 31.5517 18.7682 31.5102C14.8459 31.4697 11.3369 34.7568 11.3363 38.314C11.3363 42.135 15.8999 44.2106 18.8473 44.2216C22.4296 44.2349 25.8409 41.5995 26.0814 38.1871ZM24.7934 24.0137C24.8713 20.6761 21.7365 18.2842 18.5048 18.3804C15.6294 18.466 12.5838 20.6211 12.5823 23.4113C12.5793 26.9012 16.0444 28.6436 18.9992 28.7094C21.6796 28.769 24.7346 26.5346 24.7934 24.0137Z" fill="#D40000"/>
<path d="M217.45 274.883C217.29 279.258 215.679 280.901 212.506 283.192C215.037 284.987 216.104 287.629 215.888 289.88C215.367 295.326 211.078 298.052 206.403 297.933C201.728 297.814 197.699 294.169 197.384 290.211C197.111 286.768 198.155 285.109 200.642 283.296C197.689 280.854 195.801 279.246 195.873 274.936C195.945 270.626 199.679 265.496 206.188 265.338C212.696 265.181 217.61 270.507 217.45 274.883ZM199.277 274.868C198.998 278.831 202.565 281.504 206.59 281.545C210.513 281.586 214.022 278.299 214.022 274.741C214.022 270.92 209.459 268.845 206.511 268.834C202.929 268.821 199.518 271.456 199.277 274.868ZM200.565 289.042C200.487 292.379 203.622 294.771 206.854 294.675C209.729 294.589 212.775 292.434 212.776 289.644C212.779 286.154 209.314 284.412 206.359 284.346C203.679 284.286 200.624 286.521 200.565 289.042Z" fill="#D40000"/>
<path d="M10.6472 63.5321C9.06425 60.0598 8.89064 54.1267 13.6184 53.3241C17.1805 52.8657 18.6302 54.5224 18.9184 57.066C19.0606 57.809 19.48 57.8545 19.6131 57.0077C19.8175 54.3983 22.4003 52.8751 24.4195 53.2577C29.9461 54.2031 29.6234 60.2861 27.818 64.4132C25.0871 69.8927 22.2174 73.3509 19.573 78.8651C16.5348 73.1241 13.0656 68.4599 10.6472 63.5321Z" fill="#D40000"/>
<path d="M45.6258 28.2591C52.7698 27.7847 56.494 33.8865 57.2208 38.6956C57.6542 39.4595 57.8916 39.2442 58.0578 38.6533C58.4071 32.4791 63.9327 27.4331 69.0504 28.1231C77.3784 28.2314 82.4398 37.4985 81.0167 45.3419C79.2782 54.9235 74.1171 60.693 70.209 66.635C65.7877 72.7874 59.8362 81.6745 57.9188 85.9518C57.9188 85.9518 51.8706 76.7473 44.0017 65.9222C38.7399 58.6837 34.5286 50.8399 34.1366 44.0868C33.6887 36.3713 36.856 29.455 45.6258 28.2591Z" fill="#D40000"/>
<path d="M155.159 28.2591C162.303 27.7847 166.027 33.8865 166.754 38.6956C167.187 39.4595 167.425 39.2442 167.591 38.6533C167.94 32.4791 173.466 27.4331 178.583 28.1231C186.911 28.2314 191.973 37.4985 190.55 45.3419C188.811 54.9235 183.65 60.693 179.742 66.635C175.321 72.7874 169.369 81.6745 167.452 85.9518C167.452 85.9518 161.403 76.7473 153.535 65.9222C148.273 58.6837 144.062 50.8399 143.67 44.0868C143.222 36.3713 146.389 29.455 155.159 28.2591Z" fill="#D40000"/>
<path d="M99.8089 78.3834C106.953 77.909 110.677 84.0108 111.404 88.8198C111.837 89.5837 112.075 89.3685 112.241 88.7775C112.59 82.6034 118.116 77.5574 123.234 78.2474C131.562 78.3557 136.623 87.6228 135.2 95.4661C133.461 105.048 128.3 110.817 124.392 116.759C119.971 122.912 114.019 131.799 112.102 136.076C112.102 136.076 106.054 126.872 98.1848 116.046C92.923 108.808 88.7118 100.964 88.3198 94.2111C87.8719 86.4956 91.0391 79.5793 99.8089 78.3834Z" fill="#D40000"/>
<path d="M45.6258 128.508C52.7698 128.033 56.494 134.135 57.2208 138.944C57.6542 139.708 57.8916 139.493 58.0578 138.902C58.4071 132.728 63.9327 127.682 69.0504 128.372C77.3784 128.48 82.4398 137.747 81.0167 145.59C79.2782 155.172 74.1171 160.941 70.209 166.883C65.7877 173.036 59.8362 181.923 57.9188 186.2C57.9188 186.2 51.8706 176.996 44.0017 166.171C38.7399 158.932 34.5286 151.088 34.1366 144.335C33.6887 136.62 36.856 129.703 45.6258 128.508Z" fill="#D40000"/>
<path d="M155.159 128.508C162.303 128.033 166.027 134.135 166.754 138.944C167.187 139.708 167.425 139.493 167.591 138.902C167.94 132.728 173.466 127.682 178.583 128.372C186.911 128.48 191.973 137.747 190.55 145.59C188.811 155.172 183.65 160.941 179.742 166.883C175.321 173.036 169.369 181.923 167.452 186.2C167.452 186.2 161.403 176.996 153.535 166.171C148.273 158.932 144.062 151.088 143.67 144.335C143.222 136.62 146.389 129.703 155.159 128.508Z" fill="#D40000"/>
<path d="M155.159 284.599C162.303 285.074 166.027 278.972 166.754 274.163C167.187 273.399 167.425 273.614 167.591 274.205C167.94 280.379 173.466 285.425 178.583 284.735C186.911 284.627 191.973 275.36 190.55 267.517C188.811 257.935 183.65 252.166 179.742 246.224C175.321 240.071 169.369 231.184 167.452 226.907C167.452 226.907 161.403 236.111 153.535 246.936C148.273 254.175 144.062 262.019 143.67 268.772C143.222 276.487 146.389 283.404 155.159 284.599Z" fill="#D40000"/>
<path d="M99.8089 235.3C106.953 235.775 110.677 229.673 111.404 224.864C111.837 224.1 112.075 224.315 112.241 224.906C112.59 231.08 118.116 236.126 123.234 235.436C131.562 235.328 136.623 226.061 135.2 218.217C133.461 208.636 128.3 202.866 124.392 196.924C119.971 190.772 114.019 181.885 112.102 177.607C112.102 177.607 106.054 186.812 98.1848 197.637C92.923 204.876 88.7118 212.719 88.3198 219.472C87.8719 227.188 91.0391 234.104 99.8089 235.3Z" fill="#D40000"/>
<path d="M45.6258 284.599C52.7698 285.074 56.494 278.972 57.2208 274.163C57.6542 273.399 57.8916 273.614 58.0578 274.205C58.4071 280.379 63.9327 285.425 69.0504 284.735C77.3784 284.627 82.4398 275.36 81.0167 267.517C79.2782 257.935 74.1171 252.166 70.209 246.224C65.7877 240.071 59.8362 231.184 57.9188 226.907C57.9188 226.907 51.8706 236.111 44.0017 246.936C38.7399 254.175 34.5286 262.019 34.1366 268.772C33.6887 276.487 36.856 283.404 45.6258 284.599Z" fill="#D40000"/>
<path d="M199.462 254.39C197.879 257.862 197.706 263.795 202.434 264.598C205.996 265.056 207.445 263.4 207.733 260.856C207.876 260.113 208.295 260.068 208.428 260.914C208.633 263.524 211.215 265.047 213.235 264.664C218.761 263.719 218.439 257.636 216.633 253.509C213.902 248.029 211.033 244.571 208.388 239.057C205.35 244.798 201.881 249.462 199.462 254.39Z" fill="#D40000"/>
</svg>
