<svg width="225" height="313" viewBox="0 0 225 313" fill="none" xmlns="http://www.w3.org/2000/svg">
<path d="M213.245 0.62207H11.2767C5.40599 0.62207 0.646851 5.38121 0.646851 11.252V301.803C0.646851 307.674 5.40599 312.433 11.2767 312.433H213.245C219.116 312.433 223.875 307.674 223.875 301.803V11.252C223.875 5.38121 219.116 0.62207 213.245 0.62207Z" fill="white" stroke="black" stroke-width="0.996733"/>
<path d="M9.09607 39.8355L11.6433 37.9955C13.8572 41.5293 16.3285 43.8586 20.1085 43.458C25.7821 43.0764 28.1314 37.2378 26.9438 32.835C25.797 28.8902 21.0981 26.9657 17.3654 29.0722C16.4852 29.569 15.4672 30.1824 15.4672 30.1824L14.1383 28.0165L22.9021 17.8216H13.3917V22.0412H9.74229V14.4763H28.3316V17.0439C28.3316 17.0439 23.3525 22.1128 21.7044 24.8913C25.7594 25.0388 29.0271 27.5601 30.1967 31.5496C30.883 33.648 30.5744 38.4507 29.6799 40.5176C28.1862 43.9688 24.0959 46.7674 20.3583 46.9291C14.0877 47.3433 10.7565 43.0271 9.09607 39.8355Z" fill="#D40000"/>
<path d="M215.426 273.219L212.879 275.059C210.665 271.526 208.194 269.196 204.414 269.597C198.74 269.979 196.391 275.817 197.578 280.22C198.725 284.165 203.424 286.089 207.157 283.983C208.037 283.486 209.055 282.967 209.055 282.967L210.628 285.001L201.62 295.233H211.131V291.014H214.78V298.579H196.191V296.011C196.191 296.011 201.17 290.942 202.818 288.164C198.763 288.016 195.495 285.495 194.326 281.505C193.639 279.407 193.948 274.604 194.842 272.537C196.336 269.086 200.426 266.288 204.164 266.126C210.435 265.712 213.766 270.028 215.426 273.219Z" fill="#D40000"/>
<path d="M10.3898 61.2865C8.8068 57.8142 8.63319 51.8811 13.361 51.0785C16.9231 50.6201 18.3726 52.2768 18.6608 54.8204C18.803 55.5634 19.2225 55.6089 19.3556 54.7621C19.56 52.1527 22.1428 50.6295 24.162 51.0121C29.6886 51.9575 29.366 58.0405 27.5606 62.1676C24.8297 67.6471 21.96 71.1052 19.3156 76.6195C16.2774 70.8785 12.8082 66.2144 10.3898 61.2865Z" fill="#D40000"/>
<path d="M100.148 29.3591C107.292 28.8847 111.016 34.9865 111.743 39.7956C112.177 40.5594 112.414 40.3442 112.58 39.7533C112.929 33.5791 118.455 28.5331 123.573 29.2231C131.901 29.3314 136.962 38.5985 135.539 46.4418C133.801 56.0234 128.639 61.7929 124.731 67.735C120.31 73.8873 114.359 82.7745 112.441 87.0518C112.441 87.0518 106.393 77.8473 98.5241 67.0222C93.2623 59.7837 89.051 51.9399 88.659 45.1868C88.2111 37.4713 91.3783 30.555 100.148 29.3591Z" fill="#D40000"/>
<path d="M100.211 127.781C107.355 127.307 111.08 133.408 111.807 138.217C112.24 138.981 112.477 138.766 112.644 138.175C112.993 132.001 118.518 126.955 123.636 127.645C131.964 127.753 137.026 137.02 135.603 144.864C133.864 154.445 128.703 160.215 124.795 166.157C120.373 172.309 114.422 181.196 112.505 185.474C112.505 185.474 106.456 176.269 98.5874 165.444C93.3256 158.206 89.1143 150.362 88.7223 143.609C88.2744 135.893 91.4416 128.977 100.211 127.781Z" fill="#D40000"/>
<path d="M197.377 252.499C195.794 255.971 195.62 261.904 200.348 262.707C203.91 263.165 205.359 261.508 205.648 258.965C205.79 258.222 206.209 258.176 206.342 259.023C206.547 261.632 209.13 263.156 211.149 262.773C216.675 261.828 216.353 255.744 214.547 251.617C211.816 246.138 208.947 242.68 206.302 237.166C203.264 242.907 199.795 247.571 197.377 252.499Z" fill="#D40000"/>
<path d="M100.148 283.955C107.292 284.43 111.016 278.328 111.743 273.519C112.177 272.755 112.414 272.97 112.58 273.561C112.929 279.735 118.455 284.782 123.573 284.092C131.901 283.983 136.962 274.716 135.539 266.873C133.801 257.291 128.639 251.522 124.731 245.58C120.31 239.427 114.359 230.54 112.441 226.263C112.441 226.263 106.393 235.467 98.5241 246.292C93.2623 253.531 89.051 261.375 88.659 268.128C88.2111 275.843 91.3783 282.76 100.148 283.955Z" fill="#D40000"/>
</svg>
