<svg width="225" height="313" viewBox="0 0 225 313" fill="none" xmlns="http://www.w3.org/2000/svg">
<path d="M213.326 0.62207H11.3572C5.48643 0.62207 0.727295 5.38121 0.727295 11.252V301.803C0.727295 307.674 5.48643 312.433 11.3572 312.433H213.326C219.197 312.433 223.956 307.674 223.956 301.803V11.252C223.956 5.38121 219.197 0.62207 213.326 0.62207Z" fill="white" stroke="black" stroke-width="0.99" stroke-miterlimit="3.8"/>
<path d="M13.0694 47.1326C15.2015 36.0428 17.4784 27.7223 23.4495 18.6849H11.3148V22.5751H8.08911V15.2441H25.8433L28.0318 18.6849C21.6903 25.4818 15.8838 47.4531 16.9125 47.1326H13.0694Z" fill="#D40000"/>
<path d="M211.613 265.923C209.481 277.013 207.204 285.333 201.233 294.371H213.368V290.48H216.593V297.811H198.839L196.651 294.371C202.992 287.574 208.799 265.602 207.77 265.923H211.613Z" fill="#D40000"/>
<path d="M9.55537 62.5823C7.97237 59.11 7.79864 53.1769 12.5264 52.3743C16.0885 51.9158 17.5382 53.5726 17.8264 56.1162C17.9686 56.8592 18.3881 56.9046 18.5212 56.0578C18.7256 53.4484 21.3084 51.9252 23.3276 52.3079C28.8542 53.2533 28.5314 59.3363 26.726 63.4634C23.9951 68.9428 21.1254 72.401 18.481 77.9153C15.4428 72.1743 11.9738 67.5101 9.55537 62.5823Z" fill="#D40000"/>
<path d="M43.9146 30.4293C51.0586 29.9549 54.7829 36.0567 55.5097 40.8658C55.9431 41.6297 56.1804 41.4144 56.3466 40.8235C56.6959 34.6493 62.2216 29.6033 67.3393 30.2933C75.6673 30.4016 80.7287 39.6687 79.3056 47.512C77.5671 57.0936 72.4059 62.8632 68.4978 68.8052C64.0765 74.9576 58.1251 83.8447 56.2077 88.122C56.2077 88.122 50.1594 78.9175 42.2905 68.0924C37.0287 60.8539 32.8174 53.0101 32.4254 46.257C31.9775 38.5415 35.1448 31.6252 43.9146 30.4293Z" fill="#D40000"/>
<path d="M155.447 30.4293C162.591 29.9549 166.316 36.0567 167.043 40.8658C167.476 41.6297 167.713 41.4144 167.879 40.8235C168.229 34.6493 173.754 29.6033 178.872 30.2933C187.2 30.4016 192.262 39.6687 190.838 47.512C189.1 57.0936 183.939 62.8632 180.031 68.8052C175.609 74.9576 169.658 83.8447 167.741 88.122C167.741 88.122 161.692 78.9175 153.823 68.0924C148.561 60.8539 144.35 53.0101 143.958 46.257C143.51 38.5415 146.677 31.6252 155.447 30.4293Z" fill="#D40000"/>
<path d="M100.348 80.5536C107.492 80.0792 111.217 86.181 111.944 90.99C112.377 91.7539 112.614 91.5387 112.781 90.9478C113.13 84.7736 118.655 79.7275 123.773 80.4175C132.101 80.5258 137.163 89.793 135.74 97.6363C134.001 107.218 128.84 112.987 124.932 118.929C120.51 125.082 114.559 133.969 112.642 138.246C112.642 138.246 106.593 129.042 98.7244 118.217C93.4626 110.978 89.2513 103.134 88.8593 96.3813C88.4114 88.6658 91.5786 81.7495 100.348 80.5536Z" fill="#D40000"/>
<path d="M43.9146 130.678C51.0586 130.203 54.7829 136.305 55.5097 141.114C55.9431 141.878 56.1804 141.663 56.3466 141.072C56.6959 134.898 62.2216 129.852 67.3393 130.542C75.6673 130.65 80.7287 139.917 79.3056 147.761C77.5671 157.342 72.4059 163.112 68.4978 169.054C64.0765 175.206 58.1251 184.093 56.2077 188.37C56.2077 188.37 50.1594 179.166 42.2905 168.341C37.0287 161.102 32.8174 153.259 32.4254 146.505C31.9775 138.79 35.1448 131.874 43.9146 130.678Z" fill="#D40000"/>
<path d="M155.447 130.678C162.591 130.203 166.316 136.305 167.043 141.114C167.476 141.878 167.713 141.663 167.879 141.072C168.229 134.898 173.754 129.852 178.872 130.542C187.2 130.65 192.262 139.917 190.838 147.761C189.1 157.342 183.939 163.112 180.031 169.054C175.609 175.206 169.658 184.093 167.741 188.37C167.741 188.37 161.692 179.166 153.823 168.341C148.561 161.102 144.35 153.259 143.958 146.505C143.51 138.79 146.677 131.874 155.447 130.678Z" fill="#D40000"/>
<path d="M198.371 253.44C196.788 256.912 196.614 262.845 201.342 263.648C204.904 264.106 206.353 262.45 206.642 259.906C206.784 259.163 207.203 259.118 207.336 259.964C207.541 262.574 210.124 264.097 212.143 263.714C217.669 262.769 217.347 256.686 215.541 252.559C212.81 247.079 209.941 243.621 207.296 238.107C204.258 243.848 200.789 248.512 198.371 253.44Z" fill="#D40000"/>
<path d="M155.447 286.77C162.591 287.244 166.316 281.142 167.043 276.333C167.476 275.569 167.713 275.785 167.879 276.376C168.229 282.55 173.754 287.596 178.872 286.906C187.2 286.798 192.262 277.53 190.838 269.687C189.1 260.106 183.939 254.336 180.031 248.394C175.609 242.242 169.658 233.354 167.741 229.077C167.741 229.077 161.692 238.282 153.823 249.107C148.561 256.345 144.35 264.189 143.958 270.942C143.51 278.658 146.677 285.574 155.447 286.77Z" fill="#D40000"/>
<path d="M43.9146 286.77C51.0586 287.244 54.7829 281.142 55.5097 276.333C55.9431 275.569 56.1804 275.785 56.3466 276.376C56.6959 282.55 62.2216 287.596 67.3393 286.906C75.6673 286.798 80.7287 277.53 79.3056 269.687C77.5671 260.106 72.4059 254.336 68.4978 248.394C64.0765 242.242 58.1251 233.354 56.2077 229.077C56.2077 229.077 50.1594 238.282 42.2905 249.107C37.0287 256.345 32.8174 264.189 32.4254 270.942C31.9775 278.658 35.1448 285.574 43.9146 286.77Z" fill="#D40000"/>
</svg>
