<svg width="226" height="313" viewBox="0 0 226 313" fill="none" xmlns="http://www.w3.org/2000/svg">
<path d="M213.902 0.62207H11.9338C6.06309 0.62207 1.30396 5.38121 1.30396 11.252V301.803C1.30396 307.674 6.06309 312.433 11.9338 312.433H213.902C219.773 312.433 224.532 307.674 224.532 301.803V11.252C224.532 5.38121 219.773 0.62207 213.902 0.62207Z" fill="white" stroke="black" stroke-width="0.996733"/>
<path d="M8.93237 45.9664V14.4597H12.0431V45.9664H8.93237Z" fill="#D40000"/>
<path d="M21.2617 14.4597C18.2675 14.4597 15.8604 17.1463 15.8604 20.4822V39.9439C15.8604 43.2798 18.2675 45.9664 21.2617 45.9664H23.0068C26.0009 45.9664 28.4128 43.2798 28.4128 39.9439V20.4822C28.4128 17.1463 26.0009 14.4597 23.0068 14.4597H21.2617ZM22.1627 17.4377C23.9312 17.4377 25.3541 18.7747 25.3541 20.4395V40.162C25.3541 41.8268 23.9312 43.1685 22.1627 43.1685C20.3942 43.1685 18.9712 41.8268 18.9712 40.162V20.4395C18.9712 18.7747 20.3942 17.4377 22.1627 17.4377Z" fill="#D40000"/>
<path d="M216.904 267.089V298.595H213.793V267.089H216.904Z" fill="#D40000"/>
<path d="M204.575 298.595C207.569 298.595 209.976 295.909 209.976 292.573V273.111C209.976 269.775 207.569 267.089 204.575 267.089H202.829C199.835 267.089 197.423 269.775 197.423 273.111V292.573C197.423 295.909 199.835 298.595 202.829 298.595H204.575ZM203.674 295.617C201.905 295.617 200.482 294.28 200.482 292.616V272.893C200.482 271.228 201.905 269.887 203.674 269.887C205.442 269.887 206.865 271.228 206.865 272.893V292.616C206.865 294.28 205.442 295.617 203.674 295.617Z" fill="#D40000"/>
<path d="M9.82816 60.7616C8.24516 57.2893 8.07155 51.3562 12.7993 50.5536C16.3614 50.0951 17.811 51.7519 18.0992 54.2954C18.2414 55.0384 18.6609 55.0839 18.794 54.2371C18.9984 51.6277 21.5812 50.1046 23.6004 50.4872C29.127 51.4326 28.8043 57.5156 26.9989 61.6427C24.268 67.1222 21.3983 70.5803 18.7539 76.0945C15.7157 70.3535 12.2466 65.6894 9.82816 60.7616Z" fill="#D40000"/>
<path d="M44.3307 28.9453C51.4747 28.4709 55.1991 34.5727 55.9259 39.3817C56.3593 40.1456 56.5966 39.9304 56.7628 39.3394C57.1121 33.1653 62.6378 28.1193 67.7555 28.8093C76.0835 28.9176 81.1449 38.1847 79.7218 46.028C77.9833 55.6096 72.8221 61.3791 68.914 67.3211C64.4927 73.4735 58.5413 82.3606 56.6239 86.6379C56.6239 86.6379 50.5756 77.4335 42.7067 66.6084C37.4449 59.3699 33.2337 51.5261 32.8417 44.773C32.3938 37.0575 35.5609 30.1412 44.3307 28.9453Z" fill="#D40000"/>
<path d="M100.514 61.6106C107.658 61.1362 111.382 67.238 112.109 72.0471C112.542 72.8109 112.78 72.5957 112.946 72.0048C113.295 65.8306 118.821 60.7846 123.939 61.4745C132.267 61.5828 137.328 70.8499 135.905 78.6933C134.166 88.2749 129.005 94.0444 125.097 99.9864C120.676 106.139 114.724 115.026 112.807 119.303C112.807 119.303 106.759 110.099 98.8898 99.2737C93.628 92.0352 89.4168 84.1913 89.0248 77.4383C88.5769 69.7228 91.744 62.8065 100.514 61.6106Z" fill="#D40000"/>
<path d="M155.863 28.9453C163.007 28.4709 166.732 34.5727 167.459 39.3817C167.892 40.1456 168.129 39.9304 168.296 39.3394C168.645 33.1653 174.171 28.1193 179.288 28.8093C187.616 28.9176 192.678 38.1847 191.255 46.028C189.516 55.6096 184.355 61.3791 180.447 67.3211C176.026 73.4735 170.074 82.3606 168.157 86.6379C168.157 86.6379 162.108 77.4335 154.239 66.6084C148.978 59.3699 144.766 51.5261 144.374 44.773C143.927 37.0575 147.094 30.1412 155.863 28.9453Z" fill="#D40000"/>
<path d="M155.863 94.2759C163.007 93.8015 166.732 99.9033 167.459 104.712C167.892 105.476 168.129 105.261 168.296 104.67C168.645 98.4959 174.171 93.4498 179.288 94.1398C187.616 94.2481 192.678 103.515 191.255 111.359C189.516 120.94 184.355 126.71 180.447 132.652C176.026 138.804 170.074 147.691 168.157 151.969C168.157 151.969 162.108 142.764 154.239 131.939C148.978 124.7 144.766 116.857 144.374 110.104C143.927 102.388 147.094 95.4718 155.863 94.2759Z" fill="#D40000"/>
<path d="M44.3307 94.2759C51.4747 93.8015 55.1991 99.9033 55.9259 104.712C56.3593 105.476 56.5966 105.261 56.7628 104.67C57.1121 98.4959 62.6378 93.4498 67.7555 94.1398C76.0835 94.2481 81.1449 103.515 79.7218 111.359C77.9833 120.94 72.8221 126.71 68.914 132.652C64.4927 138.804 58.5413 147.691 56.6239 151.969C56.6239 151.969 50.5756 142.764 42.7067 131.939C37.4449 124.7 33.2337 116.857 32.8417 110.104C32.3938 102.388 35.5609 95.4718 44.3307 94.2759Z" fill="#D40000"/>
<path d="M155.863 218.666C163.007 219.14 166.732 213.039 167.459 208.23C167.892 207.466 168.129 207.681 168.296 208.272C168.645 214.446 174.171 219.492 179.288 218.802C187.616 218.694 192.678 209.427 191.255 201.583C189.516 192.002 184.355 186.232 180.447 180.29C176.026 174.138 170.074 165.251 168.157 160.973C168.157 160.973 162.108 170.178 154.239 181.003C148.978 188.242 144.766 196.085 144.374 202.838C143.927 210.554 147.094 217.47 155.863 218.666Z" fill="#D40000"/>
<path d="M155.863 283.771C163.007 284.246 166.732 278.144 167.459 273.335C167.892 272.571 168.129 272.786 168.296 273.377C168.645 279.552 174.171 284.598 179.288 283.908C187.616 283.799 192.678 274.532 191.255 266.689C189.516 257.107 184.355 251.338 180.447 245.396C176.026 239.243 170.074 230.356 168.157 226.079C168.157 226.079 162.108 235.283 154.239 246.108C148.978 253.347 144.766 261.191 144.374 267.944C143.927 275.659 147.094 282.576 155.863 283.771Z" fill="#D40000"/>
<path d="M100.046 251.219C107.19 251.693 110.915 245.591 111.642 240.782C112.075 240.018 112.312 240.234 112.478 240.825C112.828 246.999 118.353 252.045 123.471 251.355C131.799 251.247 136.861 241.979 135.437 234.136C133.699 224.554 128.538 218.785 124.63 212.843C120.208 206.691 114.257 197.803 112.34 193.526C112.34 193.526 106.291 202.731 98.4223 213.556C93.1605 220.794 88.9493 228.638 88.5573 235.391C88.1094 243.107 91.2765 250.023 100.046 251.219Z" fill="#D40000"/>
<path d="M44.3307 218.666C51.4747 219.14 55.1991 213.039 55.9259 208.23C56.3593 207.466 56.5966 207.681 56.7628 208.272C57.1121 214.446 62.6378 219.492 67.7555 218.802C76.0835 218.694 81.1449 209.427 79.7218 201.583C77.9833 192.002 72.8221 186.232 68.914 180.29C64.4927 174.138 58.5413 165.251 56.6239 160.973C56.6239 160.973 50.5756 170.178 42.7067 181.003C37.4449 188.242 33.2337 196.085 32.8417 202.838C32.3938 210.554 35.5609 217.47 44.3307 218.666Z" fill="#D40000"/>
<path d="M44.3307 283.771C51.4747 284.246 55.1991 278.144 55.9259 273.335C56.3593 272.571 56.5966 272.786 56.7628 273.377C57.1121 279.552 62.6378 284.598 67.7555 283.908C76.0835 283.799 81.1449 274.532 79.7218 266.689C77.9833 257.107 72.8221 251.338 68.914 245.396C64.4927 239.243 58.5413 230.356 56.6239 226.079C56.6239 226.079 50.5756 235.283 42.7067 246.108C37.4449 253.347 33.2337 261.191 32.8417 267.944C32.3938 275.659 35.5609 282.576 44.3307 283.771Z" fill="#D40000"/>
<path d="M198.644 251.619C197.061 255.092 196.887 261.025 201.615 261.827C205.177 262.286 206.626 260.629 206.915 258.085C207.057 257.342 207.476 257.297 207.609 258.144C207.814 260.753 210.397 262.276 212.416 261.894C217.942 260.948 217.62 254.865 215.814 250.738C213.083 245.259 210.214 241.801 207.569 236.286C204.531 242.027 201.062 246.691 198.644 251.619Z" fill="#D40000"/>
</svg>
