<svg width="225" height="313" viewBox="0 0 225 313" fill="none" xmlns="http://www.w3.org/2000/svg">
<path d="M213.584 0.62207H11.6151C5.74437 0.62207 0.985229 5.38121 0.985229 11.252V301.803C0.985229 307.674 5.74437 312.433 11.6151 312.433H213.584C219.455 312.433 224.214 307.674 224.214 301.803V11.252C224.214 5.38121 219.455 0.62207 213.584 0.62207Z" fill="white" stroke="black" stroke-width="0.996733"/>
<path d="M9.16418 38.1598L12.3843 38.1315C12.9966 40.0756 14.3563 42.0577 16.2012 42.605C21.4131 43.8289 24.7687 40.9176 25.8739 37.5584C27.214 33.4848 25.8435 27.7629 22.2563 25.7306C19.2806 24.0449 14.8613 25.4666 12.8343 29.0692L10.577 27.6894L11.7885 14.2676H26.5189V17.4395H14.5812L14.394 23.0306C16.9592 21.2285 20.9121 21.246 23.4793 22.5107C28.3441 24.8296 30.6033 30.1035 29.6565 36.3213C28.3461 42.5045 25.4592 46.0077 18.9391 46.5112C11.6945 46.5738 9.13534 41.5931 9.16418 38.1598Z" fill="#D40000"/>
<path d="M216.034 274.895L212.814 274.924C212.202 272.979 210.842 270.997 208.997 270.45C203.785 269.226 200.43 272.137 199.325 275.497C197.984 279.57 199.355 285.292 202.942 287.324C205.918 289.01 210.337 287.588 212.364 283.986L214.621 285.366L213.41 298.787H198.679V295.616H210.617L210.804 290.024C208.239 291.827 204.286 291.809 201.719 290.544C196.854 288.225 194.595 282.952 195.542 276.734C196.852 270.551 199.739 267.047 206.259 266.544C213.504 266.481 216.063 271.462 216.034 274.895Z" fill="#D40000"/>
<path d="M10.497 61.2192C8.91398 57.7469 8.74037 51.8138 13.4682 51.0112C17.0303 50.5528 18.4798 52.2095 18.768 54.7531C18.9102 55.4961 19.3297 55.5416 19.4628 54.6948C19.6672 52.0854 22.25 50.5622 24.2692 50.9448C29.7958 51.8902 29.4733 57.9733 27.6679 62.1004C24.937 67.5798 22.0672 71.038 19.4228 76.5522C16.3846 70.8112 12.9154 66.1471 10.497 61.2192Z" fill="#D40000"/>
<path d="M45.0406 28.5442C52.1846 28.0698 55.909 34.1716 56.6358 38.9806C57.0692 39.7445 57.3065 39.5293 57.4727 38.9383C57.822 32.7642 63.3477 27.7181 68.4654 28.4081C76.7934 28.5164 81.8548 37.7835 80.4317 45.6269C78.6932 55.2085 73.5321 60.978 69.624 66.92C65.2027 73.0724 59.2512 81.9595 57.3338 86.2368C57.3338 86.2368 51.2857 77.0323 43.4168 66.2072C38.155 58.9687 33.9435 51.1249 33.5515 44.3719C33.1036 36.6564 36.2708 29.7401 45.0406 28.5442Z" fill="#D40000"/>
<path d="M155.722 28.5442C162.866 28.0698 166.59 34.1716 167.317 38.9806C167.751 39.7445 167.988 39.5293 168.154 38.9383C168.503 32.7642 174.029 27.7181 179.147 28.4081C187.475 28.5164 192.536 37.7835 191.113 45.6269C189.375 55.2085 184.213 60.978 180.305 66.92C175.884 73.0724 169.933 81.9595 168.015 86.2368C168.015 86.2368 161.967 77.0323 154.098 66.2072C148.836 58.9687 144.625 51.1249 144.233 44.3719C143.785 36.6564 146.952 29.7401 155.722 28.5442Z" fill="#D40000"/>
<path d="M100.55 127.781C107.694 127.307 111.418 133.408 112.145 138.217C112.578 138.981 112.816 138.766 112.982 138.175C113.331 132.001 118.857 126.955 123.974 127.645C132.302 127.753 137.364 137.02 135.941 144.864C134.202 154.445 129.041 160.215 125.133 166.157C120.712 172.309 114.76 181.196 112.843 185.474C112.843 185.474 106.795 176.269 98.9258 165.444C93.664 158.206 89.4526 150.362 89.0606 143.609C88.6127 135.893 91.78 128.977 100.55 127.781Z" fill="#D40000"/>
<path d="M45.0406 282.689C52.1846 283.163 55.909 277.062 56.6358 272.253C57.0692 271.489 57.3065 271.704 57.4727 272.295C57.822 278.469 63.3477 283.515 68.4654 282.825C76.7934 282.717 81.8548 273.45 80.4317 265.606C78.6932 256.025 73.5321 250.255 69.624 244.313C65.2027 238.161 59.2512 229.274 57.3338 224.996C57.3338 224.996 51.2857 234.201 43.4168 245.026C38.155 252.264 33.9435 260.108 33.5515 266.861C33.1036 274.577 36.2708 281.493 45.0406 282.689Z" fill="#D40000"/>
<path d="M155.722 282.689C162.866 283.163 166.59 277.062 167.317 272.253C167.751 271.489 167.988 271.704 168.154 272.295C168.503 278.469 174.029 283.515 179.147 282.825C187.475 282.717 192.536 273.45 191.113 265.606C189.375 256.025 184.213 250.255 180.305 244.313C175.884 238.161 169.933 229.274 168.015 224.996C168.015 224.996 161.967 234.201 154.098 245.026C148.836 252.264 144.625 260.108 144.233 266.861C143.785 274.577 146.952 281.493 155.722 282.689Z" fill="#D40000"/>
<path d="M197.205 252.077C195.622 255.549 195.448 261.482 200.176 262.285C203.738 262.743 205.188 261.087 205.476 258.543C205.618 257.8 206.037 257.755 206.171 258.601C206.375 261.211 208.958 262.734 210.977 262.351C216.504 261.406 216.181 255.323 214.375 251.196C211.644 245.716 208.775 242.258 206.131 236.744C203.092 242.485 199.623 247.149 197.205 252.077Z" fill="#D40000"/>
</svg>
