<svg width="226" height="314" viewBox="0 0 226 314" fill="none" xmlns="http://www.w3.org/2000/svg">
<path d="M214.094 1.42981H12.1248C6.25407 1.42981 1.49493 6.18895 1.49493 12.0597V302.611C1.49493 308.482 6.25407 313.241 12.1248 313.241H214.094C219.964 313.241 224.723 308.482 224.723 302.611V12.0597C224.723 6.18895 219.964 1.42981 214.094 1.42981Z" fill="white" stroke="black" stroke-width="0.996733"/>
<path d="M8.73029 47.4957V44.7586H11.3914L17.0556 15.4872H20.2784L26.5212 44.7586H28.6691V47.4957H21.3512V44.7586H23.328L22.5404 40.2728H15.1548L14.5846 44.7586H16.5614V47.4957H8.73029ZM21.9084 37.0796L18.6999 21.4093L15.6932 37.0796H21.9084Z" fill="black"/>
<path d="M217.488 267.175V269.912H214.827L209.163 299.184H205.94L199.697 269.912H197.549V267.175H204.867V269.912H202.89L203.678 274.398H211.064L211.634 269.912H209.657V267.175H217.488ZM204.31 277.591L207.519 293.261L210.525 277.591H204.31Z" fill="black"/>
<path d="M111.821 168.682C111.836 166.656 110.234 166.617 110.252 168.096C110.118 175.524 103.836 179.182 99.2715 178.315C92.2354 176.977 89.9897 169.992 90.0568 165.879C90.264 153.183 103.044 143.821 114.577 127.545C123.027 142.235 136.974 153.774 137.8 165.13C138.897 180.228 119.791 185.86 117.063 168.263C116.887 167.02 115.423 166.462 115.537 168.198C115.951 173.021 115.362 175.029 120.802 186.917H106.581C109.73 181.363 111.606 174.543 111.821 168.682Z" fill="black"/>
<path d="M19.0183 71.2402C19.0283 70.3686 18.1229 70.7755 18.0004 71.0499C16.8372 73.0355 15.1356 73.4975 13.4525 72.7817C11.7852 72.0725 10.8484 70.5013 10.9987 68.2595C11.3089 64.8217 14.0341 61.06 15.3537 58.9333C16.6057 57.0034 17.9816 54.7111 19.4304 51.7792C21.1276 55.1424 21.989 56.0998 23.8355 59.1707C25.4615 61.8751 27.728 64.5236 27.903 67.793C27.903 70.2779 26.857 72.6249 24.5036 73.0525C23.1722 73.2944 21.9249 72.6109 20.9998 71.0156C20.718 70.609 20.151 70.8209 20.1605 71.3775C20.3257 73.4708 21.1159 75.3607 22.99 77.5891H16.1029C17.513 76.0132 18.9517 73.8855 19.0183 71.2402Z" fill="black"/>
<path d="M207.398 243.815C207.408 244.687 206.503 244.28 206.38 244.006C205.217 242.02 203.515 241.558 201.832 242.274C200.165 242.983 199.228 244.554 199.378 246.796C199.689 250.234 202.414 253.995 203.733 256.122C204.985 258.052 206.361 260.344 207.81 263.276C209.507 259.913 210.369 258.956 212.215 255.885C213.841 253.18 216.108 250.532 216.283 247.262C216.283 244.777 215.237 242.431 212.883 242.003C211.552 241.761 210.305 242.445 209.38 244.04C209.098 244.446 208.531 244.234 208.54 243.678C208.705 241.585 209.496 239.695 211.37 237.466H204.483C205.893 239.042 207.331 241.17 207.398 243.815Z" fill="black"/>
<path d="M111.821 168.682C111.836 166.656 110.234 166.617 110.252 168.096C110.118 175.524 103.836 179.182 99.2715 178.315C92.2354 176.977 89.9897 169.992 90.0568 165.879C90.264 153.183 103.044 143.821 114.577 127.545C123.027 142.235 136.974 153.774 137.8 165.13C138.897 180.228 119.791 185.86 117.063 168.263C116.887 167.02 115.423 166.462 115.537 168.198C115.951 173.021 115.362 175.029 120.802 186.917H106.581C109.73 181.363 111.606 174.543 111.821 168.682Z" fill="black"/>
</svg>
