<svg width="225" height="314" viewBox="0 0 225 314" fill="none" xmlns="http://www.w3.org/2000/svg">
<path d="M213.74 1.42981H11.7715C5.90074 1.42981 1.1416 6.18895 1.1416 12.0597V302.611C1.1416 308.482 5.90074 313.241 11.7715 313.241H213.74C219.611 313.241 224.37 308.482 224.37 302.611V12.0597C224.37 6.18895 219.611 1.42981 213.74 1.42981Z" fill="white" stroke="black" stroke-width="0.996733"/>
<path d="M9.41726 40.7804L12.4439 39.8385C13.5856 42.8338 15.8938 43.7173 18.3355 43.5274C22.7176 43.1866 24.172 38.3789 24.5006 34.128C22.7932 35.9021 20.2265 36.8036 18.041 36.7157C11.0587 36.3464 9.27159 30.8611 9.20653 25.1143C9.01259 20.268 11.0542 16.7587 14.5549 15.151C16.4071 14.3346 20.6496 14.3344 22.5143 15.2996C26.7964 17.5158 28.3811 21.3483 28.0937 30.4906C28.0982 38.0143 26.4692 46.7778 18.2563 46.9656C13.5085 47.6097 9.90375 43.9858 9.41726 40.7804ZM21.3046 32.5367C22.7294 31.6512 23.5335 30.8205 24.1722 29.5747C24.6964 28.552 24.8739 28.0215 24.7245 25.9042C24.3395 20.4488 21.4251 17.3565 17.1998 17.9708C14.8433 18.3134 13.5567 19.6092 12.8171 22.0187C11.4516 26.4679 13.1826 31.676 16.4258 32.8757C17.8885 33.4167 20.1404 33.2602 21.3046 32.5367Z" fill="black"/>
<path d="M215.453 273.89L212.427 274.832C211.285 271.837 208.977 270.953 206.535 271.143C202.153 271.484 200.699 276.292 200.37 280.543C202.077 278.769 204.644 277.867 206.83 277.955C213.812 278.324 215.599 283.809 215.664 289.556C215.858 294.403 213.816 297.912 210.316 299.52C208.464 300.336 204.221 300.336 202.356 299.371C198.074 297.155 196.489 293.322 196.777 284.18C196.772 276.656 198.401 267.893 206.614 267.705C211.362 267.061 214.967 270.685 215.453 273.89ZM203.566 282.134C202.141 283.019 201.337 283.85 200.698 285.096C200.174 286.119 199.997 286.649 200.146 288.766C200.531 294.222 203.445 297.314 207.671 296.7C210.027 296.357 211.314 295.061 212.053 292.652C213.419 288.203 211.688 282.995 208.445 281.795C206.982 281.254 204.73 281.41 203.566 282.134Z" fill="black"/>
<path d="M53.9026 70.3026C53.9176 68.2769 52.3158 68.2382 52.334 69.7168C52.1997 77.1454 45.9175 80.8032 41.3534 79.9355C34.3173 78.5979 32.0716 71.6135 32.1387 67.5001C32.3459 54.8038 45.1264 45.4417 56.6588 29.1655C65.1089 43.8563 79.056 55.3952 79.8817 66.7513C80.9794 81.8493 61.8729 87.481 59.1449 69.884C58.9689 68.641 57.5052 68.0829 57.6188 69.819C58.0333 74.6416 57.4438 76.6503 62.8844 88.5384H48.6627C51.8124 82.9835 53.6882 76.1638 53.9026 70.3026Z" fill="black"/>
<path d="M165.435 70.3026C165.45 68.2769 163.848 68.2382 163.867 69.7168C163.732 77.1454 157.45 80.8032 152.886 79.9355C145.85 78.5979 143.604 71.6135 143.671 67.5001C143.879 54.8038 156.659 45.4417 168.192 29.1655C176.642 43.8563 190.589 55.3952 191.415 66.7513C192.512 81.8493 173.406 87.481 170.678 69.884C170.502 68.641 169.038 68.0829 169.151 69.819C169.566 74.6416 168.977 76.6503 174.417 88.5384H160.196C163.345 82.9835 165.221 76.1638 165.435 70.3026Z" fill="black"/>
<path d="M165.435 135.633C165.45 133.608 163.848 133.569 163.867 135.047C163.732 142.476 157.45 146.134 152.886 145.266C145.85 143.929 143.604 136.944 143.671 132.831C143.879 120.135 156.659 110.772 168.192 94.4962C176.642 109.187 190.589 120.726 191.415 132.082C192.512 147.18 173.406 152.812 170.678 135.215C170.502 133.972 169.038 133.414 169.151 135.15C169.566 139.972 168.977 141.981 174.417 153.869H160.196C163.345 148.314 165.221 141.494 165.435 135.633Z" fill="black"/>
<path d="M53.9026 135.633C53.9176 133.608 52.3158 133.569 52.334 135.047C52.1997 142.476 45.9175 146.134 41.3534 145.266C34.3173 143.929 32.0716 136.944 32.1387 132.831C32.3459 120.135 45.1264 110.772 56.6588 94.4962C65.1089 109.187 79.056 120.726 79.8817 132.082C80.9794 147.18 61.8729 152.812 59.1449 135.215C58.9689 133.972 57.5052 133.414 57.6188 135.15C58.0333 139.972 57.4438 141.981 62.8844 153.869H48.6627C51.8124 148.314 53.6882 141.494 53.9026 135.633Z" fill="black"/>
<path d="M165.446 244.76C165.461 246.786 163.859 246.824 163.877 245.346C163.743 237.917 157.461 234.259 152.897 235.127C145.861 236.465 143.615 243.449 143.682 247.562C143.889 260.259 156.67 269.621 168.202 285.897C176.652 271.206 190.599 259.667 191.425 248.311C192.523 233.213 173.416 227.581 170.688 245.178C170.512 246.421 169.049 246.98 169.162 245.243C169.577 240.421 168.987 238.412 174.428 226.524H160.206C163.356 232.079 165.232 238.899 165.446 244.76Z" fill="black"/>
<path d="M165.446 179.654C165.461 181.68 163.859 181.719 163.877 180.24C163.743 172.812 157.461 169.154 152.897 170.022C145.861 171.359 143.615 178.344 143.682 182.457C143.889 195.153 156.67 204.515 168.202 220.792C176.652 206.101 190.599 194.562 191.425 183.206C192.523 168.108 173.416 162.476 170.688 180.073C170.512 181.316 169.049 181.874 169.162 180.138C169.577 175.316 168.987 173.307 174.428 161.419H160.206C163.356 166.974 165.232 173.793 165.446 179.654Z" fill="black"/>
<path d="M110.358 145.895C110.373 147.92 108.771 147.959 108.789 146.481C108.655 139.052 102.373 135.394 97.8085 136.262C90.7724 137.599 88.5266 144.584 88.5937 148.697C88.8009 161.394 101.581 170.756 113.114 187.032C121.564 172.341 135.511 160.802 136.337 149.446C137.434 134.348 118.328 128.716 115.6 146.313C115.424 147.556 113.96 148.114 114.074 146.378C114.488 141.556 113.899 139.547 119.339 127.659H105.118C108.267 133.214 110.143 140.034 110.358 145.895Z" fill="black"/>
<path d="M53.9133 179.654C53.9283 181.68 52.3265 181.719 52.3447 180.24C52.2104 172.812 45.9282 169.154 41.3641 170.022C34.328 171.359 32.0823 178.344 32.1494 182.457C32.3566 195.153 45.1373 204.515 56.6697 220.792C65.1198 206.101 79.0669 194.562 79.8926 183.206C80.9903 168.108 61.8836 162.476 59.1556 180.073C58.9796 181.316 57.5159 181.874 57.6295 180.138C58.044 175.316 57.4547 173.307 62.8953 161.419H48.6736C51.8233 166.974 53.6989 173.793 53.9133 179.654Z" fill="black"/>
<path d="M53.9133 244.76C53.9283 246.786 52.3265 246.824 52.3447 245.346C52.2104 237.917 45.9282 234.259 41.3641 235.127C34.328 236.465 32.0823 243.449 32.1494 247.562C32.3566 260.259 45.1373 269.621 56.6697 285.897C65.1198 271.206 79.0669 259.667 79.8926 248.311C80.9903 233.213 61.8836 227.581 59.1556 245.178C58.9796 246.421 57.5159 246.98 57.6295 245.243C58.044 240.421 57.4547 238.412 62.8953 226.524H48.6736C51.8233 232.079 53.6989 238.899 53.9133 244.76Z" fill="black"/>
<path d="M17.97 68.8109C17.98 67.9394 17.0748 68.3463 16.9523 68.6206C15.7891 70.6062 14.0875 71.0683 12.4044 70.3524C10.7371 69.6433 9.80022 68.0721 9.95052 65.8303C10.2607 62.3925 12.9859 58.6308 14.3055 56.5041C15.5575 54.5742 16.9334 52.2819 18.3822 49.35C20.0795 52.7132 20.9409 53.6705 22.7874 56.7415C24.4134 59.4459 26.6799 62.0945 26.8549 65.3638C26.8549 67.8487 25.8089 70.1957 23.4555 70.6232C22.1241 70.8651 20.8768 70.1817 19.9517 68.5864C19.6699 68.1798 19.1029 68.3917 19.1124 68.9483C19.2776 71.0416 20.0678 72.9315 21.9419 75.1599H15.0548C16.4649 73.584 17.9034 71.4562 17.97 68.8109Z" fill="black"/>
<path d="M206.785 241.556C206.795 242.428 205.89 242.021 205.768 241.747C204.604 239.761 202.903 239.299 201.22 240.015C199.552 240.724 198.615 242.295 198.766 244.537C199.076 247.975 201.801 251.737 203.121 253.863C204.373 255.793 205.749 258.086 207.197 261.017C208.895 257.654 209.756 256.697 211.602 253.626C213.228 250.922 215.495 248.273 215.67 245.004C215.67 242.519 214.624 240.172 212.271 239.744C210.939 239.502 209.692 240.186 208.767 241.781C208.485 242.188 207.918 241.976 207.928 241.419C208.093 239.326 208.883 237.436 210.757 235.208H203.87C205.28 236.783 206.719 238.911 206.785 241.556Z" fill="black"/>
</svg>
