<svg width="225" height="314" viewBox="0 0 225 314" fill="none" xmlns="http://www.w3.org/2000/svg">
<path d="M213.431 1.42981H11.4626C5.5919 1.42981 0.832764 6.18895 0.832764 12.0597V302.611C0.832764 308.482 5.5919 313.241 11.4626 313.241H213.431C219.302 313.241 224.061 308.482 224.061 302.611V12.0597C224.061 6.18895 219.302 1.42981 213.431 1.42981Z" fill="white" stroke="black" stroke-width="0.996733"/>
<path d="M9.14282 48.0666L9.30765 46.0479C9.81708 39.809 11.182 37.7016 18.9295 31.1927C22.6892 28.034 23.9236 26.4753 24.0974 24.6665C24.5882 20.4066 20.7462 19.0757 18.2424 19.0526C15.0003 19.0228 11.3328 20.9642 13.0813 25.4666L9.4448 26.5344C8.71048 22.3342 9.46169 18.3924 12.8702 16.642C17.4165 14.3623 23.2502 15.2567 26.1936 18.8488C28.1718 21.2629 28.6215 24.5949 27.5614 27.2044C24.4608 33.876 13.9403 36.8108 13.0707 44.5239H24.7018V40.2287H28.1276V48.1358L9.14282 48.0666Z" fill="black"/>
<path d="M215.751 266.604L215.586 268.623C215.077 274.862 213.712 276.969 205.964 283.478C202.205 286.636 200.97 288.195 200.797 290.004C200.306 294.264 204.148 295.595 206.652 295.618C209.894 295.648 213.561 293.706 211.813 289.204L215.449 288.136C216.183 292.336 215.432 296.278 212.024 298.029C207.478 300.308 201.644 299.414 198.7 295.822C196.722 293.408 196.273 290.076 197.333 287.466C200.433 280.795 210.954 277.86 211.823 270.147H200.192V274.442H196.766V266.535L215.751 266.604Z" fill="black"/>
<path d="M111.404 69.5929C111.419 67.5672 109.817 67.5284 109.835 69.0071C109.701 76.4357 103.419 80.0935 98.8547 79.2258C91.8186 77.8882 89.5729 70.9037 89.64 66.7904C89.8472 54.0941 102.628 44.732 114.16 28.4558C122.61 43.1466 136.557 54.6855 137.383 66.0416C138.481 81.1396 119.374 86.7712 116.646 69.1743C116.47 67.9312 115.007 67.3732 115.12 69.1093C115.535 73.9319 114.945 75.9406 120.386 87.8287H106.164C109.314 82.2738 111.19 75.4541 111.404 69.5929Z" fill="black"/>
<path d="M111.415 245.525C111.43 247.551 109.828 247.59 109.846 246.111C109.712 238.682 103.43 235.024 98.8655 235.892C91.8294 237.23 89.5836 244.214 89.6507 248.328C89.8579 261.024 102.639 270.386 114.171 286.662C122.621 271.971 136.568 260.432 137.394 249.076C138.492 233.978 119.385 228.347 116.657 245.944C116.481 247.187 115.017 247.745 115.131 246.009C115.545 241.186 114.956 239.177 120.397 227.289H106.175C109.325 232.844 111.2 239.664 111.415 245.525Z" fill="black"/>
<path d="M19.2906 70.7175C19.3006 69.8459 18.3953 70.2528 18.2728 70.5272C17.1096 72.5128 15.4079 72.9748 13.7248 72.259C12.0575 71.5498 11.1207 69.9786 11.271 67.7368C11.5812 64.299 14.3063 60.5373 15.6259 58.4106C16.8779 56.4807 18.2539 54.1884 19.7027 51.2565C21.3999 54.6197 22.2612 55.5771 24.1077 58.648C25.7337 61.3524 28.0003 64.0009 28.1753 67.2703C28.1753 69.7552 27.1292 72.1022 24.7758 72.5298C23.4444 72.7717 22.1972 72.0882 21.2721 70.4929C20.9903 70.0863 20.4233 70.2982 20.4328 70.8548C20.5979 72.9481 21.3882 74.838 23.2623 77.0664H16.3752C17.7853 75.4905 19.224 73.3628 19.2906 70.7175Z" fill="black"/>
<path d="M207.014 243.877C207.024 244.749 206.119 244.342 205.997 244.067C204.833 242.082 203.132 241.62 201.449 242.336C199.782 243.045 198.845 244.616 198.995 246.858C199.305 250.295 202.03 254.057 203.35 256.184C204.602 258.114 205.978 260.406 207.427 263.338C209.124 259.975 209.985 259.017 211.832 255.946C213.458 253.242 215.724 250.594 215.899 247.324C215.899 244.839 214.853 242.492 212.5 242.065C211.168 241.823 209.921 242.506 208.996 244.102C208.714 244.508 208.147 244.296 208.157 243.74C208.322 241.646 209.112 239.756 210.986 237.528H204.099C205.509 239.104 206.948 241.232 207.014 243.877Z" fill="black"/>
</svg>
