<svg width="225" height="314" viewBox="0 0 225 314" fill="none" xmlns="http://www.w3.org/2000/svg">
<path d="M213.326 1.42981H11.3575C5.4868 1.42981 0.727661 6.18895 0.727661 12.0597V302.611C0.727661 308.482 5.4868 313.241 11.3575 313.241H213.326C219.197 313.241 223.956 308.482 223.956 302.611V12.0597C223.956 6.18895 219.197 1.42981 213.326 1.42981Z" fill="white" stroke="black" stroke-width="0.99" stroke-miterlimit="3.8"/>
<path d="M13.0697 47.9404C15.2019 36.8506 17.4787 28.53 23.4499 19.4926H11.3152V23.3828H8.08948V16.0519H25.8437L28.0322 19.4926C21.6907 26.2896 15.8841 48.2609 16.9129 47.9404H13.0697Z" fill="black"/>
<path d="M211.613 266.731C209.481 277.82 207.204 286.141 201.233 295.178H213.368V291.288H216.594V298.619H198.839L196.651 295.178C202.992 288.381 208.799 266.41 207.77 266.731H211.613Z" fill="black"/>
<path d="M53.8238 71.4344C53.8388 69.4087 52.237 69.37 52.2552 70.8486C52.1209 78.2773 45.8387 81.9351 41.2746 81.0674C34.2385 79.7298 31.9928 72.7453 32.0599 68.632C32.2671 55.9356 45.0477 46.5735 56.5801 30.2974C65.0302 44.9881 78.9773 56.527 79.803 67.8831C80.9007 82.9812 61.7942 88.6128 59.0662 71.0158C58.8902 69.7728 57.4264 69.2147 57.54 70.9508C57.9545 75.7734 57.3652 77.7822 62.8058 89.6702H48.584C51.7337 84.1154 53.6094 77.2956 53.8238 71.4344Z" fill="black"/>
<path d="M165.357 71.4344C165.372 69.4087 163.77 69.37 163.788 70.8486C163.654 78.2773 157.371 81.9351 152.807 81.0674C145.771 79.7298 143.526 72.7453 143.593 68.632C143.8 55.9356 156.581 46.5735 168.113 30.2974C176.563 44.9881 190.51 56.527 191.336 67.8831C192.434 82.9812 173.327 88.6128 170.599 71.0158C170.423 69.7728 168.959 69.2147 169.073 70.9508C169.487 75.7734 168.898 77.7822 174.338 89.6702H160.117C163.267 84.1154 165.142 77.2956 165.357 71.4344Z" fill="black"/>
<path d="M110.258 121.559C110.273 119.533 108.671 119.494 108.689 120.973C108.555 128.402 102.273 132.059 97.7085 131.192C90.6724 129.854 88.4267 122.87 88.4938 118.756C88.701 106.06 101.482 96.6978 113.014 80.4216C121.464 95.1124 135.411 106.651 136.237 118.007C137.335 133.105 118.228 138.737 115.5 121.14C115.324 119.897 113.86 119.339 113.974 121.075C114.388 125.898 113.799 127.906 119.24 139.794H105.018C108.168 134.24 110.043 127.42 110.258 121.559Z" fill="black"/>
<path d="M165.357 171.683C165.372 169.657 163.77 169.619 163.788 171.097C163.654 178.526 157.371 182.184 152.807 181.316C145.771 179.978 143.526 172.994 143.593 168.88C143.8 156.184 156.581 146.822 168.113 130.546C176.563 145.237 190.51 156.776 191.336 168.132C192.434 183.23 173.327 188.861 170.599 171.264C170.423 170.021 168.959 169.463 169.073 171.199C169.487 176.022 168.898 178.031 174.338 189.919H160.117C163.267 184.364 165.142 177.544 165.357 171.683Z" fill="black"/>
<path d="M53.8238 171.683C53.8388 169.657 52.237 169.619 52.2552 171.097C52.1209 178.526 45.8387 182.184 41.2746 181.316C34.2385 179.978 31.9928 172.994 32.0599 168.88C32.2671 156.184 45.0477 146.822 56.5801 130.546C65.0302 145.237 78.9773 156.776 79.803 168.132C80.9007 183.23 61.7942 188.861 59.0662 171.264C58.8902 170.021 57.4264 169.463 57.54 171.199C57.9545 176.022 57.3652 178.031 62.8058 189.919H48.584C51.7337 184.364 53.6094 177.544 53.8238 171.683Z" fill="black"/>
<path d="M165.367 247.406C165.382 249.431 163.781 249.47 163.799 247.992C163.665 240.563 157.382 236.905 152.818 237.773C145.782 239.11 143.536 246.095 143.604 250.208C143.811 262.905 156.591 272.267 168.124 288.543C176.574 273.852 190.521 262.313 191.347 250.957C192.444 235.859 173.338 230.227 170.61 247.824C170.434 249.067 168.97 249.625 169.084 247.889C169.498 243.067 168.909 241.058 174.349 229.17H160.128C163.277 234.725 165.153 241.545 165.367 247.406Z" fill="black"/>
<path d="M53.8346 247.406C53.8496 249.431 52.2478 249.47 52.266 247.992C52.1317 240.563 45.8496 236.905 41.2855 237.773C34.2494 239.11 32.0037 246.095 32.0708 250.208C32.278 262.905 45.0586 272.267 56.591 288.543C65.0411 273.852 78.9882 262.313 79.8139 250.957C80.9116 235.859 61.805 230.227 59.077 247.824C58.901 249.067 57.4372 249.625 57.5508 247.889C57.9653 243.067 57.376 241.058 62.8166 229.17H48.5949C51.7446 234.725 53.6202 241.545 53.8346 247.406Z" fill="black"/>
<path d="M17.8009 72.446C17.8109 71.5745 16.9057 71.9815 16.7832 72.2558C15.62 74.2414 13.9183 74.7035 12.2352 73.9876C10.5679 73.2785 9.63103 71.7073 9.78133 69.4655C10.0915 66.0276 12.8168 62.2659 14.1364 60.1392C15.3884 58.2093 16.7642 55.917 18.213 52.9851C19.9103 56.3483 20.7717 57.3057 22.6182 60.3766C24.2442 63.081 26.5107 65.7296 26.6857 68.999C26.6857 71.4839 25.6397 73.8308 23.2863 74.2584C21.9549 74.5003 20.7076 73.8168 19.7825 72.2215C19.5007 71.8149 18.9338 72.0269 18.9433 72.5834C19.1085 74.6768 19.8986 76.5666 21.7727 78.795H14.8856C16.2957 77.2191 17.7343 75.0914 17.8009 72.446Z" fill="black"/>
<path d="M206.616 245.192C206.626 246.063 205.721 245.656 205.598 245.382C204.435 243.396 202.733 242.934 201.05 243.65C199.383 244.359 198.446 245.931 198.597 248.172C198.907 251.61 201.632 255.372 202.951 257.499C204.203 259.429 205.579 261.721 207.028 264.653C208.725 261.289 209.587 260.332 211.433 257.261C213.059 254.557 215.326 251.908 215.501 248.639C215.501 246.154 214.455 243.807 212.101 243.379C210.77 243.138 209.523 243.821 208.598 245.416C208.316 245.823 207.749 245.611 207.758 245.054C207.923 242.961 208.714 241.071 210.588 238.843H203.701C205.111 240.419 206.549 242.546 206.616 245.192Z" fill="black"/>
</svg>
