<svg width="225" height="314" viewBox="0 0 225 314" fill="none" xmlns="http://www.w3.org/2000/svg">
<path d="M213.664 1.42981H11.6953C5.82457 1.42981 1.06543 6.18895 1.06543 12.0597V302.611C1.06543 308.482 5.82457 313.241 11.6953 313.241H213.664C219.535 313.241 224.294 308.482 224.294 302.611V12.0597C224.294 6.18895 219.535 1.42981 213.664 1.42981Z" fill="white" stroke="black" stroke-width="0.996733"/>
<path d="M7.90908 38.9803C8.06921 34.6049 9.67982 32.9619 12.8527 30.6709C10.3221 28.8757 9.25507 26.2343 9.47054 23.9837C9.99204 18.5368 14.2803 15.8117 18.9555 15.9304C23.6307 16.049 27.6601 19.6939 27.9743 23.6522C28.2477 27.0954 27.2039 28.7546 24.717 30.5674C27.6699 33.0089 29.5573 34.6173 29.4857 38.9275C29.414 43.2376 25.6799 48.3674 19.1711 48.5248C12.6623 48.6823 7.74897 43.3558 7.90908 38.9803ZM26.0817 38.9948C26.3609 35.0327 22.7934 32.3595 18.7684 32.3179C14.8462 32.2774 11.3372 35.5645 11.3365 39.1217C11.3365 42.9427 15.9002 45.0183 18.8476 45.0294C22.4298 45.0426 25.8412 42.4073 26.0817 38.9948ZM24.7937 24.8214C24.8716 21.4838 21.7368 19.0919 18.5051 19.1882C15.6297 19.2738 12.5841 21.4289 12.5825 24.219C12.5795 27.7089 16.0446 29.4513 18.9994 29.5171C21.6799 29.5767 24.7348 27.3424 24.7937 24.8214Z" fill="black"/>
<path d="M217.45 275.691C217.29 280.066 215.679 281.709 212.506 284C215.037 285.795 216.104 288.437 215.888 290.687C215.367 296.134 211.079 298.859 206.403 298.741C201.728 298.622 197.699 294.977 197.385 291.019C197.111 287.576 198.155 285.916 200.642 284.104C197.689 281.662 195.802 280.054 195.873 275.743C195.945 271.433 199.679 266.304 206.188 266.146C212.697 265.989 217.61 271.315 217.45 275.691ZM199.277 275.676C198.998 279.638 202.566 282.311 206.591 282.353C210.513 282.394 214.022 279.106 214.022 275.549C214.022 271.728 209.459 269.653 206.511 269.642C202.929 269.628 199.518 272.264 199.277 275.676ZM200.565 289.85C200.487 293.187 203.622 295.579 206.854 295.483C209.729 295.397 212.775 293.242 212.777 290.452C212.78 286.962 209.314 285.22 206.36 285.154C203.679 285.094 200.624 287.329 200.565 289.85Z" fill="black"/>
<path d="M53.535 69.2642C53.55 67.2385 51.9482 67.1998 51.9664 68.6785C51.8321 76.1071 45.5499 79.7648 40.9858 78.8972C33.9497 77.5595 31.704 70.5751 31.7711 66.4617C31.9783 53.7654 44.7588 44.4034 56.2912 28.1272C64.7413 42.818 78.6884 54.3568 79.5141 65.713C80.6118 80.811 61.5053 86.4426 58.7773 68.8456C58.6013 67.6026 57.1376 67.0445 57.2512 68.7806C57.6657 73.6032 57.0762 75.612 62.5168 87.5001H48.2952C51.4449 81.9452 53.3206 75.1254 53.535 69.2642Z" fill="black"/>
<path d="M165.067 69.2642C165.082 67.2385 163.481 67.1998 163.499 68.6785C163.365 76.1071 157.082 79.7648 152.518 78.8972C145.482 77.5595 143.237 70.5751 143.304 66.4617C143.511 53.7654 156.291 44.4034 167.824 28.1272C176.274 42.818 190.221 54.3568 191.047 65.713C192.144 80.811 173.038 86.4426 170.31 68.8456C170.134 67.6026 168.67 67.0445 168.784 68.7806C169.198 73.6032 168.609 75.612 174.049 87.5001H159.828C162.977 81.9452 164.853 75.1254 165.067 69.2642Z" fill="black"/>
<path d="M109.718 119.388C109.733 117.363 108.131 117.324 108.15 118.803C108.015 126.231 101.733 129.889 97.1689 129.021C90.1328 127.684 87.8871 120.699 87.9542 116.586C88.1614 103.89 100.942 94.5275 112.474 78.2513C120.924 92.9421 134.872 104.481 135.697 115.837C136.795 130.935 117.688 136.567 114.96 118.97C114.784 117.727 113.321 117.169 113.434 118.905C113.849 123.727 113.259 125.736 118.7 137.624H104.478C107.628 132.069 109.504 125.25 109.718 119.388Z" fill="black"/>
<path d="M53.535 169.513C53.55 167.487 51.9482 167.448 51.9664 168.927C51.8321 176.355 45.5499 180.013 40.9858 179.146C33.9497 177.808 31.704 170.823 31.7711 166.71C31.9783 154.014 44.7588 144.652 56.2912 128.375C64.7413 143.066 78.6884 154.605 79.5141 165.961C80.6118 181.059 61.5053 186.691 58.7773 169.094C58.6013 167.851 57.1376 167.293 57.2512 169.029C57.6657 173.852 57.0762 175.86 62.5168 187.748H48.2952C51.4449 182.193 53.3206 175.374 53.535 169.513Z" fill="black"/>
<path d="M165.067 169.513C165.082 167.487 163.481 167.448 163.499 168.927C163.365 176.355 157.082 180.013 152.518 179.146C145.482 177.808 143.237 170.823 143.304 166.71C143.511 154.014 156.291 144.652 167.824 128.375C176.274 143.066 190.221 154.605 191.047 165.961C192.144 181.059 173.038 186.691 170.31 169.094C170.134 167.851 168.67 167.293 168.784 169.029C169.198 173.852 168.609 175.86 174.049 187.748H159.828C162.977 182.193 164.853 175.374 165.067 169.513Z" fill="black"/>
<path d="M165.078 245.235C165.093 247.261 163.492 247.3 163.51 245.821C163.375 238.393 157.093 234.735 152.529 235.602C145.493 236.94 143.247 243.925 143.314 248.038C143.522 260.734 156.302 270.096 167.835 286.372C176.285 271.682 190.232 260.143 191.058 248.787C192.155 233.689 173.049 228.057 170.321 245.654C170.145 246.897 168.681 247.455 168.795 245.719C169.209 240.896 168.62 238.888 174.06 227H159.839C162.988 232.555 164.864 239.374 165.078 245.235Z" fill="black"/>
<path d="M109.729 195.936C109.744 197.962 108.142 198.001 108.16 196.522C108.026 189.093 101.744 185.436 97.1797 186.303C90.1436 187.641 87.8979 194.625 87.965 198.739C88.1722 211.435 100.953 220.797 112.485 237.073C120.935 222.382 134.882 210.844 135.708 199.487C136.806 184.389 117.699 178.758 114.971 196.355C114.795 197.598 113.331 198.156 113.445 196.42C113.86 191.597 113.27 189.588 118.711 177.7H104.489C107.639 183.255 109.514 190.075 109.729 195.936Z" fill="black"/>
<path d="M53.5458 245.235C53.5608 247.261 51.959 247.3 51.9772 245.821C51.8429 238.393 45.5607 234.735 40.9966 235.602C33.9605 236.94 31.7147 243.925 31.7818 248.038C31.989 260.734 44.7697 270.096 56.3021 286.372C64.7522 271.682 78.6993 260.143 79.525 248.787C80.6227 233.689 61.5161 228.057 58.7881 245.654C58.6121 246.897 57.1484 247.455 57.262 245.719C57.6765 240.896 57.0871 238.888 62.5277 227H48.306C51.4557 232.555 53.3314 239.374 53.5458 245.235Z" fill="black"/>
<path d="M18.8924 73.3961C18.9024 72.5245 17.9971 72.9314 17.8746 73.2057C16.7114 75.1913 15.0098 75.6534 13.3267 74.9376C11.6594 74.2284 10.7226 72.6572 10.8729 70.4154C11.1831 66.9776 13.9083 63.2158 15.2279 61.0892C16.4799 59.1593 17.8557 56.867 19.3045 53.9351C21.0018 57.2983 21.8633 58.2556 23.7098 61.3265C25.3358 64.0309 27.6023 66.6795 27.7773 69.9489C27.7773 72.4338 26.7313 74.7807 24.3779 75.2083C23.0465 75.4502 21.7992 74.7667 20.8741 73.1714C20.5923 72.7649 20.0252 72.9768 20.0347 73.5334C20.1999 75.6267 20.9901 77.5166 22.8642 79.745H15.9771C17.3872 78.169 18.8258 76.0414 18.8924 73.3961Z" fill="black"/>
<path d="M207.708 246.142C207.718 247.013 206.812 246.606 206.69 246.332C205.527 244.346 203.825 243.884 202.142 244.6C200.475 245.309 199.538 246.88 199.688 249.122C199.998 252.56 202.723 256.322 204.043 258.448C205.295 260.378 206.671 262.671 208.12 265.603C209.817 262.239 210.678 261.282 212.525 258.211C214.151 255.507 216.417 252.858 216.592 249.589C216.592 247.104 215.546 244.757 213.193 244.329C211.862 244.087 210.614 244.771 209.689 246.366C209.407 246.773 208.84 246.561 208.85 246.004C209.015 243.911 209.805 242.021 211.679 239.793H204.792C206.202 241.369 207.641 243.496 207.708 246.142Z" fill="black"/>
</svg>
