<svg width="225" height="314" viewBox="0 0 225 314" fill="none" xmlns="http://www.w3.org/2000/svg">
<path d="M213.508 1.42981H11.5388C5.66801 1.42981 0.908875 6.18895 0.908875 12.0597V302.611C0.908875 308.482 5.66801 313.241 11.5388 313.241H213.508C219.378 313.241 224.137 308.482 224.137 302.611V12.0597C224.137 6.18895 219.378 1.42981 213.508 1.42981Z" fill="white" stroke="black" stroke-width="0.996733"/>
<path d="M9.35809 40.6432L11.9053 38.8033C14.1192 42.337 16.5905 44.6663 20.3705 44.2657C26.0441 43.8841 28.3934 38.0456 27.2058 33.6427C26.059 29.6979 21.3601 27.7734 17.6275 29.88C16.7473 30.3767 15.7292 30.9901 15.7292 30.9901L14.4004 28.8243L23.1641 18.6293H13.6537V22.849H10.0043V15.2841H28.5936V17.8517C28.5936 17.8517 23.6145 22.9205 21.9664 25.6991C26.0214 25.8465 29.2892 28.3679 30.4587 32.3573C31.145 34.4558 30.8365 39.2584 29.9419 41.3253C28.4482 44.7765 24.3579 47.5752 20.6203 47.7369C14.3497 48.151 11.0185 43.8349 9.35809 40.6432Z" fill="black"/>
<path d="M215.688 274.027L213.141 275.867C210.927 272.334 208.456 270.004 204.676 270.405C199.002 270.786 196.653 276.625 197.84 281.028C198.987 284.973 203.686 286.897 207.419 284.791C208.299 284.294 209.317 283.775 209.317 283.775L210.89 285.809L201.882 296.041H211.393V291.822H215.042V299.387H196.453V296.819C196.453 296.819 201.432 291.75 203.08 288.972C199.025 288.824 195.757 286.303 194.588 282.313C193.901 280.215 194.21 275.412 195.104 273.345C196.598 269.894 200.688 267.095 204.426 266.934C210.697 266.52 214.028 270.836 215.688 274.027Z" fill="black"/>
<path d="M110.319 70.3642C110.334 68.3385 108.732 68.2998 108.751 69.7784C108.616 77.2071 102.334 80.8649 97.7699 79.9972C90.7338 78.6596 88.4881 71.6751 88.5552 67.5618C88.7624 54.8655 101.543 45.5033 113.075 29.2272C121.525 43.9179 135.473 55.4568 136.298 66.8129C137.396 81.911 118.289 87.5426 115.561 69.9456C115.385 68.7026 113.922 68.1445 114.035 69.8806C114.45 74.7032 113.86 76.712 119.301 88.6H105.079C108.229 83.0452 110.105 76.2254 110.319 70.3642Z" fill="black"/>
<path d="M110.393 145.91C110.408 147.936 108.807 147.975 108.825 146.496C108.69 139.067 102.408 135.41 97.844 136.277C90.8079 137.615 88.5623 144.599 88.6294 148.713C88.8366 161.409 101.617 170.771 113.15 187.047C121.6 172.357 135.547 160.818 136.372 149.462C137.47 134.363 118.364 128.732 115.636 146.329C115.46 147.572 113.996 148.13 114.11 146.394C114.524 141.571 113.935 139.562 119.375 127.674H105.153C108.303 133.229 110.179 140.049 110.393 145.91Z" fill="black"/>
<path d="M110.33 244.592C110.345 246.617 108.743 246.656 108.761 245.177C108.627 237.749 102.345 234.091 97.7807 234.959C90.7446 236.296 88.4989 243.281 88.566 247.394C88.7732 260.09 101.554 269.452 113.086 285.729C121.536 271.038 135.483 259.499 136.309 248.143C137.407 233.045 118.3 227.413 115.572 245.01C115.396 246.253 113.932 246.811 114.046 245.075C114.461 240.253 113.871 238.244 119.312 226.356H105.09C108.24 231.911 110.115 238.73 110.33 244.592Z" fill="black"/>
<path d="M18.9018 71.1504C18.9118 70.2789 18.0064 70.6858 17.8839 70.9601C16.7207 72.9457 15.0192 73.4078 13.3361 72.6919C11.6688 71.9828 10.7319 70.4116 10.8822 68.1698C11.1924 64.7319 13.9176 60.9702 15.2372 58.8435C16.4892 56.9136 17.8651 54.6214 19.3139 51.6895C21.0112 55.0527 21.8725 56.01 23.719 59.0809C25.345 61.7853 27.6115 64.4339 27.7865 67.7033C27.7865 70.1882 26.7406 72.5351 24.3872 72.9627C23.0558 73.2046 21.8084 72.5211 20.8833 70.9258C20.6015 70.5193 20.0346 70.7312 20.0441 71.2878C20.2093 73.3811 20.9995 75.271 22.8736 77.4994H15.9865C17.3966 75.9234 18.8352 73.7957 18.9018 71.1504Z" fill="black"/>
<path d="M205.884 244.25C205.894 245.122 204.988 244.715 204.866 244.44C203.703 242.455 202.001 241.993 200.318 242.709C198.651 243.418 197.714 244.989 197.864 247.231C198.174 250.669 200.899 254.43 202.219 256.557C203.471 258.487 204.847 260.779 206.296 263.711C207.993 260.348 208.854 259.391 210.701 256.32C212.327 253.615 214.593 250.967 214.768 247.697C214.768 245.212 213.722 242.865 211.369 242.438C210.038 242.196 208.79 242.879 207.865 244.475C207.583 244.881 207.017 244.669 207.026 244.113C207.191 242.02 207.981 240.13 209.855 237.901H202.968C204.378 239.477 205.817 241.605 205.884 244.25Z" fill="black"/>
</svg>
