<svg width="226" height="314" viewBox="0 0 226 314" fill="none" xmlns="http://www.w3.org/2000/svg">
<path d="M11.9346 313.241H213.903C219.774 313.241 224.533 308.482 224.533 302.611V12.0598C224.533 6.18906 219.774 1.42993 213.903 1.42993H11.9346C6.06383 1.42993 1.3042 6.18906 1.3042 12.0598V302.611C1.3042 308.482 6.06383 313.241 11.9346 313.241Z" fill="white" stroke="black" stroke-width="0.996733"/>
<path d="M216.904 267.897V299.403H213.794V267.897H216.904Z" fill="black"/>
<path d="M204.575 299.403C207.569 299.403 209.976 296.717 209.976 293.381V273.919C209.976 270.583 207.569 267.897 204.575 267.897H202.83C199.836 267.897 197.424 270.583 197.424 273.919V293.381C197.424 296.717 199.836 299.403 202.83 299.403H204.575ZM203.674 296.425C201.905 296.425 200.482 295.088 200.482 293.424V273.701C200.482 272.036 201.905 270.695 203.674 270.695C205.442 270.695 206.865 272.036 206.865 273.701V293.424C206.865 295.088 205.442 296.425 203.674 296.425Z" fill="black"/>
<path d="M8.93262 46.7743V15.2676H12.0435V46.7743H8.93262Z" fill="black"/>
<path d="M21.2621 15.2676C18.268 15.2676 15.8608 17.9542 15.8608 21.2901V40.7518C15.8608 44.0876 18.268 46.7743 21.2621 46.7743H23.0072C26.0014 46.7743 28.4132 44.0876 28.4132 40.7518V21.2901C28.4132 17.9542 26.0014 15.2676 23.0072 15.2676H21.2621ZM22.1631 18.2456C23.9316 18.2456 25.3546 19.5826 25.3546 21.2474V40.9699C25.3546 42.6347 23.9316 43.9764 22.1631 43.9764C20.3946 43.9764 18.9717 42.6347 18.9717 40.9699V21.2474C18.9717 19.5826 20.3946 18.2456 22.1631 18.2456Z" fill="black"/>
<path d="M54.24 69.9503C54.255 67.9246 52.6532 67.8859 52.6714 69.3645C52.5371 76.7931 46.2549 80.4509 41.6908 79.5833C34.6547 78.2456 32.409 71.2612 32.4761 67.1478C32.6833 54.4515 45.4639 45.0894 56.9963 28.8132C65.4464 43.504 79.3935 55.0429 80.2192 66.399C81.3169 81.497 62.2103 87.1287 59.4823 69.5317C59.3063 68.2887 57.8426 67.7306 57.9562 69.4667C58.3707 74.2893 57.7813 76.298 63.2219 88.1861H49.0002C52.1499 82.6312 54.0256 75.8115 54.24 69.9503Z" fill="black"/>
<path d="M109.956 102.616C109.971 100.59 108.369 100.551 108.387 102.03C108.253 109.458 101.971 113.116 97.4065 112.248C90.3704 110.911 88.1248 103.926 88.1919 99.8131C88.3991 87.1168 101.18 77.7547 112.712 61.4785C121.162 76.1693 135.109 87.7082 135.935 99.0643C137.033 114.162 117.926 119.794 115.198 102.197C115.022 100.954 113.558 100.396 113.672 102.132C114.086 106.955 113.497 108.963 118.938 120.851H104.716C107.866 115.297 109.741 108.477 109.956 102.616Z" fill="black"/>
<path d="M165.773 69.9503C165.788 67.9246 164.186 67.8859 164.204 69.3645C164.07 76.7931 157.788 80.4509 153.223 79.5833C146.187 78.2456 143.942 71.2612 144.009 67.1478C144.216 54.4515 156.997 45.0894 168.529 28.8132C176.979 43.504 190.926 55.0429 191.752 66.399C192.85 81.497 173.743 87.1287 171.015 69.5317C170.839 68.2887 169.375 67.7306 169.489 69.4667C169.903 74.2893 169.314 76.298 174.755 88.1861H160.533C163.683 82.6312 165.558 75.8115 165.773 69.9503Z" fill="black"/>
<path d="M165.773 135.281C165.788 133.255 164.186 133.216 164.204 134.695C164.07 142.124 157.788 145.782 153.223 144.914C146.187 143.576 143.942 136.592 144.009 132.478C144.216 119.782 156.997 110.42 168.529 94.1438C176.979 108.835 190.926 120.373 191.752 131.73C192.85 146.828 173.743 152.459 171.015 134.862C170.839 133.619 169.375 133.061 169.489 134.797C169.903 139.62 169.314 141.629 174.755 153.517H160.533C163.683 147.962 165.558 141.142 165.773 135.281Z" fill="black"/>
<path d="M54.24 135.281C54.255 133.255 52.6532 133.216 52.6714 134.695C52.5371 142.124 46.2549 145.782 41.6908 144.914C34.6547 143.576 32.409 136.592 32.4761 132.478C32.6833 119.782 45.4639 110.42 56.9963 94.1438C65.4464 108.835 79.3935 120.373 80.2192 131.73C81.3169 146.828 62.2103 152.459 59.4823 134.862C59.3063 133.619 57.8426 133.061 57.9562 134.797C58.3707 139.62 57.7813 141.629 63.2219 153.517H49.0002C52.1499 147.962 54.0256 141.142 54.24 135.281Z" fill="black"/>
<path d="M165.783 179.415C165.798 181.441 164.197 181.48 164.215 180.001C164.081 172.572 157.798 168.915 153.234 169.782C146.198 171.12 143.952 178.104 144.02 182.218C144.227 194.914 157.007 204.276 168.54 220.552C176.99 205.862 190.937 194.323 191.763 182.967C192.86 167.869 173.754 162.237 171.026 179.834C170.85 181.077 169.386 181.635 169.5 179.899C169.914 175.076 169.325 173.067 174.765 161.179H160.544C163.693 166.734 165.569 173.554 165.783 179.415Z" fill="black"/>
<path d="M165.783 244.746C165.798 246.771 164.197 246.81 164.215 245.332C164.081 237.903 157.798 234.245 153.234 235.113C146.198 236.45 143.952 243.435 144.02 247.548C144.227 260.245 157.007 269.607 168.54 285.883C176.99 271.192 190.937 259.653 191.763 248.297C192.86 233.199 173.754 227.567 171.026 245.164C170.85 246.407 169.386 246.966 169.5 245.229C169.914 240.407 169.325 238.398 174.765 226.51H160.544C163.693 232.065 165.569 238.885 165.783 244.746Z" fill="black"/>
<path d="M110.434 212.081C110.449 214.106 108.847 214.145 108.865 212.666C108.731 205.238 102.449 201.58 97.8848 202.448C90.8487 203.785 88.6031 210.77 88.6702 214.883C88.8774 227.579 101.658 236.941 113.19 253.218C121.64 238.527 135.587 226.988 136.413 215.632C137.511 200.534 118.404 194.902 115.676 212.499C115.5 213.742 114.037 214.3 114.15 212.564C114.565 207.742 113.975 205.733 119.416 193.845H105.194C108.344 199.4 110.22 206.219 110.434 212.081Z" fill="black"/>
<path d="M54.2507 179.415C54.2657 181.441 52.6639 181.48 52.6821 180.001C52.5478 172.572 46.2656 168.915 41.7015 169.782C34.6654 171.12 32.4197 178.104 32.4868 182.218C32.694 194.914 45.4745 204.276 57.0069 220.552C65.457 205.862 79.4041 194.323 80.2298 182.967C81.3275 167.869 62.221 162.237 59.493 179.834C59.317 181.077 57.8533 181.635 57.9669 179.899C58.3814 175.076 57.7919 173.067 63.2325 161.179H49.0109C52.1606 166.734 54.0363 173.554 54.2507 179.415Z" fill="black"/>
<path d="M54.2507 244.746C54.2657 246.771 52.6639 246.81 52.6821 245.332C52.5478 237.903 46.2656 234.245 41.7015 235.113C34.6654 236.45 32.4197 243.435 32.4868 247.548C32.694 260.245 45.4745 269.607 57.0069 285.883C65.457 271.192 79.4041 259.653 80.2298 248.297C81.3275 233.199 62.221 227.567 59.493 245.164C59.317 246.407 57.8533 246.966 57.9669 245.229C58.3814 240.407 57.7919 238.398 63.2325 226.51H49.0109C52.1606 232.065 54.0363 238.885 54.2507 244.746Z" fill="black"/>
<path d="M18.0933 71.2998C18.1033 70.4283 17.198 70.8352 17.0755 71.1095C15.9123 73.0951 14.2108 73.5572 12.5277 72.8413C10.8604 72.1322 9.92351 70.561 10.0738 68.3192C10.384 64.8813 13.1092 61.1197 14.4288 58.993C15.6808 57.0631 17.0567 54.7708 18.5055 51.8389C20.2028 55.2021 21.0642 56.1594 22.9107 59.2303C24.5367 61.9348 26.8032 64.5833 26.9782 67.8527C26.9782 70.3376 25.9322 72.6846 23.5788 73.1121C22.2474 73.354 21 72.6706 20.0749 71.0753C19.7931 70.6687 19.2262 70.8806 19.2357 71.4371C19.4009 73.5305 20.191 75.4204 22.0651 77.6488H15.1781C16.5882 76.0728 18.0267 73.9451 18.0933 71.2998Z" fill="black"/>
<path d="M206.909 244.046C206.919 244.917 206.013 244.51 205.891 244.236C204.728 242.25 203.026 241.788 201.343 242.504C199.676 243.213 198.739 244.784 198.889 247.026C199.199 250.464 201.925 254.226 203.244 256.352C204.496 258.282 205.872 260.575 207.321 263.507C209.018 260.143 209.88 259.186 211.726 256.115C213.352 253.411 215.619 250.762 215.794 247.493C215.794 245.008 214.748 242.661 212.394 242.233C211.063 241.991 209.815 242.675 208.89 244.27C208.609 244.677 208.042 244.465 208.051 243.908C208.216 241.815 209.006 239.925 210.88 237.697H203.993C205.404 239.272 206.842 241.4 206.909 244.046Z" fill="black"/>
</svg>
