<svg width="225" height="314" viewBox="0 0 225 314" fill="none" xmlns="http://www.w3.org/2000/svg">
<path d="M213.67 1.42981H11.7013C5.83055 1.42981 1.07141 6.18895 1.07141 12.0597V302.611C1.07141 308.482 5.83055 313.241 11.7013 313.241H213.67C219.54 313.241 224.3 308.482 224.3 302.611V12.0597C224.3 6.18895 219.54 1.42981 213.67 1.42981Z" fill="white" stroke="black" stroke-width="0.996733"/>
<path d="M18.9071 47.8037V44.9905H21.4921V40.3545H8.56702V37.0835L22.5521 15.9852L24.8374 15.993V37.0835H28.7909V40.3545H24.8374L24.7614 44.9905H26.9282V47.8037H18.9071ZM21.4921 23.7066L12.6129 37.0835H21.4921V23.7066Z" fill="black"/>
<path d="M206.464 266.867V269.68H203.879V274.316H216.804V277.587L202.819 298.686L200.534 298.678V277.587H196.58V274.316H200.534L200.61 269.68H198.443V266.867H206.464ZM203.879 290.964L212.758 277.587H203.879V290.964Z" fill="black"/>
<path d="M55.9779 67.6915C55.9929 65.6658 54.3911 65.6271 54.4093 67.1057C54.275 74.5344 47.9928 78.1922 43.4287 77.3245C36.3926 75.9868 34.1469 69.0024 34.214 64.889C34.4212 52.1927 47.2018 42.8306 58.7342 26.5544C67.1843 41.2452 81.1314 52.7841 81.9571 64.1402C83.0548 79.2382 63.9482 84.8699 61.2202 67.2729C61.0442 66.0299 59.5805 65.4718 59.6941 67.2079C60.1086 72.0305 59.5192 74.0393 64.9598 85.9273H50.7381C53.8878 80.3724 55.7635 73.5527 55.9779 67.6915Z" fill="black"/>
<path d="M167.511 67.6915C167.526 65.6658 165.924 65.6271 165.942 67.1057C165.808 74.5344 159.526 78.1922 154.962 77.3245C147.925 75.9868 145.68 69.0024 145.747 64.889C145.954 52.1927 158.735 42.8306 170.267 26.5544C178.717 41.2452 192.664 52.7841 193.49 64.1402C194.588 79.2382 175.481 84.8699 172.753 67.2729C172.577 66.0299 171.113 65.4718 171.227 67.2079C171.641 72.0305 171.052 74.0393 176.493 85.9273H162.271C165.421 80.3724 167.296 73.5527 167.511 67.6915Z" fill="black"/>
<path d="M55.9886 243.663C56.0036 245.689 54.402 245.727 54.4202 244.249C54.2859 236.82 48.0035 233.162 43.4394 234.03C36.4033 235.367 34.1577 242.352 34.2248 246.465C34.432 259.162 47.2126 268.524 58.745 284.8C67.1951 270.109 81.1422 258.57 81.9679 247.214C83.0656 232.116 63.9589 226.484 61.2309 244.081C61.0549 245.324 59.5913 245.883 59.7049 244.146C60.1194 239.324 59.53 237.315 64.9706 225.427H50.7489C53.8986 230.982 55.7742 237.802 55.9886 243.663Z" fill="black"/>
<path d="M167.521 243.663C167.536 245.689 165.935 245.727 165.953 244.249C165.819 236.82 159.536 233.162 154.972 234.03C147.936 235.367 145.69 242.352 145.758 246.465C145.965 259.162 158.745 268.524 170.278 284.8C178.728 270.109 192.675 258.57 193.501 247.214C194.598 232.116 175.492 226.484 172.764 244.081C172.588 245.324 171.124 245.883 171.238 244.146C171.652 239.324 171.063 237.315 176.503 225.427H162.282C165.431 230.982 167.307 237.802 167.521 243.663Z" fill="black"/>
<path d="M18.0727 71.4807C18.0827 70.6092 17.1774 71.0161 17.0549 71.2904C15.8917 73.276 14.19 73.7381 12.5069 73.0222C10.8396 72.3131 9.90276 70.7419 10.0531 68.5001C10.3633 65.0623 13.0884 61.3006 14.408 59.1739C15.66 57.244 17.036 54.9517 18.4848 52.0198C20.1821 55.383 21.0435 56.3403 22.89 59.4113C24.516 62.1157 26.7825 64.7643 26.9575 68.0336C26.9575 70.5186 25.9115 72.8655 23.5581 73.293C22.2267 73.5349 20.9794 72.8515 20.0543 71.2562C19.7725 70.8496 19.2054 71.0615 19.2149 71.6181C19.3801 73.7114 20.1704 75.6013 22.0445 77.8297H15.1573C16.5674 76.2538 18.0061 74.126 18.0727 71.4807Z" fill="black"/>
<path d="M205.291 243.481C205.301 244.353 204.396 243.946 204.274 243.672C203.11 241.686 201.409 241.224 199.726 241.94C198.058 242.649 197.122 244.22 197.272 246.462C197.582 249.9 200.307 253.661 201.627 255.788C202.879 257.718 204.255 260.01 205.703 262.942C207.401 259.579 208.262 258.622 210.109 255.551C211.735 252.846 214.001 250.198 214.176 246.928C214.176 244.443 213.13 242.097 210.777 241.669C209.445 241.427 208.198 242.111 207.273 243.706C206.991 244.112 206.424 243.9 206.434 243.344C206.599 241.251 207.389 239.361 209.263 237.132H202.376C203.786 238.708 205.225 240.836 205.291 243.481Z" fill="black"/>
</svg>
