<svg width="225" height="314" viewBox="0 0 225 314" fill="none" xmlns="http://www.w3.org/2000/svg">
<path d="M213.846 1.42981H11.8771C6.00633 1.42981 1.24719 6.18895 1.24719 12.0597V302.611C1.24719 308.482 6.00633 313.241 11.8771 313.241H213.846C219.717 313.241 224.476 308.482 224.476 302.611V12.0597C224.476 6.18895 219.717 1.42981 213.846 1.42981Z" fill="white" stroke="black" stroke-width="0.996733"/>
<path d="M9.42614 38.9676L12.6462 38.9393C13.2586 40.8833 14.6182 42.8655 16.4632 43.4127C21.675 44.6366 25.0307 41.7254 26.1358 38.3661C27.476 34.2925 26.1054 28.5706 22.5182 26.5384C19.5426 24.8526 15.1233 26.2743 13.0962 29.8769L10.839 28.4971L12.0504 15.0753H26.7809V18.2472H14.8432L14.6559 23.8383C17.2212 22.0362 21.174 22.0537 23.7413 23.3184C28.6061 25.6373 30.8653 30.9112 29.9185 37.129C28.6081 43.3122 25.7212 46.8155 19.2011 47.3189C11.9565 47.3815 9.3973 42.4008 9.42614 38.9676Z" fill="black"/>
<path d="M216.296 275.703L213.076 275.731C212.464 273.787 211.104 271.805 209.259 271.258C204.047 270.034 200.692 272.945 199.587 276.305C198.246 280.378 199.617 286.1 203.204 288.132C206.18 289.818 210.599 288.396 212.626 284.794L214.883 286.174L213.672 299.595H198.941V296.423H210.879L211.066 290.832C208.501 292.634 204.548 292.617 201.981 291.352C197.116 289.033 194.857 283.759 195.804 277.542C197.114 271.358 200.001 267.855 206.521 267.352C213.766 267.289 216.325 272.27 216.296 275.703Z" fill="black"/>
<path d="M55.2117 69.5493C55.2267 67.5236 53.6249 67.4849 53.6431 68.9635C53.5088 76.3921 47.2266 80.0499 42.6625 79.1822C35.6264 77.8446 33.3806 70.8601 33.4477 66.7468C33.6549 54.0505 46.4356 44.6884 57.968 28.4122C66.4181 43.103 80.3652 54.6418 81.1909 65.998C82.2886 81.096 63.182 86.7277 60.454 69.1307C60.278 67.8876 58.8142 67.3296 58.9278 69.0657C59.3423 73.8883 58.753 75.897 64.1936 87.7851H49.9719C53.1216 82.2302 54.9973 75.4105 55.2117 69.5493Z" fill="black"/>
<path d="M165.893 69.5493C165.908 67.5236 164.306 67.4849 164.324 68.9635C164.19 76.3921 157.908 80.0499 153.344 79.1822C146.308 77.8446 144.062 70.8601 144.129 66.7468C144.336 54.0505 157.117 44.6884 168.649 28.4122C177.099 43.103 191.046 54.6418 191.872 65.998C192.97 81.096 173.863 86.7277 171.135 69.1307C170.959 67.8876 169.496 67.3296 169.609 69.0657C170.024 73.8883 169.434 75.897 174.875 87.7851H160.653C163.803 82.2302 165.679 75.4105 165.893 69.5493Z" fill="black"/>
<path d="M110.65 168.812C110.665 166.786 109.063 166.747 109.082 168.226C108.947 175.654 102.665 179.312 98.1009 178.445C91.0648 177.107 88.8191 170.122 88.8862 166.009C89.0934 153.313 101.874 143.951 113.406 127.675C121.857 142.365 135.804 153.904 136.629 165.26C137.727 180.358 118.62 185.99 115.892 168.393C115.716 167.15 114.253 166.592 114.366 168.328C114.781 173.151 114.191 175.159 119.632 187.047H105.41C108.56 181.493 110.436 174.673 110.65 168.812Z" fill="black"/>
<path d="M55.2225 243.325C55.2375 245.351 53.6357 245.389 53.6539 243.911C53.5196 236.482 47.2374 232.824 42.6733 233.692C35.6372 235.03 33.3915 242.014 33.4586 246.127C33.6658 258.824 46.4463 268.186 57.9787 284.462C66.4288 269.771 80.3759 258.232 81.2016 246.876C82.2993 231.778 63.1928 226.147 60.4648 243.744C60.2888 244.987 58.8251 245.545 58.9387 243.809C59.3532 238.986 58.7637 236.977 64.2043 225.089H49.9827C53.1324 230.644 55.0081 237.464 55.2225 243.325Z" fill="black"/>
<path d="M165.904 243.325C165.919 245.351 164.317 245.389 164.335 243.911C164.201 236.482 157.919 232.824 153.355 233.692C146.319 235.03 144.073 242.014 144.14 246.127C144.347 258.824 157.128 268.186 168.66 284.462C177.11 269.771 191.057 258.232 191.883 246.876C192.981 231.778 173.874 226.147 171.146 243.744C170.97 244.987 169.506 245.545 169.62 243.809C170.034 238.986 169.445 236.977 174.886 225.089H160.664C163.814 230.644 165.689 237.464 165.904 243.325Z" fill="black"/>
<path d="M19.004 71.083C19.014 70.2115 18.1087 70.6184 17.9862 70.8927C16.823 72.8783 15.1213 73.3404 13.4382 72.6245C11.7709 71.9154 10.834 70.3442 10.9843 68.1024C11.2945 64.6645 14.0197 60.9029 15.3393 58.7762C16.5913 56.8463 17.9673 54.554 19.4161 51.6221C21.1134 54.9853 21.9747 55.9427 23.8212 59.0136C25.4472 61.718 27.7138 64.3665 27.8888 67.6359C27.8888 70.1208 26.8427 72.4678 24.4893 72.8954C23.1579 73.1372 21.9107 72.4538 20.9856 70.8585C20.7038 70.4519 20.1367 70.6638 20.1462 71.2204C20.3114 73.3137 21.1017 75.2036 22.9758 77.432H16.0887C17.4988 75.856 18.9374 73.7283 19.004 71.083Z" fill="black"/>
<path d="M205.712 243.829C205.722 244.7 204.817 244.293 204.694 244.019C203.531 242.033 201.829 241.571 200.146 242.287C198.479 242.996 197.542 244.568 197.692 246.809C198.003 250.247 200.728 254.009 202.047 256.136C203.299 258.065 204.675 260.358 206.124 263.29C207.821 259.926 208.683 258.969 210.529 255.898C212.155 253.194 214.422 250.545 214.597 247.276C214.597 244.791 213.551 242.444 211.197 242.016C209.866 241.775 208.619 242.458 207.694 244.053C207.412 244.46 206.845 244.248 206.854 243.691C207.019 241.598 207.809 239.708 209.684 237.48H202.797C204.207 239.056 205.645 241.183 205.712 243.829Z" fill="black"/>
</svg>
