<svg width="226" height="314" viewBox="0 0 226 314" fill="none" xmlns="http://www.w3.org/2000/svg">
<path d="M214.073 1.42981H12.1046C6.23387 1.42981 1.47473 6.18895 1.47473 12.0597V302.611C1.47473 308.482 6.23387 313.241 12.1046 313.241H214.073C219.944 313.241 224.703 308.482 224.703 302.611V12.0597C224.703 6.18895 219.944 1.42981 214.073 1.42981Z" fill="white" stroke="black" stroke-width="0.996733"/>
<path d="M9.7145 37.4303C9.30614 34.6831 9.31268 27.585 9.64843 25.4878C10.6775 19.0593 13.1806 16.119 17.3711 15.1553C21.4397 14.2196 27.16 15.2612 28.4152 20.6373L25.0087 20.7002C23.1689 17.0669 18.5133 18.0381 15.893 19.6181C13.7998 20.8802 12.8544 26.1377 13.2589 26.4613C13.2559 26.4613 17.216 23.5842 20.3347 23.7964C27.0029 24.4782 29.7521 30.1523 29.5198 35.5151C29.3091 41.9647 27.2249 47.1176 20.1587 47.4616C13.4406 47.2081 10.359 43.6114 9.7145 37.4303ZM26.2849 35.7253C26.3221 31.2499 24.2513 27.9025 20.3354 27.5329C16.4196 27.1633 12.4719 30.9147 12.7452 35.4754C13.0196 40.052 14.8238 43.9072 19.5716 43.8858C24.6776 43.8629 26.2585 38.9094 26.2849 35.7253Z" fill="black"/>
<path d="M216.463 277.24C216.872 279.988 216.865 287.086 216.529 289.183C215.5 295.611 212.997 298.552 208.807 299.515C204.738 300.451 199.018 299.41 197.762 294.033L201.169 293.971C203.009 297.604 207.664 296.633 210.285 295.053C212.378 293.791 213.323 288.533 212.919 288.209C212.922 288.209 208.962 291.087 205.843 290.874C199.175 290.193 196.426 284.518 196.658 279.156C196.869 272.706 198.953 267.553 206.019 267.209C212.737 267.463 215.819 271.059 216.463 277.24ZM199.893 278.945C199.856 283.421 201.926 286.768 205.842 287.138C209.758 287.507 213.706 283.756 213.432 279.195C213.158 274.619 211.354 270.764 206.606 270.785C201.5 270.808 199.919 275.761 199.893 278.945Z" fill="black"/>
<path d="M55.3221 69.9901C55.3371 67.9644 53.7353 67.9257 53.7535 69.4043C53.6192 76.8329 47.3372 80.4907 42.7731 79.623C35.737 78.2854 33.4911 71.3009 33.5582 67.1876C33.7654 54.4913 46.5461 45.1292 58.0785 28.853C66.5286 43.5438 80.4757 55.0827 81.3014 66.4388C82.3991 81.5368 63.2926 87.1685 60.5646 69.5715C60.3886 68.3284 58.9248 67.7704 59.0384 69.5065C59.4529 74.3291 58.8635 76.3378 64.3041 88.2259H50.0824C53.2321 82.671 55.1077 75.8513 55.3221 69.9901Z" fill="black"/>
<path d="M166.855 69.9901C166.87 67.9644 165.268 67.9257 165.286 69.4043C165.152 76.8329 158.87 80.4907 154.306 79.623C147.27 78.2854 145.024 71.3009 145.091 67.1876C145.298 54.4913 158.079 45.1292 169.611 28.853C178.061 43.5438 192.008 55.0827 192.834 66.4388C193.932 81.5368 174.825 87.1685 172.097 69.5715C171.921 68.3284 170.458 67.7704 170.571 69.5065C170.986 74.3291 170.396 76.3378 175.837 88.2259H161.615C164.765 82.671 166.641 75.8513 166.855 69.9901Z" fill="black"/>
<path d="M55.3331 146.008C55.3481 148.034 53.7463 148.072 53.7645 146.594C53.6302 139.165 47.3479 135.507 42.7838 136.375C35.7477 137.713 33.5021 144.697 33.5692 148.811C33.7764 161.507 46.5568 170.869 58.0892 187.145C66.5393 172.454 80.4864 160.915 81.3121 149.559C82.4098 134.461 63.3033 128.83 60.5753 146.427C60.3993 147.67 58.9356 148.228 59.0492 146.492C59.4637 141.669 58.8742 139.66 64.3148 127.772H50.0931C53.2428 133.327 55.1187 140.147 55.3331 146.008Z" fill="black"/>
<path d="M166.866 146.008C166.881 148.034 165.279 148.072 165.297 146.594C165.163 139.165 158.881 135.507 154.317 136.375C147.28 137.713 145.035 144.697 145.102 148.811C145.309 161.507 158.09 170.869 169.622 187.145C178.072 172.454 192.019 160.915 192.845 149.559C193.943 134.461 174.836 128.83 172.108 146.427C171.932 147.67 170.468 148.228 170.582 146.492C170.996 141.669 170.407 139.66 175.848 127.772H161.626C164.776 133.327 166.651 140.147 166.866 146.008Z" fill="black"/>
<path d="M166.866 244.607C166.881 246.632 165.279 246.671 165.297 245.192C165.163 237.764 158.881 234.106 154.317 234.974C147.28 236.311 145.035 243.296 145.102 247.409C145.309 260.105 158.09 269.467 169.622 285.744C178.072 271.053 192.019 259.514 192.845 248.158C193.943 233.06 174.836 227.428 172.108 245.025C171.932 246.268 170.468 246.826 170.582 245.09C170.996 240.268 170.407 238.259 175.848 226.371H161.626C164.776 231.926 166.651 238.745 166.866 244.607Z" fill="black"/>
<path d="M55.3331 244.607C55.3481 246.632 53.7463 246.671 53.7645 245.192C53.6302 237.764 47.3479 234.106 42.7838 234.974C35.7477 236.311 33.5021 243.296 33.5692 247.409C33.7764 260.105 46.5568 269.467 58.0892 285.744C66.5393 271.053 80.4864 259.514 81.3121 248.158C82.4098 233.06 63.3033 227.428 60.5753 245.025C60.3993 246.268 58.9356 246.826 59.0492 245.09C59.4637 240.268 58.8742 238.259 64.3148 226.371H50.0931C53.2428 231.926 55.1187 238.745 55.3331 244.607Z" fill="black"/>
<path d="M18.3703 69.8599C18.3803 68.9884 17.475 69.3953 17.3525 69.6696C16.1893 71.6552 14.4877 72.1173 12.8046 71.4014C11.1373 70.6923 10.2005 69.1211 10.3508 66.8793C10.661 63.4414 13.3862 59.6797 14.7058 57.553C15.9578 55.6231 17.3336 53.3309 18.7824 50.3989C20.4797 53.7621 21.3412 54.7195 23.1877 57.7904C24.8137 60.4948 27.0801 63.1434 27.2551 66.4128C27.2551 68.8977 26.2091 71.2446 23.8557 71.6722C22.5243 71.9141 21.2771 71.2306 20.352 69.6353C20.0702 69.2288 19.5032 69.4407 19.5127 69.9973C19.6779 72.0906 20.4679 73.9805 22.342 76.2089H15.455C16.8651 74.6329 18.3037 72.5052 18.3703 69.8599Z" fill="black"/>
<path d="M207.186 242.605C207.196 243.477 206.29 243.07 206.168 242.796C205.004 240.81 203.303 240.348 201.62 241.064C199.953 241.773 199.016 243.344 199.166 245.586C199.476 249.024 202.201 252.786 203.521 254.912C204.773 256.842 206.149 259.134 207.598 262.066C209.295 258.703 210.156 257.746 212.003 254.675C213.629 251.971 215.895 249.322 216.07 246.053C216.07 243.568 215.024 241.221 212.671 240.793C211.339 240.551 210.092 241.235 209.167 242.83C208.885 243.237 208.318 243.025 208.328 242.468C208.493 240.375 209.283 238.485 211.157 236.256H204.27C205.68 237.832 207.119 239.96 207.186 242.605Z" fill="black"/>
</svg>
