<svg width="84" height="75" viewBox="0 0 84 75" fill="none" xmlns="http://www.w3.org/2000/svg">
<path fill-rule="evenodd" clip-rule="evenodd" d="M47.1069 55.7939C47.1581 56.1466 47.2178 56.4949 47.2813 56.8443C47.4295 57.6594 48.2104 58.2 49.0255 58.0518C49.8405 57.9036 50.3811 57.1227 50.2329 56.3076C50.0544 55.3254 49.9378 54.5056 49.9378 53.6132C49.9378 53.5234 49.9326 53.3385 49.868 53.1236C49.8074 52.9216 49.6204 52.4583 49.0906 52.1901C48.5462 51.9145 48.0481 52.0491 47.8322 52.1345C47.614 52.2208 47.4629 52.3379 47.3986 52.3901C47.2613 52.5017 47.1541 52.6241 47.1094 52.6754C47.061 52.731 47.0087 52.7942 46.9701 52.8411C46.9641 52.8483 46.9584 52.8552 46.9531 52.8616C46.9136 52.9094 46.8822 52.9465 46.8572 52.9754C46.31 53.2251 45.9449 53.7922 45.9824 54.4287C46.0216 55.0964 46.492 55.6363 47.1069 55.7939ZM46.7787 53.0604C46.7763 53.0627 46.7765 53.0623 46.7795 53.0597ZM49.3772 54.6394C49.382 54.6341 49.3842 54.6318 49.3841 54.632C49.384 54.6321 49.3817 54.6348 49.3772 54.6394Z" fill="#9747FF"/>
<path fill-rule="evenodd" clip-rule="evenodd" d="M58.7536 52.0733C58.7581 53.2691 58.8296 54.3697 59.1084 55.6242C59.2881 56.4329 60.0893 56.9427 60.898 56.763C61.7067 56.5833 62.2166 55.7821 62.0369 54.9734C61.813 53.9659 61.7533 53.0698 61.7533 51.9457C61.7533 51.845 61.7638 51.7267 61.7821 51.5693C61.7835 51.5576 61.7853 51.5427 61.7875 51.5251C61.8019 51.4077 61.8312 51.1705 61.8302 50.9838C61.8302 50.9816 61.8302 50.979 61.8302 50.9759C61.8302 50.8964 61.8305 50.5207 61.6166 50.1441C61.4745 49.8938 61.2085 49.5936 60.7765 49.4447C60.3679 49.3038 60.0096 49.3678 59.8018 49.4328C59.4478 49.5437 59.2064 49.759 59.1322 49.8253L59.1304 49.8269C59.0161 49.9288 58.9081 50.0436 58.8129 50.1508C58.323 50.7019 58.3133 51.5134 58.7536 52.0733Z" fill="#9747FF"/>
<path fill-rule="evenodd" clip-rule="evenodd" d="M70.2022 43.8843C70.761 44.2505 71.2352 44.7149 71.5151 44.9947C73.4932 46.9729 74.0332 49.5997 73.9373 52.0531C73.8414 54.5045 73.11 56.9653 72.3226 58.8981C70.9325 62.31 68.4709 64.254 65.6498 65.4057C62.9017 66.5275 59.7535 66.9193 56.917 67.2553C54.1641 67.5813 50.9215 67.1221 48.298 65.7241C45.6303 64.3025 43.4889 61.8242 43.4253 58.1988C43.4108 57.3705 44.0704 56.6873 44.8987 56.6727C45.727 56.6582 46.4103 57.3179 46.4248 58.1462C46.4646 60.4141 47.7401 62.0274 49.7089 63.0765C51.722 64.1493 54.3354 64.54 56.5642 64.2761C59.4648 63.9326 62.2056 63.5714 64.5159 62.6282C66.7533 61.7148 68.5194 60.2817 69.5443 57.7662C70.2573 56.016 70.8622 53.9142 70.9396 51.9358C71.0169 49.9595 70.5672 48.2894 69.3937 47.116C69.3623 47.0846 69.3306 47.0531 69.2988 47.0218C69.0798 47.1469 68.8263 47.2183 68.5561 47.2183C68.1595 47.2183 67.765 47.1573 67.4136 47.0472C67.1124 46.9529 66.6419 46.761 66.2879 46.3615C66.0945 46.1433 65.8538 45.7656 65.842 45.2487C65.8295 44.7037 66.0767 44.2819 66.3331 44.0164C66.7599 43.5743 67.353 43.4023 67.7517 43.3137C68.7897 43.0831 69.6897 43.5485 70.2022 43.8843ZM68.2756 44.1713C68.2761 44.171 68.2837 44.1736 68.2969 44.18C68.2817 44.1748 68.2751 44.1716 68.2756 44.1713Z" fill="#9747FF"/>
<path fill-rule="evenodd" clip-rule="evenodd" d="M73.7163 5.47872C71.5611 6.68323 69.5205 8.21711 67.9977 9.50196C61.2012 15.2365 54.4406 22.2276 52.5261 30.6514C52.5076 30.733 52.4761 30.8797 52.4342 31.0749C52.4189 31.1462 52.4022 31.224 52.3842 31.3074C52.3191 31.6095 52.2409 31.9697 52.1635 32.3091C52.0878 32.6411 52.0066 32.9809 51.936 33.2308C51.9067 33.3347 51.8564 33.5071 51.7888 33.6606C51.7695 33.7043 51.7351 33.7786 51.684 33.8627L51.6829 33.8644C51.6509 33.9173 51.523 34.1282 51.2775 34.3086C51.1407 34.4092 50.8857 34.5607 50.5284 34.5952C50.1307 34.6337 49.7655 34.5117 49.4897 34.3087C49.069 33.9989 48.9509 33.576 48.9308 33.5042C48.9302 33.502 48.9297 33.5002 48.9292 33.4986C48.703 32.7067 48.5597 31.8845 48.4311 31.1466C48.4195 31.08 48.408 31.0142 48.3966 30.9491C48.2529 30.1294 48.1161 29.4022 47.8968 28.72C47.6721 28.0209 47.4435 27.3176 47.2135 26.6102C45.4539 21.1965 43.6163 15.5424 42.844 9.70082C41.4607 13.7838 41.7944 18.98 42.419 23.4774C42.8265 26.4116 43.3298 29.3485 43.9121 32.2601C43.9087 32.2428 43.9351 32.3254 44.0477 32.685C44.1329 32.9571 44.2452 33.3255 44.3239 33.6691C44.3629 33.8394 44.4024 34.0407 44.4219 34.2425C44.4355 34.3843 44.4691 34.7669 44.3223 35.1652C44.2379 35.3943 44.0478 35.7512 43.6398 35.9965C43.2122 36.2535 42.7746 36.2513 42.4733 36.1869C41.9867 36.0828 41.642 35.7774 41.5032 35.6512C39.4124 33.7505 36.5801 32.6399 33.3895 31.8043C31.8734 31.4072 30.321 31.0826 28.7594 30.756C28.6861 30.7407 28.6127 30.7254 28.5394 30.71C27.1866 30.427 25.8241 30.1391 24.5238 29.8033C26.4711 31.6505 28.1742 33.7098 29.6295 35.5163C31.7719 38.1759 33.8024 41.1284 35.6419 43.9387C37.3899 46.6093 38.0715 49.7366 38.122 52.7182C38.136 53.5465 37.4759 54.2294 36.6476 54.2434C35.8193 54.2574 35.1365 53.5973 35.1224 52.769C35.0786 50.1821 34.4875 47.6528 33.1318 45.5816C31.313 42.8029 29.3448 39.9451 27.2932 37.3983C25.5521 35.237 23.6048 32.9064 21.3891 31.015C20.32 30.1023 19.2119 29.3127 18.0606 28.6999C14.3542 28.5014 10.5371 28.9245 6.64246 29.3953C6.44166 29.4196 5.95942 29.4868 5.37479 29.5682C4.97496 29.6239 4.52724 29.6863 4.08893 29.7462C3.56187 29.8182 3.05282 29.8859 2.68692 29.9294C2.51003 29.9504 2.34089 29.969 2.21539 29.9781L2.21037 29.9785C2.17146 29.9814 2.03859 29.9913 1.9008 29.9808C1.86296 29.978 1.75339 29.969 1.61958 29.9335C1.55434 29.9162 1.42207 29.877 1.27095 29.7927C1.1381 29.7186 0.826104 29.5191 0.637036 29.1074C0.411177 28.6156 0.496566 28.1318 0.659708 27.8069C0.795636 27.5361 0.978398 27.3771 1.05447 27.3151C1.21227 27.1866 1.36112 27.1205 1.39844 27.104L1.40024 27.1031C5.74964 25.1701 9.36287 23.7087 14.6154 24.4332C16.1267 24.6417 17.5439 25.1074 18.8683 25.7463C20.7769 25.8842 22.6851 26.1816 24.5725 26.7101C25.9845 27.1054 27.5213 27.432 29.1538 27.7736C29.2341 27.7904 29.3146 27.8072 29.3953 27.8241C30.9389 28.1469 32.5586 28.4855 34.1496 28.9022C36.3809 29.4866 38.6445 30.245 40.6879 31.4016C40.2131 28.9099 39.7962 26.4005 39.4476 23.8901C38.7693 19.0064 38.2839 12.5165 40.4993 7.4527C40.6685 7.06602 40.841 6.69091 41.0089 6.32581C41.4701 5.32288 41.8966 4.39547 42.124 3.51122C42.2215 3.13172 42.3131 2.8023 42.4005 2.57002C42.4243 2.50684 42.4567 2.42653 42.4985 2.34215C42.5305 2.27763 42.6131 2.11622 42.76 1.95336C42.8489 1.85478 43.3684 1.30192 44.2053 1.47614C44.9592 1.63308 45.2402 2.24701 45.2822 2.33872L45.2835 2.34145C45.4085 2.61391 45.4338 2.88962 45.44 2.95749C45.4403 2.96082 45.4405 2.96365 45.4408 2.96596C45.4524 3.08649 45.4579 3.21589 45.4611 3.33411C45.4671 3.55729 45.467 3.84224 45.467 4.14403V4.20412C45.467 11.5041 47.7554 18.5573 50.0836 25.7329C50.2169 26.1438 50.3504 26.5551 50.4836 26.9669C53.3708 18.899 59.9737 12.347 66.063 7.20909C67.678 5.84651 69.8783 4.187 72.2527 2.85998C74.5917 1.55267 77.2728 0.46875 79.8039 0.46875C80.1114 0.46875 80.4459 0.493191 80.7637 0.583337C81.0611 0.667699 81.5583 0.871581 81.8808 1.39148C82.2372 1.96587 82.1573 2.55209 82.033 2.90675C81.9173 3.23699 81.7284 3.49123 81.5954 3.64989C81.0954 4.24599 80.2408 4.80012 79.8764 5.02278C78.472 5.88103 77.297 7.09748 76 8.44028C75.7728 8.67551 75.5418 8.91461 75.3052 9.15634C71.6191 12.9226 68.8805 18.5172 67.447 23.6938C66.7827 26.0924 66.386 31.2626 66.1631 35.3503C66.0768 36.9345 66.0183 38.3103 65.9788 39.2411C65.9683 39.4895 65.9591 39.7062 65.9511 39.8867C65.9417 40.0968 65.9335 40.2697 65.9262 40.3847C65.9235 40.4271 65.9181 40.5127 65.9076 40.5911C65.9049 40.611 65.8974 40.6659 65.8822 40.7331C65.8753 40.7638 65.8582 40.836 65.8257 40.9241L65.8252 40.9255C65.817 40.95 65.707 41.2766 65.3949 41.5448C65.1793 41.6991 64.5896 41.8972 64.2291 41.8953C63.9092 41.8185 63.4384 41.544 63.2836 41.3898C63.0657 41.1386 62.9905 40.8757 62.98 40.8391C62.9796 40.8376 62.9792 40.8365 62.979 40.8357C62.9389 40.7017 62.9268 40.5891 62.9253 40.5766C62.9098 40.4483 62.9082 40.2537 62.9071 40.1281L62.9069 40.1067C62.9053 39.9247 62.9047 39.6677 62.9047 39.3314C62.9047 39.1519 62.9362 38.9798 62.994 38.8203C63.0332 37.9019 63.0891 36.6264 63.1676 35.187C63.3846 31.2071 63.7862 25.6721 64.5558 22.8932C66.0798 17.3898 69.0189 11.2903 73.1612 7.05796C73.3659 6.84887 73.5756 6.63088 73.7909 6.40714C74.3874 5.78732 75.0263 5.12335 75.7165 4.48204C75.0612 4.76585 74.3913 5.10147 73.7163 5.47872ZM79.3037 1.71323C79.3039 1.71321 79.3019 1.71594 79.2973 1.72148C79.3012 1.71601 79.3035 1.71325 79.3037 1.71323ZM51.8056 32.6457C51.8083 32.6553 51.8111 32.6649 51.8138 32.6745C51.8135 32.6733 51.813 32.6717 51.8125 32.6697C51.811 32.6644 51.8088 32.6563 51.8056 32.6457ZM41.4357 34.5302C41.4383 34.5574 41.4354 34.5517 41.4347 34.5212C41.4351 34.5248 41.4355 34.5278 41.4357 34.5302ZM43.5224 33.4324C43.5408 33.4459 43.5503 33.4545 43.5503 33.4553C43.5503 33.4561 43.5412 33.4494 43.5224 33.4324ZM1.97787 26.9871C1.97821 26.987 1.98365 26.9867 1.99321 26.9863C1.98232 26.9871 1.97754 26.9873 1.97787 26.9871ZM2.62725 29.8408C2.62439 29.842 2.62152 29.8433 2.61866 29.8446L2.62085 29.8436C2.62264 29.8428 2.62478 29.8419 2.62725 29.8408Z" fill="#9747FF"/>
<path fill-rule="evenodd" clip-rule="evenodd" d="M57.9858 38.4866C62.6523 36.1533 68.3827 37.0566 72.6774 38.8323C76.6797 40.4871 81.3519 43.6864 82.8987 48.4677C84.4132 53.1487 82.9076 57.7997 80.2233 61.3788C72.0691 72.2511 57.4911 75.6971 44.8644 74.2817C40.3372 73.7743 36.8281 71.3383 34.4137 67.694C32.4299 64.6996 32.7128 61.2152 33.4265 58.2953C35.8033 48.572 43.6454 42.9148 52.5929 41.8848C52.9969 41.6171 53.4036 41.3396 53.82 41.0551L53.8567 41.03C55.1162 40.1693 56.469 39.245 57.9858 38.4866ZM53.6293 44.7898C55.4037 44.6424 57.2332 44.6987 59.0794 44.9673C59.8992 45.0865 60.6604 44.5186 60.7797 43.6988C60.8989 42.879 60.331 42.1177 59.5112 41.9985C59.0468 41.9309 58.5823 41.8755 58.1185 41.832C58.5141 41.5978 58.9149 41.3761 59.3274 41.1699C62.8778 39.3947 67.6065 39.982 71.5312 41.6047C75.2376 43.1372 78.9029 45.8627 80.0444 49.3911C81.1709 52.8729 80.1178 56.5195 77.8233 59.5788C70.5383 69.2921 57.2188 72.6478 45.1986 71.3004C41.6609 70.9039 38.9011 69.0354 36.9147 66.0371C35.6381 64.1102 35.6875 61.6801 36.3407 59.0077C38.0537 52.0001 43.1055 47.3611 49.4021 45.5569C49.8072 46.205 50.6465 46.4506 51.344 46.1019C52.1485 45.6996 52.9068 45.2509 53.6293 44.7898Z" fill="#9747FF"/>
</svg>
